<?xml version="1.0" standalone="no"?>
<!DOCTYPE svg PUBLIC "-//W3C//DTD SVG 1.1//EN" "http://www.w3.org/Graphics/SVG/1.1/DTD/svg11.dtd" >
<svg xmlns="http://www.w3.org/2000/svg" xmlns:xlink="http://www.w3.org/1999/xlink" version="1.1">
<metadata></metadata>
<defs>
<font id="mullerhairline_italic" horiz-adv-x="1251" >
<font-face units-per-em="2048" ascent="1597" descent="-451" />
<missing-glyph horiz-adv-x="565" />
<glyph horiz-adv-x="0" />
<glyph horiz-adv-x="682" />
<glyph unicode=" "  horiz-adv-x="565" />
<glyph unicode="&#x09;" horiz-adv-x="565" />
<glyph unicode="&#xa0;" horiz-adv-x="565" />
<glyph unicode="!" horiz-adv-x="378" d="M160 328h-21l176 1106h21zM133 18q-3 -11 -13 -19.5t-22 -8.5q-14 0 -21.5 10t-4.5 23q2 10 12 19t20 9q15 0 23 -9.5t6 -23.5z" />
<glyph unicode="&#x22;" horiz-adv-x="462" d="M410 1188h-17l39 246h25zM246 1188h-17l39 246h25z" />
<glyph unicode="#" horiz-adv-x="1323" d="M117 0h-23l158 399h-197l4 21h201l219 555h-229l2 20h235l158 400h23l-158 -400h569l158 400h23l-158 -400h194l-2 -20h-198l-219 -555h227l-4 -21h-234l-157 -399h-23l158 399h-570zM504 975l-219 -555h567l219 555h-567z" />
<glyph unicode="$" horiz-adv-x="1163" d="M475 -266h-20l37 246q-125 5 -242 35t-201 83l2 21q96 -56 218 -87.5t243 -31.5q89 0 169 17.5t150 53.5t117 99t60 147q11 75 -11 134.5t-69.5 98t-111.5 70t-136.5 55.5t-144.5 48.5t-136 56t-110.5 71t-68 99t-9.5 135.5q13 81 64.5 145.5t124.5 103.5t155.5 59 t165.5 20l37 246h20l-37 -246q207 -7 361 -96l-4 -21q-78 45 -180.5 71t-200.5 26q-78 0 -155.5 -18.5t-147.5 -54.5t-120 -98t-63 -141q-12 -72 10 -129t69 -94t111 -67t136.5 -54.5t144.5 -49t136 -57t111 -73.5t69 -103t10 -141q-13 -87 -63 -153.5t-123 -105t-156.5 -57 t-173.5 -17.5z" />
<glyph unicode="%" horiz-adv-x="1777" d="M369 -123h-25l1104 1679h25zM756 1159q-21 -133 -117.5 -205.5t-216.5 -72.5q-118 0 -196 79.5t-56 215.5q21 133 117.5 205.5t218.5 72.5q55 0 104.5 -19.5t86.5 -55.5t53.5 -93t5.5 -127zM188 1171q-19 -124 52 -197t180 -73q115 0 205.5 68t111.5 194 q19 124 -51.5 197.5t-177.5 73.5q-117 0 -208 -68t-112 -195zM1649 258q-22 -133 -119 -205.5t-215 -72.5q-56 0 -106 19t-87.5 55t-54.5 93t-6 127q21 134 117 206.5t219 72.5q117 0 194.5 -79.5t57.5 -215.5zM1081 270q-10 -63 5 -115.5t48.5 -85.5t79.5 -51t97 -18 q115 0 205.5 68t111.5 194q19 124 -51.5 197t-177.5 73q-117 0 -208 -68t-110 -194z" />
<glyph unicode="&#x26;" horiz-adv-x="1374" d="M1038 223l217 -223h-26l-205 209q-106 -106 -245.5 -167.5t-305.5 -61.5q-209 0 -314.5 99t-82.5 249q9 57 36.5 110.5t64 95.5t91 84.5t104.5 74.5t117 69q-180 201 -153 364q22 133 143 230.5t303 97.5q148 0 232 -75.5t65 -194.5q-5 -33 -22.5 -65t-39 -58t-59 -55.5 t-68 -50t-82.5 -49.5t-86 -46.5t-93.5 -48t-91.5 -47.5l-15 -8q14 -15 41 -43t39 -41l422 -434q163 172 201 397h20q-38 -231 -207 -412zM784 1434q-177 0 -292.5 -92t-135.5 -220q-24 -154 152 -350q3 1 8 4t8 4l83 41.5t84 42.5t77 40.5t75 43t64 42.5t58.5 46t43.5 46.5 t34 51.5t16 54q17 107 -60 176.5t-215 69.5zM96 324q-21 -138 78.5 -231t296.5 -93q318 0 541 223l-422 434q-8 8 -38 39.5t-48 51.5q-84 -46 -146.5 -88t-120.5 -94t-94 -113t-47 -129z" />
<glyph unicode="'" horiz-adv-x="299" d="M246 1188h-17l39 246h25z" />
<glyph unicode="(" horiz-adv-x="485" d="M580 1655h26q-174 -196 -297 -445t-162 -495q-38 -243 6 -491.5t156 -444.5h-24q-110 200 -153.5 448t-4.5 492q38 241 159.5 489t293.5 447z" />
<glyph unicode=")" horiz-adv-x="483" d="M213 1655h25q110 -199 153 -447.5t4 -492.5q-38 -241 -159 -489.5t-293 -446.5h-27q174 196 297 445t162 495q38 243 -6 491.5t-156 444.5z" />
<glyph unicode="*" horiz-adv-x="858" d="M510 1118l-219 -239l-15 12l218 242l-267 96l11 18l264 -96l45 283h20l-45 -283l297 96l4 -20l-297 -94l140 -242l-19 -12z" />
<glyph unicode="+" horiz-adv-x="1107" d="M586 727h420l-2 -20h-420l-68 -420h-20l67 420h-420l2 20h420l68 420h20z" />
<glyph unicode="," horiz-adv-x="299" d="M-45 -287h-21l168 430h21z" />
<glyph unicode="-" horiz-adv-x="997" d="M135 504h696l-2 -21h-696z" />
<glyph unicode="." horiz-adv-x="290" d="M98 18q-3 -11 -13 -19.5t-22 -8.5q-14 0 -21.5 10t-4.5 23q1 10 11.5 19t21.5 9q15 0 22.5 -9.5t5.5 -23.5z" />
<glyph unicode="/" horiz-adv-x="819" d="M2 -117h-20l872 1667h20z" />
<glyph unicode="0" horiz-adv-x="1443" d="M143 709q26 159 83.5 287.5t145 222t209 144t267.5 50.5q100 0 181.5 -24.5t139 -70.5t98 -111t59 -146t21 -176.5t-15.5 -200.5q-26 -159 -84 -287.5t-145 -222t-208 -144t-267 -50.5q-120 0 -213 35.5t-152 100t-94 155t-39 201t14 237.5zM1311 688q18 123 14.5 230 t-37 194.5t-90 150t-145.5 96.5t-203 34q-190 0 -335 -87t-231 -239.5t-120 -361.5q-18 -123 -14.5 -230t37 -194.5t90 -150t145.5 -96.5t203 -34q190 0 335 87t231 239.5t120 361.5z" />
<glyph unicode="1" horiz-adv-x="798" d="M584 1393h10l-217 -1373h299l-4 -20h-647l4 20h327l213 1346l-348 -123l4 21z" />
<glyph unicode="2" horiz-adv-x="1128" d="M266 1292q206 121 426 121q189 0 299 -91t86 -241q-8 -50 -28.5 -95.5t-43.5 -81t-64.5 -73t-72.5 -62t-87 -58.5t-89.5 -52.5t-97.5 -52.5q-183 -98 -238 -133q-174 -110 -251 -252q-49 -89 -70 -201h895l-4 -20h-916l4 20q15 97 58.5 181t86.5 136.5t130 114 t133.5 87.5t152.5 81q2 1 3 2t3 1.5t3 1.5q62 33 96.5 51.5t89 51t85.5 57t70.5 60.5t62.5 70t42 78t27 92q22 137 -79.5 222.5t-283.5 85.5q-215 0 -432 -123z" />
<glyph unicode="3" horiz-adv-x="1208" d="M1100 1047q-19 -117 -107.5 -208.5t-240.5 -117.5q153 -23 238.5 -115.5t60.5 -245.5q-29 -179 -173 -279.5t-362 -100.5q-286 0 -453 90l3 20q185 -90 448 -90q212 0 349.5 96.5t166.5 268.5q14 86 -11 153.5t-81.5 108.5t-133 62.5t-169.5 21.5h-197l4 20h197 q101 0 182.5 27.5t133.5 74t83 101.5t41 117q23 140 -75 241t-281 101q-126 0 -228 -21.5t-212 -66.5l4 22q205 86 434 86q194 0 298.5 -107.5t80.5 -258.5z" />
<glyph unicode="4" horiz-adv-x="1304" d="M1028 1393h23l-162 -1014h309l-2 -21h-309l-58 -358h-20l57 358h-837l2 17zM868 379l158 983l-963 -983h805z" />
<glyph unicode="5" horiz-adv-x="1183" d="M346 1393h778l-4 -21h-758l-143 -651q189 59 371 59q82 0 153.5 -14.5t131.5 -45.5t100 -77t57 -113t4 -149q-28 -177 -177.5 -289t-366.5 -112q-122 0 -238 25t-195 69l2 20q186 -94 428 -94q212 0 355.5 106.5t171.5 278.5q15 95 -12 168.5t-87.5 117.5t-142.5 66.5 t-182 22.5q-195 0 -399 -68z" />
<glyph unicode="6" horiz-adv-x="1230" d="M1128 1319q-117 74 -268 74q-583 0 -702 -748q-2 -11 -5.5 -36t-5.5 -38q121 121 270.5 190.5t295.5 69.5q90 0 165.5 -26t132 -76t81 -133t8.5 -188q-21 -131 -98 -229.5t-188 -148.5t-239 -50q-262 0 -374 178.5t-64 490.5q64 396 250 580t471 184q158 0 275 -74z M1079 412q16 99 -6.5 176.5t-75 125.5t-124.5 72.5t-158 24.5q-148 0 -300 -72.5t-270 -197.5q-18 -255 90.5 -398t337.5 -143q192 0 334 110.5t172 301.5z" />
<glyph unicode="7" horiz-adv-x="1034" d="M203 1393h911l-2 -13l-887 -1380h-24l882 1372h-884z" />
<glyph unicode="8" horiz-adv-x="1310" d="M1147 326q-22 -140 -174 -243t-389 -103q-134 0 -236 33t-161.5 90.5t-84.5 131t-12 156.5q39 250 359 393q-108 49 -160.5 120.5t-34.5 182.5q10 63 49 120.5t103.5 104t162.5 74t215 27.5q115 0 204.5 -32.5t140 -86.5t71.5 -119t10 -133q-35 -215 -315 -380 q64 -24 110.5 -51.5t85 -67t53 -94.5t3.5 -123zM111 387q-12 -77 11.5 -146t79 -123.5t153.5 -86t227 -31.5q232 0 377 97.5t167 232.5q9 59 -1.5 106.5t-40.5 83t-68 62t-94.5 49t-107 38.5t-119.5 35q-4 1 -6.5 1.5t-6 1.5t-6.5 2q-144 40 -205 65q-151 -63 -245.5 -162.5 t-114.5 -224.5zM676 727q117 -32 196 -57q282 160 318 377q10 63 -10 123.5t-67.5 110.5t-132.5 81t-194 31q-114 0 -208.5 -26t-157 -70t-99.5 -98.5t-47 -115.5q-9 -55 2 -101t39 -79t64 -59t83.5 -45.5t90 -34t91.5 -28.5q7 -2 11 -3t10 -3t11 -3z" />
<glyph unicode="9" horiz-adv-x="1228" d="M162 985q21 131 98 229.5t187.5 148.5t238.5 50q260 0 373 -179.5t65 -490.5q-32 -202 -98 -350t-160.5 -238t-209 -132.5t-253.5 -42.5q-159 0 -274 73l4 21q117 -74 268 -74q584 0 703 748q2 12 5 36.5t5 36.5q-121 -121 -270 -190.5t-295 -69.5q-91 0 -167.5 26 t-132 76.5t-79.5 133t-8 188.5zM182 981q-16 -99 7 -176.5t75.5 -125.5t124.5 -72.5t158 -24.5q148 0 299.5 72.5t269.5 197.5q18 255 -90.5 398t-337.5 143q-192 0 -334 -110.5t-172 -301.5z" />
<glyph unicode=":" horiz-adv-x="362" d="M252 838q-2 -11 -11.5 -20t-21.5 -9q-13 0 -22 9.5t-7 23.5q1 10 11.5 19t21.5 9q15 0 23 -9t6 -23zM123 18q-3 -11 -13 -19.5t-22 -8.5q-14 0 -22 10t-5 23q1 10 11.5 19t21.5 9q15 0 23 -9.5t6 -23.5z" />
<glyph unicode=";" horiz-adv-x="198" d="M-102 -287h-21l168 430h21zM188 930q-2 -11 -11 -20t-21 -9q-13 0 -22 9.5t-7 23.5q1 10 12.5 19.5t22.5 9.5q14 0 21 -9.5t5 -23.5z" />
<glyph unicode="&#x3c;" horiz-adv-x="999" d="M791 393l-5 -22l-665 336l4 22l770 334l-2 -25l-748 -321z" />
<glyph unicode="=" horiz-adv-x="1101" d="M983 891h-778l4 20h778zM926 522h-779l3 21h778z" />
<glyph unicode="&#x3e;" horiz-adv-x="995" d="M909 705l-772 -334l4 24l748 322l-645 323l2 23l667 -336z" />
<glyph unicode="?" horiz-adv-x="1003" d="M455 373h-21q12 78 67.5 157.5t128 148.5l145 138t129 151.5t69.5 164.5q22 137 -76.5 219t-286.5 82q-202 0 -413 -117l4 22q203 115 409 115q195 0 300.5 -88.5t80.5 -237.5q-10 -61 -42.5 -121.5t-77 -113t-97.5 -104t-105 -102t-97 -100t-76.5 -105t-40.5 -109.5z M420 18q-3 -11 -13 -19.5t-22 -8.5q-14 0 -22 10t-5 23q1 10 11.5 19t21.5 9q15 0 23 -9.5t6 -23.5z" />
<glyph unicode="@" horiz-adv-x="2170" d="M96 504q24 148 87 287.5t165.5 259.5t233.5 210t300 141.5t355 51.5q100 0 190.5 -17.5t164.5 -49.5t139.5 -77t114.5 -99t89.5 -116t64.5 -128.5t39.5 -135.5t15 -137.5t-8.5 -134.5q-41 -264 -159.5 -401.5t-274.5 -137.5q-127 0 -189 73.5t-39 211.5 q-68 -105 -175.5 -170t-231.5 -65q-173 0 -268.5 114t-65.5 305q30 188 160 302t301 114q127 0 216 -66.5t122 -174.5l35 223h20l-96 -598q-17 -116 37 -182t172 -66q149 0 262.5 132t152.5 390q8 64 8.5 130.5t-14.5 134t-38 132t-62.5 124.5t-87 113t-111 96.5 t-135.5 74.5t-161 48.5t-187 17.5q-183 0 -348.5 -50.5t-294 -138.5t-229 -206t-162.5 -255t-86 -284q-28 -176 1.5 -329.5t106.5 -266t191 -193.5t255.5 -121.5t299.5 -40.5q258 0 473 74l-4 -20q-213 -74 -467 -74q-162 0 -307.5 41t-262.5 124t-196 198t-109.5 272.5 t-1.5 339.5zM1434 616q-21 117 -109.5 193t-218.5 76q-165 0 -289 -108.5t-153 -291.5q-29 -181 60 -288t251 -107q131 0 245 76t173 192z" />
<glyph unicode="A" horiz-adv-x="1441" d="M1309 0h-23l-143 465h-883l-291 -465h-24l895 1434h28zM836 1389l-564 -904h867l-279 904q-7 21 -8 26q-2 -5 -8 -14z" />
<glyph unicode="B" horiz-adv-x="1372" d="M354 1434h498q105 0 186.5 -21t140.5 -63t83.5 -112t9.5 -163q-23 -145 -121.5 -223.5t-243.5 -97.5q53 -8 98 -21.5t91.5 -42t77 -68t44.5 -101.5t3 -140q-12 -71 -40.5 -128.5t-65.5 -96.5t-87.5 -68t-100 -45.5t-110 -26.5t-110 -13t-107.5 -3h-473zM1200 385 q10 52 4 94.5t-17.5 76.5t-34.5 60.5t-47.5 46t-57.5 33.5t-63 23t-64.5 14.5t-62.5 7.5t-56 2h-535l-114 -723h452q56 0 103.5 3t106 12.5t106 25t96 43.5t84 65t62.5 92.5t38 123.5zM1253 1079q18 115 -29 191t-142 109.5t-234 33.5h-477l-103 -649h559q73 0 141 18 t128 54t102 98.5t55 144.5z" />
<glyph unicode="C" horiz-adv-x="1333" d="M131 719q19 122 66 228.5t112 185.5t145 141.5t168.5 101t179 58.5t179.5 20q220 0 375 -100l-4 -21q-150 101 -371 101q-105 0 -210.5 -27t-207.5 -85t-184.5 -141t-143 -203t-83.5 -263t-0.5 -257t78.5 -200t138.5 -143t180 -86t203.5 -29q216 0 415 102l-4 -20 q-187 -102 -409 -102q-109 0 -209.5 29t-186 89.5t-144.5 146.5t-82.5 208.5t-0.5 265.5z" />
<glyph unicode="D" horiz-adv-x="1490" d="M354 1434h383q192 0 332.5 -54t218.5 -151t105 -227t2 -287q-24 -156 -91 -285t-174 -226t-263.5 -150.5t-348.5 -53.5h-391zM1376 719q24 152 -2 277t-101.5 219t-211 146t-320.5 52h-370l-219 -1393h370q185 0 337 52t257 146.5t170.5 221t89.5 279.5z" />
<glyph unicode="E" horiz-adv-x="1294" d="M354 1434h924l-4 -21h-903l-107 -682h842l-4 -20h-842l-108 -691h915l-4 -20h-936z" />
<glyph unicode="F" horiz-adv-x="1224" d="M354 1434h926l-4 -21h-905l-109 -694h846l-4 -21h-846l-111 -698h-20z" />
<glyph unicode="G" horiz-adv-x="1458" d="M139 739q24 151 88 274t150 203.5t194 135.5t216 78.5t219 23.5q226 0 395 -94l-2 -21q-77 45 -182.5 70t-210.5 25q-109 0 -215.5 -23.5t-211.5 -77t-189.5 -132.5t-146.5 -199t-85 -267q-25 -151 -1 -270t81.5 -206.5t145 -145t189.5 -85.5t215 -28q231 0 433 94 l102 649h20l-106 -665q-213 -98 -446 -98q-116 0 -221.5 29t-196 88t-150.5 149.5t-85 213.5t1 279z" />
<glyph unicode="H" horiz-adv-x="1568" d="M1460 1434h21l-228 -1434h-20l113 711h-1086l-113 -711h-20l227 1434h21l-111 -703h1086z" />
<glyph unicode="I" horiz-adv-x="462" d="M354 1434h21l-228 -1434h-20z" />
<glyph unicode="J" horiz-adv-x="1079" d="M500 1434h506l-168 -1065q-30 -194 -156.5 -291.5t-329.5 -97.5q-220 0 -356 88l4 20q136 -88 350 -88q198 0 318 92.5t149 276.5l166 1044h-487z" />
<glyph unicode="K" horiz-adv-x="1331" d="M1368 1434h25l-641 -701l475 -733h-27l-467 727h-471l-115 -727h-20l227 1434h21l-109 -686h473z" />
<glyph unicode="L" horiz-adv-x="1165" d="M354 1434h21l-223 -1414h897l-5 -20h-917z" />
<glyph unicode="M" horiz-adv-x="1839" d="M1739 1434h12l-227 -1434h-21l219 1384l-817 -964h-18l-518 969l-222 -1389h-20l227 1434h13l532 -992z" />
<glyph unicode="N" horiz-adv-x="1568" d="M147 0h-20l227 1434h15l870 -1395q2 16 7 45t7 45l207 1305h21l-228 -1434h-14l-870 1397q-2 -15 -7.5 -44.5t-7.5 -45.5z" />
<glyph unicode="O" horiz-adv-x="1691" d="M1602 715q-17 -107 -63.5 -212t-123.5 -199.5t-174.5 -166.5t-224.5 -114.5t-266 -42.5q-91 0 -171 17.5t-142 48.5t-115 75t-88.5 96.5t-62.5 113t-37.5 124.5t-13.5 131t9 133q17 107 63.5 212t123.5 199.5t174.5 166.5t224.5 114.5t266 42.5q91 0 171 -17.5t142 -48.5 t115 -75t88.5 -96.5t62.5 -113t37.5 -124.5t13.5 -131t-9 -133zM150 715q-9 -74 -8.5 -147.5t21 -144t51.5 -133.5t83 -116t116 -92t150.5 -60.5t186.5 -21.5q137 0 262 42t220 112.5t169.5 163.5t119 195t60.5 206q9 74 8.5 147.5t-21 144t-51.5 133.5t-83 116t-116 92 t-150.5 60.5t-186.5 21.5q-137 0 -262 -42t-220 -112.5t-169.5 -163.5t-119 -195t-60.5 -206z" />
<glyph unicode="P" horiz-adv-x="1335" d="M354 1434h424q101 0 184 -12.5t157.5 -44t121.5 -80.5t67.5 -127t4.5 -179q-70 -438 -664 -438h-413l-89 -553h-20zM1292 995q15 95 -4 168.5t-63 120t-114.5 76t-150 41.5t-176.5 12h-413l-133 -840h413q576 0 641 422z" />
<glyph unicode="Q" horiz-adv-x="1691" d="M1477 -102l-17 -15l-215 256q-224 -159 -495 -159q-91 0 -171 17.5t-142 48.5t-115 75t-88.5 96.5t-62.5 113t-37.5 124.5t-13.5 131t9 133q17 107 63.5 212t123.5 199.5t174.5 166.5t224.5 114.5t266 42.5q91 0 171 -17.5t142 -48.5t115 -75t88.5 -96.5t62.5 -113 t37.5 -124.5t13.5 -131t-9 -133q-25 -158 -113.5 -307.5t-226.5 -255.5zM150 715q-9 -74 -8.5 -147.5t21 -144t51.5 -133.5t83 -116t116 -92t150.5 -60.5t186.5 -21.5q266 0 483 156l-295 348l16 14l295 -350q135 103 221.5 250.5t110.5 300.5q9 74 8.5 147.5t-21 144 t-51.5 133.5t-83 116t-116 92t-150.5 60.5t-186.5 21.5q-137 0 -262 -42t-220 -112.5t-169.5 -163.5t-119 -195t-60.5 -206z" />
<glyph unicode="R" horiz-adv-x="1388" d="M147 0h-20l227 1434h525q72 0 139 -13.5t128.5 -45t104 -78t61.5 -118t5 -159.5q-14 -85 -52.5 -154.5t-91.5 -115t-120.5 -77.5t-136 -46.5t-140.5 -16.5l467 -610h-24l-467 610h-508zM371 1413l-123 -782h512q87 0 170.5 21t161.5 65t133 123t71 184q17 104 -13 182 t-94 121.5t-141 64.5t-165 21h-512z" />
<glyph unicode="S" horiz-adv-x="1150" d="M207 1126q11 69 47.5 125.5t87 93.5t114 62t127.5 36t130 11q222 0 385 -96l-2 -21q-159 97 -383 97q-82 0 -159 -17.5t-147 -53t-118.5 -97.5t-61.5 -144q-12 -76 10 -135t68.5 -98.5t110.5 -71t136 -57.5l144 -52t135.5 -60.5t110 -77.5t68 -108.5t8.5 -148.5 q-13 -88 -61 -154t-119.5 -104.5t-155.5 -57t-178 -17.5q-128 0 -252 31.5t-213 86.5l2 21q204 -119 461 -119q91 0 171 17t149.5 52.5t115.5 98.5t59 147q12 81 -9.5 144t-68.5 104.5t-110.5 74.5t-135.5 59t-143.5 51.5t-135 58t-110 74t-68 103.5t-9.5 142z" />
<glyph unicode="T" horiz-adv-x="1204" d="M162 1434h1147l-4 -21h-564l-223 -1413h-20l223 1413h-563z" />
<glyph unicode="U" horiz-adv-x="1531" d="M1442 1434h20l-149 -949q-79 -505 -641 -505q-82 0 -151 11.5t-130 36t-104 64t-72.5 96t-35.5 130t7 167.5l150 949h20l-149 -949q-12 -90 -7 -161.5t33 -125.5t68.5 -91.5t98.5 -61t124.5 -34.5t145.5 -11q546 0 622 485z" />
<glyph unicode="V" horiz-adv-x="1380" d="M604 0h-18l-408 1434h23l397 -1407l846 1407h24z" />
<glyph unicode="W" horiz-adv-x="1996" d="M2050 1434h23l-689 -1434h-20l-236 1380l-682 -1380h-20l-233 1434h20l227 -1401l682 1380h21l235 -1378z" />
<glyph unicode="X" horiz-adv-x="1218" d="M-41 0h-27l689 737l-431 697h23l422 -682l637 682h26l-653 -701l453 -733h-23l-444 719z" />
<glyph unicode="Y" horiz-adv-x="1261" d="M547 0h-21l95 592l-431 842h23l420 -820l680 820h26l-698 -842z" />
<glyph unicode="Z" horiz-adv-x="1144" d="M997 0h-1052l2 16l1235 1397h-969l4 21h997l-2 -17l-1235 -1397h1024z" />
<glyph unicode="[" horiz-adv-x="454" d="M293 -225h-258l297 1884h258l-2 -21h-238l-293 -1843h238z" />
<glyph unicode="\" horiz-adv-x="804" d="M606 -117h-20l-344 1667h20z" />
<glyph unicode="]" horiz-adv-x="452" d="M162 -225h-258l2 20h237l293 1843h-237l2 21h258z" />
<glyph unicode="^" horiz-adv-x="976" d="M197 840h-25l444 594h21l256 -594h-23l-245 573z" />
<glyph unicode="_" horiz-adv-x="862" d="M727 -248h-860l4 21h860z" />
<glyph unicode="`" horiz-adv-x="327" d="M477 1597h-22l-138 267h23z" />
<glyph unicode="a" d="M1006 274q-80 -129 -215.5 -211.5t-290.5 -82.5q-212 0 -329.5 143.5t-80.5 380.5q25 154 109.5 269t203.5 173t254 58q149 0 263.5 -86.5t152.5 -217.5l45 283h21l-156 -983h-20zM111 500q-36 -226 74.5 -363t312.5 -137q163 0 304.5 94t211.5 234l51 321 q-25 142 -139 238t-269 96q-201 0 -355.5 -129.5t-190.5 -353.5z" />
<glyph unicode="b" d="M309 1434h21l-115 -729q80 131 219 215t289 84q95 0 177.5 -37.5t140.5 -104t83 -166.5t6 -217q-25 -155 -106.5 -269t-200 -172t-258.5 -58q-156 0 -266.5 85.5t-148.5 225.5l-48 -291h-20zM1110 483q18 112 -5.5 207t-78 158.5t-133 99t-170.5 35.5q-161 0 -303 -95.5 t-215 -240.5l-49 -311q27 -146 136.5 -241t270.5 -95q208 0 359.5 128.5t187.5 354.5z" />
<glyph unicode="c" horiz-adv-x="1009" d="M84 494q16 104 61 191t106.5 144.5t136.5 98t151 58.5t151 18q168 0 275 -80l-4 -21q-51 40 -124 60t-147 20q-94 0 -185.5 -29t-175 -86.5t-144.5 -155.5t-81 -223q-19 -119 6 -214t84.5 -154t140.5 -90t177 -31q188 0 328 80l-2 -23q-140 -77 -324 -77 q-99 0 -183.5 31.5t-147.5 92.5t-90.5 162t-8.5 228z" />
<glyph unicode="d" d="M1190 1434h20l-227 -1434h-20l45 279q-81 -132 -218 -215.5t-290 -83.5q-207 0 -327 144.5t-83 379.5q25 155 108 269.5t201.5 172.5t257.5 58q155 0 266.5 -86.5t149.5 -225.5zM1065 647q-26 146 -136.5 241t-271.5 95q-207 0 -358.5 -128t-187.5 -355 q-36 -223 77 -361.5t310 -138.5q164 0 305.5 95t212.5 241z" />
<glyph unicode="e" horiz-adv-x="1110" d="M88 494q19 118 71.5 215.5t126.5 161.5t164 98.5t185 34.5q84 0 151.5 -24t111 -65t72.5 -94.5t39 -113t6.5 -119t-20.5 -115.5h-889q-14 -98 4 -178t58.5 -134t100.5 -91t128.5 -53.5t143.5 -16.5q185 0 331 78l-4 -23q-138 -75 -325 -75q-80 0 -152 18.5t-136.5 57.5 t-106 99.5t-60.5 145t0 193.5zM979 494q14 54 16 110t-8.5 111t-38.5 103.5t-69 85t-104 58t-140 21.5q-122 0 -230.5 -55t-188.5 -168t-107 -266h870z" />
<glyph unicode="f" horiz-adv-x="704" d="M307 1165q25 151 117 220t231 69q128 0 224 -49l-5 -21q-89 50 -219 50q-133 0 -219 -65t-108 -204l-29 -182h453l-2 -20h-453l-154 -963h-20l153 963h-163l2 20h164z" />
<glyph unicode="g" horiz-adv-x="1253" d="M983 0q-16 -102 -57 -183t-96.5 -134t-127 -88.5t-146 -50.5t-155.5 -15q-200 0 -348 94l4 21q150 -95 342 -95q79 0 151 14.5t141 48t123 84.5t94 128.5t55 175.5l45 279q-81 -132 -218 -215.5t-290 -83.5q-105 0 -189.5 37t-140 104t-77.5 166t-3 217q25 155 108 269.5 t201.5 172.5t257.5 58q154 0 265.5 -86t150.5 -226l45 291h21zM111 500q-36 -226 73.5 -363t313.5 -137q164 0 305.5 95t212.5 241l49 311q-26 146 -136.5 241t-271.5 95q-204 0 -357 -128.5t-189 -354.5z" />
<glyph unicode="h" horiz-adv-x="1169" d="M309 1434h21l-111 -691q36 45 80 86.5t104.5 83t136.5 66.5t154 25q160 0 251 -108t63 -292l-97 -604h-20l96 604q28 176 -56 277.5t-237 101.5q-102 0 -201 -45.5t-166 -105.5t-114 -130l-111 -702h-20z" />
<glyph unicode="i" horiz-adv-x="389" d="M111 0h-21l156 983h20zM324 1249q-1 -10 -10 -16t-17 -6q-26 0 -23 26q1 10 10 16.5t17 6.5q26 0 23 -27z" />
<glyph unicode="j" horiz-adv-x="389" d="M72 -252q-19 -119 -86 -169t-174 -50q-77 0 -138 22l4 21q64 -23 132 -23q100 0 161.5 45t79.5 154l195 1235h20zM324 1249q-1 -10 -10 -16t-17 -6q-26 0 -23 26q1 10 10 16.5t17 6.5q26 0 23 -27z" />
<glyph unicode="k" horiz-adv-x="985" d="M952 983h27l-494 -475l398 -508h-25l-393 502h-283l-80 -502h-20l227 1434h21l-146 -912h289z" />
<glyph unicode="l" horiz-adv-x="389" d="M328 1495h20l-237 -1495h-21z" />
<glyph unicode="m" horiz-adv-x="1830" d="M952 762q35 42 78 81.5t99.5 77t124 60.5t135.5 23q148 0 229.5 -100t56.5 -255l-102 -649h-21l103 645q24 146 -48.5 242t-217.5 96q-129 0 -242 -73t-193 -175q3 -35 -4 -86l-102 -649h-21l103 645q24 146 -48.5 242t-217.5 96q-134 0 -253 -80.5t-196 -187.5 l-113 -715h-20l156 983h20l-37 -231q77 99 194.5 175.5t248.5 76.5q119 0 196.5 -66t91.5 -176z" />
<glyph unicode="n" horiz-adv-x="1169" d="M219 743q36 45 80 86.5t104.5 83t136.5 66.5t154 25q160 0 251 -108t63 -292l-97 -604h-20l96 604q28 176 -56 277.5t-237 101.5q-102 0 -201 -45.5t-166 -105.5t-114 -130l-111 -702h-20l156 983h20z" />
<glyph unicode="o" horiz-adv-x="1210" d="M1092 479q-19 -118 -75 -214t-136 -157.5t-175 -94.5t-194 -33q-95 0 -179.5 36.5t-146 102t-89 166t-9.5 219.5q15 95 55 176.5t96.5 140t127 100.5t147.5 62.5t156 20.5q76 0 145.5 -22.5t126.5 -68t96 -107.5t54 -146.5t0 -180.5zM109 500q-18 -113 8 -209 t83.5 -158.5t138 -97.5t171.5 -35q97 0 189 32t169 91t131 152t72 208q18 113 -8 209t-83.5 158.5t-138 97.5t-171.5 35q-97 0 -189 -32t-169 -91t-131 -152t-72 -208z" />
<glyph unicode="p" d="M213 702q82 133 220 217.5t290 84.5q98 0 181 -37.5t140 -104t81 -166t5 -217.5q-25 -155 -106.5 -269t-200 -172t-258.5 -58q-156 0 -267.5 85t-150.5 222l-116 -738h-21l228 1434h20zM1110 483q18 112 -4 206.5t-75.5 158.5t-133 99.5t-174.5 35.5q-159 0 -302.5 -95.5 t-215.5 -240.5l-49 -311q27 -146 136.5 -241t270.5 -95q207 0 359 128t188 355z" />
<glyph unicode="q" d="M90 504q25 154 109.5 269t203.5 173t254 58q149 0 263.5 -86.5t152.5 -217.5l45 283h21l-228 -1434h-20l115 725q-80 -129 -215.5 -211.5t-290.5 -82.5q-212 0 -329.5 143.5t-80.5 380.5zM1065 649q-25 142 -139 238t-269 96q-201 0 -355.5 -129.5t-190.5 -353.5 q-36 -226 74.5 -363t312.5 -137q163 0 304.5 94t211.5 234z" />
<glyph unicode="r" horiz-adv-x="679" d="M205 649q47 95 117 172.5t174.5 130t220.5 52.5l-4 -21q-92 0 -178.5 -36t-151.5 -95t-113 -128.5t-75 -143.5l-93 -580h-20l156 983h20z" />
<glyph unicode="s" horiz-adv-x="927" d="M131 764q14 82 75 138t139.5 79t168.5 23q91 0 175.5 -23.5t141.5 -62.5l-2 -21q-54 39 -140 62.5t-175 23.5q-63 0 -121.5 -12.5t-110 -38.5t-86.5 -70t-44 -102q-9 -56 9 -98t55 -68t87.5 -46t107.5 -34.5t114 -29.5t107.5 -36t87.5 -49t55 -72.5t9 -103.5 q-19 -120 -130.5 -181.5t-262.5 -61.5q-99 0 -200.5 28t-159.5 72l4 20q62 -45 160.5 -72.5t193.5 -27.5q146 0 251.5 56.5t123.5 168.5q11 70 -21 118t-91 74.5t-132.5 46t-147 40.5t-132 49.5t-90 81.5t-19.5 129z" />
<glyph unicode="t" horiz-adv-x="702" d="M313 1311l23 10l-53 -338h450l-2 -20h-450l-113 -701q-20 -125 37.5 -193.5t179.5 -68.5q129 0 219 49l-2 -20q-84 -49 -215 -49t-196 74t-44 208l113 701h-184l2 20h184z" />
<glyph unicode="u" horiz-adv-x="1169" d="M1034 983h21l-156 -983h-20l39 242q-34 -45 -80 -87.5t-106 -83.5t-136 -66t-152 -25q-161 0 -252 107t-63 292l96 604h21l-96 -604q-27 -177 56 -278t236 -101q148 0 278 86t204 199z" />
<glyph unicode="v" horiz-adv-x="1058" d="M1049 983h22l-625 -983h-24l-311 983h20l305 -960z" />
<glyph unicode="w" horiz-adv-x="1628" d="M1610 983h22l-545 -983h-16l-201 938l-503 -938h-17l-231 983h20l223 -948l500 928h23l198 -930z" />
<glyph unicode="x" horiz-adv-x="983" d="M-29 0h-28l522 506l-342 477h24l332 -463l479 463h29l-495 -479l360 -504h-25l-350 489z" />
<glyph unicode="y" horiz-adv-x="1081" d="M479 18l588 965h25l-715 -1171q-98 -157 -176 -220t-172 -63q-49 0 -99 12l2 21q57 -13 95 -13q92 0 168 64t165 211l105 172l-365 987h23z" />
<glyph unicode="z" horiz-adv-x="884" d="M143 983h725l-2 -12l-870 -951h741l-4 -20h-774l2 12l873 951h-693z" />
<glyph unicode="{" horiz-adv-x="495" d="M295 -205l-2 -20q-100 -13 -133 30.5t-17 143.5l86 543q16 101 -34 158t-125 57l2 20q75 0 144 57t85 158l86 543q16 103 63.5 147.5t139.5 26.5l-2 -21q-85 18 -125.5 -21t-54.5 -132l-86 -543q-14 -92 -68.5 -150t-124.5 -77q63 -19 99 -75.5t22 -147.5l-86 -543 q-14 -93 13.5 -130.5t117.5 -23.5z" />
<glyph unicode="|" horiz-adv-x="346" d="M57 -205h-20l295 1864h20z" />
<glyph unicode="}" horiz-adv-x="493" d="M147 -51q-16 -101 -63 -146t-139 -28l2 20q84 -16 125 23t55 131l86 543q14 93 69 150.5t126 74.5q-63 20 -100 76.5t-23 148.5l86 543q15 93 -12 131t-119 22l2 21q97 14 131 -30t18 -144l-86 -543q-16 -103 34 -159t126 -56l-2 -20q-75 0 -144.5 -57t-85.5 -158z" />
<glyph unicode="~" horiz-adv-x="1173" d="M1038 739q-9 -66 -56.5 -108.5t-121.5 -42.5q-51 0 -124.5 23.5t-136 52t-134.5 52t-121 23.5q-67 0 -109 -36.5t-51 -94.5h-20q11 67 58.5 109.5t121.5 42.5q65 0 163 -38t194 -76t157 -38q66 0 109 37t51 94h20z" />
<glyph unicode="&#xa1;" horiz-adv-x="350" d="M18 -440h-20l176 1106h21zM262 971q-2 -11 -11.5 -20t-21.5 -9q-14 0 -21.5 10t-4.5 23q2 11 12.5 20t20.5 9q15 0 22 -9.5t4 -23.5z" />
<glyph unicode="&#xa2;" horiz-adv-x="1048" d="M971 903q-51 40 -124 60t-147 20h-6l-155 -983q178 3 311 80l-2 -23q-133 -74 -313 -77l-35 -226h-21l35 226q-98 2 -180.5 34t-144 93t-88 161t-7.5 226q15 101 58 185.5t101.5 142t131 98.5t146 61t147.5 23l35 225h20l-33 -225q168 0 275 -80zM115 489 q-16 -98 -2 -176t50 -136.5t91 -97.5t122 -58.5t142 -20.5l156 983q-91 -4 -178.5 -35t-167 -89t-136.5 -153.5t-77 -216.5z" />
<glyph unicode="&#xa3;" horiz-adv-x="1249" d="M1053 0h-1065l4 20h61q84 0 137 52t70 155l72 459h-164l4 21h164l39 247q15 100 52.5 179.5t86.5 130.5t111.5 85t126 48t131.5 14q75 0 147 -21.5t123 -58.5l-4 -20q-113 80 -264 80q-66 0 -126.5 -13t-121 -45.5t-108 -81t-83.5 -125t-51 -172.5l-39 -247h543l-4 -21 h-543l-71 -459q-25 -166 -134 -207h910z" />
<glyph unicode="&#xa4;" horiz-adv-x="1171" d="M299 432l-156 -133l-12 14l156 133q-98 109 -72 273q23 158 158 270l-113 131l16 15l113 -134q125 95 275 95q148 0 249 -95l154 134l12 -15l-155 -133q97 -108 71 -272q-23 -162 -155 -271l110 -131l-16 -14l-111 133q-126 -94 -276 -94q-151 0 -248 94zM236 715 q-24 -156 69.5 -256.5t241.5 -100.5q98 0 189 44t156.5 127.5t82.5 189.5q24 155 -69 255.5t-242 100.5q-153 0 -277 -99.5t-151 -260.5z" />
<glyph unicode="&#xa5;" horiz-adv-x="1261" d="M1278 1393h22l-651 -783h389l-4 -20h-399l-35 -221h399l-4 -21h-399l-55 -348h-21l55 348h-399l4 21h400l34 221h-399l4 20h387l-403 783h22l402 -783z" />
<glyph unicode="&#xa6;" horiz-adv-x="387" d="M264 963h-20l108 696h21zM78 -205h-21l111 697h20z" />
<glyph unicode="&#xa7;" horiz-adv-x="987" d="M782 162q-17 -104 -126 -168t-250 -64q-192 0 -330 88l2 23q139 -90 325 -90q138 0 241 59.5t118 155.5q8 50 -5.5 89.5t-36 64.5t-69.5 47.5t-82 34t-96 28.5q-151 42 -206 71q-132 68 -119 198l2 14q9 53 38.5 100t70 79.5t80.5 54.5t81 36q-92 35 -138 90t-32 146 q18 107 120.5 171t237.5 64q169 0 303 -80l-2 -20q-136 80 -301 80q-130 0 -225.5 -60t-112.5 -160q-8 -49 8.5 -88t37 -62t77 -46.5t83.5 -31.5t102 -28q9 -3 14 -4q57 -15 97 -28.5t84 -37t69.5 -50.5t38 -68.5t4.5 -91.5q-32 -182 -291 -264q217 -75 188 -252zM477 451 q17 -5 49 -14.5t35 -10.5q273 78 303 256q7 47 -5 84.5t-34 61.5t-64.5 45.5t-78.5 33t-94 27.5q-70 18 -135 39q-39 -11 -80.5 -30.5t-85.5 -51t-76 -79t-41 -103.5q-8 -48 6 -86t37.5 -61.5t69.5 -45t82.5 -33t96.5 -28.5q10 -3 15 -4z" />
<glyph unicode="&#xa8;" horiz-adv-x="552" d="M739 1708q-2 -11 -11 -20t-21 -9q-14 0 -22 10t-5 23q2 11 12.5 20t20.5 9q15 0 22 -9.5t4 -23.5zM330 1708q-2 -11 -11.5 -20t-21.5 -9q-14 0 -22 10t-5 23q2 11 12.5 20t20.5 9q15 0 22.5 -9.5t4.5 -23.5z" />
<glyph unicode="&#xa9;" horiz-adv-x="1753" d="M1653 705q-22 -141 -85.5 -261.5t-151.5 -204.5t-195.5 -143.5t-218 -87.5t-218.5 -28t-211 30t-192 92.5t-151 149.5t-88 210.5t-3 266.5q22 141 85.5 261.5t151.5 204.5t195.5 143.5t218 87.5t218.5 28t211 -30t192 -92.5t151 -149.5t88 -210.5t3 -266.5zM1135 377 q-137 -70 -275 -70q-76 0 -143 26t-116.5 74.5t-72 128t-6.5 177.5q14 86 50.5 156.5t86 117.5t110 79t120.5 46t119 14q142 0 235 -71l-4 -21q-93 72 -229 72q-58 0 -116 -13.5t-116 -44t-105 -75.5t-82 -113t-48 -151q-14 -91 6.5 -165t66.5 -120.5t108 -71t134 -24.5 q149 0 281 69zM160 725q-21 -137 3.5 -256.5t84 -204t144.5 -145t184 -90t204 -29.5q106 0 214.5 27.5t213.5 85.5t191 140t148.5 200t84.5 256q21 137 -3.5 256.5t-84 204t-144.5 145t-184 90t-204 29.5q-106 0 -214.5 -27.5t-213.5 -85.5t-191 -140t-148.5 -200 t-84.5 -256z" />
<glyph unicode="&#xab;" horiz-adv-x="813" d="M592 147h-23l-188 338l2 13l293 338h24l-299 -347zM305 147h-22l-189 338l2 13l293 338h25l-299 -347z" />
<glyph unicode="&#xac;" horiz-adv-x="1175" d="M1026 635h-20l53 328h-840l2 20h860z" />
<glyph unicode="&#xad;" horiz-adv-x="997" d="M135 504h696l-2 -21h-696z" />
<glyph unicode="&#xae;" horiz-adv-x="1753" d="M1653 705q-22 -141 -85.5 -261.5t-151.5 -204.5t-195.5 -143.5t-218 -87.5t-218.5 -28t-211 30t-192 92.5t-151 149.5t-88 210.5t-3 266.5q22 141 85.5 261.5t151.5 204.5t195.5 143.5t218 87.5t218.5 28t211 -30t192 -92.5t151 -149.5t88 -210.5t3 -266.5zM160 725 q-21 -137 3.5 -256.5t84 -204t144.5 -145t184 -90t204 -29.5q106 0 214.5 27.5t213.5 85.5t191 140t148.5 200t84.5 256q21 137 -3.5 256.5t-84 204t-144.5 145t-184 90t-204 29.5q-106 0 -214.5 -27.5t-213.5 -85.5t-191 -140t-148.5 -200t-84.5 -256zM594 303h-21l127 809 h299q34 0 68 -5.5t73 -22t66.5 -43t41.5 -73t5 -106.5q-31 -184 -227 -217l186 -342h-22l-184 338q-31 -4 -82 -4h-279zM719 1092l-70 -435h279q271 0 305 209q9 54 -3.5 96t-37.5 66t-61 39t-68.5 20t-65.5 5h-278z" />
<glyph unicode="&#xaf;" horiz-adv-x="573" d="M266 1696h492l-2 -21h-492z" />
<glyph unicode="&#xb0;" horiz-adv-x="790" d="M774 1184q-21 -126 -118 -202.5t-212 -76.5q-118 0 -193 80.5t-54 210.5q21 126 118 202.5t211 76.5q117 0 193 -81t55 -210zM217 1192q-19 -118 49.5 -192t175.5 -74q111 0 202 71t110 191q19 118 -49.5 192t-174.5 74q-111 0 -202.5 -71t-110.5 -191z" />
<glyph unicode="&#xb1;" horiz-adv-x="1208" d="M715 1147l-68 -420h420l-2 -20h-420l-67 -420h-21l68 420h-420l2 20h420l67 420h21zM952 0h-860l4 20h860z" />
<glyph unicode="&#xb4;" horiz-adv-x="327" d="M297 1597h-25l220 267h24z" />
<glyph unicode="&#xb6;" horiz-adv-x="1181" d="M365 -451h-21l170 1065q-203 0 -302.5 109t-68.5 303q31 192 164 300t336 108h492l-299 -1885h-21l295 1864h-451z" />
<glyph unicode="&#xb7;" horiz-adv-x="364" d="M197 487q-2 -11 -11.5 -19.5t-21.5 -8.5q-13 0 -22 9.5t-7 23.5q1 10 11.5 19t21.5 9q15 0 23 -9.5t6 -23.5z" />
<glyph unicode="&#xb8;" horiz-adv-x="428" d="M152 0h20l-86 -213q61 15 117.5 11t94.5 -38.5t30 -89.5q-8 -62 -67.5 -101.5t-166.5 -39.5q-120 0 -205 47l5 21q85 -48 198 -48q103 0 155.5 35t59.5 90q7 48 -30.5 76.5t-96 28.5t-125.5 -19z" />
<glyph unicode="&#xbb;" horiz-adv-x="811" d="M391 147h-26l301 347l-191 342h23l188 -338l-2 -13zM104 147h-26l301 347l-191 342h23l188 -338l-2 -13z" />
<glyph unicode="&#xbc;" horiz-adv-x="1918" d="M1671 836h23l-97 -605h187l-2 -18h-187l-34 -213h-21l35 213h-500l2 16zM1577 231l90 572l-561 -572h471zM352 -20h-26l1165 1474h27zM469 1393h14l-129 -815h166l-4 -21h-405l4 21h219l125 790l-209 -74l4 21z" />
<glyph unicode="&#xbd;" horiz-adv-x="1804" d="M342 -20h-27l1166 1474h26zM1225 776q127 72 258 72q112 0 179 -55t52 -148q-6 -34 -19 -64t-36 -56.5t-44.5 -46t-58.5 -43t-62 -37.5t-71 -38q-134 -70 -182 -107q-119 -90 -143 -233h530l-4 -20h-553l2 16q6 37 17 70t29.5 61.5t35 51t45 45.5t47 38t54.5 35.5 t54 30.5t58 31q47 25 61 32.5t52.5 30t52.5 34t40 34t37 41t22.5 44.5t15.5 54q13 80 -46.5 129t-164.5 49q-133 0 -262 -73zM459 1393h14l-129 -815h166l-4 -21h-406l4 21h220l125 790l-209 -74l4 21z" />
<glyph unicode="&#xbe;" horiz-adv-x="2013" d="M508 -20h-27l1166 1474h26zM1765 836h23l-96 -605h186l-2 -18h-186l-35 -213h-21l35 213h-500l2 16zM1671 231l90 572l-561 -572h471zM760 1192q-11 -69 -64 -124t-141 -71q87 -11 137.5 -66t36.5 -149q-17 -108 -105 -168.5t-227 -60.5q-158 0 -264 53l4 21 q111 -54 260 -54q132 0 214.5 55.5t97.5 157.5q16 100 -50 150.5t-180 50.5h-121l2 21h119q115 0 181.5 55t78.5 133q13 81 -44.5 139t-166.5 58q-131 0 -264 -54l4 23q121 51 262 51q116 0 180 -64.5t50 -156.5z" />
<glyph unicode="&#xbf;" horiz-adv-x="976" d="M756 -344q-200 -117 -412 -117q-196 0 -301 88t-80 238q13 82 69.5 166t129 154.5t144.5 139t127.5 146t66.5 150.5h20q-9 -57 -41 -115t-76.5 -108.5t-97 -101.5t-105.5 -102.5t-98 -102.5t-77.5 -111t-42.5 -119q-22 -137 76 -219t286 -82q205 0 414 116zM596 971 q-2 -11 -12.5 -20t-20.5 -9q-15 0 -22 9.5t-4 23.5q2 11 11 20t21 9q14 0 22 -10t5 -23z" />
<glyph unicode="&#xc0;" horiz-adv-x="1441" d="M1309 0h-23l-143 465h-883l-291 -465h-24l895 1434h28zM836 1389l-564 -904h867l-279 904q-7 21 -8 26q-2 -5 -8 -14zM920 1597h-23l-137 267h22z" />
<glyph unicode="&#xc1;" horiz-adv-x="1441" d="M1309 0h-23l-143 465h-883l-291 -465h-24l895 1434h28zM836 1389l-564 -904h867l-279 904q-7 21 -8 26q-2 -5 -8 -14zM858 1597h-24l219 267h24z" />
<glyph unicode="&#xc2;" horiz-adv-x="1441" d="M1309 0h-23l-143 465h-883l-291 -465h-24l895 1434h28zM836 1389l-564 -904h867l-279 904q-7 21 -8 26q-2 -5 -8 -14zM913 1843h17l217 -246h-25l-200 228l-273 -228h-28z" />
<glyph unicode="&#xc3;" horiz-adv-x="1441" d="M1309 0h-23l-143 465h-883l-291 -465h-24l895 1434h28zM836 1389l-564 -904h867l-279 904q-7 21 -8 26q-2 -5 -8 -14zM1184 1759q-2 -57 -34.5 -94t-88.5 -37q-46 0 -108.5 31t-123.5 61.5t-102 30.5q-46 0 -74 -31t-30 -82h-21q0 55 35 94.5t88 39.5q44 0 107.5 -31 t125.5 -61.5t103 -30.5q96 0 102 110h21z" />
<glyph unicode="&#xc4;" horiz-adv-x="1441" d="M1309 0h-23l-143 465h-883l-291 -465h-24l895 1434h28zM836 1389l-564 -904h867l-279 904q-7 21 -8 26q-2 -5 -8 -14zM1133 1708q-2 -11 -11.5 -20t-21.5 -9q-14 0 -22 10t-5 23q2 11 12.5 20t20.5 9q15 0 22.5 -9.5t4.5 -23.5zM723 1708q-2 -11 -11.5 -20t-21.5 -9 q-14 0 -21.5 10t-4.5 23q2 11 12 20t20 9q15 0 22.5 -9.5t4.5 -23.5z" />
<glyph unicode="&#xc5;" horiz-adv-x="1441" d="M1309 0h-23l-143 465h-883l-291 -465h-24l895 1434h28zM836 1389l-564 -904h867l-279 904q-7 21 -8 26q-2 -5 -8 -14zM1055 1710q-10 -66 -63 -108.5t-115 -42.5q-66 0 -107 43.5t-29 111.5q10 66 63.5 109t115.5 43q65 0 106 -44t29 -112zM760 1710q-9 -58 26 -94.5 t88 -36.5q57 0 104.5 37t57.5 98q9 58 -26 94.5t-88 36.5q-57 0 -104.5 -37t-57.5 -98z" />
<glyph unicode="&#xc6;" horiz-adv-x="2041" d="M2032 1434l-4 -21h-842l-107 -682h781l-5 -20h-780l-108 -691h854l-4 -20h-873l74 465h-686l-410 -465h-26l1263 1434h873zM350 485h670l147 928z" />
<glyph unicode="&#xc7;" horiz-adv-x="1333" d="M1352 1333q-150 101 -371 101q-105 0 -210.5 -27t-207.5 -85t-184.5 -141t-143 -203t-83.5 -263t-0.5 -257t78.5 -200t138.5 -143t180 -86t203.5 -29q216 0 415 102l-4 -20q-187 -102 -407 -102l-78 -193q61 15 117.5 11t94.5 -38.5t30 -89.5q-8 -62 -67.5 -101.5 t-166.5 -39.5q-120 0 -205 47l4 21q85 -48 199 -48q103 0 155.5 35t59.5 90q7 48 -30.5 76.5t-96 28.5t-125.5 -19l88 220q-107 2 -205 32.5t-181 92t-139.5 146.5t-78.5 206t0 262q19 122 66 228.5t112 185.5t145 141.5t168.5 101t179 58.5t179.5 20q220 0 375 -100z" />
<glyph unicode="&#xc8;" horiz-adv-x="1294" d="M354 1434h924l-4 -21h-903l-107 -682h842l-4 -20h-842l-108 -691h915l-4 -20h-936zM881 1597h-23l-137 267h22z" />
<glyph unicode="&#xc9;" horiz-adv-x="1294" d="M354 1434h924l-4 -21h-903l-107 -682h842l-4 -20h-842l-108 -691h915l-4 -20h-936zM819 1597h-24l219 267h24z" />
<glyph unicode="&#xca;" horiz-adv-x="1294" d="M354 1434h924l-4 -21h-903l-107 -682h842l-4 -20h-842l-108 -691h915l-4 -20h-936zM874 1843h17l217 -246h-25l-200 228l-273 -228h-28z" />
<glyph unicode="&#xcb;" horiz-adv-x="1294" d="M354 1434h924l-4 -21h-903l-107 -682h842l-4 -20h-842l-108 -691h915l-4 -20h-936zM1094 1708q-2 -11 -11.5 -20t-21.5 -9q-14 0 -22 10t-5 23q2 11 12.5 20t20.5 9q15 0 22.5 -9.5t4.5 -23.5zM684 1708q-2 -11 -11.5 -20t-21.5 -9q-14 0 -21.5 10t-4.5 23q2 11 12 20 t20 9q15 0 22.5 -9.5t4.5 -23.5z" />
<glyph unicode="&#xcc;" horiz-adv-x="462" d="M354 1434h21l-228 -1434h-20zM426 1597h-23l-137 267h23z" />
<glyph unicode="&#xcd;" horiz-adv-x="462" d="M354 1434h21l-228 -1434h-20zM365 1597h-25l219 267h25z" />
<glyph unicode="&#xce;" horiz-adv-x="462" d="M354 1434h21l-228 -1434h-20zM420 1843h16l217 -246h-24l-201 228l-272 -228h-29z" />
<glyph unicode="&#xcf;" horiz-adv-x="462" d="M354 1434h21l-228 -1434h-20zM639 1708q-2 -11 -11.5 -20t-21.5 -9q-14 0 -21.5 10t-4.5 23q2 11 12 20t20 9q15 0 22.5 -9.5t4.5 -23.5zM229 1708q-2 -11 -11 -20t-21 -9q-14 0 -22 10t-5 23q2 11 12.5 20t20.5 9q15 0 22 -9.5t4 -23.5z" />
<glyph unicode="&#xd0;" horiz-adv-x="1490" d="M354 1434h383q192 0 332.5 -54t218.5 -151t105 -227t2 -287q-24 -156 -91 -285t-174 -226t-263.5 -150.5t-348.5 -53.5h-391l113 707h-121l2 20h121zM522 20q185 0 337 52t257 146.5t170.5 221t89.5 279.5q24 152 -2 277t-101.5 219t-211 146t-320.5 52h-370l-109 -686 h555l-2 -20h-555l-108 -687h370z" />
<glyph unicode="&#xd1;" horiz-adv-x="1568" d="M147 0h-20l227 1434h15l870 -1395q2 16 7 45t7 45l207 1305h21l-228 -1434h-14l-870 1397q-2 -15 -7.5 -44.5t-7.5 -45.5zM1247 1759q-2 -57 -34.5 -94t-88.5 -37q-36 0 -83.5 19t-86 42.5t-84.5 42.5t-79 19q-46 0 -75 -31t-30 -82h-20q0 55 34.5 94.5t87.5 39.5 q44 0 107.5 -31t125 -61.5t103.5 -30.5q97 0 103 110h20z" />
<glyph unicode="&#xd2;" horiz-adv-x="1691" d="M1602 715q-17 -107 -63.5 -212t-123.5 -199.5t-174.5 -166.5t-224.5 -114.5t-266 -42.5q-91 0 -171 17.5t-142 48.5t-115 75t-88.5 96.5t-62.5 113t-37.5 124.5t-13.5 131t9 133q17 107 63.5 212t123.5 199.5t174.5 166.5t224.5 114.5t266 42.5q91 0 171 -17.5t142 -48.5 t115 -75t88.5 -96.5t62.5 -113t37.5 -124.5t13.5 -131t-9 -133zM150 715q-9 -74 -8.5 -147.5t21 -144t51.5 -133.5t83 -116t116 -92t150.5 -60.5t186.5 -21.5q137 0 262 42t220 112.5t169.5 163.5t119 195t60.5 206q9 74 8.5 147.5t-21 144t-51.5 133.5t-83 116t-116 92 t-150.5 60.5t-186.5 21.5q-137 0 -262 -42t-220 -112.5t-169.5 -163.5t-119 -195t-60.5 -206zM1044 1597h-22l-137 267h22z" />
<glyph unicode="&#xd3;" horiz-adv-x="1691" d="M1602 715q-17 -107 -63.5 -212t-123.5 -199.5t-174.5 -166.5t-224.5 -114.5t-266 -42.5q-91 0 -171 17.5t-142 48.5t-115 75t-88.5 96.5t-62.5 113t-37.5 124.5t-13.5 131t9 133q17 107 63.5 212t123.5 199.5t174.5 166.5t224.5 114.5t266 42.5q91 0 171 -17.5t142 -48.5 t115 -75t88.5 -96.5t62.5 -113t37.5 -124.5t13.5 -131t-9 -133zM150 715q-9 -74 -8.5 -147.5t21 -144t51.5 -133.5t83 -116t116 -92t150.5 -60.5t186.5 -21.5q137 0 262 42t220 112.5t169.5 163.5t119 195t60.5 206q9 74 8.5 147.5t-21 144t-51.5 133.5t-83 116t-116 92 t-150.5 60.5t-186.5 21.5q-137 0 -262 -42t-220 -112.5t-169.5 -163.5t-119 -195t-60.5 -206zM983 1597h-25l220 267h24z" />
<glyph unicode="&#xd4;" horiz-adv-x="1691" d="M1602 715q-17 -107 -63.5 -212t-123.5 -199.5t-174.5 -166.5t-224.5 -114.5t-266 -42.5q-91 0 -171 17.5t-142 48.5t-115 75t-88.5 96.5t-62.5 113t-37.5 124.5t-13.5 131t9 133q17 107 63.5 212t123.5 199.5t174.5 166.5t224.5 114.5t266 42.5q91 0 171 -17.5t142 -48.5 t115 -75t88.5 -96.5t62.5 -113t37.5 -124.5t13.5 -131t-9 -133zM150 715q-9 -74 -8.5 -147.5t21 -144t51.5 -133.5t83 -116t116 -92t150.5 -60.5t186.5 -21.5q137 0 262 42t220 112.5t169.5 163.5t119 195t60.5 206q9 74 8.5 147.5t-21 144t-51.5 133.5t-83 116t-116 92 t-150.5 60.5t-186.5 21.5q-137 0 -262 -42t-220 -112.5t-169.5 -163.5t-119 -195t-60.5 -206zM1038 1843h17l217 -246h-25l-200 228l-273 -228h-29z" />
<glyph unicode="&#xd5;" horiz-adv-x="1691" d="M1602 715q-17 -107 -63.5 -212t-123.5 -199.5t-174.5 -166.5t-224.5 -114.5t-266 -42.5q-91 0 -171 17.5t-142 48.5t-115 75t-88.5 96.5t-62.5 113t-37.5 124.5t-13.5 131t9 133q17 107 63.5 212t123.5 199.5t174.5 166.5t224.5 114.5t266 42.5q91 0 171 -17.5t142 -48.5 t115 -75t88.5 -96.5t62.5 -113t37.5 -124.5t13.5 -131t-9 -133zM150 715q-9 -74 -8.5 -147.5t21 -144t51.5 -133.5t83 -116t116 -92t150.5 -60.5t186.5 -21.5q137 0 262 42t220 112.5t169.5 163.5t119 195t60.5 206q9 74 8.5 147.5t-21 144t-51.5 133.5t-83 116t-116 92 t-150.5 60.5t-186.5 21.5q-137 0 -262 -42t-220 -112.5t-169.5 -163.5t-119 -195t-60.5 -206zM1309 1759q-2 -57 -34.5 -94t-88.5 -37q-46 0 -108.5 31t-123.5 61.5t-102 30.5q-46 0 -74 -31t-30 -82h-21q0 55 35 94.5t88 39.5q44 0 107.5 -31t125.5 -61.5t103 -30.5 q96 0 102 110h21z" />
<glyph unicode="&#xd6;" horiz-adv-x="1691" d="M1602 715q-17 -107 -63.5 -212t-123.5 -199.5t-174.5 -166.5t-224.5 -114.5t-266 -42.5q-91 0 -171 17.5t-142 48.5t-115 75t-88.5 96.5t-62.5 113t-37.5 124.5t-13.5 131t9 133q17 107 63.5 212t123.5 199.5t174.5 166.5t224.5 114.5t266 42.5q91 0 171 -17.5t142 -48.5 t115 -75t88.5 -96.5t62.5 -113t37.5 -124.5t13.5 -131t-9 -133zM150 715q-9 -74 -8.5 -147.5t21 -144t51.5 -133.5t83 -116t116 -92t150.5 -60.5t186.5 -21.5q137 0 262 42t220 112.5t169.5 163.5t119 195t60.5 206q9 74 8.5 147.5t-21 144t-51.5 133.5t-83 116t-116 92 t-150.5 60.5t-186.5 21.5q-137 0 -262 -42t-220 -112.5t-169.5 -163.5t-119 -195t-60.5 -206zM1257 1708q-2 -11 -11 -20t-21 -9q-14 0 -22 10t-5 23q2 11 12.5 20t20.5 9q15 0 22 -9.5t4 -23.5zM848 1708q-2 -11 -11.5 -20t-21.5 -9q-14 0 -22 10t-5 23q2 11 12.5 20 t20.5 9q15 0 22.5 -9.5t4.5 -23.5z" />
<glyph unicode="&#xd7;" horiz-adv-x="897" d="M465 702l-324 -280l-12 16l324 279l-236 278l14 15l236 -279l326 281l12 -17l-326 -280l236 -279l-15 -14z" />
<glyph unicode="&#xd8;" horiz-adv-x="1691" d="M156 -98h-25l193 217q-124 105 -173 266.5t-22 333.5q17 107 63.5 212t123.5 199.5t174.5 166.5t224.5 114.5t266 42.5q249 0 412 -127l182 205h24l-192 -217q124 -105 173 -266.5t22 -333.5q-17 -107 -63.5 -212t-123.5 -199.5t-174.5 -166.5t-224.5 -114.5t-266 -42.5 q-250 0 -412 126zM150 715q-26 -168 21 -323.5t167 -256.5l1040 1176q-155 123 -397 123q-137 0 -262 -42t-220 -112.5t-169.5 -163.5t-119 -195t-60.5 -206zM352 123q155 -123 398 -123q137 0 262 42t220 112.5t169.5 163.5t119 195t60.5 206q26 168 -21 323t-167 256z" />
<glyph unicode="&#xd9;" horiz-adv-x="1531" d="M1442 1434h20l-149 -949q-79 -505 -641 -505q-82 0 -151 11.5t-130 36t-104 64t-72.5 96t-35.5 130t7 167.5l150 949h20l-149 -949q-12 -90 -7 -161.5t33 -125.5t68.5 -91.5t98.5 -61t124.5 -34.5t145.5 -11q546 0 622 485zM961 1597h-23l-137 267h22z" />
<glyph unicode="&#xda;" horiz-adv-x="1531" d="M1442 1434h20l-149 -949q-79 -505 -641 -505q-82 0 -151 11.5t-130 36t-104 64t-72.5 96t-35.5 130t7 167.5l150 949h20l-149 -949q-12 -90 -7 -161.5t33 -125.5t68.5 -91.5t98.5 -61t124.5 -34.5t145.5 -11q546 0 622 485zM899 1597h-25l220 267h24z" />
<glyph unicode="&#xdb;" horiz-adv-x="1531" d="M1442 1434h20l-149 -949q-79 -505 -641 -505q-82 0 -151 11.5t-130 36t-104 64t-72.5 96t-35.5 130t7 167.5l150 949h20l-149 -949q-12 -90 -7 -161.5t33 -125.5t68.5 -91.5t98.5 -61t124.5 -34.5t145.5 -11q546 0 622 485zM954 1843h17l217 -246h-25l-200 228l-273 -228 h-28z" />
<glyph unicode="&#xdc;" horiz-adv-x="1531" d="M1442 1434h20l-149 -949q-79 -505 -641 -505q-82 0 -151 11.5t-130 36t-104 64t-72.5 96t-35.5 130t7 167.5l150 949h20l-149 -949q-12 -90 -7 -161.5t33 -125.5t68.5 -91.5t98.5 -61t124.5 -34.5t145.5 -11q546 0 622 485zM1174 1708q-2 -11 -11.5 -20t-21.5 -9 q-14 0 -22 10t-5 23q2 11 12.5 20t20.5 9q15 0 22.5 -9.5t4.5 -23.5zM764 1708q-2 -11 -11.5 -20t-21.5 -9q-14 0 -21.5 10t-4.5 23q2 11 12 20t20 9q15 0 22.5 -9.5t4.5 -23.5z" />
<glyph unicode="&#xdd;" horiz-adv-x="1261" d="M547 0h-21l95 592l-431 842h23l420 -820l680 820h26l-698 -842zM768 1597h-25l220 267h24z" />
<glyph unicode="&#xde;" horiz-adv-x="1325" d="M332 1157h403q102 0 185.5 -12.5t157.5 -44t120 -80.5t66 -126.5t4 -178.5q-68 -439 -662 -439h-413l-46 -276h-20l227 1434h21zM195 297h413q573 0 641 422q15 95 -4 168.5t-63 120t-114.5 76t-150 41.5t-176.5 12h-413z" />
<glyph unicode="&#xdf;" horiz-adv-x="1200" d="M1073 307q-13 -82 -58 -146.5t-110.5 -103t-140.5 -58t-156 -19.5q-160 0 -266 69l4 21q113 -70 260 -70q80 0 153 18.5t135 55t104 97.5t55 140q11 70 -12.5 134.5t-64 112.5t-82 91.5t-68.5 88t-21 85.5q5 36 27.5 69t51.5 60t58 55.5t53 69.5t31 90q16 99 -67.5 183 t-229.5 84q-180 0 -307 -107.5t-156 -290.5l-164 -1036h-20l164 1036q32 194 165 306t318 112q153 0 244.5 -90.5t73.5 -200.5q-8 -50 -32 -92t-53 -70.5t-58 -55t-51.5 -58t-27.5 -66.5q-5 -38 22 -81t68.5 -86.5t82 -92.5t63.5 -115.5t12 -138.5z" />
<glyph unicode="&#xe0;" d="M1006 274q-80 -129 -215.5 -211.5t-290.5 -82.5q-212 0 -329.5 143.5t-80.5 380.5q25 154 109.5 269t203.5 173t254 58q149 0 263.5 -86.5t152.5 -217.5l45 283h21l-156 -983h-20zM111 500q-36 -226 74.5 -363t312.5 -137q163 0 304.5 94t211.5 234l51 321 q-25 142 -139 238t-269 96q-201 0 -355.5 -129.5t-190.5 -353.5zM752 1147h-23l-137 266h22z" />
<glyph unicode="&#xe1;" d="M1006 274q-80 -129 -215.5 -211.5t-290.5 -82.5q-212 0 -329.5 143.5t-80.5 380.5q25 154 109.5 269t203.5 173t254 58q149 0 263.5 -86.5t152.5 -217.5l45 283h21l-156 -983h-20zM111 500q-36 -226 74.5 -363t312.5 -137q163 0 304.5 94t211.5 234l51 321 q-25 142 -139 238t-269 96q-201 0 -355.5 -129.5t-190.5 -353.5zM690 1147h-24l219 266h24z" />
<glyph unicode="&#xe2;" d="M1006 274q-80 -129 -215.5 -211.5t-290.5 -82.5q-212 0 -329.5 143.5t-80.5 380.5q25 154 109.5 269t203.5 173t254 58q149 0 263.5 -86.5t152.5 -217.5l45 283h21l-156 -983h-20zM111 500q-36 -226 74.5 -363t312.5 -137q163 0 304.5 94t211.5 234l51 321 q-25 142 -139 238t-269 96q-201 0 -355.5 -129.5t-190.5 -353.5zM745 1393h17l217 -246h-25l-200 227l-273 -227h-28z" />
<glyph unicode="&#xe3;" d="M1006 274q-80 -129 -215.5 -211.5t-290.5 -82.5q-212 0 -329.5 143.5t-80.5 380.5q25 154 109.5 269t203.5 173t254 58q149 0 263.5 -86.5t152.5 -217.5l45 283h21l-156 -983h-20zM111 500q-36 -226 74.5 -363t312.5 -137q163 0 304.5 94t211.5 234l51 321 q-25 142 -139 238t-269 96q-201 0 -355.5 -129.5t-190.5 -353.5zM1016 1309q-2 -57 -34.5 -94t-88.5 -37q-46 0 -108.5 30.5t-123.5 61t-102 30.5q-46 0 -74.5 -30.5t-29.5 -81.5h-21q0 55 35 94t88 39q35 0 83 -19t87.5 -42.5t86 -42.5t79.5 -19q95 0 102 111h21z" />
<glyph unicode="&#xe4;" d="M1006 274q-80 -129 -215.5 -211.5t-290.5 -82.5q-212 0 -329.5 143.5t-80.5 380.5q25 154 109.5 269t203.5 173t254 58q149 0 263.5 -86.5t152.5 -217.5l45 283h21l-156 -983h-20zM111 500q-36 -226 74.5 -363t312.5 -137q163 0 304.5 94t211.5 234l51 321 q-25 142 -139 238t-269 96q-201 0 -355.5 -129.5t-190.5 -353.5zM965 1257q-2 -11 -11.5 -19.5t-21.5 -8.5q-14 0 -22 10t-5 23q1 10 11.5 19t21.5 9q15 0 22.5 -9.5t4.5 -23.5zM555 1257q-2 -11 -11.5 -19.5t-21.5 -8.5q-14 0 -21.5 10t-4.5 23q2 10 12 19t20 9 q15 0 22.5 -9.5t4.5 -23.5z" />
<glyph unicode="&#xe5;" d="M1006 274q-80 -129 -215.5 -211.5t-290.5 -82.5q-212 0 -329.5 143.5t-80.5 380.5q25 154 109.5 269t203.5 173t254 58q149 0 263.5 -86.5t152.5 -217.5l45 283h21l-156 -983h-20zM111 500q-36 -226 74.5 -363t312.5 -137q163 0 304.5 94t211.5 234l51 321 q-25 142 -139 238t-269 96q-201 0 -355.5 -129.5t-190.5 -353.5zM887 1260q-10 -66 -63 -109t-115 -43q-65 0 -106.5 44t-29.5 112q10 65 63.5 108t115.5 43q65 0 106 -43.5t29 -111.5zM592 1260q-9 -58 26.5 -95t88.5 -37q56 0 103.5 37.5t57.5 98.5q9 58 -26 94.5 t-88 36.5q-57 0 -104.5 -37t-57.5 -98z" />
<glyph unicode="&#xe6;" horiz-adv-x="2062" d="M1006 270q-80 -128 -215 -209t-291 -81q-210 0 -328.5 144t-81.5 380q25 154 109.5 269t203.5 173t254 58q149 0 263.5 -86.5t152.5 -217.5l45 283h21l-52 -328q70 163 210.5 256t299.5 93q102 0 179 -34.5t118.5 -89.5t61.5 -125.5t16.5 -142t-24.5 -139.5h-887 q-14 -98 3.5 -178t58.5 -134t100.5 -91t128 -53.5t143.5 -16.5q186 0 332 78l-4 -23q-138 -75 -326 -75q-83 0 -159 20.5t-140 61.5t-107.5 110t-54.5 158l-53 -330h-20zM113 500q-36 -226 74.5 -363t312.5 -137q163 0 304.5 94t211.5 234l51 321q-25 141 -140.5 237.5 t-267.5 96.5q-204 0 -357 -129t-189 -354zM1597 983q-200 0 -352.5 -139.5t-181.5 -349.5h868q18 66 19.5 132.5t-18 131.5t-58.5 114.5t-110.5 80t-166.5 30.5z" />
<glyph unicode="&#xe7;" horiz-adv-x="1009" d="M963 903q-51 40 -124 60t-147 20q-94 0 -185.5 -29t-175 -86.5t-144.5 -155.5t-81 -223q-19 -119 6 -214t84.5 -154t140.5 -90t177 -31q188 0 328 80l-2 -23q-137 -77 -320 -77l-78 -193q61 15 117.5 11t94.5 -38.5t30 -89.5q-8 -62 -67 -101.5t-166 -39.5 q-120 0 -205 47l4 21q85 -48 199 -48q103 0 155.5 35t59.5 90q7 48 -30.5 76.5t-96 28.5t-125.5 -19l88 220q-96 2 -177.5 35t-142 94t-86.5 160.5t-8 224.5q16 104 61 191t106.5 144.5t136.5 98t151 58.5t151 18q168 0 275 -80z" />
<glyph unicode="&#xe8;" horiz-adv-x="1110" d="M88 494q19 118 71.5 215.5t126.5 161.5t164 98.5t185 34.5q84 0 151.5 -24t111 -65t72.5 -94.5t39 -113t6.5 -119t-20.5 -115.5h-889q-14 -98 4 -178t58.5 -134t100.5 -91t128.5 -53.5t143.5 -16.5q185 0 331 78l-4 -23q-138 -75 -325 -75q-80 0 -152 18.5t-136.5 57.5 t-106 99.5t-60.5 145t0 193.5zM979 494q14 54 16 110t-8.5 111t-38.5 103.5t-69 85t-104 58t-140 21.5q-122 0 -230.5 -55t-188.5 -168t-107 -266h870zM711 1147h-23l-137 266h22z" />
<glyph unicode="&#xe9;" horiz-adv-x="1110" d="M88 494q19 118 71.5 215.5t126.5 161.5t164 98.5t185 34.5q84 0 151.5 -24t111 -65t72.5 -94.5t39 -113t6.5 -119t-20.5 -115.5h-889q-14 -98 4 -178t58.5 -134t100.5 -91t128.5 -53.5t143.5 -16.5q185 0 331 78l-4 -23q-138 -75 -325 -75q-80 0 -152 18.5t-136.5 57.5 t-106 99.5t-60.5 145t0 193.5zM979 494q14 54 16 110t-8.5 111t-38.5 103.5t-69 85t-104 58t-140 21.5q-122 0 -230.5 -55t-188.5 -168t-107 -266h870zM649 1147h-24l219 266h24z" />
<glyph unicode="&#xea;" horiz-adv-x="1110" d="M88 494q19 118 71.5 215.5t126.5 161.5t164 98.5t185 34.5q84 0 151.5 -24t111 -65t72.5 -94.5t39 -113t6.5 -119t-20.5 -115.5h-889q-14 -98 4 -178t58.5 -134t100.5 -91t128.5 -53.5t143.5 -16.5q185 0 331 78l-4 -23q-138 -75 -325 -75q-80 0 -152 18.5t-136.5 57.5 t-106 99.5t-60.5 145t0 193.5zM979 494q14 54 16 110t-8.5 111t-38.5 103.5t-69 85t-104 58t-140 21.5q-122 0 -230.5 -55t-188.5 -168t-107 -266h870zM705 1393h16l217 -246h-25l-200 227l-273 -227h-28z" />
<glyph unicode="&#xeb;" horiz-adv-x="1110" d="M88 494q19 118 71.5 215.5t126.5 161.5t164 98.5t185 34.5q84 0 151.5 -24t111 -65t72.5 -94.5t39 -113t6.5 -119t-20.5 -115.5h-889q-14 -98 4 -178t58.5 -134t100.5 -91t128.5 -53.5t143.5 -16.5q185 0 331 78l-4 -23q-138 -75 -325 -75q-80 0 -152 18.5t-136.5 57.5 t-106 99.5t-60.5 145t0 193.5zM979 494q14 54 16 110t-8.5 111t-38.5 103.5t-69 85t-104 58t-140 21.5q-122 0 -230.5 -55t-188.5 -168t-107 -266h870zM924 1257q-2 -11 -11.5 -19.5t-21.5 -8.5q-14 0 -22 10t-5 23q1 10 11.5 19t21.5 9q15 0 22.5 -9.5t4.5 -23.5zM514 1257 q-2 -11 -11.5 -19.5t-21.5 -8.5q-14 0 -21.5 10t-4.5 23q1 10 11 19t21 9q15 0 22.5 -9.5t4.5 -23.5z" />
<glyph unicode="&#xec;" horiz-adv-x="391" d="M303 1147h-20l-97 266h21zM113 0h-21l156 983h20z" />
<glyph unicode="&#xed;" horiz-adv-x="391" d="M111 0h-21l156 983h20zM260 1147h-24l219 266h24z" />
<glyph unicode="&#xee;" horiz-adv-x="393" d="M113 0h-21l156 983h20zM74 1147h-29l272 246h17l196 -246h-24l-180 227z" />
<glyph unicode="&#xef;" horiz-adv-x="393" d="M113 0h-21l156 983h20zM188 1257q-2 -11 -11 -19.5t-21 -8.5q-14 0 -22 10t-5 23q1 10 11.5 19t21.5 9q15 0 22 -9.5t4 -23.5zM475 1257q-2 -11 -11.5 -19.5t-21.5 -8.5q-14 0 -21.5 10t-4.5 23q1 10 11.5 19t21.5 9q15 0 22 -9.5t4 -23.5z" />
<glyph unicode="&#xf0;" horiz-adv-x="1220" d="M1087 541q-40 -251 -201 -406t-386 -155q-212 0 -332 132.5t-86 350.5q21 132 103.5 238.5t200 163.5t245.5 57q84 0 159.5 -26t137.5 -77t97 -135.5t32 -191.5q7 30 10 53q17 125 15.5 225.5t-28.5 184t-64 146.5t-91 112.5t-109.5 83t-119.5 57.5l-299 -258l-13 14 l289 250q-139 53 -313 53l4 21q167 0 330 -58l198 172l13 -14l-193 -166q56 -22 104.5 -50t97 -68t85.5 -89.5t68 -113.5t45 -139.5t17 -168t-16 -198.5zM104 459q-33 -207 80.5 -333t313.5 -126q186 0 327.5 109.5t208.5 298.5q17 123 -11 220.5t-88 155t-137.5 87.5 t-164.5 30q-124 0 -237 -54t-192.5 -156.5t-99.5 -231.5z" />
<glyph unicode="&#xf1;" horiz-adv-x="1169" d="M219 743q36 45 80 86.5t104.5 83t136.5 66.5t154 25q160 0 251 -108t63 -292l-97 -604h-20l96 604q28 176 -56 277.5t-237 101.5q-102 0 -201 -45.5t-166 -105.5t-114 -130l-111 -702h-20l156 983h20zM956 1309q-2 -57 -34 -94t-88 -37q-46 0 -108.5 30.5t-123.5 61 t-102 30.5q-46 0 -75 -30.5t-30 -81.5h-20q0 55 35 94t88 39q35 0 83 -19t87.5 -42.5t86 -42.5t79.5 -19q95 0 102 111h20z" />
<glyph unicode="&#xf2;" horiz-adv-x="1210" d="M1092 479q-19 -118 -75 -214t-136 -157.5t-175 -94.5t-194 -33q-95 0 -179.5 36.5t-146 102t-89 166t-9.5 219.5q15 95 55 176.5t96.5 140t127 100.5t147.5 62.5t156 20.5q76 0 145.5 -22.5t126.5 -68t96 -107.5t54 -146.5t0 -180.5zM109 500q-18 -113 8 -209 t83.5 -158.5t138 -97.5t171.5 -35q97 0 189 32t169 91t131 152t72 208q18 113 -8 209t-83.5 158.5t-138 97.5t-171.5 35q-97 0 -189 -32t-169 -91t-131 -152t-72 -208zM735 1126h-22l-138 267h23z" />
<glyph unicode="&#xf3;" horiz-adv-x="1210" d="M1092 479q-19 -118 -75 -214t-136 -157.5t-175 -94.5t-194 -33q-95 0 -179.5 36.5t-146 102t-89 166t-9.5 219.5q15 95 55 176.5t96.5 140t127 100.5t147.5 62.5t156 20.5q76 0 145.5 -22.5t126.5 -68t96 -107.5t54 -146.5t0 -180.5zM109 500q-18 -113 8 -209 t83.5 -158.5t138 -97.5t171.5 -35q97 0 189 32t169 91t131 152t72 208q18 113 -8 209t-83.5 158.5t-138 97.5t-171.5 35q-97 0 -189 -32t-169 -91t-131 -152t-72 -208zM674 1126h-25l219 267h25z" />
<glyph unicode="&#xf4;" horiz-adv-x="1210" d="M1092 479q-19 -118 -75 -214t-136 -157.5t-175 -94.5t-194 -33q-95 0 -179.5 36.5t-146 102t-89 166t-9.5 219.5q15 95 55 176.5t96.5 140t127 100.5t147.5 62.5t156 20.5q76 0 145.5 -22.5t126.5 -68t96 -107.5t54 -146.5t0 -180.5zM109 500q-18 -113 8 -209 t83.5 -158.5t138 -97.5t171.5 -35q97 0 189 32t169 91t131 152t72 208q18 113 -8 209t-83.5 158.5t-138 97.5t-171.5 35q-97 0 -189 -32t-169 -91t-131 -152t-72 -208zM729 1372h16l218 -246h-25l-201 228l-272 -228h-29z" />
<glyph unicode="&#xf5;" horiz-adv-x="1210" d="M1092 479q-19 -118 -75 -214t-136 -157.5t-175 -94.5t-194 -33q-95 0 -179.5 36.5t-146 102t-89 166t-9.5 219.5q15 95 55 176.5t96.5 140t127 100.5t147.5 62.5t156 20.5q76 0 145.5 -22.5t126.5 -68t96 -107.5t54 -146.5t0 -180.5zM109 500q-18 -113 8 -209 t83.5 -158.5t138 -97.5t171.5 -35q97 0 189 32t169 91t131 152t72 208q18 113 -8 209t-83.5 158.5t-138 97.5t-171.5 35q-97 0 -189 -32t-169 -91t-131 -152t-72 -208zM999 1288q-2 -57 -34 -94t-88 -37q-36 0 -84 19t-86.5 42.5t-84.5 42.5t-79 19q-46 0 -75 -31t-30 -82 h-20q0 55 35 94t88 39q44 0 107.5 -30.5t125 -61t103.5 -30.5q96 0 102 110h20z" />
<glyph unicode="&#xf6;" horiz-adv-x="1210" d="M1092 479q-19 -118 -75 -214t-136 -157.5t-175 -94.5t-194 -33q-95 0 -179.5 36.5t-146 102t-89 166t-9.5 219.5q15 95 55 176.5t96.5 140t127 100.5t147.5 62.5t156 20.5q76 0 145.5 -22.5t126.5 -68t96 -107.5t54 -146.5t0 -180.5zM109 500q-18 -113 8 -209 t83.5 -158.5t138 -97.5t171.5 -35q97 0 189 32t169 91t131 152t72 208q18 113 -8 209t-83.5 158.5t-138 97.5t-171.5 35q-97 0 -189 -32t-169 -91t-131 -152t-72 -208zM948 1237q-2 -11 -11.5 -20t-21.5 -9q-14 0 -21.5 10t-4.5 23q2 11 12.5 20t20.5 9q15 0 22 -9.5 t4 -23.5zM539 1237q-2 -11 -11.5 -20t-21.5 -9q-14 0 -22 10t-5 23q2 11 12.5 20t20.5 9q15 0 22.5 -9.5t4.5 -23.5z" />
<glyph unicode="&#xf7;" horiz-adv-x="1327" d="M1174 707h-984l3 20h983zM641 254q-2 -11 -11.5 -20t-21.5 -9q-13 0 -21.5 9.5t-6.5 23.5q2 11 12 20t20 9q15 0 23 -9.5t6 -23.5zM786 1169q-3 -11 -12.5 -19.5t-21.5 -8.5q-14 0 -22 10t-5 23q1 10 11.5 19t21.5 9q15 0 22.5 -9.5t5.5 -23.5z" />
<glyph unicode="&#xf8;" horiz-adv-x="1210" d="M1085 1112l-151 -192q92 -69 136 -182.5t22 -258.5q-19 -118 -75 -214t-136 -157.5t-175 -94.5t-194 -33q-143 0 -258 79l-139 -176h-23l148 187q-90 69 -132 180.5t-20 253.5q15 95 55 176.5t96.5 140t127 100.5t147.5 62.5t156 20.5q141 0 250 -74l143 182h22zM670 983 q-97 0 -189 -32t-169 -91t-131 -152t-72 -208q-21 -136 18.5 -242t124.5 -172l653 827q-106 70 -235 70zM510 0q97 0 189 32t169 91t131 152t72 208q22 139 -19 247.5t-130 172.5l-656 -829q110 -74 244 -74z" />
<glyph unicode="&#xf9;" horiz-adv-x="1169" d="M1034 983h21l-156 -983h-20l39 242q-34 -45 -80 -87.5t-106 -83.5t-136 -66t-152 -25q-161 0 -252 107t-63 292l96 604h21l-96 -604q-27 -177 56 -278t236 -101q148 0 278 86t204 199zM702 1147h-22l-137 266h22z" />
<glyph unicode="&#xfa;" horiz-adv-x="1169" d="M1034 983h21l-156 -983h-20l39 242q-34 -45 -80 -87.5t-106 -83.5t-136 -66t-152 -25q-161 0 -252 107t-63 292l96 604h21l-96 -604q-27 -177 56 -278t236 -101q148 0 278 86t204 199zM641 1147h-25l220 266h24z" />
<glyph unicode="&#xfb;" horiz-adv-x="1169" d="M1034 983h21l-156 -983h-20l39 242q-34 -45 -80 -87.5t-106 -83.5t-136 -66t-152 -25q-161 0 -252 107t-63 292l96 604h21l-96 -604q-27 -177 56 -278t236 -101q148 0 278 86t204 199zM696 1393h17l217 -246h-25l-200 227l-273 -227h-29z" />
<glyph unicode="&#xfc;" horiz-adv-x="1169" d="M1034 983h21l-156 -983h-20l39 242q-34 -45 -80 -87.5t-106 -83.5t-136 -66t-152 -25q-161 0 -252 107t-63 292l96 604h21l-96 -604q-27 -177 56 -278t236 -101q148 0 278 86t204 199zM915 1257q-2 -11 -11 -19.5t-21 -8.5q-14 0 -22 10t-5 23q1 10 11.5 19t21.5 9 q15 0 22 -9.5t4 -23.5zM506 1257q-2 -11 -11.5 -19.5t-21.5 -8.5q-14 0 -22 10t-5 23q1 10 11.5 19t21.5 9q15 0 22.5 -9.5t4.5 -23.5z" />
<glyph unicode="&#xfd;" horiz-adv-x="1081" d="M479 18l588 965h25l-715 -1171q-98 -157 -176 -220t-172 -63q-49 0 -99 12l2 21q57 -13 95 -13q92 0 168 64t165 211l105 172l-365 987h23zM584 1147h-25l219 266h25z" />
<glyph unicode="&#xfe;" d="M31 -451h-21l299 1885h21l-117 -732q82 133 220 217.5t290 84.5q98 0 181 -37.5t140 -104t81 -166t5 -217.5q-25 -155 -106.5 -269t-200 -172t-258.5 -58q-156 0 -267.5 85t-150.5 222zM156 336q27 -146 136.5 -241t270.5 -95q207 0 359 128t188 355q18 112 -4 206.5 t-75.5 158.5t-133 99.5t-174.5 35.5q-159 0 -302.5 -95.5t-215.5 -240.5z" />
<glyph unicode="&#xff;" horiz-adv-x="1081" d="M479 18l588 965h25l-715 -1171q-98 -157 -176 -220t-172 -63q-49 0 -99 12l2 21q57 -13 95 -13q92 0 168 64t165 211l105 172l-365 987h23zM858 1257q-2 -11 -11.5 -19.5t-21.5 -8.5q-14 0 -21.5 10t-4.5 23q1 10 11 19t21 9q15 0 22.5 -9.5t4.5 -23.5zM449 1257 q-2 -11 -11.5 -19.5t-21.5 -8.5q-14 0 -22 10t-5 23q1 10 11.5 19t21.5 9q15 0 22.5 -9.5t4.5 -23.5z" />
<glyph unicode="&#x100;" horiz-adv-x="1441" d="M1309 0h-23l-143 465h-883l-291 -465h-24l895 1434h28zM836 1389l-564 -904h867l-279 904q-7 21 -8 26q-2 -5 -8 -14zM651 1696h492l-2 -21h-492z" />
<glyph unicode="&#x101;" d="M1006 274q-80 -129 -215.5 -211.5t-290.5 -82.5q-212 0 -329.5 143.5t-80.5 380.5q25 154 109.5 269t203.5 173t254 58q149 0 263.5 -86.5t152.5 -217.5l45 283h21l-156 -983h-20zM111 500q-36 -226 74.5 -363t312.5 -137q163 0 304.5 94t211.5 234l51 321 q-25 142 -139 238t-269 96q-201 0 -355.5 -129.5t-190.5 -353.5zM483 1245h492l-2 -20h-492z" />
<glyph unicode="&#x102;" horiz-adv-x="1441" d="M1309 0h-23l-143 465h-883l-291 -465h-24l895 1434h28zM836 1389l-564 -904h867l-279 904q-7 21 -8 26q-2 -5 -8 -14zM1135 1692q-110 -84 -252 -84q-159 0 -240 84l4 26q83 -90 232 -90t260 90z" />
<glyph unicode="&#x103;" d="M1006 274q-80 -129 -215.5 -211.5t-290.5 -82.5q-212 0 -329.5 143.5t-80.5 380.5q25 154 109.5 269t203.5 173t254 58q149 0 263.5 -86.5t152.5 -217.5l45 283h21l-156 -983h-20zM111 500q-36 -226 74.5 -363t312.5 -137q163 0 304.5 94t211.5 234l51 321 q-25 142 -139 238t-269 96q-201 0 -355.5 -129.5t-190.5 -353.5zM967 1241q-110 -84 -252 -84q-159 0 -240 84l4 27q83 -90 232 -90t260 90z" />
<glyph unicode="&#x104;" horiz-adv-x="1441" d="M1309 0q-85 -53 -145 -98.5t-110.5 -105.5t-58.5 -115q-9 -61 24 -96.5t103 -35.5q58 0 117 21l-4 -23q-53 -18 -111 -18q-82 0 -121.5 42t-27.5 114q20 142 309 321l-141 459h-883l-291 -465h-24l895 1434h28zM836 1389l-564 -904h867l-279 904q-7 21 -8 26 q-2 -5 -8 -14z" />
<glyph unicode="&#x105;" d="M1139 983l-156 -983q-79 -53 -135 -98.5t-103 -105.5t-55 -115q-9 -59 21 -95.5t86 -36.5q50 0 112 19l-2 -23q-59 -16 -108 -16q-66 0 -103.5 43t-25.5 113q21 145 295 327l41 262q-80 -129 -215.5 -211.5t-290.5 -82.5q-212 0 -329.5 143.5t-80.5 380.5 q25 154 109.5 269t203.5 173t254 58q149 0 263.5 -86.5t152.5 -217.5l45 283h21zM111 500q-36 -226 74.5 -363t312.5 -137q163 0 304.5 94t211.5 234l51 321q-25 142 -139 238t-269 96q-201 0 -355.5 -129.5t-190.5 -353.5z" />
<glyph unicode="&#x106;" horiz-adv-x="1333" d="M131 719q19 122 66 228.5t112 185.5t145 141.5t168.5 101t179 58.5t179.5 20q220 0 375 -100l-4 -21q-150 101 -371 101q-105 0 -210.5 -27t-207.5 -85t-184.5 -141t-143 -203t-83.5 -263t-0.5 -257t78.5 -200t138.5 -143t180 -86t203.5 -29q216 0 415 102l-4 -20 q-187 -102 -409 -102q-109 0 -209.5 29t-186 89.5t-144.5 146.5t-82.5 208.5t-0.5 265.5zM979 1597h-25l220 267h24z" />
<glyph unicode="&#x107;" horiz-adv-x="1009" d="M84 494q16 104 61 191t106.5 144.5t136.5 98t151 58.5t151 18q168 0 275 -80l-4 -21q-51 40 -124 60t-147 20q-94 0 -185.5 -29t-175 -86.5t-144.5 -155.5t-81 -223q-19 -119 6 -214t84.5 -154t140.5 -90t177 -31q188 0 328 80l-2 -23q-140 -77 -324 -77 q-99 0 -183.5 31.5t-147.5 92.5t-90.5 162t-8.5 228zM670 1147h-25l219 266h25z" />
<glyph unicode="&#x10a;" horiz-adv-x="1333" d="M131 719q19 122 66 228.5t112 185.5t145 141.5t168.5 101t179 58.5t179.5 20q220 0 375 -100l-4 -21q-150 101 -371 101q-105 0 -210.5 -27t-207.5 -85t-184.5 -141t-143 -203t-83.5 -263t-0.5 -257t78.5 -200t138.5 -143t180 -86t203.5 -29q216 0 415 102l-4 -20 q-187 -102 -409 -102q-109 0 -209.5 29t-186 89.5t-144.5 146.5t-82.5 208.5t-0.5 265.5zM1053 1667q-3 -15 -16.5 -27t-28.5 -12q-19 0 -29.5 12t-7.5 31q3 15 16.5 27t28.5 12q19 0 29.5 -12t7.5 -31z" />
<glyph unicode="&#x10b;" horiz-adv-x="1009" d="M84 494q16 104 61 191t106.5 144.5t136.5 98t151 58.5t151 18q168 0 275 -80l-4 -21q-51 40 -124 60t-147 20q-94 0 -185.5 -29t-175 -86.5t-144.5 -155.5t-81 -223q-19 -119 6 -214t84.5 -154t140.5 -90t177 -31q188 0 328 80l-2 -23q-140 -77 -324 -77 q-99 0 -183.5 31.5t-147.5 92.5t-90.5 162t-8.5 228zM743 1217q-3 -15 -16.5 -27t-28.5 -12q-19 0 -29 12t-7 31q3 15 16.5 27t28.5 12q19 0 29 -12t7 -31z" />
<glyph unicode="&#x10c;" horiz-adv-x="1333" d="M131 719q19 122 66 228.5t112 185.5t145 141.5t168.5 101t179 58.5t179.5 20q220 0 375 -100l-4 -21q-150 101 -371 101q-105 0 -210.5 -27t-207.5 -85t-184.5 -141t-143 -203t-83.5 -263t-0.5 -257t78.5 -200t138.5 -143t180 -86t203.5 -29q216 0 415 102l-4 -20 q-187 -102 -409 -102q-109 0 -209.5 29t-186 89.5t-144.5 146.5t-82.5 208.5t-0.5 265.5zM1303 1823l-295 -246h-17l-217 246h25l202 -228l273 228h29z" />
<glyph unicode="&#x10d;" horiz-adv-x="1009" d="M84 494q16 104 61 191t106.5 144.5t136.5 98t151 58.5t151 18q168 0 275 -80l-4 -21q-51 40 -124 60t-147 20q-94 0 -185.5 -29t-175 -86.5t-144.5 -155.5t-81 -223q-19 -119 6 -214t84.5 -154t140.5 -90t177 -31q188 0 328 80l-2 -23q-140 -77 -324 -77 q-99 0 -183.5 31.5t-147.5 92.5t-90.5 162t-8.5 228zM993 1372l-295 -246h-16l-217 246h24l203 -227l273 227h28z" />
<glyph unicode="&#x10e;" horiz-adv-x="1490" d="M354 1434h383q192 0 332.5 -54t218.5 -151t105 -227t2 -287q-24 -156 -91 -285t-174 -226t-263.5 -150.5t-348.5 -53.5h-391zM1376 719q24 152 -2 277t-101.5 219t-211 146t-320.5 52h-370l-219 -1393h370q185 0 337 52t257 146.5t170.5 221t89.5 279.5zM1126 1823 l-295 -246h-16l-217 246h25l202 -228l273 228h28z" />
<glyph unicode="&#x10f;" d="M1389 1434h18l-88 -306h-16zM1190 1434h20l-227 -1434h-20l45 279q-81 -132 -218 -215.5t-290 -83.5q-207 0 -327 144.5t-83 379.5q25 155 108 269.5t201.5 172.5t257.5 58q155 0 266.5 -86.5t149.5 -225.5zM1065 647q-26 146 -136.5 241t-271.5 95q-207 0 -358.5 -128 t-187.5 -355q-36 -223 77 -361.5t310 -138.5q164 0 305.5 95t212.5 241z" />
<glyph unicode="&#x110;" horiz-adv-x="1490" d="M354 1434h383q192 0 332.5 -54t218.5 -151t105 -227t2 -287q-24 -156 -91 -285t-174 -226t-263.5 -150.5t-348.5 -53.5h-391l113 707h-121l2 20h121zM522 20q185 0 337 52t257 146.5t170.5 221t89.5 279.5q24 152 -2 277t-101.5 219t-211 146t-320.5 52h-370l-109 -686 h555l-2 -20h-555l-108 -687h370z" />
<glyph unicode="&#x111;" horiz-adv-x="1253" d="M1180 1245h206l-2 -20h-206l-195 -1225h-20l45 279q-81 -132 -218 -215.5t-290 -83.5q-207 0 -327 144.5t-83 379.5q25 155 108 269.5t201.5 172.5t257.5 58q155 0 266.5 -86.5t149.5 -225.5l84 533h-387l2 20h389l29 189h20zM498 0q164 0 305.5 95t212.5 241l49 311 q-26 146 -136.5 241t-271.5 95q-207 0 -358.5 -128t-187.5 -355q-36 -223 77 -361.5t310 -138.5z" />
<glyph unicode="&#x112;" horiz-adv-x="1294" d="M354 1434h924l-4 -21h-903l-107 -682h842l-4 -20h-842l-108 -691h915l-4 -20h-936zM612 1696h492l-2 -21h-492z" />
<glyph unicode="&#x113;" horiz-adv-x="1110" d="M88 494q19 118 71.5 215.5t126.5 161.5t164 98.5t185 34.5q84 0 151.5 -24t111 -65t72.5 -94.5t39 -113t6.5 -119t-20.5 -115.5h-889q-14 -98 4 -178t58.5 -134t100.5 -91t128.5 -53.5t143.5 -16.5q185 0 331 78l-4 -23q-138 -75 -325 -75q-80 0 -152 18.5t-136.5 57.5 t-106 99.5t-60.5 145t0 193.5zM979 494q14 54 16 110t-8.5 111t-38.5 103.5t-69 85t-104 58t-140 21.5q-122 0 -230.5 -55t-188.5 -168t-107 -266h870zM442 1245h492l-2 -20h-492z" />
<glyph unicode="&#x116;" horiz-adv-x="1294" d="M354 1434h924l-4 -21h-903l-107 -682h842l-4 -20h-842l-108 -691h915l-4 -20h-936zM893 1667q-3 -15 -16.5 -27t-28.5 -12q-19 0 -29.5 12t-7.5 31q3 15 16.5 27t28.5 12q19 0 29.5 -12t7.5 -31z" />
<glyph unicode="&#x117;" horiz-adv-x="1110" d="M88 494q19 118 71.5 215.5t126.5 161.5t164 98.5t185 34.5q84 0 151.5 -24t111 -65t72.5 -94.5t39 -113t6.5 -119t-20.5 -115.5h-889q-14 -98 4 -178t58.5 -134t100.5 -91t128.5 -53.5t143.5 -16.5q185 0 331 78l-4 -23q-138 -75 -325 -75q-80 0 -152 18.5t-136.5 57.5 t-106 99.5t-60.5 145t0 193.5zM979 494q14 54 16 110t-8.5 111t-38.5 103.5t-69 85t-104 58t-140 21.5q-122 0 -230.5 -55t-188.5 -168t-107 -266h870zM723 1217q-3 -15 -16.5 -27t-28.5 -12q-19 0 -29.5 12t-7.5 31q3 15 16.5 27t28.5 12q19 0 29.5 -12t7.5 -31z" />
<glyph unicode="&#x118;" horiz-adv-x="1294" d="M1004 -426l-3 -23q-61 -22 -122 -22q-80 0 -121 42t-29 114q21 136 297 315h-899l227 1434h924l-4 -21h-903l-107 -682h842l-4 -20h-842l-108 -691h915l-4 -20q-62 -39 -109.5 -73.5t-94 -76t-75 -84.5t-34.5 -85q-9 -61 24 -96.5t103 -35.5q60 0 127 25z" />
<glyph unicode="&#x119;" horiz-adv-x="1110" d="M766 -432q-76 -39 -160 -39q-82 0 -121.5 42t-27.5 114q20 142 327 333q-116 -38 -241 -38q-80 0 -152 18.5t-136.5 57.5t-106 99.5t-60.5 145t0 193.5q19 118 71.5 215.5t126.5 161.5t164 98.5t185 34.5q84 0 151.5 -24t111 -65t72.5 -94.5t39 -113t6.5 -119 t-20.5 -115.5h-889q-14 -98 4 -178t58.5 -134t100.5 -91t128.5 -53.5t143.5 -16.5q185 0 331 78l-4 -23q-192 -124 -285 -208.5t-106 -165.5q-9 -61 24 -96.5t103 -35.5q82 0 164 39zM635 983q-122 0 -230.5 -55t-188.5 -168t-107 -266h870q14 54 16 110t-8.5 111 t-38.5 103.5t-69 85t-104 58t-140 21.5z" />
<glyph unicode="&#x11a;" horiz-adv-x="1294" d="M354 1434h924l-4 -21h-903l-107 -682h842l-4 -20h-842l-108 -691h915l-4 -20h-936zM1143 1823l-295 -246h-17l-217 246h25l203 -228l272 228h29z" />
<glyph unicode="&#x11b;" horiz-adv-x="1110" d="M88 494q19 118 71.5 215.5t126.5 161.5t164 98.5t185 34.5q84 0 151.5 -24t111 -65t72.5 -94.5t39 -113t6.5 -119t-20.5 -115.5h-889q-14 -98 4 -178t58.5 -134t100.5 -91t128.5 -53.5t143.5 -16.5q185 0 331 78l-4 -23q-138 -75 -325 -75q-80 0 -152 18.5t-136.5 57.5 t-106 99.5t-60.5 145t0 193.5zM979 494q14 54 16 110t-8.5 111t-38.5 103.5t-69 85t-104 58t-140 21.5q-122 0 -230.5 -55t-188.5 -168t-107 -266h870zM973 1372l-295 -246h-16l-218 246h25l203 -227l272 227h29z" />
<glyph unicode="&#x11e;" horiz-adv-x="1458" d="M139 739q24 151 88 274t150 203.5t194 135.5t216 78.5t219 23.5q226 0 395 -94l-2 -21q-77 45 -182.5 70t-210.5 25q-109 0 -215.5 -23.5t-211.5 -77t-189.5 -132.5t-146.5 -199t-85 -267q-25 -151 -1 -270t81.5 -206.5t145 -145t189.5 -85.5t215 -28q231 0 433 94 l102 649h20l-106 -665q-213 -98 -446 -98q-116 0 -221.5 29t-196 88t-150.5 149.5t-85 213.5t1 279zM1274 1692q-110 -84 -252 -84q-159 0 -240 84l4 26q83 -90 232 -90t260 90z" />
<glyph unicode="&#x11f;" horiz-adv-x="1253" d="M983 0q-16 -102 -57 -183t-96.5 -134t-127 -88.5t-146 -50.5t-155.5 -15q-200 0 -348 94l4 21q150 -95 342 -95q79 0 151 14.5t141 48t123 84.5t94 128.5t55 175.5l45 279q-81 -132 -218 -215.5t-290 -83.5q-105 0 -189.5 37t-140 104t-77.5 166t-3 217q25 155 108 269.5 t201.5 172.5t257.5 58q154 0 265.5 -86t150.5 -226l45 291h21zM111 500q-36 -226 73.5 -363t313.5 -137q164 0 305.5 95t212.5 241l49 311q-26 146 -136.5 241t-271.5 95q-204 0 -357 -128.5t-189 -354.5zM956 1241q-110 -84 -251 -84q-159 0 -240 84l4 27q83 -90 231 -90 q150 0 261 90z" />
<glyph unicode="&#x120;" horiz-adv-x="1458" d="M139 739q24 151 88 274t150 203.5t194 135.5t216 78.5t219 23.5q226 0 395 -94l-2 -21q-77 45 -182.5 70t-210.5 25q-109 0 -215.5 -23.5t-211.5 -77t-189.5 -132.5t-146.5 -199t-85 -267q-25 -151 -1 -270t81.5 -206.5t145 -145t189.5 -85.5t215 -28q231 0 433 94 l102 649h20l-106 -665q-213 -98 -446 -98q-116 0 -221.5 29t-196 88t-150.5 149.5t-85 213.5t1 279zM1071 1667q-3 -15 -16.5 -27t-28.5 -12q-19 0 -29.5 12t-7.5 31q3 15 16.5 27t28.5 12q19 0 29.5 -12t7.5 -31z" />
<glyph unicode="&#x121;" horiz-adv-x="1253" d="M983 0q-16 -102 -57 -183t-96.5 -134t-127 -88.5t-146 -50.5t-155.5 -15q-200 0 -348 94l4 21q150 -95 342 -95q79 0 151 14.5t141 48t123 84.5t94 128.5t55 175.5l45 279q-81 -132 -218 -215.5t-290 -83.5q-105 0 -189.5 37t-140 104t-77.5 166t-3 217q25 155 108 269.5 t201.5 172.5t257.5 58q154 0 265.5 -86t150.5 -226l45 291h21zM111 500q-36 -226 73.5 -363t313.5 -137q164 0 305.5 95t212.5 241l49 311q-26 146 -136.5 241t-271.5 95q-204 0 -357 -128.5t-189 -354.5zM754 1217q-3 -15 -16.5 -27t-28.5 -12q-19 0 -29.5 12t-7.5 31 q3 15 16.5 27t28.5 12q19 0 29.5 -12t7.5 -31z" />
<glyph unicode="&#x122;" horiz-adv-x="1458" d="M139 739q24 151 88 274t150 203.5t194 135.5t216 78.5t219 23.5q226 0 395 -94l-2 -21q-77 45 -182.5 70t-210.5 25q-109 0 -215.5 -23.5t-211.5 -77t-189.5 -132.5t-146.5 -199t-85 -267q-25 -151 -1 -270t81.5 -206.5t145 -145t189.5 -85.5t215 -28q231 0 433 94 l102 649h20l-106 -665q-213 -98 -446 -98q-116 0 -221.5 29t-196 88t-150.5 149.5t-85 213.5t1 279zM696 -451h-20l90 328h20z" />
<glyph unicode="&#x123;" horiz-adv-x="1253" d="M664 1128h-25l92 306h19zM983 0q-16 -102 -57 -183t-96.5 -134t-127 -88.5t-146 -50.5t-155.5 -15q-200 0 -348 94l4 21q150 -95 342 -95q79 0 151 14.5t141 48t123 84.5t94 128.5t55 175.5l45 279q-81 -132 -218 -215.5t-290 -83.5q-105 0 -189.5 37t-140 104t-77.5 166 t-3 217q25 155 108 269.5t201.5 172.5t257.5 58q154 0 265.5 -86t150.5 -226l45 291h21zM111 500q-36 -226 73.5 -363t313.5 -137q164 0 305.5 95t212.5 241l49 311q-26 146 -136.5 241t-271.5 95q-204 0 -357 -128.5t-189 -354.5z" />
<glyph unicode="&#x126;" horiz-adv-x="1568" d="M150 0h-21l170 1075h-164l4 21h164l53 338h21l-53 -338h1085l53 338h21l-53 -338h163l-4 -21h-164l-170 -1075h-20l113 711h-1086zM319 1075l-53 -344h1086l53 344h-1086z" />
<glyph unicode="&#x127;" horiz-adv-x="1169" d="M219 743q36 45 80 86.5t104.5 83t136.5 66.5t154 25q160 0 251 -108t63 -292l-97 -604h-20l96 604q28 176 -56 277.5t-237 101.5q-102 0 -201 -45.5t-166 -105.5t-114 -130l-111 -702h-20l194 1225h-120l2 20h121l30 189h21l-31 -189h473l-2 -20h-473z" />
<glyph unicode="&#x12a;" horiz-adv-x="462" d="M354 1434h21l-228 -1434h-20zM158 1696h491l-2 -21h-491z" />
<glyph unicode="&#x12b;" horiz-adv-x="393" d="M522 1225h-450l2 20h450zM113 0h-21l156 983h20z" />
<glyph unicode="&#x12e;" horiz-adv-x="464" d="M150 0q-173 -189 -193 -319q-9 -61 25 -96.5t104 -35.5q82 0 164 39l-2 -20q-76 -39 -160 -39q-82 0 -121.5 42t-27.5 114q7 51 41.5 114.5t67.5 108t83 104.5l225 1422h21z" />
<glyph unicode="&#x12f;" horiz-adv-x="389" d="M274 1253q1 10 10 16.5t17 6.5q26 0 23 -27q-1 -10 -10 -16t-17 -6q-26 0 -23 26zM266 983l-155 -983q-173 -189 -193 -319q-9 -61 25 -96.5t104 -35.5q82 0 164 39l-2 -20q-76 -39 -160 -39q-82 0 -121.5 42t-27.5 114q20 131 190 319l156 979h20z" />
<glyph unicode="&#x130;" horiz-adv-x="462" d="M354 1434h21l-228 -1434h-20zM438 1667q-3 -15 -16.5 -27t-28.5 -12q-19 0 -29.5 12t-7.5 31q3 15 16.5 27t28.5 12q19 0 29.5 -12t7.5 -31z" />
<glyph unicode="&#x131;" horiz-adv-x="389" d="M111 0h-21l156 983h20z" />
<glyph unicode="&#x132;" horiz-adv-x="1542" d="M354 1434h21l-228 -1434h-20zM963 1434h505l-168 -1065q-30 -194 -156 -291.5t-329 -97.5q-220 0 -356 88l4 20q136 -88 350 -88q198 0 318 92.5t149 276.5l166 1044h-488z" />
<glyph unicode="&#x133;" horiz-adv-x="778" d="M111 0h-21l156 983h20zM324 1249q-1 -10 -10 -16t-17 -6q-26 0 -23 26q1 10 10 16.5t17 6.5q26 0 23 -27zM461 -252q-19 -119 -86 -169t-174 -50q-77 0 -138 22l5 21q64 -23 131 -23q100 0 161.5 45t79.5 154l195 1235h20zM713 1249q-1 -10 -10 -16t-17 -6q-25 0 -22 26 q1 10 9.5 16.5t16.5 6.5q26 0 23 -27z" />
<glyph unicode="&#x136;" horiz-adv-x="1331" d="M1368 1434h25l-641 -701l475 -733h-27l-467 727h-471l-115 -727h-20l227 1434h21l-109 -686h473zM539 -430h-21l90 328h21z" />
<glyph unicode="&#x137;" horiz-adv-x="985" d="M952 983h27l-494 -475l398 -508h-25l-393 502h-283l-80 -502h-20l227 1434h21l-146 -912h289zM358 -430h-20l90 328h21z" />
<glyph unicode="&#x139;" horiz-adv-x="1165" d="M354 1434h21l-223 -1414h897l-5 -20h-917zM403 1597h-24l219 267h25z" />
<glyph unicode="&#x13a;" horiz-adv-x="389" d="M328 1495h20l-237 -1495h-21zM356 1618h-24l219 266h24z" />
<glyph unicode="&#x13b;" horiz-adv-x="1165" d="M354 1434h21l-223 -1414h897l-5 -20h-917zM502 -430h-21l90 328h21z" />
<glyph unicode="&#x13c;" horiz-adv-x="389" d="M328 1495h20l-237 -1495h-21zM-14 -430h-21l90 328h21z" />
<glyph unicode="&#x13d;" horiz-adv-x="1165" d="M924 1434h18l-88 -306h-16zM354 1434h21l-223 -1414h897l-5 -20h-917z" />
<glyph unicode="&#x13e;" horiz-adv-x="391" d="M526 1495h19l-88 -305h-17zM328 1495h20l-237 -1495h-21z" />
<glyph unicode="&#x13f;" horiz-adv-x="1183" d="M762 674q-2 -11 -11.5 -20t-21.5 -9q-13 0 -22 9.5t-7 23.5q2 11 12.5 20t20.5 9q15 0 23 -9.5t6 -23.5zM354 1434h21l-223 -1414h897l-5 -20h-917z" />
<glyph unicode="&#x140;" horiz-adv-x="462" d="M328 1495h20l-237 -1495h-21zM475 715q-2 -11 -11.5 -20t-21.5 -9q-13 0 -21.5 9.5t-6.5 23.5q2 11 12 20t20 9q15 0 23 -9.5t6 -23.5z" />
<glyph unicode="&#x141;" horiz-adv-x="1173" d="M1053 0h-918l96 606l-219 -90l4 21l220 90l126 807h21l-127 -797l549 227l-4 -20l-547 -228l-94 -596h897z" />
<glyph unicode="&#x142;" horiz-adv-x="428" d="M346 1495h21l-115 -717l199 82l-5 -20l-196 -82l-121 -758h-20l118 748l-196 -82l2 20l198 82z" />
<glyph unicode="&#x143;" horiz-adv-x="1568" d="M147 0h-20l227 1434h15l870 -1395q2 16 7 45t7 45l207 1305h21l-228 -1434h-14l-870 1397q-2 -15 -7.5 -44.5t-7.5 -45.5zM922 1597h-25l219 267h25z" />
<glyph unicode="&#x144;" horiz-adv-x="1169" d="M219 743q36 45 80 86.5t104.5 83t136.5 66.5t154 25q160 0 251 -108t63 -292l-97 -604h-20l96 604q28 176 -56 277.5t-237 101.5q-102 0 -201 -45.5t-166 -105.5t-114 -130l-111 -702h-20l156 983h20zM631 1147h-25l219 266h25z" />
<glyph unicode="&#x145;" horiz-adv-x="1568" d="M147 0h-20l227 1434h15l870 -1395q2 16 7 45t7 45l207 1305h21l-228 -1434h-14l-870 1397q-2 -15 -7.5 -44.5t-7.5 -45.5zM614 -430h-20l90 328h21z" />
<glyph unicode="&#x146;" horiz-adv-x="1169" d="M219 743q36 45 80 86.5t104.5 83t136.5 66.5t154 25q160 0 251 -108t63 -292l-97 -604h-20l96 604q28 176 -56 277.5t-237 101.5q-102 0 -201 -45.5t-166 -105.5t-114 -130l-111 -702h-20l156 983h20zM408 -430h-21l90 328h21z" />
<glyph unicode="&#x147;" horiz-adv-x="1568" d="M147 0h-20l227 1434h15l870 -1395q2 16 7 45t7 45l207 1305h21l-228 -1434h-14l-870 1397q-2 -15 -7.5 -44.5t-7.5 -45.5zM1245 1823l-295 -246h-16l-217 246h24l203 -228l273 228h28z" />
<glyph unicode="&#x148;" horiz-adv-x="1169" d="M219 743q36 45 80 86.5t104.5 83t136.5 66.5t154 25q160 0 251 -108t63 -292l-97 -604h-20l96 604q28 176 -56 277.5t-237 101.5q-102 0 -201 -45.5t-166 -105.5t-114 -130l-111 -702h-20l156 983h20zM954 1372l-295 -246h-16l-217 246h25l202 -227l273 227h28z" />
<glyph unicode="&#x14a;" horiz-adv-x="1568" d="M1214 -252q-19 -119 -86 -169t-174 -50q-76 0 -137 22l4 21q64 -23 131 -23q102 0 163 45t79 154l41 258l-866 1391q-2 -15 -7.5 -44.5t-7.5 -45.5l-207 -1307h-20l227 1434h15l870 -1395q2 16 7 45t7 45l207 1305h21z" />
<glyph unicode="&#x14b;" horiz-adv-x="1169" d="M872 -252q-35 -219 -260 -219q-76 0 -137 22l4 21q64 -23 131 -23q210 0 242 199l135 856q28 176 -56 277.5t-237 101.5q-102 0 -201 -45.5t-166 -105.5t-114 -130l-111 -702h-20l156 983h20l-39 -240q36 45 80 86.5t104.5 83t136.5 66.5t154 25q160 0 251 -108t63 -292z " />
<glyph unicode="&#x14c;" horiz-adv-x="1691" d="M1602 715q-17 -107 -63.5 -212t-123.5 -199.5t-174.5 -166.5t-224.5 -114.5t-266 -42.5q-91 0 -171 17.5t-142 48.5t-115 75t-88.5 96.5t-62.5 113t-37.5 124.5t-13.5 131t9 133q17 107 63.5 212t123.5 199.5t174.5 166.5t224.5 114.5t266 42.5q91 0 171 -17.5t142 -48.5 t115 -75t88.5 -96.5t62.5 -113t37.5 -124.5t13.5 -131t-9 -133zM150 715q-9 -74 -8.5 -147.5t21 -144t51.5 -133.5t83 -116t116 -92t150.5 -60.5t186.5 -21.5q137 0 262 42t220 112.5t169.5 163.5t119 195t60.5 206q9 74 8.5 147.5t-21 144t-51.5 133.5t-83 116t-116 92 t-150.5 60.5t-186.5 21.5q-137 0 -262 -42t-220 -112.5t-169.5 -163.5t-119 -195t-60.5 -206zM776 1696h492l-2 -21h-492z" />
<glyph unicode="&#x14d;" horiz-adv-x="1210" d="M1092 479q-19 -118 -75 -214t-136 -157.5t-175 -94.5t-194 -33q-95 0 -179.5 36.5t-146 102t-89 166t-9.5 219.5q15 95 55 176.5t96.5 140t127 100.5t147.5 62.5t156 20.5q76 0 145.5 -22.5t126.5 -68t96 -107.5t54 -146.5t0 -180.5zM109 500q-18 -113 8 -209 t83.5 -158.5t138 -97.5t171.5 -35q97 0 189 32t169 91t131 152t72 208q18 113 -8 209t-83.5 158.5t-138 97.5t-171.5 35q-97 0 -189 -32t-169 -91t-131 -152t-72 -208zM467 1225h491l-2 -21h-491z" />
<glyph unicode="&#x150;" horiz-adv-x="1691" d="M1602 715q-17 -107 -63.5 -212t-123.5 -199.5t-174.5 -166.5t-224.5 -114.5t-266 -42.5q-91 0 -171 17.5t-142 48.5t-115 75t-88.5 96.5t-62.5 113t-37.5 124.5t-13.5 131t9 133q17 107 63.5 212t123.5 199.5t174.5 166.5t224.5 114.5t266 42.5q91 0 171 -17.5t142 -48.5 t115 -75t88.5 -96.5t62.5 -113t37.5 -124.5t13.5 -131t-9 -133zM150 715q-9 -74 -8.5 -147.5t21 -144t51.5 -133.5t83 -116t116 -92t150.5 -60.5t186.5 -21.5q137 0 262 42t220 112.5t169.5 163.5t119 195t60.5 206q9 74 8.5 147.5t-21 144t-51.5 133.5t-83 116t-116 92 t-150.5 60.5t-186.5 21.5q-137 0 -262 -42t-220 -112.5t-169.5 -163.5t-119 -195t-60.5 -206zM1167 1593h-24l205 287h24zM858 1593h-24l204 287h25z" />
<glyph unicode="&#x151;" horiz-adv-x="1210" d="M1092 479q-19 -118 -75 -214t-136 -157.5t-175 -94.5t-194 -33q-95 0 -179.5 36.5t-146 102t-89 166t-9.5 219.5q15 95 55 176.5t96.5 140t127 100.5t147.5 62.5t156 20.5q76 0 145.5 -22.5t126.5 -68t96 -107.5t54 -146.5t0 -180.5zM109 500q-18 -113 8 -209 t83.5 -158.5t138 -97.5t171.5 -35q97 0 189 32t169 91t131 152t72 208q18 113 -8 209t-83.5 158.5t-138 97.5t-171.5 35q-97 0 -189 -32t-169 -91t-131 -152t-72 -208zM858 1122h-24l204 287h25zM549 1122h-25l205 287h25z" />
<glyph unicode="&#x152;" horiz-adv-x="2101" d="M1004 0q-100 -20 -254 -20q-91 0 -171 17.5t-142 48.5t-115 75t-88.5 96.5t-62.5 113t-37.5 124.5t-13.5 131t9 133q17 107 63.5 212t123.5 199.5t174.5 166.5t224.5 114.5t266 42.5q150 0 250 -20h860l-4 -21h-842l-106 -682h780l-4 -20h-780l-109 -691h854l-4 -20h-872 zM150 715q-9 -74 -8.5 -147.5t21 -144t51.5 -133.5t83 -116t116 -92t150.5 -60.5t186.5 -21.5q159 0 256 20l221 1395q-95 19 -246 19q-137 0 -262 -42t-220 -112.5t-169.5 -163.5t-119 -195t-60.5 -206z" />
<glyph unicode="&#x153;" horiz-adv-x="2039" d="M1038 373q-65 -189 -207 -291t-333 -102q-90 0 -171.5 37t-141.5 102.5t-87.5 166.5t-9.5 220q18 117 74.5 213.5t135.5 157.5t171 94t186 33q170 0 289.5 -110t128.5 -296q58 191 196.5 298.5t303.5 107.5q100 0 175.5 -34.5t117.5 -90t62.5 -127t18 -145t-23.5 -144.5 h-858q-14 -94 3.5 -172.5t57.5 -131t97.5 -89.5t122 -53.5t133.5 -16.5q175 0 321 78l-4 -23q-64 -35 -148.5 -55t-166.5 -20q-81 0 -156 23.5t-139 69t-104 123.5t-44 177zM109 502q-18 -113 7.5 -209t82.5 -159t134 -98.5t163 -35.5q213 0 362.5 127t185.5 358 q18 113 -6 208.5t-79.5 158t-134 97t-169.5 34.5q-73 0 -145 -19.5t-138 -59.5t-119.5 -96.5t-91.5 -135t-52 -170.5zM1573 983q-181 0 -323.5 -131.5t-182.5 -368.5h840q18 69 18.5 138.5t-20 135t-60.5 115.5t-110 80.5t-162 30.5z" />
<glyph unicode="&#x154;" horiz-adv-x="1388" d="M147 0h-20l227 1434h525q72 0 139 -13.5t128.5 -45t104 -78t61.5 -118t5 -159.5q-14 -85 -52.5 -154.5t-91.5 -115t-120.5 -77.5t-136 -46.5t-140.5 -16.5l467 -610h-24l-467 610h-508zM371 1413l-123 -782h512q87 0 170.5 21t161.5 65t133 123t71 184q17 104 -13 182 t-94 121.5t-141 64.5t-165 21h-512zM819 1597h-24l219 267h24z" />
<glyph unicode="&#x155;" horiz-adv-x="679" d="M205 649q47 95 117 172.5t174.5 130t220.5 52.5l-4 -21q-92 0 -178.5 -36t-151.5 -95t-113 -128.5t-75 -143.5l-93 -580h-20l156 983h20zM467 1147h-25l220 266h24z" />
<glyph unicode="&#x156;" horiz-adv-x="1388" d="M147 0h-20l227 1434h525q72 0 139 -13.5t128.5 -45t104 -78t61.5 -118t5 -159.5q-14 -85 -52.5 -154.5t-91.5 -115t-120.5 -77.5t-136 -46.5t-140.5 -16.5l467 -610h-24l-467 610h-508zM371 1413l-123 -782h512q87 0 170.5 21t161.5 65t133 123t71 184q17 104 -13 182 t-94 121.5t-141 64.5t-165 21h-512zM571 -430h-20l90 328h21z" />
<glyph unicode="&#x157;" horiz-adv-x="679" d="M205 649q47 95 117 172.5t174.5 130t220.5 52.5l-4 -21q-92 0 -178.5 -36t-151.5 -95t-113 -128.5t-75 -143.5l-93 -580h-20l156 983h20zM-4 -430h-21l91 328h20z" />
<glyph unicode="&#x158;" horiz-adv-x="1388" d="M147 0h-20l227 1434h525q72 0 139 -13.5t128.5 -45t104 -78t61.5 -118t5 -159.5q-14 -85 -52.5 -154.5t-91.5 -115t-120.5 -77.5t-136 -46.5t-140.5 -16.5l467 -610h-24l-467 610h-508zM371 1413l-123 -782h512q87 0 170.5 21t161.5 65t133 123t71 184q17 104 -13 182 t-94 121.5t-141 64.5t-165 21h-512zM1143 1823l-295 -246h-17l-217 246h25l203 -228l272 228h29z" />
<glyph unicode="&#x159;" horiz-adv-x="681" d="M207 649q47 95 117 172.5t174.5 130t220.5 52.5l-4 -21q-92 0 -178.5 -36t-151.5 -95t-113 -128.5t-75 -143.5l-93 -580h-20l156 983h20zM793 1372l-295 -246h-17l-217 246h25l203 -227l272 227h29z" />
<glyph unicode="&#x15a;" horiz-adv-x="1150" d="M207 1126q11 69 47.5 125.5t87 93.5t114 62t127.5 36t130 11q222 0 385 -96l-2 -21q-159 97 -383 97q-82 0 -159 -17.5t-147 -53t-118.5 -97.5t-61.5 -144q-12 -76 10 -135t68.5 -98.5t110.5 -71t136 -57.5l144 -52t135.5 -60.5t110 -77.5t68 -108.5t8.5 -148.5 q-13 -88 -61 -154t-119.5 -104.5t-155.5 -57t-178 -17.5q-128 0 -252 31.5t-213 86.5l2 21q204 -119 461 -119q91 0 171 17t149.5 52.5t115.5 98.5t59 147q12 81 -9.5 144t-68.5 104.5t-110.5 74.5t-135.5 59t-143.5 51.5t-135 58t-110 74t-68 103.5t-9.5 142zM674 1597h-25 l219 267h25z" />
<glyph unicode="&#x15b;" horiz-adv-x="927" d="M131 764q14 82 75 138t139.5 79t168.5 23q91 0 175.5 -23.5t141.5 -62.5l-2 -21q-54 39 -140 62.5t-175 23.5q-63 0 -121.5 -12.5t-110 -38.5t-86.5 -70t-44 -102q-9 -56 9 -98t55 -68t87.5 -46t107.5 -34.5t114 -29.5t107.5 -36t87.5 -49t55 -72.5t9 -103.5 q-19 -120 -130.5 -181.5t-262.5 -61.5q-99 0 -200.5 28t-159.5 72l4 20q62 -45 160.5 -72.5t193.5 -27.5q146 0 251.5 56.5t123.5 168.5q11 70 -21 118t-91 74.5t-132.5 46t-147 40.5t-132 49.5t-90 81.5t-19.5 129zM514 1147h-25l220 266h24z" />
<glyph unicode="&#x15e;" horiz-adv-x="1150" d="M684 -330q-8 -62 -67 -101.5t-166 -39.5q-120 0 -205 47l4 21q85 -48 199 -48q103 0 155.5 35t59.5 90q7 48 -30.5 76.5t-96 28.5t-125.5 -19l88 220q-126 0 -249 31.5t-212 86.5l2 21q204 -119 461 -119q91 0 171 17t149.5 52.5t115.5 98.5t59 147q12 81 -9.5 144 t-68.5 104.5t-110.5 74.5t-135.5 59t-143.5 51.5t-135 58t-110 74t-68 103.5t-9.5 142q11 69 47.5 125.5t87 93.5t114 62t127.5 36t130 11q222 0 385 -96l-2 -21q-159 97 -383 97q-82 0 -159 -17.5t-147 -53t-118.5 -97.5t-61.5 -144q-12 -76 10 -135t68.5 -98.5t110.5 -71 t136 -57.5l144 -52t135.5 -60.5t110 -77.5t68 -108.5t8.5 -148.5q-13 -86 -59.5 -151t-115.5 -103.5t-150 -58t-173 -20.5l-78 -193q61 15 117.5 11t94.5 -38.5t30 -89.5z" />
<glyph unicode="&#x15f;" horiz-adv-x="927" d="M563 -330q-8 -62 -67 -101.5t-166 -39.5q-120 0 -205 47l4 21q85 -48 199 -48q103 0 155.5 35t59.5 90q7 48 -30.5 76.5t-96 28.5t-125.5 -19l88 220q-97 2 -194 29.5t-154 70.5l4 20q62 -45 160.5 -72.5t193.5 -27.5q146 0 251.5 56.5t123.5 168.5q11 70 -21 118 t-91 74.5t-132.5 46t-147 40.5t-132 49.5t-90 81.5t-19.5 129q14 82 75 138t139.5 79t168.5 23q91 0 175.5 -23.5t141.5 -62.5l-2 -21q-54 39 -140 62.5t-175 23.5q-63 0 -121.5 -12.5t-110 -38.5t-86.5 -70t-44 -102q-9 -56 9 -98t55 -68t87.5 -46t107.5 -34.5t114 -29.5 t107.5 -36t87.5 -49t55 -72.5t9 -103.5q-19 -119 -127.5 -180t-257.5 -63l-77 -193q43 15 88 12.5t81.5 -15t57 -43t14.5 -71.5z" />
<glyph unicode="&#x160;" horiz-adv-x="1150" d="M207 1126q11 69 47.5 125.5t87 93.5t114 62t127.5 36t130 11q222 0 385 -96l-2 -21q-159 97 -383 97q-82 0 -159 -17.5t-147 -53t-118.5 -97.5t-61.5 -144q-12 -76 10 -135t68.5 -98.5t110.5 -71t136 -57.5l144 -52t135.5 -60.5t110 -77.5t68 -108.5t8.5 -148.5 q-13 -88 -61 -154t-119.5 -104.5t-155.5 -57t-178 -17.5q-128 0 -252 31.5t-213 86.5l2 21q204 -119 461 -119q91 0 171 17t149.5 52.5t115.5 98.5t59 147q12 81 -9.5 144t-68.5 104.5t-110.5 74.5t-135.5 59t-143.5 51.5t-135 58t-110 74t-68 103.5t-9.5 142zM997 1823 l-295 -246h-16l-217 246h25l202 -228l273 228h28z" />
<glyph unicode="&#x161;" horiz-adv-x="927" d="M131 764q14 82 75 138t139.5 79t168.5 23q91 0 175.5 -23.5t141.5 -62.5l-2 -21q-54 39 -140 62.5t-175 23.5q-63 0 -121.5 -12.5t-110 -38.5t-86.5 -70t-44 -102q-9 -56 9 -98t55 -68t87.5 -46t107.5 -34.5t114 -29.5t107.5 -36t87.5 -49t55 -72.5t9 -103.5 q-19 -120 -130.5 -181.5t-262.5 -61.5q-99 0 -200.5 28t-159.5 72l4 20q62 -45 160.5 -72.5t193.5 -27.5q146 0 251.5 56.5t123.5 168.5q11 70 -21 118t-91 74.5t-132.5 46t-147 40.5t-132 49.5t-90 81.5t-19.5 129zM838 1372l-295 -246h-17l-217 246h25l203 -227l272 227 h29z" />
<glyph unicode="&#x162;" horiz-adv-x="1204" d="M162 1434h1147l-4 -21h-564l-223 -1413h-20l223 1413h-563zM414 -430h-21l90 328h21z" />
<glyph unicode="&#x163;" horiz-adv-x="702" d="M313 1311l23 10l-53 -338h450l-2 -20h-450l-113 -701q-20 -125 37.5 -193.5t179.5 -68.5q129 0 219 49l-2 -20q-84 -49 -215 -49t-196 74t-44 208l113 701h-184l2 20h184zM293 -430h-21l90 328h21z" />
<glyph unicode="&#x164;" horiz-adv-x="1204" d="M162 1434h1147l-4 -21h-564l-223 -1413h-20l223 1413h-563zM1065 1823l-295 -246h-16l-217 246h24l203 -228l272 228h29z" />
<glyph unicode="&#x165;" horiz-adv-x="702" d="M610 1462h19l-88 -305h-17zM313 1311l23 10l-53 -338h450l-2 -20h-450l-113 -701q-20 -125 37.5 -193.5t179.5 -68.5q129 0 219 49l-2 -20q-84 -49 -215 -49t-196 74t-44 208l113 701h-184l2 20h184z" />
<glyph unicode="&#x166;" horiz-adv-x="1230" d="M530 0h-20l115 727h-297l4 21h297l104 665h-563l4 21h1147l-4 -21h-563l-105 -665h297l-4 -21h-297z" />
<glyph unicode="&#x167;" horiz-adv-x="702" d="M733 983l-2 -20h-450l-54 -332h348l-4 -21h-348l-55 -348q-20 -125 37.5 -193.5t179.5 -68.5q129 0 219 49l-2 -20q-84 -49 -215 -49t-196 74t-44 208l56 348h-123l4 21h123l53 332h-184l2 20h184l51 328l23 10l-53 -338h450z" />
<glyph unicode="&#x16a;" horiz-adv-x="1531" d="M1442 1434h20l-149 -949q-79 -505 -641 -505q-82 0 -151 11.5t-130 36t-104 64t-72.5 96t-35.5 130t7 167.5l150 949h20l-149 -949q-12 -90 -7 -161.5t33 -125.5t68.5 -91.5t98.5 -61t124.5 -34.5t145.5 -11q546 0 622 485zM692 1696h492l-2 -21h-492z" />
<glyph unicode="&#x16b;" horiz-adv-x="1169" d="M1034 983h21l-156 -983h-20l39 242q-34 -45 -80 -87.5t-106 -83.5t-136 -66t-152 -25q-161 0 -252 107t-63 292l96 604h21l-96 -604q-27 -177 56 -278t236 -101q148 0 278 86t204 199zM434 1245h492l-2 -20h-492z" />
<glyph unicode="&#x16e;" horiz-adv-x="1531" d="M1442 1434h20l-149 -949q-79 -505 -641 -505q-82 0 -151 11.5t-130 36t-104 64t-72.5 96t-35.5 130t7 167.5l150 949h20l-149 -949q-12 -90 -7 -161.5t33 -125.5t68.5 -91.5t98.5 -61t124.5 -34.5t145.5 -11q546 0 622 485zM1096 1710q-10 -66 -63 -108.5t-115 -42.5 q-66 0 -107 43.5t-29 111.5q10 66 63.5 109t115.5 43q65 0 106 -44t29 -112zM801 1710q-9 -58 26 -94.5t88 -36.5q57 0 104.5 37t57.5 98q9 58 -26 94.5t-88 36.5q-57 0 -104.5 -37t-57.5 -98z" />
<glyph unicode="&#x16f;" horiz-adv-x="1169" d="M1034 983h21l-156 -983h-20l39 242q-34 -45 -80 -87.5t-106 -83.5t-136 -66t-152 -25q-161 0 -252 107t-63 292l96 604h21l-96 -604q-27 -177 56 -278t236 -101q148 0 278 86t204 199zM838 1260q-10 -66 -63.5 -109t-115.5 -43q-65 0 -106 44t-29 112q10 66 63 108.5 t115 42.5q66 0 107 -43.5t29 -111.5zM543 1260q-9 -58 26 -95t88 -37q57 0 104.5 37.5t57.5 98.5q9 58 -26 94.5t-88 36.5q-57 0 -104.5 -37t-57.5 -98z" />
<glyph unicode="&#x170;" horiz-adv-x="1531" d="M1442 1434h20l-149 -949q-79 -505 -641 -505q-82 0 -151 11.5t-130 36t-104 64t-72.5 96t-35.5 130t7 167.5l150 949h20l-149 -949q-12 -90 -7 -161.5t33 -125.5t68.5 -91.5t98.5 -61t124.5 -34.5t145.5 -11q546 0 622 485zM1083 1593h-24l205 287h24zM774 1593h-24 l204 287h25z" />
<glyph unicode="&#x171;" horiz-adv-x="1169" d="M1034 983h21l-156 -983h-20l39 242q-34 -45 -80 -87.5t-106 -83.5t-136 -66t-152 -25q-161 0 -252 107t-63 292l96 604h21l-96 -604q-27 -177 56 -278t236 -101q148 0 278 86t204 199zM825 1143h-24l205 287h24zM516 1143h-24l204 287h25z" />
<glyph unicode="&#x172;" horiz-adv-x="1531" d="M1292 485l150 949h20l-149 -949q-19 -123 -74.5 -224.5t-142.5 -164.5q-155 -113 -238.5 -219t-97.5 -196q-9 -60 26.5 -96t100.5 -36q82 0 164 39l-2 -20q-76 -39 -160 -39q-77 0 -119.5 42.5t-30.5 113.5q11 75 75 167t181 187q-135 -59 -323 -59q-82 0 -151 11.5 t-130 36t-104 64t-72.5 96t-35.5 130t7 167.5l150 949h20l-149 -949q-12 -90 -7 -161.5t33 -125.5t68.5 -91.5t98.5 -61t124.5 -34.5t145.5 -11q546 0 622 485z" />
<glyph unicode="&#x173;" horiz-adv-x="1169" d="M1055 983l-156 -983q-79 -53 -135 -98.5t-103 -105.5t-55 -115q-9 -59 21 -95.5t86 -36.5q49 0 108 19l-2 -23q-56 -16 -104 -16q-66 0 -103.5 43t-25.5 113q21 145 295 327l37 230q-34 -45 -80 -87.5t-106 -83.5t-136 -66t-152 -25q-161 0 -252 107t-63 292l96 604h21 l-96 -604q-27 -177 56 -278t236 -101q148 0 278 86t204 199l110 698h21z" />
<glyph unicode="&#x174;" horiz-adv-x="1996" d="M2050 1434h23l-689 -1434h-20l-236 1380l-682 -1380h-20l-233 1434h20l227 -1401l682 1380h21l235 -1378zM1194 1843h16l217 -246h-24l-201 228l-272 -228h-29z" />
<glyph unicode="&#x175;" horiz-adv-x="1628" d="M1610 983h22l-545 -983h-16l-201 938l-503 -938h-17l-231 983h20l223 -948l500 928h23l198 -930zM932 1393h16l217 -246h-24l-201 227l-272 -227h-29z" />
<glyph unicode="&#x176;" horiz-adv-x="1261" d="M547 0h-21l95 592l-431 842h23l420 -820l680 820h26l-698 -842zM823 1843h17l217 -246h-25l-201 228l-272 -228h-29z" />
<glyph unicode="&#x177;" horiz-adv-x="1081" d="M479 18l588 965h25l-715 -1171q-98 -157 -176 -220t-172 -63q-49 0 -99 12l2 21q57 -13 95 -13q92 0 168 64t165 211l105 172l-365 987h23zM639 1393h16l217 -246h-24l-201 227l-272 -227h-29z" />
<glyph unicode="&#x178;" horiz-adv-x="1261" d="M547 0h-21l95 592l-431 842h23l420 -820l680 820h26l-698 -842zM1042 1708q-2 -11 -11 -20t-21 -9q-14 0 -22 10t-5 23q2 11 12.5 20t20.5 9q15 0 22 -9.5t4 -23.5zM633 1708q-2 -11 -11.5 -20t-21.5 -9q-14 0 -22 10t-5 23q2 11 12.5 20t20.5 9q15 0 22.5 -9.5 t4.5 -23.5z" />
<glyph unicode="&#x179;" horiz-adv-x="1144" d="M997 0h-1052l2 16l1235 1397h-969l4 21h997l-2 -17l-1235 -1397h1024zM733 1597h-24l219 267h24z" />
<glyph unicode="&#x17a;" horiz-adv-x="884" d="M143 983h725l-2 -12l-870 -951h741l-4 -20h-774l2 12l873 951h-693zM514 1147h-25l220 266h24z" />
<glyph unicode="&#x17b;" horiz-adv-x="1144" d="M997 0h-1052l2 16l1235 1397h-969l4 21h997l-2 -17l-1235 -1397h1024zM807 1667q-3 -15 -16.5 -27t-28.5 -12q-19 0 -29.5 12t-7.5 31q3 15 16.5 27t28.5 12q19 0 29.5 -12t7.5 -31z" />
<glyph unicode="&#x17c;" horiz-adv-x="884" d="M143 983h725l-2 -12l-870 -951h741l-4 -20h-774l2 12l873 951h-693zM588 1217q-3 -15 -16.5 -27t-28.5 -12q-19 0 -29.5 12t-7.5 31q3 15 16.5 27t28.5 12q19 0 29.5 -12t7.5 -31z" />
<glyph unicode="&#x17d;" horiz-adv-x="1144" d="M997 0h-1052l2 16l1235 1397h-969l4 21h997l-2 -17l-1235 -1397h1024zM1057 1823l-295 -246h-17l-217 246h25l203 -228l272 228h29z" />
<glyph unicode="&#x17e;" horiz-adv-x="884" d="M143 983h725l-2 -12l-870 -951h741l-4 -20h-774l2 12l873 951h-693zM838 1372l-295 -246h-17l-217 246h25l203 -227l272 227h29z" />
<glyph unicode="&#x2c6;" horiz-adv-x="491" d="M485 1843h17l217 -246h-25l-200 228l-273 -228h-28z" />
<glyph unicode="&#x2da;" horiz-adv-x="397" d="M584 1710q-10 -66 -63 -108.5t-115 -42.5q-66 0 -107 43.5t-29 111.5q10 66 63.5 109t115.5 43q65 0 106 -44t29 -112zM289 1710q-9 -58 26 -94.5t88 -36.5q57 0 104.5 37t57.5 98q9 58 -26 94.5t-88 36.5q-57 0 -104.5 -37t-57.5 -98z" />
<glyph unicode="&#x2dc;" horiz-adv-x="608" d="M821 1759q-2 -57 -34.5 -94t-88.5 -37q-36 0 -83.5 19t-86 42.5t-84.5 42.5t-79 19q-46 0 -75 -31t-30 -82h-20q0 55 34.5 94.5t87.5 39.5q44 0 107.5 -31t125 -61.5t103.5 -30.5q97 0 103 110h20z" />
<glyph unicode="&#x401;" horiz-adv-x="1294" d="M1094 1708q-2 -11 -11.5 -20t-21.5 -9q-14 0 -22 10t-5 23q2 11 12.5 20t20.5 9q15 0 22.5 -9.5t4.5 -23.5zM684 1708q-2 -11 -11.5 -20t-21.5 -9q-14 0 -21.5 10t-4.5 23q2 11 12 20t20 9q15 0 22.5 -9.5t4.5 -23.5zM354 1434h924l-4 -21h-903l-107 -682h842l-4 -20 h-842l-108 -691h915l-4 -20h-936z" />
<glyph unicode="&#x410;" horiz-adv-x="1443" d="M1311 0h-23l-143 465h-883l-291 -465h-24l895 1434h28zM838 1389l-564 -904h867l-279 904q-7 21 -8 26q-2 -5 -8 -14z" />
<glyph unicode="&#x411;" horiz-adv-x="1341" d="M274 799h404q105 0 185 -8.5t158 -34t124.5 -68.5t68 -116.5t5.5 -174.5q-16 -100 -59.5 -172.5t-102 -115t-142.5 -68t-166 -33.5t-188 -8h-434l227 1434h924l-4 -21h-903zM152 20h413q84 0 151 5.5t138 19.5t125 41.5t100.5 68.5t76.5 103.5t42 142.5q15 95 -5.5 164 t-64 109.5t-117.5 64.5t-149.5 31.5t-177.5 7.5h-414z" />
<glyph unicode="&#x412;" horiz-adv-x="1372" d="M354 1434h498q105 0 186.5 -21t140.5 -63t83.5 -112t9.5 -163q-23 -145 -121.5 -223.5t-243.5 -97.5q53 -8 98 -21.5t91.5 -42t77 -68t44.5 -101.5t3 -140q-12 -71 -40.5 -128.5t-65.5 -96.5t-87.5 -68t-100 -45.5t-110 -26.5t-110 -13t-107.5 -3h-473zM1200 385 q10 52 4 94.5t-17.5 76.5t-34.5 60.5t-47.5 46t-57.5 33.5t-63 23t-64.5 14.5t-62.5 7.5t-56 2h-535l-114 -723h452q56 0 103.5 3t106 12.5t106 25t96 43.5t84 65t62.5 92.5t38 123.5zM1253 1079q18 115 -29 191t-142 109.5t-234 33.5h-477l-103 -649h559q73 0 141 18 t128 54t102 98.5t55 144.5z" />
<glyph unicode="&#x413;" horiz-adv-x="1196" d="M147 0h-20l227 1434h918l-4 -21h-897z" />
<glyph unicode="&#x414;" horiz-adv-x="1511" d="M-96 -369h-21l62 389h139q182 253 312 635t192 779h819l-223 -1414h174l-62 -389h-20l57 369h-1372zM606 1413q-66 -395 -192.5 -768.5t-304.5 -624.5h1054l219 1393h-776z" />
<glyph unicode="&#x415;" horiz-adv-x="1294" d="M354 1434h924l-4 -21h-903l-107 -682h842l-4 -20h-842l-108 -691h915l-4 -20h-936z" />
<glyph unicode="&#x416;" horiz-adv-x="1886" d="M1911 1434h22l-553 -699l392 -735h-23l-385 727h-387l-115 -727h-20l114 727h-383l-614 -727h-27l625 735l-336 699h21l331 -686h388l108 686h21l-109 -686h385z" />
<glyph unicode="&#x417;" horiz-adv-x="1234" d="M1090 381q-14 -85 -57 -154t-103 -114t-135.5 -76t-151.5 -44t-154 -13q-291 0 -475 88l4 20q188 -88 469 -88q96 0 187.5 21t176 64.5t143.5 121t75 178.5q12 79 -10.5 141.5t-68.5 101.5t-113.5 65t-137.5 36t-147 10h-258l4 21h258q214 0 357.5 90t168.5 242 q13 83 -15.5 149.5t-88.5 108t-140.5 63t-175.5 21.5q-139 0 -242.5 -22t-217.5 -69l4 21q105 46 210 68t246 22q132 0 236 -39t163 -124t40 -204q-21 -140 -141 -229.5t-300 -107.5q69 -6 128 -21.5t113.5 -44.5t90.5 -69t52.5 -100t5.5 -134z" />
<glyph unicode="&#x418;" horiz-adv-x="1568" d="M1481 1434l-228 -1434h-20l207 1303q2 16 7 45t7 45l-1313 -1393h-14l227 1434h21l-209 -1313l-6 -39l-6 -39l1312 1391h15z" />
<glyph unicode="&#x419;" horiz-adv-x="1568" d="M1481 1434l-228 -1434h-20l207 1303q2 16 7 45t7 45l-1313 -1393h-14l227 1434h21l-209 -1313l-6 -39l-6 -39l1312 1391h15zM1202 1692q-110 -84 -252 -84q-158 0 -239 84l4 26q83 -90 231 -90q149 0 260 90z" />
<glyph unicode="&#x41a;" horiz-adv-x="1331" d="M1368 1434h25l-641 -701l475 -733h-27l-467 727h-471l-115 -727h-20l227 1434h21l-109 -686h473z" />
<glyph unicode="&#x41b;" horiz-adv-x="1495" d="M633 1434h774l-227 -1434h-21l223 1413h-733q-34 -145 -58 -246t-58.5 -233t-62.5 -224t-64.5 -199t-70.5 -179.5t-76.5 -144t-84.5 -113.5t-91.5 -68t-102.5 -26q-50 0 -91 16l2 20q47 -16 86 -16q51 0 98.5 25.5t88.5 67.5t82 113t74 143t69.5 179t64.5 199t62 224 t58.5 234.5t58.5 248.5z" />
<glyph unicode="&#x41c;" horiz-adv-x="1839" d="M1739 1434h12l-227 -1434h-21l219 1384l-817 -964h-18l-518 969l-222 -1389h-20l227 1434h13l532 -992z" />
<glyph unicode="&#x41d;" horiz-adv-x="1568" d="M1460 1434h21l-228 -1434h-20l113 711h-1086l-113 -711h-20l227 1434h21l-111 -703h1086z" />
<glyph unicode="&#x41e;" horiz-adv-x="1691" d="M1602 715q-17 -107 -63.5 -212t-123.5 -199.5t-174.5 -166.5t-224.5 -114.5t-266 -42.5q-91 0 -171 17.5t-142 48.5t-115 75t-88.5 96.5t-62.5 113t-37.5 124.5t-13.5 131t9 133q17 107 63.5 212t123.5 199.5t174.5 166.5t224.5 114.5t266 42.5q91 0 171 -17.5t142 -48.5 t115 -75t88.5 -96.5t62.5 -113t37.5 -124.5t13.5 -131t-9 -133zM150 715q-9 -74 -8.5 -147.5t21 -144t51.5 -133.5t83 -116t116 -92t150.5 -60.5t186.5 -21.5q137 0 262 42t220 112.5t169.5 163.5t119 195t60.5 206q9 74 8.5 147.5t-21 144t-51.5 133.5t-83 116t-116 92 t-150.5 60.5t-186.5 21.5q-137 0 -262 -42t-220 -112.5t-169.5 -163.5t-119 -195t-60.5 -206z" />
<glyph unicode="&#x41f;" horiz-adv-x="1527" d="M147 0h-20l227 1434h1086l-228 -1434h-20l223 1413h-1044z" />
<glyph unicode="&#x420;" horiz-adv-x="1329" d="M354 1434h424q101 0 184 -12.5t157.5 -44t121.5 -80.5t67.5 -127t4.5 -179q-70 -438 -664 -438h-413l-89 -553h-20zM1292 995q15 95 -4 168.5t-63 120t-114.5 76t-150 41.5t-176.5 12h-413l-133 -840h413q576 0 641 422z" />
<glyph unicode="&#x421;" horiz-adv-x="1343" d="M131 719q19 122 66 228.5t112 185.5t145 141.5t168.5 101t179 58.5t179.5 20q220 0 375 -100l-4 -21q-150 101 -371 101q-105 0 -210.5 -27t-207.5 -85t-184.5 -141t-143 -203t-83.5 -263t-0.5 -257t78.5 -200t138.5 -143t180 -86t203.5 -29q216 0 415 102l-4 -20 q-187 -102 -409 -102q-109 0 -209.5 29t-186 89.5t-144.5 146.5t-82.5 208.5t-0.5 265.5z" />
<glyph unicode="&#x422;" horiz-adv-x="1204" d="M162 1434h1147l-4 -21h-564l-223 -1413h-20l223 1413h-563z" />
<glyph unicode="&#x423;" horiz-adv-x="1257" d="M647 326q-133 -200 -240.5 -273t-228.5 -73q-76 0 -137 20l4 20q67 -20 131 -20q109 0 209 64t213 223l29 41l-475 1106h22l465 -1086l719 1086h24z" />
<glyph unicode="&#x424;" horiz-adv-x="1718" d="M764 -72h-21l31 195q-231 1 -395 71.5t-241.5 208.5t-47.5 326q29 187 148.5 319t304 197t420.5 66l30 194h21l-31 -194q231 -1 394.5 -71.5t240.5 -207.5t47 -325q-29 -187 -147.5 -319.5t-302.5 -198t-420 -66.5zM111 725q-42 -273 138 -426.5t529 -155.5l180 1147 q-232 -1 -411 -64.5t-293 -191.5t-143 -309zM979 1290l-180 -1147q352 2 577 149t269 419q42 272 -137 424.5t-529 154.5z" />
<glyph unicode="&#x425;" horiz-adv-x="1218" d="M-41 0h-27l689 737l-431 697h23l422 -682l637 682h26l-653 -701l453 -733h-23l-444 719z" />
<glyph unicode="&#x426;" horiz-adv-x="1544" d="M1329 -369h-20l59 369h-1241l227 1434h21l-223 -1414h1044l223 1414h21l-223 -1414h174z" />
<glyph unicode="&#x427;" horiz-adv-x="1363" d="M1049 0h-21l98 616q-260 -87 -499 -84q-255 3 -377 125t-86 355l67 422h21l-68 -422q-36 -227 81.5 -341.5t361.5 -117.5q238 -3 503 86l125 795h21z" />
<glyph unicode="&#x428;" horiz-adv-x="2183" d="M1868 0h-1741l227 1434h21l-223 -1414h839l223 1414h21l-223 -1414h839l224 1414h20z" />
<glyph unicode="&#x429;" horiz-adv-x="2199" d="M1985 -369h-21l57 369h-1894l227 1434h21l-223 -1414h839l223 1414h21l-223 -1414h839l224 1414h20l-223 -1414h174z" />
<glyph unicode="&#x42a;" horiz-adv-x="1511" d="M741 0h-434l223 1413h-389l4 21h410l-88 -553h414q97 0 178 -12.5t154 -44t120 -80.5t67.5 -127t4.5 -179q-68 -438 -664 -438zM465 860l-133 -840h413q574 0 639 422q15 95 -3.5 168.5t-62.5 120t-114 76t-149 41.5t-176 12h-414z" />
<glyph unicode="&#x42b;" horiz-adv-x="1673" d="M561 0h-434l227 1434h21l-88 -553h413q97 0 178.5 -12.5t154.5 -44t120 -80.5t67.5 -127t4.5 -179q-68 -438 -664 -438zM285 860l-133 -840h413q574 0 639 422q15 95 -3.5 168.5t-62.5 120t-114.5 76t-149.5 41.5t-176 12h-413zM1358 0h-21l228 1434h20z" />
<glyph unicode="&#x42c;" horiz-adv-x="1331" d="M561 0h-434l227 1434h21l-88 -553h413q97 0 178.5 -12.5t154.5 -44t120 -80.5t67.5 -127t4.5 -179q-68 -438 -664 -438zM285 860l-133 -840h413q574 0 639 422q15 95 -3.5 168.5t-62.5 120t-114.5 76t-149.5 41.5t-176 12h-413z" />
<glyph unicode="&#x42d;" horiz-adv-x="1351" d="M229 1354q186 100 414 100q101 0 198.5 -29.5t183 -92t145.5 -149t85 -210.5t2 -268q-23 -146 -82.5 -267t-142 -204.5t-185 -141.5t-212 -85t-223.5 -27q-230 0 -385 102l4 20q168 -102 379 -102q142 0 274.5 43t247 127t196 222.5t109.5 314.5h-860l2 20h860 q15 113 0 214t-55.5 177t-99.5 137t-131 99.5t-150.5 59t-159.5 20.5q-221 0 -418 -101z" />
<glyph unicode="&#x42e;" horiz-adv-x="2191" d="M2101 715q-17 -107 -63.5 -212t-123.5 -199.5t-174.5 -166.5t-224.5 -114.5t-266 -42.5q-102 0 -190.5 22t-154.5 61t-120 93.5t-86.5 118.5t-54 135.5t-23 146.5t6.5 150h-367l-113 -707h-20l227 1434h21l-113 -707h369q18 107 65 211t124 197t174 164t223.5 113 t263.5 42q91 0 171 -17.5t142 -48.5t114.5 -75t88 -96.5t62.5 -113t38 -124.5t13.5 -131t-9.5 -133zM649 715q-9 -74 -8.5 -147.5t21 -144t51.5 -133.5t83 -116t116 -92t150.5 -60.5t186.5 -21.5q137 0 262.5 42t220 112.5t169 163.5t119.5 195t61 206q9 74 8.5 147.5 t-21 144t-51.5 133.5t-83 116t-116 92t-150.5 60.5t-186.5 21.5q-137 0 -262.5 -42t-220 -112.5t-169 -163.5t-119.5 -195t-61 -206z" />
<glyph unicode="&#x42f;" horiz-adv-x="1380" d="M16 0h-26l551 578q-188 28 -280.5 137.5t-63.5 288.5q17 110 72.5 194t138 134.5t181.5 76t212 25.5h491l-227 -1434h-21l91 569h-463q-56 0 -109 6zM217 999q-16 -105 11.5 -185t92 -128t152 -72t195.5 -24h471l129 823h-471q-106 0 -200.5 -24t-174 -72.5t-134 -130 t-71.5 -187.5z" />
<glyph unicode="&#x430;" d="M1006 274q-80 -129 -215.5 -211.5t-290.5 -82.5q-212 0 -329.5 143.5t-80.5 380.5q25 154 109.5 269t203.5 173t254 58q149 0 263.5 -86.5t152.5 -217.5l45 283h21l-156 -983h-20zM111 500q-36 -226 74.5 -363t312.5 -137q163 0 304.5 94t211.5 234l51 321 q-25 142 -139 238t-269 96q-201 0 -355.5 -129.5t-190.5 -353.5z" />
<glyph unicode="&#x431;" horiz-adv-x="1214" d="M1087 446q-33 -215 -175 -340.5t-365 -125.5q-153 0 -261.5 77t-154 215.5t-18.5 313.5q31 195 146 363.5t265 254.5q103 57 206.5 92.5t167 47.5t129.5 38t114 70l-2 -25q-40 -35 -88 -56.5t-102 -34.5t-112.5 -27.5t-138 -45t-159.5 -75.5q-140 -78 -243 -217.5 t-155 -323.5q84 136 228 215.5t303 79.5q207 0 327.5 -142t87.5 -354zM133 596q-40 -267 75 -431.5t337 -164.5q214 0 351 120.5t171 330.5q32 200 -83.5 335.5t-311.5 135.5q-160 0 -309 -86.5t-230 -239.5z" />
<glyph unicode="&#x432;" horiz-adv-x="1103" d="M592 0h-510l156 983h481q133 0 205 -68t53 -182q-14 -90 -70 -150.5t-151 -80.5q220 -36 184 -252q-19 -125 -113.5 -187.5t-234.5 -62.5zM180 489l-74 -469h488q130 0 219.5 58t108.5 176q19 123 -49.5 179t-194.5 56h-498zM256 963l-72 -453h469q133 0 210.5 60.5 t92.5 166.5q15 102 -47.5 164t-193.5 62h-459z" />
<glyph unicode="&#x433;" horiz-adv-x="905" d="M102 0h-20l156 983h684l-2 -20h-664z" />
<glyph unicode="&#x434;" horiz-adv-x="1218" d="M-68 -287h-20l49 307h123q137 220 219 437.5t131 525.5h645l-151 -963h139l-49 -307h-21l45 287h-1065zM451 963q-47 -297 -129 -511.5t-216 -431.5h801l150 943h-606z" />
<glyph unicode="&#x435;" horiz-adv-x="1105" d="M88 494q19 118 71.5 215.5t126.5 161.5t164 98.5t185 34.5q84 0 151.5 -24t111 -65t72.5 -94.5t39 -113t6.5 -119t-20.5 -115.5h-889q-14 -98 4 -178t58.5 -134t100.5 -91t128.5 -53.5t143.5 -16.5q185 0 331 78l-4 -23q-138 -75 -325 -75q-80 0 -152 18.5t-136.5 57.5 t-106 99.5t-60.5 145t0 193.5zM979 494q14 54 16 110t-8.5 111t-38.5 103.5t-69 85t-104 58t-140 21.5q-122 0 -230.5 -55t-188.5 -168t-107 -266h870z" />
<glyph unicode="&#x436;" horiz-adv-x="1425" d="M-43 0h-27l541 510l-324 473h23l315 -461h207l74 461h20l-73 -461h207l460 461h25l-471 -473l377 -510h-23l-370 502h-207l-80 -502h-21l80 502h-201z" />
<glyph unicode="&#x437;" horiz-adv-x="964" d="M801 254q-12 -73 -54 -128t-105 -86t-135.5 -45.5t-154.5 -14.5q-207 0 -348 69l4 21q143 -70 342 -70q79 0 148.5 14t129.5 43.5t100.5 80.5t51.5 120q17 104 -55.5 167.5t-167.5 63.5h-258l4 21h236q128 0 204.5 60.5t92.5 162.5q12 78 -32 136t-122 86t-174 28 q-178 0 -354 -68l4 23q173 66 350 66q158 0 262.5 -73.5t85.5 -201.5q-14 -91 -76.5 -151.5t-163.5 -77.5q87 -19 144 -84t41 -162z" />
<glyph unicode="&#x438;" horiz-adv-x="1191" d="M106 0h-24l156 983h20l-152 -954l947 954h24l-155 -983h-21l152 954z" />
<glyph unicode="&#x439;" horiz-adv-x="1191" d="M948 1241q-110 -84 -252 -84q-158 0 -239 84l4 27q83 -90 231 -90q149 0 260 90zM106 0h-24l156 983h20l-152 -954l947 954h24l-155 -983h-21l152 954z" />
<glyph unicode="&#x43a;" horiz-adv-x="995" d="M102 0h-20l156 983h20l-74 -461h289l481 461h25l-490 -471l396 -512h-23l-391 502h-289z" />
<glyph unicode="&#x43b;" horiz-adv-x="1191" d="M463 963q-45 -238 -93.5 -414t-106 -303.5t-125 -191.5t-144.5 -64q-44 0 -76 12l4 21q32 -13 72 -13q96 0 178 114t148 325.5t126 533.5h631l-155 -983h-21l154 963h-592z" />
<glyph unicode="&#x43c;" horiz-adv-x="1347" d="M102 0h-20l156 983h20l373 -653l579 653h23l-156 -983h-20l151 950l-575 -647h-10l-369 647z" />
<glyph unicode="&#x43d;" horiz-adv-x="1171" d="M102 0h-20l156 983h20l-76 -481h779l75 481h21l-156 -983h-20l75 481h-778z" />
<glyph unicode="&#x43e;" horiz-adv-x="1210" d="M1092 479q-19 -118 -75 -214t-136 -157.5t-175 -94.5t-194 -33q-95 0 -179.5 36.5t-146 102t-89 166t-9.5 219.5q15 95 55 176.5t96.5 140t127 100.5t147.5 62.5t156 20.5q76 0 145.5 -22.5t126.5 -68t96 -107.5t54 -146.5t0 -180.5zM109 500q-18 -113 8 -209 t83.5 -158.5t138 -97.5t171.5 -35q97 0 189 32t169 91t131 152t72 208q18 113 -8 209t-83.5 158.5t-138 97.5t-171.5 35q-97 0 -189 -32t-169 -91t-131 -152t-72 -208z" />
<glyph unicode="&#x43f;" horiz-adv-x="1171" d="M102 0h-20l156 983h819l-156 -983h-20l153 963h-778z" />
<glyph unicode="&#x440;" d="M213 702q82 133 220 217.5t290 84.5q98 0 181 -37.5t140 -104t81 -166t5 -217.5q-25 -155 -106.5 -269t-200 -172t-258.5 -58q-156 0 -267.5 85t-150.5 222l-116 -738h-21l228 1434h20zM1110 483q18 112 -4 206.5t-75.5 158.5t-133 99.5t-174.5 35.5q-159 0 -302.5 -95.5 t-215.5 -240.5l-49 -311q27 -146 136.5 -241t270.5 -95q207 0 359 128t188 355z" />
<glyph unicode="&#x441;" horiz-adv-x="1015" d="M84 494q16 104 61 191t106.5 144.5t136.5 98t151 58.5t151 18q168 0 275 -80l-4 -21q-51 40 -124 60t-147 20q-94 0 -185.5 -29t-175 -86.5t-144.5 -155.5t-81 -223q-19 -119 6 -214t84.5 -154t140.5 -90t177 -31q188 0 328 80l-2 -23q-140 -77 -324 -77 q-99 0 -183.5 31.5t-147.5 92.5t-90.5 162t-8.5 228z" />
<glyph unicode="&#x442;" horiz-adv-x="917" d="M373 0h-21l154 963h-420l2 20h860l-2 -20h-420z" />
<glyph unicode="&#x443;" horiz-adv-x="1081" d="M479 18l588 965h25l-715 -1171q-98 -157 -176 -220t-172 -63q-49 0 -99 12l2 21q57 -13 95 -13q92 0 168 64t165 211l105 172l-365 987h23z" />
<glyph unicode="&#x444;" horiz-adv-x="1413" d="M551 -451h-21l68 431q-166 2 -289.5 62.5t-185.5 180.5t-37 281q26 159 123.5 273t239 169.5t313.5 57.5l67 430h21l-68 -430q124 -2 226 -38t173 -101t101.5 -165t11.5 -221q-19 -120 -79.5 -215.5t-151 -156t-204 -93t-241.5 -34.5zM106 500q-24 -153 34 -267 t178 -172.5t284 -60.5l156 983q-255 -3 -435 -128.5t-217 -354.5zM778 983l-155 -983q166 2 302.5 55.5t230.5 163.5t118 264q19 115 -10 209.5t-96.5 157t-167.5 97t-222 36.5z" />
<glyph unicode="&#x445;" horiz-adv-x="983" d="M-29 0h-28l522 506l-342 477h24l332 -463l479 463h29l-495 -479l360 -504h-25l-350 489z" />
<glyph unicode="&#x446;" horiz-adv-x="1196" d="M995 -287h-20l45 287h-938l156 983h20l-152 -963h779l151 963h21l-152 -963h139z" />
<glyph unicode="&#x447;" horiz-adv-x="1046" d="M776 0h-20l61 389q-173 -70 -364 -70q-181 0 -279 88.5t-70 262.5l50 313h20l-49 -313q-27 -164 63 -247t263 -83q187 0 370 70l90 573h21z" />
<glyph unicode="&#x448;" horiz-adv-x="1642" d="M1372 0h-1290l156 983h20l-152 -963h615l151 963h21l-152 -963h615l151 963h21z" />
<glyph unicode="&#x449;" horiz-adv-x="1667" d="M1466 -287h-20l45 287h-1409l156 983h20l-152 -963h615l151 963h21l-152 -963h615l151 963h21l-152 -963h140z" />
<glyph unicode="&#x44a;" horiz-adv-x="1157" d="M627 0h-416l154 963h-287l2 20h307l-61 -385h395q160 0 248.5 -84.5t66.5 -216.5q-21 -131 -132 -214t-277 -83zM324 578l-88 -558h395q158 0 262 79t123 202q21 121 -60 199t-237 78h-395z" />
<glyph unicode="&#x44b;" horiz-adv-x="1355" d="M498 0h-416l156 983h20l-61 -385h395q160 0 248.5 -84.5t66.5 -216.5q-21 -131 -132 -214t-277 -83zM195 578l-89 -558h396q158 0 262 79t123 202q21 121 -60 199t-237 78h-395zM1085 0h-20l156 983h20z" />
<glyph unicode="&#x44c;" horiz-adv-x="1028" d="M498 0h-416l156 983h20l-61 -385h395q160 0 248.5 -84.5t66.5 -216.5q-21 -131 -132 -214t-277 -83zM195 578l-89 -558h396q158 0 262 79t123 202q21 121 -60 199t-237 78h-395z" />
<glyph unicode="&#x44d;" horiz-adv-x="1034" d="M913 479q-17 -104 -57.5 -189t-96 -142t-125.5 -95.5t-143 -55.5t-151 -17q-180 0 -324 88l4 20q146 -88 318 -88q76 0 147.5 16.5t139 54t121 92.5t93 136.5t54.5 181.5h-617l5 21h616q15 119 -16 214t-95.5 151.5t-145.5 86t-171 29.5q-175 0 -322 -90l5 20 q147 91 317 91q74 0 144 -19t132.5 -61t105.5 -102t60.5 -148.5t1.5 -194.5z" />
<glyph unicode="&#x44e;" horiz-adv-x="1619" d="M1501 479q-19 -118 -75 -214t-135.5 -157.5t-174.5 -94.5t-194 -33q-93 0 -176 35t-144 98t-91 159.5t-17 210.5h-316l-76 -481h-20l156 983h20l-76 -481h316q35 221 199.5 359.5t381.5 140.5q76 0 145.5 -22.5t126.5 -68t96 -107.5t54 -146.5t0 -180.5zM518 500 q-18 -113 8 -209t84 -158.5t138.5 -97.5t171.5 -35q97 0 189 32t169 91t131 152t72 208q18 113 -8 209t-84 158.5t-138.5 97.5t-171.5 35q-97 0 -189 -32t-169 -91t-131 -152t-72 -208z" />
<glyph unicode="&#x44f;" horiz-adv-x="1097" d="M14 0h-26l372 414q-122 22 -183 97t-42 185q20 130 130 208.5t274 78.5h444l-156 -983h-20l63 406h-407q-28 0 -78 4zM156 692q-20 -119 61 -192.5t238 -73.5h419l87 537h-420q-157 0 -261.5 -75t-123.5 -196z" />
<glyph unicode="&#x451;" horiz-adv-x="1105" d="M924 1257q-2 -11 -11.5 -19.5t-21.5 -8.5q-14 0 -22 10t-5 23q1 10 11.5 19t21.5 9q15 0 22.5 -9.5t4.5 -23.5zM514 1257q-2 -11 -11.5 -19.5t-21.5 -8.5q-14 0 -21.5 10t-4.5 23q1 10 11 19t21 9q15 0 22.5 -9.5t4.5 -23.5zM88 494q19 118 71.5 215.5t126.5 161.5 t164 98.5t185 34.5q84 0 151.5 -24t111 -65t72.5 -94.5t39 -113t6.5 -119t-20.5 -115.5h-889q-14 -98 4 -178t58.5 -134t100.5 -91t128.5 -53.5t143.5 -16.5q185 0 331 78l-4 -23q-138 -75 -325 -75q-80 0 -152 18.5t-136.5 57.5t-106 99.5t-60.5 145t0 193.5zM979 494 q14 54 16 110t-8.5 111t-38.5 103.5t-69 85t-104 58t-140 21.5q-122 0 -230.5 -55t-188.5 -168t-107 -266h870z" />
<glyph unicode="&#x2000;" horiz-adv-x="942" />
<glyph unicode="&#x2001;" horiz-adv-x="1884" />
<glyph unicode="&#x2002;" horiz-adv-x="942" />
<glyph unicode="&#x2003;" horiz-adv-x="1884" />
<glyph unicode="&#x2004;" horiz-adv-x="628" />
<glyph unicode="&#x2005;" horiz-adv-x="471" />
<glyph unicode="&#x2006;" horiz-adv-x="314" />
<glyph unicode="&#x2007;" horiz-adv-x="314" />
<glyph unicode="&#x2008;" horiz-adv-x="235" />
<glyph unicode="&#x2009;" horiz-adv-x="376" />
<glyph unicode="&#x200a;" horiz-adv-x="104" />
<glyph unicode="&#x2010;" horiz-adv-x="997" d="M135 504h696l-2 -21h-696z" />
<glyph unicode="&#x2011;" horiz-adv-x="997" d="M135 504h696l-2 -21h-696z" />
<glyph unicode="&#x2012;" horiz-adv-x="997" d="M135 504h696l-2 -21h-696z" />
<glyph unicode="&#x2013;" horiz-adv-x="1161" d="M993 483h-860l2 21h860z" />
<glyph unicode="&#x2014;" horiz-adv-x="1529" d="M1362 483h-1229l2 21h1229z" />
<glyph unicode="&#x2018;" horiz-adv-x="358" d="M213 1004h-20l167 430h21z" />
<glyph unicode="&#x2019;" horiz-adv-x="358" d="M213 1004h-20l167 430h21z" />
<glyph unicode="&#x201a;" horiz-adv-x="299" d="M-45 -287h-21l168 430h21z" />
<glyph unicode="&#x201c;" horiz-adv-x="604" d="M459 1004h-21l168 430h21zM213 1004h-20l167 430h21z" />
<glyph unicode="&#x201d;" horiz-adv-x="604" d="M459 1004h-21l168 430h21zM213 1004h-20l167 430h21z" />
<glyph unicode="&#x201e;" horiz-adv-x="544" d="M201 -287h-21l168 430h21zM-45 -287h-21l168 430h21z" />
<glyph unicode="&#x2026;" horiz-adv-x="782" d="M590 18q-3 -11 -13 -19.5t-22 -8.5q-14 0 -22 10t-5 23q1 10 11.5 19t21.5 9q15 0 23 -9.5t6 -23.5zM98 18q-3 -11 -13 -19.5t-22 -8.5q-14 0 -21.5 10t-4.5 23q1 10 11.5 19t21.5 9q15 0 22.5 -9.5t5.5 -23.5zM344 18q-3 -11 -13 -19.5t-22 -8.5q-14 0 -21.5 10t-4.5 23 q1 11 11 19.5t21 8.5q15 0 23 -9.5t6 -23.5z" />
<glyph unicode="&#x202f;" horiz-adv-x="376" />
<glyph unicode="&#x2039;" horiz-adv-x="526" d="M305 147h-22l-189 338l2 13l293 338h25l-299 -347z" />
<glyph unicode="&#x203a;" horiz-adv-x="524" d="M104 147h-26l301 347l-191 342h23l188 -338l-2 -13z" />
<glyph unicode="&#x205f;" horiz-adv-x="471" />
<glyph unicode="&#x20ac;" horiz-adv-x="1519" d="M1460 1292q-162 101 -381 101q-106 0 -216.5 -32.5t-215 -95.5t-190 -168t-129.5 -237h856l-4 -20h-858q-19 -57 -27 -115q-13 -82 -10 -172h850l-5 -21h-845q10 -126 61 -228t131.5 -167.5t183 -101t216.5 -35.5q247 0 415 102l-4 -20q-155 -102 -409 -102 q-119 0 -225.5 36.5t-190 104.5t-136.5 174t-63 237h-178l4 21h174q-3 94 10 176q8 51 25 111h-164l4 20h166q45 136 133 245t195.5 174.5t221 99.5t222.5 34q232 0 387 -100z" />
<glyph unicode="&#x2122;" horiz-adv-x="1325" d="M684 922h-20l81 512h23l188 -338l301 338h23l-82 -512h-20l77 481l-292 -328h-17l-184 328zM350 922h-20l78 491h-195l4 21h410l-4 -21h-195z" />
<glyph unicode="&#x25fc;" horiz-adv-x="983" d="M0 983h983v-983h-983v983z" />
</font>
</defs>
</svg>
