<?xml version="1.0" standalone="no"?>
<!DOCTYPE svg PUBLIC "-//W3C//DTD SVG 1.1//EN" "http://www.w3.org/Graphics/SVG/1.1/DTD/svg11.dtd" >
<svg xmlns="http://www.w3.org/2000/svg" xmlns:xlink="http://www.w3.org/1999/xlink" version="1.1">
<metadata></metadata>
<defs>
<font id="mullerultralight" horiz-adv-x="1181" >
<font-face units-per-em="2048" ascent="1597" descent="-451" />
<missing-glyph horiz-adv-x="538" />
<glyph horiz-adv-x="0" />
<glyph horiz-adv-x="682" />
<glyph unicode=" "  horiz-adv-x="538" />
<glyph unicode="&#x09;" horiz-adv-x="538" />
<glyph unicode="&#xa0;" horiz-adv-x="538" />
<glyph unicode="!" horiz-adv-x="419" d="M246 362h-70l-6 1072h82zM270 45q0 -27 -17 -43t-44 -16q-24 0 -41.5 16t-17.5 43t17.5 43t41.5 16q27 0 44 -16t17 -43z" />
<glyph unicode="&#x22;" horiz-adv-x="546" d="M399 1139h-55v295h78zM195 1139h-56v295h78z" />
<glyph unicode="#" horiz-adv-x="1327" d="M260 0h-80l90 379h-188v70h205l119 497h-222v70h238l88 379h80l-90 -379h479l88 379h80l-90 -379h186v-70h-203l-116 -497h217v-70h-234l-90 -379h-80l90 379h-479zM485 946l-118 -497h479l117 497h-478z" />
<glyph unicode="$" horiz-adv-x="1165" d="M614 -266h-69v246q-254 13 -441 118v82q105 -60 234.5 -92.5t255.5 -32.5q86 0 157 15t128 46t88.5 85.5t31.5 128.5q0 73 -30.5 128.5t-82 90t-118 61.5t-140 47.5t-147 42t-140 51t-118 68t-82 99.5t-30.5 141q0 86 35 153t96.5 109t138 65t164.5 27v246h69v-246 q102 -3 202 -29t177 -69v-80q-83 47 -193.5 74.5t-215.5 27.5q-110 0 -195.5 -27t-140.5 -90.5t-55 -158.5q0 -69 30.5 -121t82 -85t118 -58t140 -45.5t147 -42t140 -52t118 -71t82 -104.5t30.5 -146q0 -75 -24.5 -135.5t-67 -101.5t-102.5 -68.5t-127.5 -40t-145.5 -13.5 v-243z" />
<glyph unicode="%" horiz-adv-x="1800" d="M522 -123h-80l838 1679h80zM694 1155q0 -141 -90 -221t-219 -80t-220 80t-91 221t91 221t220 80t219 -80t90 -221zM150 1155q0 -105 67 -168t170 -63q101 0 168.5 63t67.5 168t-67.5 168t-168.5 63q-103 0 -170 -63t-67 -168zM1726 279q0 -141 -90 -221.5t-219 -80.5 t-220 80.5t-91 221.5t91 221t220 80t219 -80t90 -221zM1182 279q0 -105 67 -168.5t170 -63.5q101 0 168.5 63.5t67.5 168.5t-67.5 168t-168.5 63q-103 0 -170 -63t-67 -168z" />
<glyph unicode="&#x26;" horiz-adv-x="1409" d="M1128 231l256 -231h-98l-203 180q-196 -203 -508 -203q-215 0 -338.5 101t-123.5 256q0 71 28 135.5t79.5 117t103 91t118.5 78.5q-198 194 -198 354q0 142 115.5 244t299.5 102q158 0 257.5 -80.5t99.5 -206.5q0 -37 -12.5 -73t-29 -63.5t-51 -60t-58.5 -52t-73 -50 t-73 -44.5t-80 -44.5t-74 -40.5l13 -12l491 -444q122 159 119 364h82q0 -232 -142 -418zM659 1380q-153 0 -244 -79.5t-91 -190.5q0 -80 51 -157.5t135 -159.5q19 10 68.5 36t74 39.5t69.5 40t69 44.5t56 45.5t48.5 51.5t28.5 53.5t12 59.5q0 97 -76 157t-201 60zM195 336 q0 -125 102 -204t283 -79q274 0 446 180l-518 461q-2 1 -5 4t-5 4q-51 -29 -90 -55t-81 -62t-69 -72t-45 -82t-18 -95z" />
<glyph unicode="'" horiz-adv-x="342" d="M195 1139h-56v295h78z" />
<glyph unicode="(" horiz-adv-x="526" d="M403 1655h78q-137 -194 -216 -444t-79 -494t79 -494t216 -444h-78q-139 199 -221 447t-82 491t82 491t221 447z" />
<glyph unicode=")" horiz-adv-x="526" d="M45 1655h78q140 -198 221.5 -446t81.5 -492q0 -243 -81.5 -491.5t-221.5 -446.5h-78q137 194 216 444t79 494t-79 494t-216 444z" />
<glyph unicode="*" horiz-adv-x="874" d="M436 1075l-168 -244l-59 43l178 232l-276 82l26 69l271 -98l-9 275h74l-8 -275l272 98l25 -69l-277 -82l179 -232l-60 -43z" />
<glyph unicode="+" horiz-adv-x="1093" d="M584 754h403v-74h-403v-404h-74v404h-404v74h404v403h74v-403z" />
<glyph unicode="," horiz-adv-x="415" d="M143 -295h-65l104 447h82z" />
<glyph unicode="-" horiz-adv-x="993" d="M141 537h711v-74h-711v74z" />
<glyph unicode="." horiz-adv-x="405" d="M264 47q0 -29 -17 -45t-44 -16q-26 0 -44 16.5t-18 44.5q0 27 18 43t44 16q27 0 44 -16t17 -43z" />
<glyph unicode="/" horiz-adv-x="831" d="M141 -117h-61l608 1667h62z" />
<glyph unicode="0" horiz-adv-x="1437" d="M117 696q0 127 23 235.5t71.5 198t119 153t169.5 98t219 34.5q121 0 220 -34.5t169.5 -98t118.5 -153t71 -198t23 -235.5t-23 -235.5t-71 -198t-118.5 -153t-169.5 -98t-220 -34.5q-120 0 -219 34.5t-169.5 98t-119 153t-71.5 198t-23 235.5zM1239 696q0 298 -131 469.5 t-389 171.5t-389 -171.5t-131 -469.5t131 -469.5t389 -171.5t389 171.5t131 469.5z" />
<glyph unicode="1" horiz-adv-x="831" d="M449 1393h57v-1315h282v-78h-677v78h313v1227l-313 -119v78z" />
<glyph unicode="2" horiz-adv-x="1150" d="M147 1286q185 129 424 129q201 0 326 -94t125 -254q0 -50 -12.5 -96t-31 -82.5t-52.5 -74t-63 -64t-77 -59.5t-81 -53t-87 -52q-166 -97 -221 -137q-156 -114 -196 -254q-16 -55 -17 -117h854v-78h-942v45q0 68 14 128.5t36 107.5t57.5 91t70.5 76.5t84.5 67t89 58.5 t93.5 55q19 11 28 16q161 96 219 143q136 110 150 245q2 18 2 36q0 124 -102 197t-273 73q-217 0 -418 -133v80z" />
<glyph unicode="3" horiz-adv-x="1200" d="M1028 1044q0 -113 -67.5 -201.5t-192.5 -115.5q138 -27 227.5 -116t89.5 -242q0 -185 -133 -288.5t-344 -103.5q-291 0 -485 93v80q200 -98 479 -95q184 0 295 82t111 236q0 81 -32 142t-89 96.5t-128.5 53t-156.5 17.5h-205v78l197 -2q175 0 264.5 80.5t89.5 199.5 q0 131 -101 216t-278 85q-219 0 -422 -96v80q192 92 431 92q205 0 327.5 -106t122.5 -265z" />
<glyph unicode="4" horiz-adv-x="1304" d="M860 1393h88v-977h291v-78h-291v-338h-80v338h-813v72zM868 416v866l-710 -866h710z" />
<glyph unicode="5" horiz-adv-x="1175" d="M203 1393h801v-78h-723l-37 -549q151 49 315 49q104 0 194 -23.5t163.5 -72t116 -131t42.5 -191.5q0 -189 -139 -304.5t-369 -115.5q-252 0 -444 95v78q196 -97 436 -97q201 0 317.5 92.5t116.5 251.5q0 91 -36.5 158.5t-101 106.5t-144 58t-174.5 19q-192 0 -377 -65z " />
<glyph unicode="6" horiz-adv-x="1243" d="M201 641q218 205 491 205q90 0 171 -26.5t146.5 -77.5t104.5 -135t39 -189q0 -103 -37.5 -187t-102 -139t-150.5 -85t-185 -30q-274 0 -416.5 180.5t-142.5 499.5q0 197 44.5 344.5t127 237t193 133t249.5 43.5q163 0 305 -76v-77q-141 75 -303 75q-120 0 -215 -37.5 t-168 -116.5t-112 -213t-39 -315v-14zM205 553q22 -240 142 -370t327 -130q84 0 155.5 23t125.5 67.5t85 114.5t31 158q0 91 -32 161t-88 111t-125.5 61.5t-149.5 20.5q-130 0 -254 -56.5t-217 -160.5z" />
<glyph unicode="7" horiz-adv-x="1064" d="M72 1393h954v-70l-639 -1323h-88l635 1315h-862v78z" />
<glyph unicode="8" horiz-adv-x="1316" d="M166 1073q0 66 29 125.5t86.5 109t154.5 78.5t221 29q115 0 210.5 -31t156.5 -82.5t94.5 -116t34.5 -132.5q1 -120 -59 -218.5t-170 -162.5q132 -53 206 -131.5t74 -202.5q0 -70 -33.5 -133.5t-97.5 -115t-170.5 -82t-240.5 -30.5t-240 31.5t-172 87t-100.5 126.5 t-34.5 153q0 123 70.5 229.5t199.5 169.5q-219 105 -219 299zM666 676q-130 33 -207 65q-124 -53 -193 -149.5t-69 -210.5q0 -147 120 -237.5t347 -90.5q212 0 335 82.5t123 200.5q0 44 -13 81.5t-32 65t-53.5 52.5t-65.5 41.5t-81 34.5t-85.5 29t-93.5 27q-21 6 -32 9z M1071 1040q0 119 -111.5 209t-304.5 90q-198 0 -303.5 -76.5t-105.5 -187.5q0 -50 14 -91t48.5 -72.5t61 -52t84.5 -42t83.5 -30t90.5 -26.5q21 -6 31 -9q24 -6 191 -54q104 56 162.5 145.5t58.5 196.5z" />
<glyph unicode="9" horiz-adv-x="1243" d="M90 975q0 136 64.5 237.5t171 152t239.5 50.5q275 0 417 -180t142 -500q0 -197 -44.5 -344.5t-127 -237t-193 -133t-249.5 -43.5q-163 0 -305 76v78q143 -76 303 -76q120 0 215.5 37.5t168.5 116.5t112.5 213t39.5 315v17q-219 -207 -493 -207q-90 0 -171 26.5 t-146.5 77.5t-104.5 135t-39 189zM172 977q0 -91 32 -161t88.5 -111t126 -61.5t150.5 -20.5q130 0 254.5 57.5t216.5 161.5q-22 238 -142.5 367.5t-328.5 129.5q-174 0 -285.5 -94t-111.5 -268z" />
<glyph unicode=":" horiz-adv-x="405" d="M264 823q0 -27 -17 -43t-44 -16q-26 0 -44 16t-18 43t18 43.5t44 16.5q27 0 44 -16.5t17 -43.5zM264 47q0 -29 -17 -45t-44 -16q-26 0 -44 16.5t-18 44.5q0 27 18 43t44 16q27 0 44 -16t17 -43z" />
<glyph unicode=";" horiz-adv-x="589" d="M244 -295h-66l105 447h82zM362 907q0 -27 -17 -43t-44 -16q-26 0 -43.5 16t-17.5 43q0 28 17.5 45t43.5 17q27 0 44 -16.5t17 -45.5z" />
<glyph unicode="&#x3c;" horiz-adv-x="989" d="M834 428v-78l-740 326v82l740 325v-77l-660 -289z" />
<glyph unicode="=" horiz-adv-x="1112" d="M963 864h-813v76h813v-76zM963 494h-813v75h813v-75z" />
<glyph unicode="&#x3e;" horiz-adv-x="989" d="M895 676l-739 -326v78l659 289l-659 289v77l739 -325v-82z" />
<glyph unicode="?" horiz-adv-x="999" d="M514 393h-78q0 64 29.5 130t73.5 119.5t96 113.5t96 113t73.5 118.5t29.5 128.5q0 126 -99.5 194t-273.5 68q-195 0 -383 -114v77q178 115 393 115q200 0 322 -88.5t122 -245.5q0 -60 -22 -120t-57.5 -111t-78.5 -101.5t-85.5 -99t-78 -95.5t-57.5 -99t-22 -103zM535 47 q0 -28 -17.5 -44.5t-44.5 -16.5q-26 0 -43.5 16.5t-17.5 44.5q0 27 17.5 43t43.5 16q27 0 44.5 -16t17.5 -43z" />
<glyph unicode="@" horiz-adv-x="2162" d="M102 492q0 149 41.5 290t125.5 263t201 214t279 144.5t349 52.5q181 0 338.5 -54.5t267.5 -144t190 -205t118 -238.5t38 -243q0 -269 -102 -411t-269 -142q-126 0 -201.5 65.5t-88.5 190.5q-48 -95 -140.5 -151.5t-206.5 -56.5q-174 0 -286.5 116.5t-112.5 304.5 q0 187 113 304.5t286 117.5q114 0 204.5 -56.5t135.5 -145.5v184h76v-574q0 -108 56.5 -168.5t164.5 -60.5q134 0 212.5 127t78.5 356q0 111 -35.5 224t-109 218t-175 186t-245 130t-307.5 49q-171 0 -319.5 -48t-256 -131.5t-185 -195.5t-115.5 -242t-38 -269 q0 -167 50.5 -310.5t140 -248t210 -179.5t262.5 -112t296 -37q248 0 456 73v-77q-209 -74 -458 -74q-164 0 -317 40t-284 121t-229 194.5t-153.5 270.5t-55.5 339zM1382 594q-32 103 -121.5 172.5t-209.5 69.5q-141 0 -235.5 -95.5t-94.5 -253.5t94 -253t236 -95 q120 0 209.5 69.5t121.5 172.5v213z" />
<glyph unicode="A" horiz-adv-x="1449" d="M117 0h-88l651 1434h92l649 -1434h-86l-190 418h-840zM711 1315l-371 -821h774l-371 821q-3 6 -8 18.5t-8 18.5q-3 -6 -8 -18.5t-8 -18.5z" />
<glyph unicode="B" horiz-adv-x="1388" d="M207 1434h534q222 0 352 -90t130 -269q0 -71 -23 -129t-63.5 -96t-89 -61.5t-105.5 -34.5q48 -9 91 -24t89.5 -44t80 -67.5t55 -98.5t22.5 -133q0 -70 -19.5 -127t-51 -96.5t-76.5 -69.5t-92 -47.5t-103.5 -28.5t-104.5 -14.5t-100 -3.5h-526v1434zM1198 395 q-1 73 -30 130.5t-72.5 91.5t-100.5 56t-108 30t-101 8h-497v-633h430q52 0 93.5 2t93.5 10t91.5 21t79 37t65 56.5t41 81t15.5 109.5zM1141 1065q0 291 -406 291h-446v-568h514q89 0 164.5 31t124.5 95.5t49 150.5z" />
<glyph unicode="C" horiz-adv-x="1345" d="M104 700q1 146 43.5 271t114.5 212.5t167 150t201 92.5t216 30q219 0 401 -98v-82q-168 102 -391 102q-99 0 -194.5 -26t-181.5 -81.5t-151 -134t-103.5 -191t-39.5 -245.5q0 -128 39 -235.5t104.5 -182t152.5 -126.5t182.5 -76.5t195.5 -24.5q233 0 404 105v-82 q-184 -101 -418 -101q-109 0 -214 28t-201 87.5t-168.5 143t-115.5 203.5t-43 261z" />
<glyph unicode="D" horiz-adv-x="1497" d="M207 1434h424q188 0 334 -54t238.5 -150.5t140 -226.5t47.5 -286t-47.5 -286t-140 -226.5t-238.5 -150.5t-334 -54h-424v1434zM1309 717q0 294 -172 466.5t-506 172.5h-342v-1278h342q334 0 506 172.5t172 466.5z" />
<glyph unicode="E" horiz-adv-x="1277" d="M207 1434h940v-78h-858v-596h796v-78h-796v-604h876v-78h-958v1434z" />
<glyph unicode="F" horiz-adv-x="1222" d="M207 1434h944v-78h-862v-615h803v-77h-803v-664h-82v1434z" />
<glyph unicode="G" horiz-adv-x="1449" d="M106 717q0 149 43 273t115.5 209t170 144t205.5 86t222 27q228 0 418 -96v-80q-84 47 -192 72.5t-216 25.5q-104 0 -201 -23t-185.5 -75t-154 -127.5t-104.5 -187.5t-39 -248q0 -139 39.5 -251.5t106 -188t156.5 -126.5t188.5 -73.5t204.5 -22.5q196 0 354 76v621h80 v-676q-203 -99 -440 -99q-119 0 -228.5 25.5t-209 83.5t-173 142t-117 210t-43.5 279z" />
<glyph unicode="H" horiz-adv-x="1568" d="M1280 1434h82v-1434h-82v682h-991v-682h-82v1434h82v-674h991v674z" />
<glyph unicode="I" horiz-adv-x="495" d="M207 1434h82v-1434h-82v1434z" />
<glyph unicode="J" horiz-adv-x="1067" d="M334 1434h540v-1051q0 -199 -122 -301t-322 -102q-230 0 -367 88v82q140 -93 355 -93q173 0 274 81t101 247v971h-459v78z" />
<glyph unicode="K" horiz-adv-x="1343" d="M289 0h-82v1434h82v-660h413l486 660h94l-516 -699l569 -735h-96l-537 696h-413v-696z" />
<glyph unicode="L" horiz-adv-x="1179" d="M207 1434h82v-1356h856v-78h-938v1434z" />
<glyph unicode="M" horiz-adv-x="1839" d="M1565 1434h67v-1434h-82v1276l-606 -891h-49l-606 891v-1276h-82v1434h65l648 -949z" />
<glyph unicode="N" horiz-adv-x="1568" d="M289 0h-82v1434h74l999 -1297v125v1172h82v-1434h-72l-1001 1294v-120v-1174z" />
<glyph unicode="O" horiz-adv-x="1689" d="M102 717q0 109 29 214.5t90 200.5t147 167t209 114.5t267 42.5q145 0 268 -42.5t209 -114.5t147 -167t90 -200.5t29 -214.5t-29 -214.5t-90 -200.5t-147 -167.5t-209 -115t-268 -42.5q-144 0 -267 42.5t-209 115t-147 167.5t-90 200.5t-29 214.5zM1505 717 q0 99 -25.5 193.5t-79.5 179.5t-131 149t-186.5 101.5t-238.5 37.5q-128 0 -237.5 -37.5t-186 -101.5t-131 -149t-80 -179.5t-25.5 -193.5t25.5 -193.5t80 -179.5t131 -149t186 -102t237.5 -38q129 0 238.5 38t186.5 102t131 149t79.5 179.5t25.5 193.5z" />
<glyph unicode="P" horiz-adv-x="1337" d="M207 1434h457q83 0 155.5 -9.5t141.5 -29.5t123 -55t95 -83.5t63 -117.5t22 -154q0 -102 -32.5 -181t-86.5 -129t-132.5 -82t-163 -45t-185.5 -13h-375v-535h-82v1434zM1182 985q0 85 -27 150.5t-73 107t-113 67.5t-140 36t-161 10h-379v-744h379q514 0 514 373z" />
<glyph unicode="Q" horiz-adv-x="1689" d="M1589 -68l-53 -53l-238 238q-195 -140 -454 -140q-144 0 -267 42.5t-209 115t-147 167.5t-90 200.5t-29 214.5t29 214.5t90 200.5t147 167t209 114.5t267 42.5q145 0 268 -42.5t209 -114.5t147 -167t90 -200.5t29 -214.5q0 -156 -58.5 -301.5t-172.5 -249.5zM184 717 q0 -99 25.5 -193.5t80 -179.5t131 -149t186 -102t237.5 -38q230 0 397 121l-311 311l51 52l317 -316q101 93 154 223.5t53 270.5q0 99 -25.5 193.5t-79.5 179.5t-131 149t-186.5 101.5t-238.5 37.5q-128 0 -237.5 -37.5t-186 -101.5t-131 -149t-80 -179.5t-25.5 -193.5z" />
<glyph unicode="R" horiz-adv-x="1402" d="M289 0h-82v1434h545q76 0 146.5 -13.5t138 -45t117 -79t80 -120t30.5 -162.5q0 -82 -25.5 -150t-67.5 -114t-99.5 -79t-119 -50t-129.5 -23l533 -598h-101l-526 592h-440v-592zM289 1356v-686h467q80 0 152 18t135.5 56t101 107.5t37.5 162.5q0 75 -25.5 135t-66.5 98 t-97.5 63t-115 35.5t-121.5 10.5h-467z" />
<glyph unicode="S" horiz-adv-x="1163" d="M117 1100q0 89 38.5 159t103.5 112t145 63.5t169 21.5q111 0 220.5 -27t193.5 -73v-80q-83 47 -193.5 74.5t-215.5 27.5q-76 0 -142.5 -16t-120.5 -48t-85 -86.5t-31 -125.5q0 -69 30.5 -122.5t81.5 -88.5t117.5 -63.5t140 -52.5t147 -48.5t140 -58.5t117.5 -76.5 t81.5 -108t30.5 -147.5q0 -94 -40 -165t-109.5 -112.5t-155.5 -61.5t-186 -20q-273 0 -488 121v82q218 -125 484 -125q86 0 158.5 15t131 46t91.5 85.5t33 128.5q0 73 -30.5 129.5t-81.5 94t-117.5 67.5t-140.5 54t-147.5 48.5t-140 57t-117.5 73.5t-81.5 103.5t-30.5 142.5 z" />
<glyph unicode="T" horiz-adv-x="1216" d="M29 1434h1159v-78h-539v-1356h-82v1356h-538v78z" />
<glyph unicode="U" horiz-adv-x="1536" d="M1264 1434h82v-932q0 -142 -44.5 -246t-125.5 -163.5t-182 -87.5t-226 -28t-226 28t-182 87.5t-125.5 163.5t-44.5 246v932h82v-930q0 -98 24.5 -174.5t68 -128t106.5 -84.5t136 -47.5t161 -14.5t161 14.5t136 47.5t106.5 84.5t68 128t24.5 174.5v930z" />
<glyph unicode="V" horiz-adv-x="1394" d="M739 0h-84l-618 1434h88l571 -1342l574 1342h88z" />
<glyph unicode="W" horiz-adv-x="2033" d="M1894 1434h88l-456 -1434h-88l-422 1286l-420 -1286h-88l-457 1434h88l414 -1330l428 1317h74l426 -1317z" />
<glyph unicode="X" horiz-adv-x="1257" d="M113 0h-97l566 737l-535 697h96l486 -633l485 633h96l-532 -697l563 -737h-96l-516 674z" />
<glyph unicode="Y" horiz-adv-x="1298" d="M690 0h-82v571l-565 863h92l514 -787l514 787h92l-565 -863v-571z" />
<glyph unicode="Z" horiz-adv-x="1175" d="M1112 0h-1057v72l938 1284h-903v78h1004v-72l-940 -1284h958v-78z" />
<glyph unicode="[" horiz-adv-x="509" d="M463 -225h-307v1884h307v-78h-225v-1728h225v-78z" />
<glyph unicode="\" horiz-adv-x="831" d="M752 -117h-62l-608 1667h61z" />
<glyph unicode="]" horiz-adv-x="509" d="M354 -225h-307v78h227v1728h-227v78h307v-1884z" />
<glyph unicode="^" horiz-adv-x="1013" d="M197 815h-88l362 619h70l364 -619h-88l-311 533z" />
<glyph unicode="_" horiz-adv-x="888" d="M889 -270h-889v73h889v-73z" />
<glyph unicode="`" horiz-adv-x="348" d="M303 1589h-86l-192 281h98z" />
<glyph unicode="a" horiz-adv-x="1105" d="M922 158q0 -95 98 -95q29 0 76 15v-66q-50 -16 -97 -16q-67 0 -111 38.5t-44 121.5v26q-73 -98 -184 -151.5t-242 -53.5q-89 0 -163.5 29.5t-124.5 96.5t-50 161q0 68 24.5 122t65 89.5t96.5 59t116 33.5t126 10q169 0 336 -54v90q0 146 -88 232t-250 86q-185 0 -350 -64 v76q175 62 356 62q194 0 302 -106t108 -294v-448zM160 266q0 -106 79.5 -162.5t192.5 -56.5q126 0 237 60.5t175 171.5v178q-164 53 -328 53q-70 0 -130.5 -13t-112.5 -40.5t-82.5 -76.5t-30.5 -114z" />
<glyph unicode="b" horiz-adv-x="1259" d="M166 1434h78v-676q61 109 173 178.5t257 69.5q212 0 350.5 -142.5t138.5 -371.5t-138.5 -372t-350.5 -143q-145 0 -257.5 71t-178.5 185v-233h-72v1434zM1085 492q0 202 -118 321t-301 119q-147 0 -261.5 -84.5t-160.5 -212.5v-287q46 -128 160.5 -212.5t261.5 -84.5 q183 0 301 120t118 321z" />
<glyph unicode="c" horiz-adv-x="1009" d="M96 483q0 131 46.5 234.5t123.5 164.5t168.5 92.5t190.5 31.5q171 0 293 -80v-76q-119 82 -285 82q-88 0 -167.5 -26.5t-146 -78.5t-106 -140.5t-39.5 -201.5q0 -108 37 -193t100 -136.5t140 -78t163 -26.5q176 0 314 78v-78q-139 -74 -322 -74q-98 0 -187.5 31 t-162.5 91t-116.5 159t-43.5 225z" />
<glyph unicode="d" horiz-adv-x="1259" d="M1016 1434h78v-1434h-72v233q-65 -114 -178.5 -185t-257.5 -71q-213 0 -351.5 143t-138.5 372t138.5 371.5t351.5 142.5q143 0 256 -70t174 -178v676zM1016 635q-48 129 -162 213t-262 84q-182 0 -300 -119t-118 -321q0 -201 118.5 -321t299.5 -120q148 0 262 84t162 213 v287z" />
<glyph unicode="e" horiz-adv-x="1118" d="M96 492q0 121 41 220.5t109.5 162.5t154 97t177.5 34q89 0 163.5 -24t124.5 -65.5t87.5 -96.5t53.5 -116.5t21.5 -125.5t-8.5 -125h-846q4 -103 44.5 -182.5t106.5 -126t146.5 -70t171.5 -23.5q186 0 320 78v-78q-135 -74 -330 -74q-108 0 -203 31t-170.5 91.5 t-119.5 161.5t-44 231zM952 522q6 53 -2 107.5t-34.5 109.5t-68.5 97.5t-110.5 69t-154.5 26.5q-166 0 -284 -109.5t-124 -300.5h778z" />
<glyph unicode="f" horiz-adv-x="729" d="M297 0h-78v909h-172v74h172v158q0 85 27 148t74 98.5t102 52t119 16.5q136 0 235 -47v-74q-83 47 -221 47q-55 0 -99 -12t-81 -39t-57.5 -76t-20.5 -118v-154h420v-74h-420v-909z" />
<glyph unicode="g" horiz-adv-x="1259" d="M96 492q0 229 138.5 371.5t351.5 142.5q144 0 257.5 -71t178.5 -185v233h72v-983q0 -121 -43.5 -214t-118 -148.5t-165.5 -83t-194 -27.5q-209 0 -389 94v76q187 -96 381 -96q73 0 138 13.5t123 44.5t99.5 76.5t66 113t24.5 151.5v227q-61 -110 -173.5 -180t-256.5 -70 q-213 0 -351.5 143t-138.5 372zM1016 635q-48 129 -162 213t-262 84q-182 0 -300 -119t-118 -321q0 -201 118.5 -321t299.5 -120q148 0 262 82.5t162 206.5v295z" />
<glyph unicode="h" d="M166 1434h78v-646q63 88 163.5 153t231.5 65q168 0 278.5 -109.5t110.5 -292.5v-604h-78v596q0 159 -89 247.5t-228 88.5q-69 0 -132 -21.5t-111 -58.5t-83.5 -78t-62.5 -88v-686h-78v1434z" />
<glyph unicode="i" horiz-adv-x="425" d="M252 0h-78v983h78v-983zM270 1270q0 -28 -16 -43t-41 -15t-41 15t-16 43q0 27 16 41t41 14t41 -14t16 -41z" />
<glyph unicode="j" horiz-adv-x="425" d="M252 -223q0 -70 -21.5 -121t-58.5 -78t-79 -39t-91 -12q-73 0 -143 24v74q51 -22 125 -22q39 0 71 8.5t60 28.5t43.5 57t15.5 88v1198h78v-1206zM268 1270q0 -28 -16 -43t-41 -15q-24 0 -40.5 15t-16.5 43q0 26 16.5 40.5t40.5 14.5q25 0 41 -14t16 -41z" />
<glyph unicode="k" horiz-adv-x="1019" d="M1012 0h-94l-429 469h-245v-469h-78v1434h78v-891h252l368 440h92l-399 -479z" />
<glyph unicode="l" horiz-adv-x="425" d="M174 1495h78v-1495h-78v1495z" />
<glyph unicode="m" horiz-adv-x="1826" d="M244 0h-78v983h72v-188q56 81 154 146t222 65q115 0 200 -57t122 -154q69 88 166 149.5t217 61.5q160 0 257 -104.5t97 -268.5v-633h-78v631q0 133 -77 217t-207 84q-113 0 -201 -62.5t-149 -150.5q8 -36 8 -86v-633h-78v631q0 133 -77.5 217t-207.5 84q-63 0 -121.5 -22 t-103.5 -58t-78.5 -73.5t-58.5 -78.5v-700z" />
<glyph unicode="n" d="M238 780q38 56 89 103t135.5 85t176.5 38q168 0 278.5 -109.5t110.5 -292.5v-604h-78v596q0 159 -89 247.5t-228 88.5q-69 0 -132 -21.5t-111 -58.5t-83.5 -78t-62.5 -88v-686h-78v983h72v-203z" />
<glyph unicode="o" horiz-adv-x="1210" d="M94 492q0 120 42.5 219t114 162.5t162.5 98t191 34.5q101 0 192.5 -34.5t163 -98t114 -162.5t42.5 -219t-42.5 -219t-114 -163t-163 -98.5t-192.5 -34.5q-100 0 -191 34.5t-162.5 98.5t-114 163t-42.5 219zM1038 492q0 135 -60.5 236.5t-158 151.5t-215.5 50 q-117 0 -214 -50t-157.5 -151.5t-60.5 -236.5t60.5 -236.5t157.5 -152t214 -50.5q118 0 215.5 50.5t158 152t60.5 236.5z" />
<glyph unicode="p" horiz-adv-x="1259" d="M238 750q66 114 178.5 185t257.5 71q212 0 350.5 -142.5t138.5 -371.5t-138.5 -372t-350.5 -143q-145 0 -257 69.5t-173 178.5v-676h-78v1434h72v-233zM1085 492q0 201 -118 320.5t-301 119.5q-147 0 -261.5 -84.5t-160.5 -212.5v-287q46 -128 160.5 -212.5t261.5 -84.5 q183 0 301 119t118 322z" />
<glyph unicode="q" horiz-adv-x="1259" d="M96 492q0 229 138.5 371.5t351.5 142.5q144 0 257.5 -71t178.5 -185v233h72v-1434h-78v676q-61 -108 -174 -178t-256 -70q-213 0 -351.5 143t-138.5 372zM1016 635q-48 129 -162 213t-262 84q-181 0 -299.5 -119.5t-118.5 -320.5q0 -202 118 -321.5t300 -119.5 q148 0 262 84t162 213v287z" />
<glyph unicode="r" horiz-adv-x="704" d="M238 715q53 127 171 210t271 79v-78q-86 3 -161 -23.5t-128.5 -74t-91 -108.5t-55.5 -130v-590h-78v983h72v-268z" />
<glyph unicode="s" horiz-adv-x="931" d="M104 748q0 66 30.5 117.5t81.5 81t112 44.5t127 15q92 0 182 -23.5t156 -62.5v-74q-61 39 -153.5 63.5t-180.5 24.5q-53 0 -100.5 -10.5t-88 -31.5t-64.5 -57.5t-24 -84.5q0 -60 37 -102.5t96 -67t130.5 -44t143 -41.5t130.5 -51.5t96 -82t37 -125.5q0 -67 -31 -118 t-84.5 -81t-119.5 -45t-142 -15q-100 0 -205.5 27.5t-171.5 71.5v78q70 -48 173 -75.5t200 -27.5q85 0 151 17.5t109 59.5t43 105q0 59 -37 100.5t-96 65.5t-130.5 43.5t-143 42t-130.5 52.5t-96 83.5t-37 127.5z" />
<glyph unicode="t" horiz-adv-x="770" d="M215 1303l78 22v-342h426v-74h-426v-620q0 -236 242 -236q120 0 210 49v-73q-92 -47 -231 -47q-141 0 -220 76t-79 221v630h-184v74h184v320z" />
<glyph unicode="u" d="M938 983h78v-983h-72v203q-38 -56 -89 -103t-135.5 -85t-176.5 -38q-173 0 -281 108.5t-108 293.5v604h77v-596q0 -160 87.5 -248t230.5 -88q69 0 132 21.5t111 58.5t83.5 78t62.5 88v686z" />
<glyph unicode="v" horiz-adv-x="1075" d="M948 983h86l-454 -983h-84l-455 983h86l412 -895z" />
<glyph unicode="w" horiz-adv-x="1636" d="M1503 983h82l-368 -983h-80l-320 866l-317 -866h-80l-369 983h82l328 -891l319 879h74l322 -879z" />
<glyph unicode="x" horiz-adv-x="989" d="M844 983h92l-395 -479l415 -504h-90l-372 449l-371 -449h-92l418 504l-396 479h90l351 -422z" />
<glyph unicode="y" horiz-adv-x="1087" d="M565 82l398 901h81l-512 -1155q-72 -162 -152 -231.5t-183 -69.5q-54 0 -103 14v70q58 -14 94 -14q88 0 155 63t126 199l59 137l-497 987h84z" />
<glyph unicode="z" horiz-adv-x="919" d="M92 983h733v-68l-663 -845h692v-70h-788v68l665 845h-639v70z" />
<glyph unicode="{" horiz-adv-x="555" d="M473 -156v-69q-120 -22 -177.5 30.5t-57.5 167.5v514q0 96 -56.5 147t-126.5 48v70q70 -3 126.5 47t56.5 147v514q0 115 57.5 169t177.5 30v-70q-87 13 -120.5 -25.5t-33.5 -131.5v-490q0 -95 -40.5 -152.5t-100.5 -72.5q60 -15 100.5 -72.5t40.5 -152.5v-490 q0 -93 33.5 -132t120.5 -26z" />
<glyph unicode="|" horiz-adv-x="393" d="M238 -205h-82v1864h82v-1864z" />
<glyph unicode="}" horiz-adv-x="555" d="M317 -27q0 -115 -57.5 -167.5t-177.5 -30.5v69q87 -13 121.5 26t34.5 132v490q0 96 39.5 153t101.5 72q-62 15 -101.5 72t-39.5 153v490q0 92 -34.5 131t-121.5 26v70q120 24 177.5 -30t57.5 -169v-514q0 -97 56.5 -147t126.5 -47v-70q-70 3 -126.5 -48t-56.5 -147v-514z " />
<glyph unicode="~" horiz-adv-x="1189" d="M1042 756q2 -83 -47.5 -135t-134.5 -52q-63 0 -160.5 34.5l-195 69t-158.5 34.5q-55 0 -85 -30.5t-28 -82.5h-75q-2 85 47.5 135.5t134.5 50.5q51 0 123.5 -21t134 -46.5t133 -46.5t121.5 -21q54 0 85 29.5t30 81.5h75z" />
<glyph unicode="&#xa1;" horiz-adv-x="391" d="M238 -442h-82l6 1071h69zM256 946q0 -27 -17 -43t-44 -16q-24 0 -42 16t-18 43t18 43.5t42 16.5q27 0 44 -16.5t17 -43.5z" />
<glyph unicode="&#xa2;" horiz-adv-x="1046" d="M655 51q162 10 281 78v-78q-120 -64 -281 -74v-223h-69v223q-94 5 -178.5 38t-153.5 93t-109.5 157t-40.5 218q0 123 41 222t110.5 160.5t153.5 96.5t177 42v225h69v-223q159 -7 271 -80v-76q-113 79 -271 82v-881zM586 930q-80 -8 -150.5 -38t-128.5 -83t-91.5 -136.5 t-33.5 -187.5q0 -102 33.5 -184t90.5 -133.5t128 -80.5t152 -34v877z" />
<glyph unicode="&#xa3;" horiz-adv-x="1239" d="M1147 0h-1069v78h67q73 0 116.5 50.5t43.5 141.5v383h-168v78h168v217q0 121 38 213t103 145.5t143 80t167 26.5q166 0 293 -78v-78q-129 80 -285 80q-76 0 -141.5 -22t-119.5 -67t-85 -122.5t-31 -179.5v-215h506v-78h-506v-383q0 -145 -88 -192h848v-78z" />
<glyph unicode="&#xa4;" horiz-adv-x="1171" d="M340 412l-131 -133l-55 55l129 129q-97 104 -97 254t97 254l-129 129l55 55l131 -133q107 78 246 78q138 0 245 -78l132 133l55 -55l-129 -129q94 -104 94 -254t-94 -254l129 -129l-55 -55l-132 133q-107 -78 -245 -78q-139 0 -246 78zM264 717q0 -139 93 -225t229 -86 q134 0 226.5 86t92.5 225q0 138 -92.5 224.5t-226.5 86.5q-136 0 -229 -86t-93 -225z" />
<glyph unicode="&#xa5;" horiz-adv-x="1300" d="M1139 1393h90l-500 -760h340v-70h-379v-178h379v-70h-379v-315h-80v315h-377v70h377v178h-377v70h336l-497 760h90l487 -746z" />
<glyph unicode="&#xa6;" horiz-adv-x="430" d="M256 948h-82v711h82v-711zM256 -205h-82v711h82v-711z" />
<glyph unicode="&#xa7;" horiz-adv-x="995" d="M864 180q0 -81 -51.5 -139t-133 -84.5t-181.5 -26.5q-96 0 -191.5 25t-159.5 68v73q66 -45 161.5 -70.5t185.5 -25.5q128 0 210 46.5t82 133.5q0 26 -6 48.5t-20.5 41.5t-28 33.5t-41 29t-45 23t-54 20.5t-55.5 18t-61 18q-50 13 -75.5 20.5t-69.5 23t-68 29t-55 35.5 t-47 46.5t-27.5 58t-11.5 73.5q0 166 201 273q-86 36 -133.5 89.5t-47.5 139.5q0 121 101 188.5t245 67.5q86 0 173 -23t149 -59v-74q-60 39 -147 62.5t-170 23.5q-115 0 -194 -49t-79 -135q0 -41 18.5 -73.5t40.5 -52.5t71 -40.5t78.5 -29.5t94.5 -26l33 -9 q61 -17 99.5 -29.5t88 -36.5t78 -51.5t48.5 -70.5t20 -97q0 -162 -213 -266q88 -36 138 -92.5t50 -147.5zM498 481q4 -1 42 -12t58 -18q40 15 74.5 33.5t68 46t53 65t19.5 80.5q0 41 -16.5 74t-39 54t-64 40.5t-74.5 30.5t-87 26q-92 26 -133 39q-79 -27 -140.5 -88 t-61.5 -143q0 -35 10 -63.5t34.5 -51t46.5 -37.5t64 -30.5t68 -23.5t78 -22z" />
<glyph unicode="&#xa8;" horiz-adv-x="577" d="M559 1712q0 -26 -18.5 -44.5t-44.5 -18.5t-45 18.5t-19 44.5q0 25 19 44.5t45 19.5t44.5 -19.5t18.5 -44.5zM147 1712q0 -26 -18.5 -44.5t-44.5 -18.5t-45 18.5t-19 44.5q0 25 19 44.5t45 19.5t44.5 -19.5t18.5 -44.5z" />
<glyph unicode="&#xa9;" horiz-adv-x="1748" d="M1638 717q0 -143 -45 -265.5t-121 -208t-174.5 -147t-206.5 -90.5t-217 -29t-216.5 29t-206.5 90.5t-174.5 147t-120.5 208t-45 265.5t45 265.5t120.5 208t174.5 146.5t206.5 90t216.5 29t217 -29t207 -90t174.5 -146.5t120.5 -208t45 -265.5zM1174 375 q-133 -70 -273 -70q-60 0 -117 14.5t-109 46.5t-91.5 77.5t-62.5 111.5t-23 145q0 87 24.5 159.5t66 121.5t97 82.5t115.5 49t123 15.5q140 0 250 -71v-62q-109 70 -240 70q-71 0 -134.5 -20.5t-117 -62t-85.5 -114t-32 -166.5q0 -85 29.5 -151t80 -104.5t111.5 -58 t129 -19.5q135 0 259 67v-61zM150 717q0 -136 42.5 -252t113.5 -197.5t164.5 -140t196 -86t207.5 -27.5t208.5 27.5t197.5 86t165.5 140t114 197.5t42.5 252t-42.5 252t-114 197.5t-165.5 139.5t-197.5 85.5t-208.5 27.5t-207.5 -27.5t-196 -85.5t-164.5 -139.5 t-113.5 -197.5t-42.5 -252z" />
<glyph unicode="&#xab;" horiz-adv-x="888" d="M760 135h-86l-244 346v21l244 346h86l-252 -356zM434 135h-86l-244 346v21l244 346h86l-252 -356z" />
<glyph unicode="&#xac;" horiz-adv-x="1185" d="M1030 602h-78v307h-802v74h880v-381z" />
<glyph unicode="&#xad;" horiz-adv-x="993" d="M141 537h711v-74h-711v74z" />
<glyph unicode="&#xae;" horiz-adv-x="1748" d="M1638 717q0 -143 -45 -265.5t-121 -208t-174.5 -147t-206.5 -90.5t-217 -29t-216.5 29t-206.5 90.5t-174.5 147t-120.5 208t-45 265.5t45 265.5t120.5 208t174.5 146.5t206.5 90t216.5 29t217 -29t207 -90t174.5 -146.5t120.5 -208t45 -265.5zM150 717q0 -136 42.5 -252 t113.5 -197.5t164.5 -140t196 -86t207.5 -27.5t208.5 27.5t197.5 86t165.5 140t114 197.5t42.5 252t-42.5 252t-114 197.5t-165.5 139.5t-197.5 85.5t-208.5 27.5t-207.5 -27.5t-196 -85.5t-164.5 -139.5t-113.5 -197.5t-42.5 -252zM666 307h-62v809h318q49 0 95.5 -10.5 t95 -36t78.5 -78t30 -125.5q0 -185 -187 -225l234 -334h-70l-225 324q-23 -2 -60 -2h-247v-322zM666 1055v-367h252q27 0 49.5 2t52.5 7.5t52.5 17.5t43.5 31t32 49.5t11 70.5q0 48 -17 84t-42 55.5t-60 31t-63 15t-59 3.5h-252z" />
<glyph unicode="&#xaf;" horiz-adv-x="638" d="M49 1720h541v-73h-541v73z" />
<glyph unicode="&#xb0;" horiz-adv-x="802" d="M702 1174q0 -134 -89 -214.5t-212 -80.5t-212 80.5t-89 214.5q0 133 89 213.5t212 80.5t212 -80.5t89 -213.5zM162 1174q0 -106 69.5 -170t169.5 -64t170 64.5t70 169.5t-70 169t-170 64t-169.5 -64t-69.5 -169z" />
<glyph unicode="&#xb1;" horiz-adv-x="1183" d="M629 1186v-404h403v-75h-403v-404h-74v404h-403v75h403v404h74zM1032 0h-880v74h880v-74z" />
<glyph unicode="&#xb4;" horiz-adv-x="348" d="M145 1589h-88l183 281h96z" />
<glyph unicode="&#xb6;" horiz-adv-x="1230" d="M596 -451h-82v1049q-206 0 -324 111t-118 307t118 307t324 111h543v-1885h-80v1807h-381v-1807z" />
<glyph unicode="&#xb7;" horiz-adv-x="407" d="M266 489q0 -27 -17 -43t-44 -16q-26 0 -44 16t-18 43t18 43.5t44 16.5q27 0 44 -16.5t17 -43.5z" />
<glyph unicode="&#xb8;" horiz-adv-x="432" d="M174 0h70l-43 -176q64 10 117.5 0.5t88 -44t35.5 -85.5q2 -77 -61.5 -122.5t-179.5 -45.5q-113 0 -201 45v68q85 -48 193 -48q91 0 136.5 29.5t43.5 75.5q0 59 -81 78.5t-173 -6.5z" />
<glyph unicode="&#xbb;" horiz-adv-x="888" d="M539 135h-84l252 357l-252 356h84l245 -346v-21zM213 135h-84l252 357l-252 356h84l246 -346v-21z" />
<glyph unicode="&#xbc;" horiz-adv-x="1882" d="M1563 836h75v-576h168v-63h-168v-197h-69v197h-479v61zM1569 260v481l-393 -481h393zM430 -23h-45l934 1479h45zM334 1393h51v-770h158v-66h-428v66h202v696l-186 -70v66z" />
<glyph unicode="&#xbd;" horiz-adv-x="1787" d="M422 -23h-45l934 1479h45zM1153 772q116 78 260 78q123 0 199 -57.5t76 -157.5q0 -41 -14.5 -78.5t-34 -64.5t-55.5 -56t-63.5 -47t-72.5 -45q-7 -4 -40 -23.5t-42 -25.5t-36.5 -24t-36.5 -27t-29.5 -27t-28 -32.5t-18.5 -34t-15 -40.5t-4 -44h498v-66h-574v37 q0 56 15.5 103.5t39.5 81t60.5 64.5t70.5 52.5t77 46.5q12 7 18 10q48 28 67.5 40t55 38.5t51 46.5t28.5 50.5t13 64.5q0 70 -56.5 109.5t-154.5 39.5q-129 0 -254 -82v70zM326 1393h51v-770h158v-66h-429v66h203v696l-186 -70v66z" />
<glyph unicode="&#xbe;" horiz-adv-x="1980" d="M575 -23h-45l934 1479h45zM1663 836h76v-576h168v-63h-168v-197h-70v197h-479v61zM1669 260v481l-393 -481h393zM670 1190q0 -66 -38.5 -118.5t-105.5 -70.5q75 -17 125.5 -70t50.5 -143q0 -113 -81.5 -175t-210.5 -62q-168 0 -291 55v68q119 -58 287 -58q104 0 167.5 45 t63.5 132q0 88 -63 129t-164 41h-127v67h118q99 0 150 44t51 112q0 73 -57.5 118.5t-159.5 45.5q-129 0 -252 -60v68q114 57 260 57q126 0 201.5 -63.5t75.5 -161.5z" />
<glyph unicode="&#xbf;" horiz-adv-x="978" d="M909 -350q-183 -115 -393 -115q-200 0 -322 88.5t-122 245.5q0 69 30 139.5t74.5 126t97 116.5t97 113t74.5 114t30 120h78q0 -64 -29.5 -130t-74 -119.5t-96 -113.5t-96 -113t-74 -118.5t-29.5 -128.5q0 -126 99.5 -194t272.5 -68q193 0 383 115v-78zM575 944 q0 -27 -17.5 -43t-43.5 -16q-27 0 -44 16t-17 43q0 29 17 45.5t44 16.5q26 0 43.5 -17t17.5 -45z" />
<glyph unicode="&#xc0;" horiz-adv-x="1449" d="M117 0h-88l651 1434h92l649 -1434h-86l-190 418h-840zM711 1315l-371 -821h774l-371 821q-3 6 -8 18.5t-8 18.5q-3 -6 -8 -18.5t-8 -18.5zM809 1589h-86l-193 281h99z" />
<glyph unicode="&#xc1;" horiz-adv-x="1449" d="M117 0h-88l651 1434h92l649 -1434h-86l-190 418h-840zM711 1315l-371 -821h774l-371 821q-3 6 -8 18.5t-8 18.5q-3 -6 -8 -18.5t-8 -18.5zM723 1589h-88l182 281h96z" />
<glyph unicode="&#xc2;" horiz-adv-x="1449" d="M117 0h-88l651 1434h92l649 -1434h-86l-190 418h-840zM711 1315l-371 -821h774l-371 821q-3 6 -8 18.5t-8 18.5q-3 -6 -8 -18.5t-8 -18.5zM694 1858h68l262 -269h-90l-205 207l-207 -207h-90z" />
<glyph unicode="&#xc3;" horiz-adv-x="1449" d="M117 0h-88l651 1434h92l649 -1434h-86l-190 418h-840zM711 1315l-371 -821h774l-371 821q-3 6 -8 18.5t-8 18.5q-3 -6 -8 -18.5t-8 -18.5zM1030 1767q9 -75 -27 -120t-102 -45q-49 0 -114 27t-125 54t-95 27q-39 0 -59.5 -26.5t-15.5 -71.5h-70q-10 75 28 121.5t101 46.5 q60 0 177 -54.5t157 -54.5q42 0 61.5 25.5t14.5 70.5h69z" />
<glyph unicode="&#xc4;" horiz-adv-x="1449" d="M117 0h-88l651 1434h92l649 -1434h-86l-190 418h-840zM711 1315l-371 -821h774l-371 821q-3 6 -8 18.5t-8 18.5q-3 -6 -8 -18.5t-8 -18.5zM993 1712q0 -26 -18.5 -44.5t-44.5 -18.5t-45 18.5t-19 44.5q0 25 19 44.5t45 19.5t44.5 -19.5t18.5 -44.5zM582 1712 q0 -26 -19 -44.5t-45 -18.5t-44.5 18.5t-18.5 44.5q0 25 18.5 44.5t44.5 19.5t45 -19.5t19 -44.5z" />
<glyph unicode="&#xc5;" horiz-adv-x="1449" d="M117 0h-88l651 1434h92l649 -1434h-86l-190 418h-840zM711 1315l-371 -821h774l-371 821q-3 6 -8 18.5t-8 18.5q-3 -6 -8 -18.5t-8 -18.5zM913 1729q0 -82 -55.5 -133.5t-132.5 -51.5q-78 0 -134 51.5t-56 133.5q0 79 56 129.5t134 50.5q76 0 132 -50.5t56 -129.5z M598 1726q0 -56 37.5 -90t89.5 -34t89.5 34t37.5 90t-37.5 90.5t-89.5 34.5t-89.5 -34.5t-37.5 -90.5z" />
<glyph unicode="&#xc6;" horiz-adv-x="2029" d="M1106 682v-604h811v-78h-893v420h-657l-299 -420h-93l1016 1434h914v-78h-799v-596h737v-78h-737zM414 494h610v856z" />
<glyph unicode="&#xc7;" horiz-adv-x="1345" d="M1264 160v-82q-165 -92 -383 -98l-37 -148q98 14 168 -23t71 -114q2 -77 -61.5 -122.5t-179.5 -45.5q-113 0 -201 45v68q85 -48 193 -48q91 0 136.5 29.5t43.5 75.5q0 59 -81 78.5t-173 -6.5l51 211q-106 4 -206.5 34.5t-191.5 90t-159.5 142t-109 199.5t-40.5 254 q1 146 43.5 271t114.5 212.5t167 150t201 92.5t216 30q219 0 401 -98v-82q-168 102 -391 102q-99 0 -194.5 -26t-181.5 -81.5t-151 -134t-103.5 -191t-39.5 -245.5q0 -128 39 -235.5t104.5 -182t152.5 -126.5t182.5 -76.5t195.5 -24.5q233 0 404 105z" />
<glyph unicode="&#xc8;" horiz-adv-x="1277" d="M207 1434h940v-78h-858v-596h796v-78h-796v-604h876v-78h-958v1434zM766 1589h-86l-193 281h99z" />
<glyph unicode="&#xc9;" horiz-adv-x="1277" d="M207 1434h940v-78h-858v-596h796v-78h-796v-604h876v-78h-958v1434zM680 1589h-88l182 281h96z" />
<glyph unicode="&#xca;" horiz-adv-x="1277" d="M207 1434h940v-78h-858v-596h796v-78h-796v-604h876v-78h-958v1434zM651 1858h68l262 -269h-90l-205 207l-207 -207h-90z" />
<glyph unicode="&#xcb;" horiz-adv-x="1277" d="M207 1434h940v-78h-858v-596h796v-78h-796v-604h876v-78h-958v1434zM950 1712q0 -26 -18.5 -44.5t-44.5 -18.5t-45 18.5t-19 44.5q0 25 19 44.5t45 19.5t44.5 -19.5t18.5 -44.5zM539 1712q0 -26 -19 -44.5t-45 -18.5t-44.5 18.5t-18.5 44.5q0 25 18.5 44.5t44.5 19.5 t45 -19.5t19 -44.5z" />
<glyph unicode="&#xcc;" horiz-adv-x="495" d="M207 1434h82v-1434h-82v1434zM332 1589h-86l-193 281h99z" />
<glyph unicode="&#xcd;" horiz-adv-x="495" d="M207 1434h82v-1434h-82v1434zM246 1589h-88l182 281h96z" />
<glyph unicode="&#xce;" horiz-adv-x="495" d="M207 1434h82v-1434h-82v1434zM217 1858h68l262 -269h-90l-205 207l-207 -207h-90z" />
<glyph unicode="&#xcf;" horiz-adv-x="495" d="M207 1434h82v-1434h-82v1434zM516 1712q0 -26 -18.5 -44.5t-44.5 -18.5t-45 18.5t-19 44.5q0 25 19 44.5t45 19.5t44.5 -19.5t18.5 -44.5zM104 1712q0 -26 -18.5 -44.5t-44.5 -18.5t-45 18.5t-19 44.5q0 25 19 44.5t45 19.5t44.5 -19.5t18.5 -44.5z" />
<glyph unicode="&#xd0;" horiz-adv-x="1499" d="M211 1434h422q188 0 334.5 -54t239 -150.5t139.5 -226t47 -286.5t-47 -286.5t-139.5 -226t-239 -150.5t-334.5 -54h-422v678h-166v76h166v680zM291 78h342q334 0 506 172.5t172 466.5t-172 466.5t-506 172.5h-342v-602h479v-76h-479v-600z" />
<glyph unicode="&#xd1;" horiz-adv-x="1568" d="M289 0h-82v1434h74l999 -1297v125v1172h82v-1434h-72l-1001 1294v-120v-1174zM1090 1767q9 -75 -27 -120t-102 -45q-49 0 -114 27t-125 54t-95 27q-40 0 -60.5 -26.5t-15.5 -71.5h-70q-10 75 28 121.5t101 46.5q60 0 177 -54.5t157 -54.5q42 0 61.5 25.5t14.5 70.5h70z " />
<glyph unicode="&#xd2;" horiz-adv-x="1689" d="M102 717q0 109 29 214.5t90 200.5t147 167t209 114.5t267 42.5q145 0 268 -42.5t209 -114.5t147 -167t90 -200.5t29 -214.5t-29 -214.5t-90 -200.5t-147 -167.5t-209 -115t-268 -42.5q-144 0 -267 42.5t-209 115t-147 167.5t-90 200.5t-29 214.5zM1505 717 q0 99 -25.5 193.5t-79.5 179.5t-131 149t-186.5 101.5t-238.5 37.5q-128 0 -237.5 -37.5t-186 -101.5t-131 -149t-80 -179.5t-25.5 -193.5t25.5 -193.5t80 -179.5t131 -149t186 -102t237.5 -38q129 0 238.5 38t186.5 102t131 149t79.5 179.5t25.5 193.5zM930 1589h-86 l-193 281h99z" />
<glyph unicode="&#xd3;" horiz-adv-x="1689" d="M102 717q0 109 29 214.5t90 200.5t147 167t209 114.5t267 42.5q145 0 268 -42.5t209 -114.5t147 -167t90 -200.5t29 -214.5t-29 -214.5t-90 -200.5t-147 -167.5t-209 -115t-268 -42.5q-144 0 -267 42.5t-209 115t-147 167.5t-90 200.5t-29 214.5zM1505 717 q0 99 -25.5 193.5t-79.5 179.5t-131 149t-186.5 101.5t-238.5 37.5q-128 0 -237.5 -37.5t-186 -101.5t-131 -149t-80 -179.5t-25.5 -193.5t25.5 -193.5t80 -179.5t131 -149t186 -102t237.5 -38q129 0 238.5 38t186.5 102t131 149t79.5 179.5t25.5 193.5zM844 1589h-88 l182 281h96z" />
<glyph unicode="&#xd4;" horiz-adv-x="1689" d="M102 717q0 109 29 214.5t90 200.5t147 167t209 114.5t267 42.5q145 0 268 -42.5t209 -114.5t147 -167t90 -200.5t29 -214.5t-29 -214.5t-90 -200.5t-147 -167.5t-209 -115t-268 -42.5q-144 0 -267 42.5t-209 115t-147 167.5t-90 200.5t-29 214.5zM1505 717 q0 99 -25.5 193.5t-79.5 179.5t-131 149t-186.5 101.5t-238.5 37.5q-128 0 -237.5 -37.5t-186 -101.5t-131 -149t-80 -179.5t-25.5 -193.5t25.5 -193.5t80 -179.5t131 -149t186 -102t237.5 -38q129 0 238.5 38t186.5 102t131 149t79.5 179.5t25.5 193.5zM815 1858h68 l262 -269h-90l-205 207l-207 -207h-90z" />
<glyph unicode="&#xd5;" horiz-adv-x="1689" d="M102 717q0 109 29 214.5t90 200.5t147 167t209 114.5t267 42.5q145 0 268 -42.5t209 -114.5t147 -167t90 -200.5t29 -214.5t-29 -214.5t-90 -200.5t-147 -167.5t-209 -115t-268 -42.5q-144 0 -267 42.5t-209 115t-147 167.5t-90 200.5t-29 214.5zM1505 717 q0 99 -25.5 193.5t-79.5 179.5t-131 149t-186.5 101.5t-238.5 37.5q-128 0 -237.5 -37.5t-186 -101.5t-131 -149t-80 -179.5t-25.5 -193.5t25.5 -193.5t80 -179.5t131 -149t186 -102t237.5 -38q129 0 238.5 38t186.5 102t131 149t79.5 179.5t25.5 193.5zM1151 1767 q9 -75 -27 -120t-102 -45q-49 0 -114 27t-125 54t-95 27q-40 0 -60.5 -26.5t-15.5 -71.5h-69q-10 75 28 121.5t101 46.5q60 0 177 -54.5t157 -54.5q42 0 61 25.5t14 70.5h70z" />
<glyph unicode="&#xd6;" horiz-adv-x="1689" d="M102 717q0 109 29 214.5t90 200.5t147 167t209 114.5t267 42.5q145 0 268 -42.5t209 -114.5t147 -167t90 -200.5t29 -214.5t-29 -214.5t-90 -200.5t-147 -167.5t-209 -115t-268 -42.5q-144 0 -267 42.5t-209 115t-147 167.5t-90 200.5t-29 214.5zM1505 717 q0 99 -25.5 193.5t-79.5 179.5t-131 149t-186.5 101.5t-238.5 37.5q-128 0 -237.5 -37.5t-186 -101.5t-131 -149t-80 -179.5t-25.5 -193.5t25.5 -193.5t80 -179.5t131 -149t186 -102t237.5 -38q129 0 238.5 38t186.5 102t131 149t79.5 179.5t25.5 193.5zM1114 1712 q0 -26 -18.5 -44.5t-44.5 -18.5t-45 18.5t-19 44.5q0 25 19 44.5t45 19.5t44.5 -19.5t18.5 -44.5zM702 1712q0 -26 -18.5 -44.5t-44.5 -18.5t-45 18.5t-19 44.5q0 25 19 44.5t45 19.5t44.5 -19.5t18.5 -44.5z" />
<glyph unicode="&#xd7;" horiz-adv-x="923" d="M463 668l-273 -273l-51 51l273 273l-273 270l51 51l273 -270l270 270l51 -51l-272 -270l272 -273l-51 -51z" />
<glyph unicode="&#xd8;" horiz-adv-x="1689" d="M1485 1532l-168 -232q131 -104 200.5 -259.5t69.5 -323.5q0 -109 -29 -214.5t-90 -200.5t-147 -167.5t-209 -115t-268 -42.5q-230 0 -408 111l-137 -186h-80l162 223q-135 104 -207 263t-72 329q0 109 29 214.5t90 200.5t147 167t209 114.5t267 42.5q240 0 420 -117 l141 193h80zM844 1378q-128 0 -237.5 -37.5t-186 -101.5t-131 -149t-80 -179.5t-25.5 -193.5q0 -154 63 -295t183 -232l787 1084q-151 104 -373 104zM483 152q158 -97 363 -97q160 0 288.5 57.5t207.5 152.5t121 211.5t42 240.5q0 151 -59 288.5t-174 231.5z" />
<glyph unicode="&#xd9;" horiz-adv-x="1536" d="M1264 1434h82v-932q0 -142 -44.5 -246t-125.5 -163.5t-182 -87.5t-226 -28t-226 28t-182 87.5t-125.5 163.5t-44.5 246v932h82v-930q0 -98 24.5 -174.5t68 -128t106.5 -84.5t136 -47.5t161 -14.5t161 14.5t136 47.5t106.5 84.5t68 128t24.5 174.5v930zM856 1589h-86 l-192 281h98z" />
<glyph unicode="&#xda;" horiz-adv-x="1536" d="M1264 1434h82v-932q0 -142 -44.5 -246t-125.5 -163.5t-182 -87.5t-226 -28t-226 28t-182 87.5t-125.5 163.5t-44.5 246v932h82v-930q0 -98 24.5 -174.5t68 -128t106.5 -84.5t136 -47.5t161 -14.5t161 14.5t136 47.5t106.5 84.5t68 128t24.5 174.5v930zM770 1589h-88 l182 281h97z" />
<glyph unicode="&#xdb;" horiz-adv-x="1536" d="M1264 1434h82v-932q0 -142 -44.5 -246t-125.5 -163.5t-182 -87.5t-226 -28t-226 28t-182 87.5t-125.5 163.5t-44.5 246v932h82v-930q0 -98 24.5 -174.5t68 -128t106.5 -84.5t136 -47.5t161 -14.5t161 14.5t136 47.5t106.5 84.5t68 128t24.5 174.5v930zM741 1858h68 l262 -269h-90l-205 207l-207 -207h-90z" />
<glyph unicode="&#xdc;" horiz-adv-x="1536" d="M1264 1434h82v-932q0 -142 -44.5 -246t-125.5 -163.5t-182 -87.5t-226 -28t-226 28t-182 87.5t-125.5 163.5t-44.5 246v932h82v-930q0 -98 24.5 -174.5t68 -128t106.5 -84.5t136 -47.5t161 -14.5t161 14.5t136 47.5t106.5 84.5t68 128t24.5 174.5v930zM1040 1712 q0 -26 -18.5 -44.5t-44.5 -18.5t-45 18.5t-19 44.5q0 25 19 44.5t45 19.5t44.5 -19.5t18.5 -44.5zM629 1712q0 -26 -19 -44.5t-45 -18.5t-44.5 18.5t-18.5 44.5q0 25 18.5 44.5t44.5 19.5t45 -19.5t19 -44.5z" />
<glyph unicode="&#xdd;" horiz-adv-x="1298" d="M690 0h-82v571l-565 863h92l514 -787l514 787h92l-565 -863v-571zM649 1589h-88l182 281h97z" />
<glyph unicode="&#xde;" horiz-adv-x="1333" d="M289 1165h375q101 0 185.5 -12.5t163 -44.5t132.5 -82t86.5 -128.5t32.5 -180.5t-32.5 -181t-86.5 -128.5t-132.5 -81.5t-163 -45t-185.5 -13h-375v-268h-82v1434h82v-269zM289 346h379q514 0 514 371q0 107 -40 181.5t-114 114.5t-161 57t-199 17h-379v-741z" />
<glyph unicode="&#xdf;" horiz-adv-x="1206" d="M1128 305q0 -109 -59.5 -185t-150 -109.5t-201.5 -33.5q-151 0 -266 62v70q115 -62 254 -62q71 0 132 15t109.5 46t76.5 83t28 120q0 62 -33 121t-80.5 104.5t-95 88t-80.5 87.5t-33 87q0 38 16.5 72.5t40 63.5t47 59t40 72t16.5 89q0 92 -79.5 161.5t-213.5 69.5 q-156 0 -254 -92t-98 -254v-1040h-78v1028q0 200 118 313t312 115q89 0 161.5 -26.5t117 -69.5t68.5 -94.5t24 -104.5q0 -50 -16.5 -94t-40 -75t-47 -59t-40 -60t-16.5 -64q0 -37 33 -79t80 -84.5t94.5 -90t80.5 -113t33 -137.5z" />
<glyph unicode="&#xe0;" horiz-adv-x="1105" d="M922 158q0 -95 98 -95q29 0 76 15v-66q-50 -16 -97 -16q-67 0 -111 38.5t-44 121.5v26q-73 -98 -184 -151.5t-242 -53.5q-89 0 -163.5 29.5t-124.5 96.5t-50 161q0 68 24.5 122t65 89.5t96.5 59t116 33.5t126 10q169 0 336 -54v90q0 146 -88 232t-250 86q-185 0 -350 -64 v76q175 62 356 62q194 0 302 -106t108 -294v-448zM160 266q0 -106 79.5 -162.5t192.5 -56.5q126 0 237 60.5t175 171.5v178q-164 53 -328 53q-70 0 -130.5 -13t-112.5 -40.5t-82.5 -76.5t-30.5 -114zM596 1139h-86l-193 280h99z" />
<glyph unicode="&#xe1;" horiz-adv-x="1105" d="M922 158q0 -95 98 -95q29 0 76 15v-66q-50 -16 -97 -16q-67 0 -111 38.5t-44 121.5v26q-73 -98 -184 -151.5t-242 -53.5q-89 0 -163.5 29.5t-124.5 96.5t-50 161q0 68 24.5 122t65 89.5t96.5 59t116 33.5t126 10q169 0 336 -54v90q0 146 -88 232t-250 86q-185 0 -350 -64 v76q175 62 356 62q194 0 302 -106t108 -294v-448zM160 266q0 -106 79.5 -162.5t192.5 -56.5q126 0 237 60.5t175 171.5v178q-164 53 -328 53q-70 0 -130.5 -13t-112.5 -40.5t-82.5 -76.5t-30.5 -114zM510 1139h-88l182 280h96z" />
<glyph unicode="&#xe2;" horiz-adv-x="1105" d="M922 158q0 -95 98 -95q29 0 76 15v-66q-50 -16 -97 -16q-67 0 -111 38.5t-44 121.5v26q-73 -98 -184 -151.5t-242 -53.5q-89 0 -163.5 29.5t-124.5 96.5t-50 161q0 68 24.5 122t65 89.5t96.5 59t116 33.5t126 10q169 0 336 -54v90q0 146 -88 232t-250 86q-185 0 -350 -64 v76q175 62 356 62q194 0 302 -106t108 -294v-448zM160 266q0 -106 79.5 -162.5t192.5 -56.5q126 0 237 60.5t175 171.5v178q-164 53 -328 53q-70 0 -130.5 -13t-112.5 -40.5t-82.5 -76.5t-30.5 -114zM481 1407h68l262 -268h-90l-205 207l-207 -207h-90z" />
<glyph unicode="&#xe3;" horiz-adv-x="1105" d="M922 158q0 -95 98 -95q29 0 76 15v-66q-50 -16 -97 -16q-67 0 -111 38.5t-44 121.5v26q-73 -98 -184 -151.5t-242 -53.5q-89 0 -163.5 29.5t-124.5 96.5t-50 161q0 68 24.5 122t65 89.5t96.5 59t116 33.5t126 10q169 0 336 -54v90q0 146 -88 232t-250 86q-185 0 -350 -64 v76q175 62 356 62q194 0 302 -106t108 -294v-448zM160 266q0 -106 79.5 -162.5t192.5 -56.5q126 0 237 60.5t175 171.5v178q-164 53 -328 53q-70 0 -130.5 -13t-112.5 -40.5t-82.5 -76.5t-30.5 -114zM817 1317q9 -75 -27.5 -120.5t-101.5 -45.5q-49 0 -114 27.5t-125 54.5 t-95 27q-39 0 -59.5 -27t-15.5 -72h-70q-10 75 28 121.5t101 46.5q60 0 177 -54t157 -54q42 0 61.5 25.5t14.5 70.5h69z" />
<glyph unicode="&#xe4;" horiz-adv-x="1105" d="M922 158q0 -95 98 -95q29 0 76 15v-66q-50 -16 -97 -16q-67 0 -111 38.5t-44 121.5v26q-73 -98 -184 -151.5t-242 -53.5q-89 0 -163.5 29.5t-124.5 96.5t-50 161q0 68 24.5 122t65 89.5t96.5 59t116 33.5t126 10q169 0 336 -54v90q0 146 -88 232t-250 86q-185 0 -350 -64 v76q175 62 356 62q194 0 302 -106t108 -294v-448zM160 266q0 -106 79.5 -162.5t192.5 -56.5q126 0 237 60.5t175 171.5v178q-164 53 -328 53q-70 0 -130.5 -13t-112.5 -40.5t-82.5 -76.5t-30.5 -114zM780 1262q0 -26 -18.5 -45t-44.5 -19t-45 19t-19 45q0 25 19 44t45 19 t44.5 -19t18.5 -44zM369 1262q0 -26 -19 -45t-45 -19t-44.5 19t-18.5 45q0 25 18.5 44t44.5 19t45 -19t19 -44z" />
<glyph unicode="&#xe5;" horiz-adv-x="1105" d="M922 158q0 -95 98 -95q29 0 76 15v-66q-50 -16 -97 -16q-67 0 -111 38.5t-44 121.5v26q-73 -98 -184 -151.5t-242 -53.5q-89 0 -163.5 29.5t-124.5 96.5t-50 161q0 68 24.5 122t65 89.5t96.5 59t116 33.5t126 10q169 0 336 -54v90q0 146 -88 232t-250 86q-185 0 -350 -64 v76q175 62 356 62q194 0 302 -106t108 -294v-448zM160 266q0 -106 79.5 -162.5t192.5 -56.5q126 0 237 60.5t175 171.5v178q-164 53 -328 53q-70 0 -130.5 -13t-112.5 -40.5t-82.5 -76.5t-30.5 -114zM700 1278q0 -82 -55.5 -133t-132.5 -51q-78 0 -134 51t-56 133 q0 79 56 129.5t134 50.5q76 0 132 -50.5t56 -129.5zM385 1276q0 -56 37.5 -90.5t89.5 -34.5t89.5 34.5t37.5 90.5t-37.5 90.5t-89.5 34.5t-89.5 -34.5t-37.5 -90.5z" />
<glyph unicode="&#xe6;" horiz-adv-x="1859" d="M932 215q-94 -118 -227.5 -178t-278.5 -60q-93 0 -169 29.5t-126.5 96.5t-50.5 161q0 68 24.5 122t65.5 89.5t98 59t118.5 33.5t129.5 10q177 0 344 -54v90q0 148 -88.5 233t-265.5 85q-185 0 -350 -64v76q175 62 356 62q176 0 277.5 -78.5t125.5 -220.5 q49 140 168 219.5t256 79.5q85 0 156 -23.5t119 -64.5t84 -96.5t51 -118t19.5 -129.5t-9.5 -132h-821q3 -80 30.5 -145.5t71.5 -110.5t102 -76t121.5 -45t131.5 -14q76 0 159.5 21t145.5 57v-74q-65 -36 -151.5 -57t-168.5 -21q-140 0 -261 60t-187 178zM160 266 q0 -72 40 -123t102 -73.5t138 -22.5q132 0 253.5 55.5t207.5 165.5q-33 81 -39 189q-171 53 -338 53q-73 0 -135.5 -13t-115 -40.5t-83 -76t-30.5 -114.5zM1339 932q-163 0 -279 -111t-122 -309h752q6 57 -1.5 114.5t-32.5 113t-65 98t-105 68.5t-147 26z" />
<glyph unicode="&#xe7;" horiz-adv-x="1009" d="M928 129v-78q-130 -68 -293 -71l-39 -156q64 10 117.5 0.5t88.5 -44t36 -85.5q2 -77 -62 -122.5t-180 -45.5t-201 45v68q82 -48 193 -48q91 0 136.5 29.5t43.5 75.5q0 59 -81 78.5t-173 -6.5l51 211q-93 6 -175 40t-149 94t-106 155t-39 214q0 131 46.5 234.5 t123.5 164.5t168.5 92.5t190.5 31.5q171 0 293 -80v-76q-119 82 -285 82q-88 0 -167.5 -26.5t-146 -78.5t-106 -140.5t-39.5 -201.5q0 -108 37 -193t100 -136.5t140 -78t163 -26.5q176 0 314 78z" />
<glyph unicode="&#xe8;" horiz-adv-x="1118" d="M96 492q0 121 41 220.5t109.5 162.5t154 97t177.5 34q89 0 163.5 -24t124.5 -65.5t87.5 -96.5t53.5 -116.5t21.5 -125.5t-8.5 -125h-846q4 -103 44.5 -182.5t106.5 -126t146.5 -70t171.5 -23.5q186 0 320 78v-78q-135 -74 -330 -74q-108 0 -203 31t-170.5 91.5 t-119.5 161.5t-44 231zM952 522q6 53 -2 107.5t-34.5 109.5t-68.5 97.5t-110.5 69t-154.5 26.5q-166 0 -284 -109.5t-124 -300.5h778zM662 1139h-87l-192 280h98z" />
<glyph unicode="&#xe9;" horiz-adv-x="1118" d="M96 492q0 121 41 220.5t109.5 162.5t154 97t177.5 34q89 0 163.5 -24t124.5 -65.5t87.5 -96.5t53.5 -116.5t21.5 -125.5t-8.5 -125h-846q4 -103 44.5 -182.5t106.5 -126t146.5 -70t171.5 -23.5q186 0 320 78v-78q-135 -74 -330 -74q-108 0 -203 31t-170.5 91.5 t-119.5 161.5t-44 231zM952 522q6 53 -2 107.5t-34.5 109.5t-68.5 97.5t-110.5 69t-154.5 26.5q-166 0 -284 -109.5t-124 -300.5h778zM575 1139h-88l183 280h96z" />
<glyph unicode="&#xea;" horiz-adv-x="1118" d="M96 492q0 121 41 220.5t109.5 162.5t154 97t177.5 34q89 0 163.5 -24t124.5 -65.5t87.5 -96.5t53.5 -116.5t21.5 -125.5t-8.5 -125h-846q4 -103 44.5 -182.5t106.5 -126t146.5 -70t171.5 -23.5q186 0 320 78v-78q-135 -74 -330 -74q-108 0 -203 31t-170.5 91.5 t-119.5 161.5t-44 231zM952 522q6 53 -2 107.5t-34.5 109.5t-68.5 97.5t-110.5 69t-154.5 26.5q-166 0 -284 -109.5t-124 -300.5h778zM547 1407h67l263 -268h-91l-204 207l-207 -207h-90z" />
<glyph unicode="&#xeb;" horiz-adv-x="1118" d="M96 492q0 121 41 220.5t109.5 162.5t154 97t177.5 34q89 0 163.5 -24t124.5 -65.5t87.5 -96.5t53.5 -116.5t21.5 -125.5t-8.5 -125h-846q4 -103 44.5 -182.5t106.5 -126t146.5 -70t171.5 -23.5q186 0 320 78v-78q-135 -74 -330 -74q-108 0 -203 31t-170.5 91.5 t-119.5 161.5t-44 231zM952 522q6 53 -2 107.5t-34.5 109.5t-68.5 97.5t-110.5 69t-154.5 26.5q-166 0 -284 -109.5t-124 -300.5h778zM846 1262q0 -26 -19 -45t-45 -19t-44.5 19t-18.5 45q0 25 18.5 44t44.5 19t45 -19t19 -44zM434 1262q0 -26 -18.5 -45t-44.5 -19t-45 19 t-19 45q0 25 19 44t45 19t44.5 -19t18.5 -44z" />
<glyph unicode="&#xec;" horiz-adv-x="423" d="M250 0h-78v983h78v-983zM309 1139h-76l-176 280h88z" />
<glyph unicode="&#xed;" horiz-adv-x="423" d="M174 983h78v-983h-78v983zM211 1139h-88l182 280h96z" />
<glyph unicode="&#xee;" horiz-adv-x="421" d="M180 1386h68l205 -247h-86l-154 186l-154 -186h-84zM172 983h78v-983h-78v983z" />
<glyph unicode="&#xef;" horiz-adv-x="421" d="M422 1262q0 -25 -17.5 -42.5t-42.5 -17.5t-42 17.5t-17 42.5q0 24 17.5 41.5t41.5 17.5t42 -17.5t18 -41.5zM117 1262q0 -25 -17.5 -42.5t-42.5 -17.5t-42 17.5t-17 42.5q0 24 17.5 41.5t41.5 17.5q25 0 42.5 -17.5t17.5 -41.5zM172 983h78v-983h-78v983z" />
<glyph unicode="&#xf0;" horiz-adv-x="1218" d="M1102 547q0 -263 -139 -416.5t-367 -153.5q-218 0 -359 132t-141 348q0 132 65.5 239t173 164.5t234.5 57.5q105 0 199.5 -38t166 -118t95.5 -189q0 32 -2 48q-5 114 -33 212t-70.5 169.5t-101 129.5t-119.5 95.5t-131 64.5l-231 -229l-45 47l207 207q-144 43 -297 43v74 q177 0 354 -60l174 174l45 -47l-155 -155q78 -34 144.5 -79.5t129 -114.5t106.5 -154t70.5 -200.5t26.5 -250.5zM174 457q0 -184 117 -294t305 -110q170 0 278 96.5t138 262.5q-2 103 -39 187t-97.5 136.5t-136.5 80.5t-159 28q-172 0 -289 -108.5t-117 -278.5z" />
<glyph unicode="&#xf1;" d="M238 780q38 56 89 103t135.5 85t176.5 38q168 0 278.5 -109.5t110.5 -292.5v-604h-78v596q0 159 -89 247.5t-228 88.5q-69 0 -132 -21.5t-111 -58.5t-83.5 -78t-62.5 -88v-686h-78v983h72v-203zM895 1317q9 -75 -27.5 -120.5t-101.5 -45.5q-49 0 -114 27.5t-125 54.5 t-95 27q-39 0 -60 -27t-16 -72h-69q-10 75 28 121.5t101 46.5q60 0 177 -54t157 -54q42 0 61 25.5t14 70.5h70z" />
<glyph unicode="&#xf2;" horiz-adv-x="1210" d="M94 492q0 120 42.5 219t114 162.5t162.5 98t191 34.5q101 0 192.5 -34.5t163 -98t114 -162.5t42.5 -219t-42.5 -219t-114 -163t-163 -98.5t-192.5 -34.5q-100 0 -191 34.5t-162.5 98.5t-114 163t-42.5 219zM1038 492q0 135 -60.5 236.5t-158 151.5t-215.5 50 q-117 0 -214 -50t-157.5 -151.5t-60.5 -236.5t60.5 -236.5t157.5 -152t214 -50.5q118 0 215.5 50.5t158 152t60.5 236.5zM688 1126h-86l-192 281h98z" />
<glyph unicode="&#xf3;" horiz-adv-x="1210" d="M94 492q0 120 42.5 219t114 162.5t162.5 98t191 34.5q101 0 192.5 -34.5t163 -98t114 -162.5t42.5 -219t-42.5 -219t-114 -163t-163 -98.5t-192.5 -34.5q-100 0 -191 34.5t-162.5 98.5t-114 163t-42.5 219zM1038 492q0 135 -60.5 236.5t-158 151.5t-215.5 50 q-117 0 -214 -50t-157.5 -151.5t-60.5 -236.5t60.5 -236.5t157.5 -152t214 -50.5q118 0 215.5 50.5t158 152t60.5 236.5zM602 1126h-88l182 281h97z" />
<glyph unicode="&#xf4;" horiz-adv-x="1210" d="M94 492q0 120 42.5 219t114 162.5t162.5 98t191 34.5q101 0 192.5 -34.5t163 -98t114 -162.5t42.5 -219t-42.5 -219t-114 -163t-163 -98.5t-192.5 -34.5q-100 0 -191 34.5t-162.5 98.5t-114 163t-42.5 219zM1038 492q0 135 -60.5 236.5t-158 151.5t-215.5 50 q-117 0 -214 -50t-157.5 -151.5t-60.5 -236.5t60.5 -236.5t157.5 -152t214 -50.5q118 0 215.5 50.5t158 152t60.5 236.5zM573 1395h68l262 -269h-90l-205 207l-207 -207h-90z" />
<glyph unicode="&#xf5;" horiz-adv-x="1210" d="M94 492q0 120 42.5 219t114 162.5t162.5 98t191 34.5q101 0 192.5 -34.5t163 -98t114 -162.5t42.5 -219t-42.5 -219t-114 -163t-163 -98.5t-192.5 -34.5q-100 0 -191 34.5t-162.5 98.5t-114 163t-42.5 219zM1038 492q0 135 -60.5 236.5t-158 151.5t-215.5 50 q-117 0 -214 -50t-157.5 -151.5t-60.5 -236.5t60.5 -236.5t157.5 -152t214 -50.5q118 0 215.5 50.5t158 152t60.5 236.5zM909 1305q9 -75 -27.5 -120.5t-101.5 -45.5q-49 0 -114 27t-125 54t-95 27q-39 0 -59.5 -26.5t-15.5 -71.5h-70q-10 75 28 121.5t101 46.5 q60 0 177 -54.5t157 -54.5q42 0 61.5 26t14.5 71h69z" />
<glyph unicode="&#xf6;" horiz-adv-x="1210" d="M94 492q0 120 42.5 219t114 162.5t162.5 98t191 34.5q101 0 192.5 -34.5t163 -98t114 -162.5t42.5 -219t-42.5 -219t-114 -163t-163 -98.5t-192.5 -34.5q-100 0 -191 34.5t-162.5 98.5t-114 163t-42.5 219zM1038 492q0 135 -60.5 236.5t-158 151.5t-215.5 50 q-117 0 -214 -50t-157.5 -151.5t-60.5 -236.5t60.5 -236.5t157.5 -152t214 -50.5q118 0 215.5 50.5t158 152t60.5 236.5zM872 1249q0 -26 -18.5 -44.5t-44.5 -18.5t-45 18.5t-19 44.5q0 25 19 44.5t45 19.5t44.5 -19.5t18.5 -44.5zM461 1249q0 -26 -19 -44.5t-45 -18.5 t-44.5 18.5t-18.5 44.5q0 25 18.5 44.5t44.5 19.5t45 -19.5t19 -44.5z" />
<glyph unicode="&#xf7;" horiz-adv-x="1306" d="M1145 680h-983v74h983v-74zM715 256q0 -27 -17.5 -43t-44.5 -16q-26 0 -43.5 16t-17.5 43q0 28 17.5 43.5t43.5 15.5q27 0 44.5 -15.5t17.5 -43.5zM715 1171q0 -27 -17.5 -43t-44.5 -16q-26 0 -43.5 16t-17.5 43q0 28 17.5 44t43.5 16q27 0 44.5 -16t17.5 -44z" />
<glyph unicode="&#xf8;" horiz-adv-x="1210" d="M1038 1112l-129 -201q96 -66 151.5 -172.5t55.5 -246.5q0 -120 -42.5 -219t-114 -163t-163 -98.5t-192.5 -34.5q-138 0 -258 66l-102 -162h-72l125 193q-95 67 -149 173.5t-54 244.5q0 120 42.5 219t114 162.5t162.5 98t191 34.5q135 0 254 -64l109 170h71zM604 930 q-117 0 -214 -50t-157.5 -151.5t-60.5 -236.5q0 -116 45 -206.5t123 -148.5l477 744q-94 49 -213 49zM389 106q95 -53 215 -53q118 0 215.5 50.5t158 152t60.5 236.5q0 117 -46 208.5t-126 149.5z" />
<glyph unicode="&#xf9;" d="M938 983h78v-983h-72v203q-38 -56 -89 -103t-135.5 -85t-176.5 -38q-173 0 -281 108.5t-108 293.5v604h77v-596q0 -160 87.5 -248t230.5 -88q69 0 132 21.5t111 58.5t83.5 78t62.5 88v686zM682 1139h-86l-193 280h99z" />
<glyph unicode="&#xfa;" d="M938 983h78v-983h-72v203q-38 -56 -89 -103t-135.5 -85t-176.5 -38q-173 0 -281 108.5t-108 293.5v604h77v-596q0 -160 87.5 -248t230.5 -88q69 0 132 21.5t111 58.5t83.5 78t62.5 88v686zM596 1139h-88l182 280h96z" />
<glyph unicode="&#xfb;" d="M938 983h78v-983h-72v203q-38 -56 -89 -103t-135.5 -85t-176.5 -38q-173 0 -281 108.5t-108 293.5v604h77v-596q0 -160 87.5 -248t230.5 -88q69 0 132 21.5t111 58.5t83.5 78t62.5 88v686zM567 1407h68l262 -268h-90l-205 207l-207 -207h-90z" />
<glyph unicode="&#xfc;" d="M938 983h78v-983h-72v203q-38 -56 -89 -103t-135.5 -85t-176.5 -38q-173 0 -281 108.5t-108 293.5v604h77v-596q0 -160 87.5 -248t230.5 -88q69 0 132 21.5t111 58.5t83.5 78t62.5 88v686zM866 1262q0 -26 -18.5 -45t-44.5 -19t-45 19t-19 45q0 25 19 44t45 19t44.5 -19 t18.5 -44zM455 1262q0 -26 -19 -45t-45 -19t-44.5 19t-18.5 45q0 25 18.5 44t44.5 19t45 -19t19 -44z" />
<glyph unicode="&#xfd;" horiz-adv-x="1087" d="M565 82l398 901h81l-512 -1155q-72 -162 -152 -231.5t-183 -69.5q-54 0 -103 14v70q58 -14 94 -14q88 0 155 63t126 199l59 137l-497 987h84zM526 1139h-88l183 280h96z" />
<glyph unicode="&#xfe;" horiz-adv-x="1259" d="M166 1434h78v-676q61 109 173 178.5t257 69.5q212 0 350.5 -142.5t138.5 -371.5t-138.5 -372t-350.5 -143q-145 0 -257 69.5t-173 178.5v-676h-78v1885zM1085 492q0 201 -118 320.5t-301 119.5q-147 0 -261.5 -84.5t-160.5 -212.5v-287q46 -128 160.5 -212.5t261.5 -84.5 q183 0 301 119t118 322z" />
<glyph unicode="&#xff;" horiz-adv-x="1087" d="M565 82l398 901h81l-512 -1155q-72 -162 -152 -231.5t-183 -69.5q-54 0 -103 14v70q58 -14 94 -14q88 0 155 63t126 199l59 137l-497 987h84zM797 1262q0 -26 -19 -45t-45 -19t-44.5 19t-18.5 45q0 25 18.5 44t44.5 19t45 -19t19 -44zM385 1262q0 -26 -18.5 -45 t-44.5 -19t-45 19t-19 45q0 25 19 44t45 19t44.5 -19t18.5 -44z" />
<glyph unicode="&#x100;" horiz-adv-x="1449" d="M117 0h-88l651 1434h92l649 -1434h-86l-190 418h-840zM711 1315l-371 -821h774l-371 821q-3 6 -8 18.5t-8 18.5q-3 -6 -8 -18.5t-8 -18.5zM455 1720h540v-73h-540v73z" />
<glyph unicode="&#x101;" horiz-adv-x="1105" d="M922 158q0 -95 98 -95q29 0 76 15v-66q-50 -16 -97 -16q-67 0 -111 38.5t-44 121.5v26q-73 -98 -184 -151.5t-242 -53.5q-89 0 -163.5 29.5t-124.5 96.5t-50 161q0 68 24.5 122t65 89.5t96.5 59t116 33.5t126 10q169 0 336 -54v90q0 146 -88 232t-250 86q-185 0 -350 -64 v76q175 62 356 62q194 0 302 -106t108 -294v-448zM160 266q0 -106 79.5 -162.5t192.5 -56.5q126 0 237 60.5t175 171.5v178q-164 53 -328 53q-70 0 -130.5 -13t-112.5 -40.5t-82.5 -76.5t-30.5 -114zM242 1270h540v-74h-540v74z" />
<glyph unicode="&#x102;" horiz-adv-x="1449" d="M117 0h-88l651 1434h92l649 -1434h-86l-190 418h-840zM711 1315l-371 -821h774l-371 821q-3 6 -8 18.5t-8 18.5q-3 -6 -8 -18.5t-8 -18.5zM987 1679q-106 -86 -262 -86t-262 86v80q114 -90 262 -90t262 90v-80z" />
<glyph unicode="&#x103;" horiz-adv-x="1105" d="M922 158q0 -95 98 -95q29 0 76 15v-66q-50 -16 -97 -16q-67 0 -111 38.5t-44 121.5v26q-73 -98 -184 -151.5t-242 -53.5q-89 0 -163.5 29.5t-124.5 96.5t-50 161q0 68 24.5 122t65 89.5t96.5 59t116 33.5t126 10q169 0 336 -54v90q0 146 -88 232t-250 86q-185 0 -350 -64 v76q175 62 356 62q194 0 302 -106t108 -294v-448zM160 266q0 -106 79.5 -162.5t192.5 -56.5q126 0 237 60.5t175 171.5v178q-164 53 -328 53q-70 0 -130.5 -13t-112.5 -40.5t-82.5 -76.5t-30.5 -114zM774 1229q-106 -86 -262 -86t-262 86v80q114 -90 262 -90t262 90v-80z " />
<glyph unicode="&#x104;" horiz-adv-x="1452" d="M1192 -293q0 -54 32.5 -84.5t92.5 -30.5q73 0 141 41v-65q-68 -41 -158 -41q-87 0 -135.5 45.5t-48.5 120.5q0 144 211 323l-182 402h-840l-188 -418h-88l651 1434h92l649 -1434h2q-103 -70 -167 -146.5t-64 -146.5zM709 1315l-371 -821h776l-373 821q-11 22 -16 37 q-5 -15 -16 -37z" />
<glyph unicode="&#x105;" horiz-adv-x="1105" d="M432 47q126 0 237 60.5t175 171.5v178q-164 53 -328 53q-70 0 -130.5 -13t-112.5 -40.5t-82.5 -76.5t-30.5 -114q0 -106 79.5 -162.5t192.5 -56.5zM1092 -373v-65q-61 -23 -119 -23q-87 -1 -136 44.5t-49 119.5q0 72 52.5 148t146.5 145q-63 3 -103 42t-40 118v26 q-73 -98 -184 -151.5t-242 -53.5q-89 0 -163.5 29.5t-124.5 96.5t-50 161q0 68 24.5 122t65 89.5t96.5 59t116 33.5t126 10q169 0 336 -54v90q0 146 -88 232t-250 86q-185 0 -350 -64v76q175 62 356 62q194 0 302 -106t108 -294v-448q0 -95 98 -95q29 0 76 15v-66 q-103 -70 -168.5 -148t-65.5 -147q0 -52 33 -82t94 -30q51 0 103 22z" />
<glyph unicode="&#x106;" horiz-adv-x="1345" d="M104 700q1 146 43.5 271t114.5 212.5t167 150t201 92.5t216 30q219 0 401 -98v-82q-168 102 -391 102q-99 0 -194.5 -26t-181.5 -81.5t-151 -134t-103.5 -191t-39.5 -245.5q0 -128 39 -235.5t104.5 -182t152.5 -126.5t182.5 -76.5t195.5 -24.5q233 0 404 105v-82 q-184 -101 -418 -101q-109 0 -214 28t-201 87.5t-168.5 143t-115.5 203.5t-43 261zM821 1589h-88l182 281h97z" />
<glyph unicode="&#x107;" horiz-adv-x="1009" d="M96 483q0 131 46.5 234.5t123.5 164.5t168.5 92.5t190.5 31.5q171 0 293 -80v-76q-119 82 -285 82q-88 0 -167.5 -26.5t-146 -78.5t-106 -140.5t-39.5 -201.5q0 -108 37 -193t100 -136.5t140 -78t163 -26.5q176 0 314 78v-78q-139 -74 -322 -74q-98 0 -187.5 31 t-162.5 91t-116.5 159t-43.5 225zM608 1139h-88l182 280h97z" />
<glyph unicode="&#x10a;" horiz-adv-x="1345" d="M104 700q1 146 43.5 271t114.5 212.5t167 150t201 92.5t216 30q219 0 401 -98v-82q-168 102 -391 102q-99 0 -194.5 -26t-181.5 -81.5t-151 -134t-103.5 -191t-39.5 -245.5q0 -128 39 -235.5t104.5 -182t152.5 -126.5t182.5 -76.5t195.5 -24.5q233 0 404 105v-82 q-184 -101 -418 -101q-109 0 -214 28t-201 87.5t-168.5 143t-115.5 203.5t-43 261zM745 1679q0 33 21.5 52.5t52.5 19.5q32 0 53 -19.5t21 -52.5t-21 -53t-53 -20q-30 0 -52 20t-22 53z" />
<glyph unicode="&#x10b;" horiz-adv-x="1009" d="M96 483q0 131 46.5 234.5t123.5 164.5t168.5 92.5t190.5 31.5q171 0 293 -80v-76q-119 82 -285 82q-88 0 -167.5 -26.5t-146 -78.5t-106 -140.5t-39.5 -201.5q0 -108 37 -193t100 -136.5t140 -78t163 -26.5q176 0 314 78v-78q-139 -74 -322 -74q-98 0 -187.5 31 t-162.5 91t-116.5 159t-43.5 225zM532 1229q0 32 21.5 51.5t52.5 19.5q32 0 53 -19t21 -52t-21.5 -53.5t-52.5 -20.5q-30 0 -52 20.5t-22 53.5z" />
<glyph unicode="&#x10c;" horiz-adv-x="1345" d="M104 700q1 146 43.5 271t114.5 212.5t167 150t201 92.5t216 30q219 0 401 -98v-82q-168 102 -391 102q-99 0 -194.5 -26t-181.5 -81.5t-151 -134t-103.5 -191t-39.5 -245.5q0 -128 39 -235.5t104.5 -182t152.5 -126.5t182.5 -76.5t195.5 -24.5q233 0 404 105v-82 q-184 -101 -418 -101q-109 0 -214 28t-201 87.5t-168.5 143t-115.5 203.5t-43 261zM1122 1837l-262 -268h-67l-263 268h91l206 -207l205 207h90z" />
<glyph unicode="&#x10d;" horiz-adv-x="1009" d="M96 483q0 131 46.5 234.5t123.5 164.5t168.5 92.5t190.5 31.5q171 0 293 -80v-76q-119 82 -285 82q-88 0 -167.5 -26.5t-146 -78.5t-106 -140.5t-39.5 -201.5q0 -108 37 -193t100 -136.5t140 -78t163 -26.5q176 0 314 78v-78q-139 -74 -322 -74q-98 0 -187.5 31 t-162.5 91t-116.5 159t-43.5 225zM909 1386l-262 -268h-67l-263 268h91l206 -206l205 206h90z" />
<glyph unicode="&#x10e;" horiz-adv-x="1497" d="M207 1434h424q188 0 334 -54t238.5 -150.5t140 -226.5t47.5 -286t-47.5 -286t-140 -226.5t-238.5 -150.5t-334 -54h-424v1434zM1309 717q0 294 -172 466.5t-506 172.5h-342v-1278h342q334 0 506 172.5t172 466.5zM997 1837l-262 -268h-67l-262 268h90l206 -207l205 207 h90z" />
<glyph unicode="&#x10f;" horiz-adv-x="1259" d="M1262 1434h75l-45 -334h-67zM1016 1434h78v-1434h-72v233q-65 -114 -178.5 -185t-257.5 -71q-213 0 -351.5 143t-138.5 372t138.5 371.5t351.5 142.5q143 0 256 -70t174 -178v676zM1016 635q-48 129 -162 213t-262 84q-182 0 -300 -119t-118 -321q0 -201 118.5 -321 t299.5 -120q148 0 262 84t162 213v287z" />
<glyph unicode="&#x110;" horiz-adv-x="1499" d="M211 1434h422q188 0 334.5 -54t239 -150.5t139.5 -226t47 -286.5t-47 -286.5t-139.5 -226t-239 -150.5t-334.5 -54h-422v678h-166v76h166v680zM291 78h342q334 0 506 172.5t172 466.5t-172 466.5t-506 172.5h-342v-602h479v-76h-479v-600z" />
<glyph unicode="&#x111;" horiz-adv-x="1259" d="M1094 1266h151v-62h-151v-1204h-72v233q-65 -114 -178.5 -185t-257.5 -71q-213 0 -351.5 143t-138.5 372t138.5 371.5t351.5 142.5q143 0 256 -70t174 -178v446h-400v62h400v168h78v-168zM592 51q148 0 262 84t162 213v287q-48 129 -162 213t-262 84q-182 0 -300 -119 t-118 -321q0 -201 118.5 -321t299.5 -120z" />
<glyph unicode="&#x112;" horiz-adv-x="1277" d="M207 1434h940v-78h-858v-596h796v-78h-796v-604h876v-78h-958v1434zM412 1720h540v-73h-540v73z" />
<glyph unicode="&#x113;" horiz-adv-x="1118" d="M96 492q0 121 41 220.5t109.5 162.5t154 97t177.5 34q89 0 163.5 -24t124.5 -65.5t87.5 -96.5t53.5 -116.5t21.5 -125.5t-8.5 -125h-846q4 -103 44.5 -182.5t106.5 -126t146.5 -70t171.5 -23.5q186 0 320 78v-78q-135 -74 -330 -74q-108 0 -203 31t-170.5 91.5 t-119.5 161.5t-44 231zM952 522q6 53 -2 107.5t-34.5 109.5t-68.5 97.5t-110.5 69t-154.5 26.5q-166 0 -284 -109.5t-124 -300.5h778zM307 1270h541v-74h-541v74z" />
<glyph unicode="&#x116;" horiz-adv-x="1277" d="M207 1434h940v-78h-858v-596h796v-78h-796v-604h876v-78h-958v1434zM604 1679q0 33 21.5 52.5t52.5 19.5q32 0 53 -19.5t21 -52.5t-21 -53t-53 -20q-30 0 -52 20t-22 53z" />
<glyph unicode="&#x117;" horiz-adv-x="1118" d="M96 492q0 121 41 220.5t109.5 162.5t154 97t177.5 34q89 0 163.5 -24t124.5 -65.5t87.5 -96.5t53.5 -116.5t21.5 -125.5t-8.5 -125h-846q4 -103 44.5 -182.5t106.5 -126t146.5 -70t171.5 -23.5q186 0 320 78v-78q-135 -74 -330 -74q-108 0 -203 31t-170.5 91.5 t-119.5 161.5t-44 231zM952 522q6 53 -2 107.5t-34.5 109.5t-68.5 97.5t-110.5 69t-154.5 26.5q-166 0 -284 -109.5t-124 -300.5h778zM500 1229q0 33 21 52t52 19q32 0 53 -19t21 -52t-21.5 -53.5t-52.5 -20.5q-30 0 -51.5 20.5t-21.5 53.5z" />
<glyph unicode="&#x118;" horiz-adv-x="1277" d="M1163 -383v-66q-59 -24 -127 -24q-87 -1 -135.5 44.5t-48.5 119.5q0 77 56.5 157t156.5 152h-858v1434h940v-78h-858v-596h796v-78h-796v-604h876v-78q-105 -71 -172 -148.5t-67 -146.5q0 -52 33 -82.5t94 -30.5q52 0 110 25z" />
<glyph unicode="&#x119;" horiz-adv-x="1118" d="M942 -432q-68 -41 -158 -41q-87 0 -135.5 45.5t-48.5 120.5q0 140 227 311q-100 -27 -194 -27q-108 0 -203 31t-170.5 91.5t-119.5 161.5t-44 231q0 121 41 220.5t109.5 162.5t154 97t177.5 34q89 0 163.5 -24t124.5 -65t87.5 -96t53.5 -116.5t21.5 -126t-8.5 -125.5 h-846q4 -103 44.5 -182.5t106.5 -126t146.5 -70t171.5 -23.5q186 0 320 78v-78q-145 -109 -217 -191.5t-72 -152.5q0 -53 33 -83.5t94 -31.5q78 3 141 41v-65zM582 932q-166 0 -284 -109.5t-124 -300.5h778q6 53 -2 107.5t-34.5 109.5t-68.5 97.5t-110.5 69t-154.5 26.5z " />
<glyph unicode="&#x11a;" horiz-adv-x="1277" d="M207 1434h940v-78h-858v-596h796v-78h-796v-604h876v-78h-958v1434zM981 1837l-262 -268h-68l-262 268h90l207 -207l205 207h90z" />
<glyph unicode="&#x11b;" horiz-adv-x="1118" d="M96 492q0 121 41 220.5t109.5 162.5t154 97t177.5 34q89 0 163.5 -24t124.5 -65.5t87.5 -96.5t53.5 -116.5t21.5 -125.5t-8.5 -125h-846q4 -103 44.5 -182.5t106.5 -126t146.5 -70t171.5 -23.5q186 0 320 78v-78q-135 -74 -330 -74q-108 0 -203 31t-170.5 91.5 t-119.5 161.5t-44 231zM952 522q6 53 -2 107.5t-34.5 109.5t-68.5 97.5t-110.5 69t-154.5 26.5q-166 0 -284 -109.5t-124 -300.5h778zM877 1386l-263 -268h-67l-262 268h90l207 -206l204 206h91z" />
<glyph unicode="&#x11e;" horiz-adv-x="1449" d="M106 717q0 149 43 273t115.5 209t170 144t205.5 86t222 27q228 0 418 -96v-80q-84 47 -192 72.5t-216 25.5q-104 0 -201 -23t-185.5 -75t-154 -127.5t-104.5 -187.5t-39 -248q0 -139 39.5 -251.5t106 -188t156.5 -126.5t188.5 -73.5t204.5 -22.5q196 0 354 76v621h80 v-676q-203 -99 -440 -99q-119 0 -228.5 25.5t-209 83.5t-173 142t-117 210t-43.5 279zM1094 1679q-106 -86 -263 -86q-156 0 -262 86v80q114 -90 262 -90q149 0 263 90v-80z" />
<glyph unicode="&#x11f;" horiz-adv-x="1259" d="M96 492q0 229 138.5 371.5t351.5 142.5q144 0 257.5 -71t178.5 -185v233h72v-983q0 -121 -43.5 -214t-118 -148.5t-165.5 -83t-194 -27.5q-209 0 -389 94v76q187 -96 381 -96q73 0 138 13.5t123 44.5t99.5 76.5t66 113t24.5 151.5v227q-61 -110 -173.5 -180t-256.5 -70 q-213 0 -351.5 143t-138.5 372zM1016 635q-48 129 -162 213t-262 84q-182 0 -300 -119t-118 -321q0 -201 118.5 -321t299.5 -120q148 0 262 82.5t162 206.5v295zM854 1229q-106 -86 -262 -86t-262 86v80q114 -90 262 -90t262 90v-80z" />
<glyph unicode="&#x120;" horiz-adv-x="1449" d="M106 717q0 149 43 273t115.5 209t170 144t205.5 86t222 27q228 0 418 -96v-80q-84 47 -192 72.5t-216 25.5q-104 0 -201 -23t-185.5 -75t-154 -127.5t-104.5 -187.5t-39 -248q0 -139 39.5 -251.5t106 -188t156.5 -126.5t188.5 -73.5t204.5 -22.5q196 0 354 76v621h80 v-676q-203 -99 -440 -99q-119 0 -228.5 25.5t-209 83.5t-173 142t-117 210t-43.5 279zM754 1679q0 33 21.5 52.5t51.5 19.5q32 0 53 -19.5t21 -52.5t-21 -53t-53 -20q-30 0 -51.5 20t-21.5 53z" />
<glyph unicode="&#x121;" horiz-adv-x="1259" d="M96 492q0 229 138.5 371.5t351.5 142.5q144 0 257.5 -71t178.5 -185v233h72v-983q0 -121 -43.5 -214t-118 -148.5t-165.5 -83t-194 -27.5q-209 0 -389 94v76q187 -96 381 -96q73 0 138 13.5t123 44.5t99.5 76.5t66 113t24.5 151.5v227q-61 -110 -173.5 -180t-256.5 -70 q-213 0 -351.5 143t-138.5 372zM1016 635q-48 129 -162 213t-262 84q-182 0 -300 -119t-118 -321q0 -201 118.5 -321t299.5 -120q148 0 262 82.5t162 206.5v295zM514 1229q0 32 21.5 51.5t52.5 19.5q32 0 53 -19t21 -52t-21.5 -53.5t-52.5 -20.5q-30 0 -52 20.5t-22 53.5z " />
<glyph unicode="&#x122;" horiz-adv-x="1449" d="M106 717q0 149 43 273t115.5 209t170 144t205.5 86t222 27q228 0 418 -96v-80q-84 47 -192 72.5t-216 25.5q-104 0 -201 -23t-185.5 -75t-154 -127.5t-104.5 -187.5t-39 -248q0 -139 39.5 -251.5t106 -188t156.5 -126.5t188.5 -73.5t204.5 -22.5q196 0 354 76v621h80 v-676q-203 -99 -440 -99q-119 0 -228.5 25.5t-209 83.5t-173 142t-117 210t-43.5 279zM854 -467h-70l43 352h78z" />
<glyph unicode="&#x123;" horiz-adv-x="1259" d="M639 1124h-76l51 318h66zM96 492q0 229 138.5 371.5t351.5 142.5q144 0 257.5 -71t178.5 -185v233h72v-983q0 -121 -43.5 -214t-118 -148.5t-165.5 -83t-194 -27.5q-209 0 -389 94v76q187 -96 381 -96q73 0 138 13.5t123 44.5t99.5 76.5t66 113t24.5 151.5v227 q-61 -110 -173.5 -180t-256.5 -70q-213 0 -351.5 143t-138.5 372zM1016 635q-48 129 -162 213t-262 84q-182 0 -300 -119t-118 -321q0 -201 118.5 -321t299.5 -120q148 0 262 82.5t162 206.5v295z" />
<glyph unicode="&#x126;" horiz-adv-x="1572" d="M291 0h-82v1057h-158v69h158v308h82v-308h991v308h82v-308h158v-69h-158v-1057h-82v682h-991v-682zM291 1057v-297h991v297h-991z" />
<glyph unicode="&#x127;" d="M244 788q27 39 63.5 75t85.5 69.5t113 53.5t133 20q168 0 278.5 -109.5t110.5 -292.5v-604h-78v596q0 159 -89.5 247.5t-229.5 88.5q-132 0 -230 -72t-157 -174v-686h-78v1194h-148v61h148v179h78v-179h403v-61h-403v-406z" />
<glyph unicode="&#x12a;" horiz-adv-x="495" d="M207 1434h82v-1434h-82v1434zM-23 1720h541v-73h-541v73z" />
<glyph unicode="&#x12b;" horiz-adv-x="421" d="M-14 1278h450v-74h-450v74zM172 983h78v-983h-78v983z" />
<glyph unicode="&#x12e;" horiz-adv-x="495" d="M129 -295q0 -52 33 -82.5t94 -30.5q73 0 141 41v-65q-68 -41 -157 -41q-87 -1 -136 44.5t-49 119.5q0 136 152 321v1422h82v-1434q-53 -65 -80.5 -102t-53.5 -92t-26 -101z" />
<glyph unicode="&#x12f;" horiz-adv-x="425" d="M270 1270q0 -28 -16 -43t-41 -15q-24 0 -40.5 15t-16.5 43q0 26 16.5 40.5t40.5 14.5q25 0 41 -14t16 -41zM96 -295q0 -52 33 -82.5t94 -30.5q74 0 142 41v-65q-68 -41 -158 -41q-87 -1 -135.5 44.5t-48.5 119.5q0 139 151 309v983h78v-983q-156 -176 -156 -295z" />
<glyph unicode="&#x130;" horiz-adv-x="495" d="M207 1434h82v-1434h-82v1434zM170 1679q0 33 21.5 52.5t52.5 19.5q32 0 52.5 -19.5t20.5 -52.5t-21 -53t-52 -20q-30 0 -52 20t-22 53z" />
<glyph unicode="&#x131;" horiz-adv-x="425" d="M174 983h78v-983h-78v983z" />
<glyph unicode="&#x132;" horiz-adv-x="1562" d="M207 1434h82v-1434h-82v1434zM829 1434h541v-1051q0 -199 -122 -301t-322 -102q-230 0 -367 88v82q140 -93 354 -93q173 0 274 81t101 247v971h-459v78z" />
<glyph unicode="&#x133;" horiz-adv-x="851" d="M252 0h-78v983h78v-983zM270 1270q0 -28 -16 -43t-41 -15t-41 15t-16 43q0 27 16 41t41 14t41 -14t16 -41zM678 -223q0 -70 -21.5 -121t-58.5 -78t-79 -39t-91 -12q-73 0 -143 24v74q51 -22 125 -22q39 0 71 8.5t60 28.5t43.5 57t15.5 88v1198h78v-1206zM694 1270 q0 -28 -16 -43t-41 -15q-24 0 -40.5 15t-16.5 43q0 26 16.5 40.5t40.5 14.5q25 0 41 -14t16 -41z" />
<glyph unicode="&#x136;" horiz-adv-x="1343" d="M289 0h-82v1434h82v-660h413l486 660h94l-516 -699l569 -735h-96l-537 696h-413v-696zM721 -446h-70l43 352h78z" />
<glyph unicode="&#x137;" horiz-adv-x="1019" d="M1012 0h-94l-429 469h-245v-469h-78v1434h78v-891h252l368 440h92l-399 -479zM547 -446h-70l43 352h78z" />
<glyph unicode="&#x139;" horiz-adv-x="1179" d="M207 1434h82v-1356h856v-78h-938v1434zM276 1589h-88l183 281h96z" />
<glyph unicode="&#x13a;" horiz-adv-x="425" d="M174 1495h78v-1495h-78v1495zM231 1602h-88l183 280h96z" />
<glyph unicode="&#x13b;" horiz-adv-x="1179" d="M207 1434h82v-1356h856v-78h-938v1434zM664 -446h-70l43 352h78z" />
<glyph unicode="&#x13c;" horiz-adv-x="425" d="M174 1495h78v-1495h-78v1495zM207 -446h-70l43 352h78z" />
<glyph unicode="&#x13d;" horiz-adv-x="1179" d="M764 1434h76l-45 -334h-68zM207 1434h82v-1356h856v-78h-938v1434z" />
<glyph unicode="&#x13e;" horiz-adv-x="423" d="M418 1495h76l-45 -334h-68zM174 1495h78v-1495h-78v1495z" />
<glyph unicode="&#x13f;" horiz-adv-x="1191" d="M776 692q0 -27 -17 -43t-44 -16q-26 0 -44 16t-18 43t18 43.5t44 16.5q27 0 44 -16.5t17 -43.5zM207 1434h82v-1356h856v-78h-938v1434z" />
<glyph unicode="&#x140;" horiz-adv-x="505" d="M174 1495h78v-1495h-78v1495zM528 717q0 -27 -17 -43.5t-44 -16.5q-26 0 -43.5 16.5t-17.5 43.5t17.5 43t43.5 16q27 0 44 -16t17 -43z" />
<glyph unicode="&#x141;" horiz-adv-x="1189" d="M1155 0h-938v586l-188 -82v69l188 82v779h82v-748l479 209v-70l-479 -209v-538h856v-78z" />
<glyph unicode="&#x142;" horiz-adv-x="481" d="M203 1495h78v-680l178 78v-70l-178 -78v-745h-78v713l-180 -78v70l180 79v711z" />
<glyph unicode="&#x143;" horiz-adv-x="1568" d="M289 0h-82v1434h74l999 -1297v125v1172h82v-1434h-72l-1001 1294v-120v-1174zM782 1589h-88l183 281h96z" />
<glyph unicode="&#x144;" d="M238 780q38 56 89 103t135.5 85t176.5 38q168 0 278.5 -109.5t110.5 -292.5v-604h-78v596q0 159 -89 247.5t-228 88.5q-69 0 -132 -21.5t-111 -58.5t-83.5 -78t-62.5 -88v-686h-78v983h72v-203zM588 1139h-88l182 280h96z" />
<glyph unicode="&#x145;" horiz-adv-x="1568" d="M289 0h-82v1434h74l999 -1297v125v1172h82v-1434h-72l-1001 1294v-120v-1174zM795 -446h-70l43 352h78z" />
<glyph unicode="&#x146;" d="M238 780q38 56 89 103t135.5 85t176.5 38q168 0 278.5 -109.5t110.5 -292.5v-604h-78v596q0 159 -89 247.5t-228 88.5q-69 0 -132 -21.5t-111 -58.5t-83.5 -78t-62.5 -88v-686h-78v983h72v-203zM600 -446h-70l43 352h78z" />
<glyph unicode="&#x147;" horiz-adv-x="1568" d="M289 0h-82v1434h74l999 -1297v125v1172h82v-1434h-72l-1001 1294v-120v-1174zM1083 1837l-262 -268h-67l-262 268h90l206 -207l205 207h90z" />
<glyph unicode="&#x148;" d="M238 780q38 56 89 103t135.5 85t176.5 38q168 0 278.5 -109.5t110.5 -292.5v-604h-78v596q0 159 -89 247.5t-228 88.5q-69 0 -132 -21.5t-111 -58.5t-83.5 -78t-62.5 -88v-686h-78v983h72v-203zM889 1386l-262 -268h-68l-262 268h90l207 -206l205 206h90z" />
<glyph unicode="&#x14a;" horiz-adv-x="1568" d="M1362 -217q0 -130 -73 -192t-183 -62q-70 0 -141 22v76q62 -20 127 -20q84 0 136 43t52 141v219l-991 1286v-122v-1174h-82v1434h72l1001 -1295v123v1172h82v-1651z" />
<glyph unicode="&#x14b;" d="M1028 -223q0 -70 -21.5 -121t-58.5 -78t-79 -39t-91 -12q-73 0 -143 24v74q59 -24 125 -24q84 0 137 42.5t53 141.5v811q0 159 -89 247.5t-228 88.5q-69 0 -132 -21.5t-111 -58.5t-83.5 -78t-62.5 -88v-686h-78v983h72v-203q38 56 89 103t135.5 85t176.5 38 q168 0 278.5 -109.5t110.5 -292.5v-827z" />
<glyph unicode="&#x14c;" horiz-adv-x="1689" d="M102 717q0 109 29 214.5t90 200.5t147 167t209 114.5t267 42.5q145 0 268 -42.5t209 -114.5t147 -167t90 -200.5t29 -214.5t-29 -214.5t-90 -200.5t-147 -167.5t-209 -115t-268 -42.5q-144 0 -267 42.5t-209 115t-147 167.5t-90 200.5t-29 214.5zM1505 717 q0 99 -25.5 193.5t-79.5 179.5t-131 149t-186.5 101.5t-238.5 37.5q-128 0 -237.5 -37.5t-186 -101.5t-131 -149t-80 -179.5t-25.5 -193.5t25.5 -193.5t80 -179.5t131 -149t186 -102t237.5 -38q129 0 238.5 38t186.5 102t131 149t79.5 179.5t25.5 193.5zM575 1720h541v-73 h-541v73z" />
<glyph unicode="&#x14d;" horiz-adv-x="1210" d="M94 492q0 120 42.5 219t114 162.5t162.5 98t191 34.5q101 0 192.5 -34.5t163 -98t114 -162.5t42.5 -219t-42.5 -219t-114 -163t-163 -98.5t-192.5 -34.5q-100 0 -191 34.5t-162.5 98.5t-114 163t-42.5 219zM1038 492q0 135 -60.5 236.5t-158 151.5t-215.5 50 q-117 0 -214 -50t-157.5 -151.5t-60.5 -236.5t60.5 -236.5t157.5 -152t214 -50.5q118 0 215.5 50.5t158 152t60.5 236.5zM334 1257h540v-73h-540v73z" />
<glyph unicode="&#x150;" horiz-adv-x="1689" d="M102 717q0 109 29 214.5t90 200.5t147 167t209 114.5t267 42.5q145 0 268 -42.5t209 -114.5t147 -167t90 -200.5t29 -214.5t-29 -214.5t-90 -200.5t-147 -167.5t-209 -115t-268 -42.5q-144 0 -267 42.5t-209 115t-147 167.5t-90 200.5t-29 214.5zM1505 717 q0 99 -25.5 193.5t-79.5 179.5t-131 149t-186.5 101.5t-238.5 37.5q-128 0 -237.5 -37.5t-186 -101.5t-131 -149t-80 -179.5t-25.5 -193.5t25.5 -193.5t80 -179.5t131 -149t186 -102t237.5 -38q129 0 238.5 38t186.5 102t131 149t79.5 179.5t25.5 193.5zM1032 1595h-84 l152 293h88zM719 1595h-84l151 293h88z" />
<glyph unicode="&#x151;" horiz-adv-x="1210" d="M94 492q0 120 42.5 219t114 162.5t162.5 98t191 34.5q101 0 192.5 -34.5t163 -98t114 -162.5t42.5 -219t-42.5 -219t-114 -163t-163 -98.5t-192.5 -34.5q-100 0 -191 34.5t-162.5 98.5t-114 163t-42.5 219zM1038 492q0 135 -60.5 236.5t-158 151.5t-215.5 50 q-117 0 -214 -50t-157.5 -151.5t-60.5 -236.5t60.5 -236.5t157.5 -152t214 -50.5q118 0 215.5 50.5t158 152t60.5 236.5zM791 1133h-84l151 292h88zM477 1133h-84l152 292h88z" />
<glyph unicode="&#x152;" horiz-adv-x="2097" d="M1092 0q-97 -23 -250 -23q-144 0 -267 42.5t-208.5 115t-146 167.5t-89.5 200.5t-29 214.5t29 214.5t89.5 200.5t146 167t208.5 114.5t267 42.5q157 0 250 -22h880v-78h-798v-596h737v-78h-737v-604h811v-78h-893zM184 717q0 -102 26.5 -198t82 -180.5t133 -147.5 t186.5 -99.5t236 -36.5q137 0 246 25v1274q-105 24 -246 24q-127 0 -236 -36.5t-186.5 -99.5t-133 -147t-82 -180t-26.5 -198z" />
<glyph unicode="&#x153;" horiz-adv-x="2029" d="M1063 309q-50 -158 -175 -245t-288 -87q-101 0 -192 34.5t-160.5 98.5t-110.5 163t-41 219t41 219t110.5 162.5t160.5 98t192 34.5q163 0 289 -88t176 -246q46 155 167.5 244.5t266.5 89.5q75 0 139.5 -18t111 -49.5t84 -75t59 -94t35 -105.5t12 -111t-8.5 -111h-827 q4 -99 45 -176t106.5 -123t143 -69t162.5 -23q175 0 309 78v-74q-137 -78 -324 -78q-78 0 -152 20t-140 59t-116.5 104t-74.5 149zM174 492q0 -203 121.5 -321t304.5 -118t304.5 118t121.5 321t-121.5 320.5t-304.5 117.5t-304.5 -117.5t-121.5 -320.5zM1503 932 q-76 0 -145.5 -27.5t-125.5 -78.5t-90.5 -132.5t-37.5 -181.5h758q6 56 -1.5 112t-32.5 112.5t-65.5 99t-107.5 69.5t-152 27z" />
<glyph unicode="&#x154;" horiz-adv-x="1402" d="M289 0h-82v1434h545q76 0 146.5 -13.5t138 -45t117 -79t80 -120t30.5 -162.5q0 -82 -25.5 -150t-67.5 -114t-99.5 -79t-119 -50t-129.5 -23l533 -598h-101l-526 592h-440v-592zM289 1356v-686h467q80 0 152 18t135.5 56t101 107.5t37.5 162.5q0 75 -25.5 135t-66.5 98 t-97.5 63t-115 35.5t-121.5 10.5h-467zM692 1589h-88l182 281h97z" />
<glyph unicode="&#x155;" horiz-adv-x="704" d="M238 715q53 127 171 210t271 79v-78q-86 3 -161 -23.5t-128.5 -74t-91 -108.5t-55.5 -130v-590h-78v983h72v-268zM391 1139h-88l182 280h97z" />
<glyph unicode="&#x156;" horiz-adv-x="1402" d="M289 0h-82v1434h545q76 0 146.5 -13.5t138 -45t117 -79t80 -120t30.5 -162.5q0 -82 -25.5 -150t-67.5 -114t-99.5 -79t-119 -50t-129.5 -23l533 -598h-101l-526 592h-440v-592zM289 1356v-686h467q80 0 152 18t135.5 56t101 107.5t37.5 162.5q0 75 -25.5 135t-66.5 98 t-97.5 63t-115 35.5t-121.5 10.5h-467zM729 -446h-70l43 352h78z" />
<glyph unicode="&#x157;" horiz-adv-x="704" d="M238 715q53 127 171 210t271 79v-78q-86 3 -161 -23.5t-128.5 -74t-91 -108.5t-55.5 -130v-590h-78v983h72v-268zM195 -446h-70l43 352h78z" />
<glyph unicode="&#x158;" horiz-adv-x="1402" d="M289 0h-82v1434h545q76 0 146.5 -13.5t138 -45t117 -79t80 -120t30.5 -162.5q0 -82 -25.5 -150t-67.5 -114t-99.5 -79t-119 -50t-129.5 -23l533 -598h-101l-526 592h-440v-592zM289 1356v-686h467q80 0 152 18t135.5 56t101 107.5t37.5 162.5q0 75 -25.5 135t-66.5 98 t-97.5 63t-115 35.5t-121.5 10.5h-467zM993 1837l-262 -268h-67l-263 268h91l206 -207l205 207h90z" />
<glyph unicode="&#x159;" horiz-adv-x="704" d="M238 715q53 127 171 210t271 79v-78q-86 3 -161 -23.5t-128.5 -74t-91 -108.5t-55.5 -130v-590h-78v983h72v-268zM692 1386l-262 -268h-68l-262 268h90l207 -206l205 206h90z" />
<glyph unicode="&#x15a;" horiz-adv-x="1163" d="M117 1100q0 89 38.5 159t103.5 112t145 63.5t169 21.5q111 0 220.5 -27t193.5 -73v-80q-83 47 -193.5 74.5t-215.5 27.5q-76 0 -142.5 -16t-120.5 -48t-85 -86.5t-31 -125.5q0 -69 30.5 -122.5t81.5 -88.5t117.5 -63.5t140 -52.5t147 -48.5t140 -58.5t117.5 -76.5 t81.5 -108t30.5 -147.5q0 -94 -40 -165t-109.5 -112.5t-155.5 -61.5t-186 -20q-273 0 -488 121v82q218 -125 484 -125q86 0 158.5 15t131 46t91.5 85.5t33 128.5q0 73 -30.5 129.5t-81.5 94t-117.5 67.5t-140.5 54t-147.5 48.5t-140 57t-117.5 73.5t-81.5 103.5t-30.5 142.5 zM559 1589h-88l182 281h97z" />
<glyph unicode="&#x15b;" horiz-adv-x="931" d="M104 748q0 66 30.5 117.5t81.5 81t112 44.5t127 15q92 0 182 -23.5t156 -62.5v-74q-61 39 -153.5 63.5t-180.5 24.5q-53 0 -100.5 -10.5t-88 -31.5t-64.5 -57.5t-24 -84.5q0 -60 37 -102.5t96 -67t130.5 -44t143 -41.5t130.5 -51.5t96 -82t37 -125.5q0 -67 -31 -118 t-84.5 -81t-119.5 -45t-142 -15q-100 0 -205.5 27.5t-171.5 71.5v78q70 -48 173 -75.5t200 -27.5q85 0 151 17.5t109 59.5t43 105q0 59 -37 100.5t-96 65.5t-130.5 43.5t-143 42t-130.5 52.5t-96 83.5t-37 127.5zM451 1139h-89l183 280h96z" />
<glyph unicode="&#x15e;" horiz-adv-x="1163" d="M199 1102q0 -69 30.5 -122.5t81.5 -88.5t117.5 -63.5t140 -52.5t147 -48.5t140 -58.5t117.5 -76.5t81.5 -108t30.5 -147.5q0 -89 -35.5 -157.5t-98 -109.5t-140 -63t-170.5 -26l-41 -156q65 10 118.5 0.5t89 -44t36.5 -85.5q2 -77 -62 -122.5t-180 -45.5t-201 45v68 q82 -48 193 -48q91 0 136.5 29.5t43.5 75.5q-1 59 -82 78.5t-172 -6.5l51 211q-259 3 -465 118v82q218 -125 484 -125q86 0 158.5 15t131 46t91.5 85.5t33 128.5q0 73 -30.5 129.5t-81.5 94t-117.5 67.5t-140.5 54t-147.5 48.5t-140 57t-117.5 73.5t-81.5 103.5t-30.5 142.5 q0 89 38.5 159t103.5 112t145 63.5t169 21.5q111 0 220.5 -27t193.5 -73v-80q-83 47 -193.5 74.5t-215.5 27.5q-76 0 -142.5 -16t-120.5 -48t-85 -86.5t-31 -125.5z" />
<glyph unicode="&#x15f;" horiz-adv-x="931" d="M182 750q0 -60 37 -102.5t96 -67t130.5 -44t143 -41.5t130.5 -51.5t96 -82t37 -125.5q0 -120 -93.5 -184t-238.5 -72l-33 -156q64 10 117.5 0.5t88.5 -44t36 -85.5q2 -77 -62 -122.5t-180 -45.5q-112 0 -200 45v68q85 -48 194 -48q89 0 135 29.5t46 75.5q-1 59 -82 78.5 t-172 -6.5l45 211q-95 1 -193.5 28t-161.5 68v78q70 -48 173 -75.5t200 -27.5q85 0 151 17.5t109 59.5t43 105q0 59 -37 100.5t-96 65.5t-130.5 43.5t-143 42t-130.5 52.5t-96 83.5t-37 127.5q0 66 30.5 117.5t81.5 81t112 44.5t127 15q92 0 182 -23.5t156 -62.5v-74 q-61 39 -153.5 63.5t-180.5 24.5q-53 0 -100.5 -10.5t-88 -31.5t-64.5 -57.5t-24 -84.5z" />
<glyph unicode="&#x160;" horiz-adv-x="1163" d="M117 1100q0 89 38.5 159t103.5 112t145 63.5t169 21.5q111 0 220.5 -27t193.5 -73v-80q-83 47 -193.5 74.5t-215.5 27.5q-76 0 -142.5 -16t-120.5 -48t-85 -86.5t-31 -125.5q0 -69 30.5 -122.5t81.5 -88.5t117.5 -63.5t140 -52.5t147 -48.5t140 -58.5t117.5 -76.5 t81.5 -108t30.5 -147.5q0 -94 -40 -165t-109.5 -112.5t-155.5 -61.5t-186 -20q-273 0 -488 121v82q218 -125 484 -125q86 0 158.5 15t131 46t91.5 85.5t33 128.5q0 73 -30.5 129.5t-81.5 94t-117.5 67.5t-140.5 54t-147.5 48.5t-140 57t-117.5 73.5t-81.5 103.5t-30.5 142.5 zM860 1837l-262 -268h-68l-262 268h90l207 -207l205 207h90z" />
<glyph unicode="&#x161;" horiz-adv-x="931" d="M104 748q0 66 30.5 117.5t81.5 81t112 44.5t127 15q92 0 182 -23.5t156 -62.5v-74q-61 39 -153.5 63.5t-180.5 24.5q-53 0 -100.5 -10.5t-88 -31.5t-64.5 -57.5t-24 -84.5q0 -60 37 -102.5t96 -67t130.5 -44t143 -41.5t130.5 -51.5t96 -82t37 -125.5q0 -67 -31 -118 t-84.5 -81t-119.5 -45t-142 -15q-100 0 -205.5 27.5t-171.5 71.5v78q70 -48 173 -75.5t200 -27.5q85 0 151 17.5t109 59.5t43 105q0 59 -37 100.5t-96 65.5t-130.5 43.5t-143 42t-130.5 52.5t-96 83.5t-37 127.5zM752 1386l-263 -268h-67l-262 268h90l207 -206l205 206h90z " />
<glyph unicode="&#x162;" horiz-adv-x="1216" d="M29 1434h1159v-78h-539v-1356h-82v1356h-538v78zM600 -446h-70l43 352h78z" />
<glyph unicode="&#x163;" horiz-adv-x="770" d="M215 1303l78 22v-342h426v-74h-426v-620q0 -236 242 -236q120 0 210 49v-73q-92 -47 -231 -47q-141 0 -220 76t-79 221v630h-184v74h184v320zM481 -446h-69l43 352h77z" />
<glyph unicode="&#x164;" horiz-adv-x="1216" d="M29 1434h1159v-78h-539v-1356h-82v1356h-538v78zM911 1837l-262 -268h-67l-263 268h91l206 -207l205 207h90z" />
<glyph unicode="&#x165;" horiz-adv-x="770" d="M514 1495h76l-45 -326h-68zM215 1303l78 22v-342h426v-74h-426v-620q0 -236 242 -236q120 0 210 49v-73q-92 -47 -231 -47q-141 0 -220 76t-79 221v630h-184v74h184v320z" />
<glyph unicode="&#x166;" horiz-adv-x="1241" d="M662 0h-82v692h-275v70h275v594h-539v78h1159v-78h-538v-594h276v-70h-276v-692z" />
<glyph unicode="&#x167;" horiz-adv-x="770" d="M293 289q0 -236 242 -236q120 0 210 49v-73q-92 -47 -231 -47q-141 0 -220 76t-79 221v274h-111v70h111v286h-184v74h184v320l78 22v-342h426v-74h-426v-286h336v-70h-336v-264z" />
<glyph unicode="&#x16a;" horiz-adv-x="1536" d="M1264 1434h82v-932q0 -142 -44.5 -246t-125.5 -163.5t-182 -87.5t-226 -28t-226 28t-182 87.5t-125.5 163.5t-44.5 246v932h82v-930q0 -98 24.5 -174.5t68 -128t106.5 -84.5t136 -47.5t161 -14.5t161 14.5t136 47.5t106.5 84.5t68 128t24.5 174.5v930zM502 1720h540v-73 h-540v73z" />
<glyph unicode="&#x16b;" d="M938 983h78v-983h-72v203q-38 -56 -89 -103t-135.5 -85t-176.5 -38q-173 0 -281 108.5t-108 293.5v604h77v-596q0 -160 87.5 -248t230.5 -88q69 0 132 21.5t111 58.5t83.5 78t62.5 88v686zM328 1270h540v-74h-540v74z" />
<glyph unicode="&#x16e;" horiz-adv-x="1536" d="M1264 1434h82v-932q0 -142 -44.5 -246t-125.5 -163.5t-182 -87.5t-226 -28t-226 28t-182 87.5t-125.5 163.5t-44.5 246v932h82v-930q0 -98 24.5 -174.5t68 -128t106.5 -84.5t136 -47.5t161 -14.5t161 14.5t136 47.5t106.5 84.5t68 128t24.5 174.5v930zM961 1729 q0 -82 -56 -133.5t-133 -51.5q-78 0 -134 51.5t-56 133.5q0 79 56 129.5t134 50.5q76 0 132.5 -50.5t56.5 -129.5zM645 1726q0 -56 37.5 -90t89.5 -34t89.5 34t37.5 90t-37.5 90.5t-89.5 34.5t-89.5 -34.5t-37.5 -90.5z" />
<glyph unicode="&#x16f;" d="M938 983h78v-983h-72v203q-38 -56 -89 -103t-135.5 -85t-176.5 -38q-173 0 -281 108.5t-108 293.5v604h77v-596q0 -160 87.5 -248t230.5 -88q69 0 132 21.5t111 58.5t83.5 78t62.5 88v686zM786 1278q0 -82 -55.5 -133t-132.5 -51q-78 0 -134 51t-56 133q0 79 56 129.5 t134 50.5q76 0 132 -50.5t56 -129.5zM471 1276q0 -56 37.5 -90.5t89.5 -34.5t89.5 34.5t37.5 90.5t-37.5 90.5t-89.5 34.5t-89.5 -34.5t-37.5 -90.5z" />
<glyph unicode="&#x170;" horiz-adv-x="1536" d="M1264 1434h82v-932q0 -142 -44.5 -246t-125.5 -163.5t-182 -87.5t-226 -28t-226 28t-182 87.5t-125.5 163.5t-44.5 246v932h82v-930q0 -98 24.5 -174.5t68 -128t106.5 -84.5t136 -47.5t161 -14.5t161 14.5t136 47.5t106.5 84.5t68 128t24.5 174.5v930zM958 1595h-84 l152 293h88zM645 1595h-84l152 293h88z" />
<glyph unicode="&#x171;" d="M938 983h78v-983h-72v203q-38 -56 -89 -103t-135.5 -85t-176.5 -38q-173 0 -281 108.5t-108 293.5v604h77v-596q0 -160 87.5 -248t230.5 -88q69 0 132 21.5t111 58.5t83.5 78t62.5 88v686zM784 1145h-84l152 293h88zM471 1145h-84l152 293h88z" />
<glyph unicode="&#x172;" horiz-adv-x="1536" d="M1161 -432q-68 -41 -157 -41q-86 -1 -135.5 44.5t-49.5 119.5q0 69 48.5 158t125.5 161q-98 -33 -225 -33q-125 0 -226 28t-182 87.5t-125.5 163.5t-44.5 246v932h82v-930q0 -98 24.5 -174.5t68 -128t106.5 -84.5t136 -47.5t161 -14.5t161 14.5t136 47.5t106.5 84.5 t68 128t24.5 174.5v930h82v-932q0 -291 -193 -424q-120 -84 -190 -189.5t-68 -183.5q-2 -52 31 -82.5t94 -30.5q73 0 141 41v-65z" />
<glyph unicode="&#x173;" d="M1016 983v-983q-99 -67 -160 -147.5t-61 -151.5q0 -52 30 -80.5t84 -28.5q49 0 107 23v-64q-56 -24 -123 -24q-81 0 -126.5 43t-45.5 117q0 80 56.5 165.5t166.5 167.5v183q-38 -56 -89 -103t-135.5 -85t-176.5 -38q-173 0 -281 108.5t-108 293.5v604h77v-596 q0 -160 87.5 -248t230.5 -88q69 0 132 21.5t111 58.5t83.5 78t62.5 88v686h78z" />
<glyph unicode="&#x174;" horiz-adv-x="2033" d="M1894 1434h88l-456 -1434h-88l-422 1286l-420 -1286h-88l-457 1434h88l414 -1330l428 1317h74l426 -1317zM985 1858h68l262 -269h-90l-205 207l-207 -207h-90z" />
<glyph unicode="&#x175;" horiz-adv-x="1636" d="M1503 983h82l-368 -983h-80l-320 866l-317 -866h-80l-369 983h82l328 -891l319 879h74l322 -879zM786 1407h68l262 -268h-90l-205 207l-207 -207h-90z" />
<glyph unicode="&#x176;" horiz-adv-x="1298" d="M690 0h-82v571l-565 863h92l514 -787l514 787h92l-565 -863v-571zM621 1858h67l262 -269h-90l-205 207l-206 -207h-91z" />
<glyph unicode="&#x177;" horiz-adv-x="1087" d="M565 82l398 901h81l-512 -1155q-72 -162 -152 -231.5t-183 -69.5q-54 0 -103 14v70q58 -14 94 -14q88 0 155 63t126 199l59 137l-497 987h84zM498 1407h67l262 -268h-90l-205 207l-206 -207h-90z" />
<glyph unicode="&#x178;" horiz-adv-x="1298" d="M690 0h-82v571l-565 863h92l514 -787l514 787h92l-565 -863v-571zM920 1712q0 -26 -19 -44.5t-45 -18.5t-44.5 18.5t-18.5 44.5q0 25 18.5 44.5t44.5 19.5t45 -19.5t19 -44.5zM508 1712q0 -26 -19 -44.5t-45 -18.5t-44.5 18.5t-18.5 44.5q0 25 18.5 44.5t44.5 19.5 t45 -19.5t19 -44.5z" />
<glyph unicode="&#x179;" horiz-adv-x="1175" d="M1112 0h-1057v72l938 1284h-903v78h1004v-72l-940 -1284h958v-78zM594 1589h-88l182 281h96z" />
<glyph unicode="&#x17a;" horiz-adv-x="919" d="M92 983h733v-68l-663 -845h692v-70h-788v68l665 845h-639v70zM477 1139h-88l182 280h97z" />
<glyph unicode="&#x17b;" horiz-adv-x="1175" d="M1112 0h-1057v72l938 1284h-903v78h1004v-72l-940 -1284h958v-78zM518 1679q0 33 21.5 52.5t52.5 19.5q32 0 53 -19.5t21 -52.5t-21 -53t-53 -20q-30 0 -52 20t-22 53z" />
<glyph unicode="&#x17c;" horiz-adv-x="919" d="M92 983h733v-68l-663 -845h692v-70h-788v68l665 845h-639v70zM401 1229q0 32 21.5 51.5t52.5 19.5q32 0 53 -19t21 -52t-21.5 -53.5t-52.5 -20.5q-30 0 -52 20.5t-22 53.5z" />
<glyph unicode="&#x17d;" horiz-adv-x="1175" d="M1112 0h-1057v72l938 1284h-903v78h1004v-72l-940 -1284h958v-78zM895 1837l-262 -268h-68l-262 268h90l207 -207l205 207h90z" />
<glyph unicode="&#x17e;" horiz-adv-x="919" d="M92 983h733v-68l-663 -845h692v-70h-788v68l665 845h-639v70zM778 1386l-262 -268h-67l-263 268h90l207 -206l205 206h90z" />
<glyph unicode="&#x2c6;" horiz-adv-x="563" d="M248 1858h67l263 -269h-91l-204 207l-207 -207h-90z" />
<glyph unicode="&#x2da;" horiz-adv-x="421" d="M399 1729q0 -82 -55.5 -133.5t-132.5 -51.5q-78 0 -134.5 51.5t-56.5 133.5q0 79 56.5 129.5t134.5 50.5q76 0 132 -50.5t56 -129.5zM84 1726q0 -56 37.5 -90t89.5 -34t89.5 34t37.5 90t-37.5 90.5t-89.5 34.5t-89.5 -34.5t-37.5 -90.5z" />
<glyph unicode="&#x2dc;" horiz-adv-x="653" d="M631 1767q9 -75 -27 -120t-102 -45q-49 0 -114 27t-125 54t-95 27q-40 0 -60.5 -26.5t-15.5 -71.5h-69q-10 75 28 121.5t101 46.5q60 0 176.5 -54.5t156.5 -54.5q42 0 61.5 25.5t14.5 70.5h70z" />
<glyph unicode="&#x401;" horiz-adv-x="1273" d="M950 1712q0 -26 -18.5 -44.5t-44.5 -18.5t-45 18.5t-19 44.5q0 25 19 44.5t45 19.5t44.5 -19.5t18.5 -44.5zM539 1712q0 -26 -19 -44.5t-45 -18.5t-44.5 18.5t-18.5 44.5q0 25 18.5 44.5t44.5 19.5t45 -19.5t19 -44.5zM207 1434h940v-78h-858v-596h796v-78h-796v-604h876 v-78h-958v1434z" />
<glyph unicode="&#x410;" horiz-adv-x="1449" d="M117 0h-88l651 1434h92l649 -1434h-86l-190 418h-840zM711 1315l-371 -821h774l-371 821q-3 6 -8 18.5t-8 18.5q-3 -6 -8 -18.5t-8 -18.5z" />
<glyph unicode="&#x411;" horiz-adv-x="1347" d="M289 821h399q97 0 174.5 -9t155.5 -36t130.5 -71.5t85 -119.5t32.5 -175t-32.5 -175t-85 -119t-130.5 -71t-155.5 -36t-174.5 -9h-481v1434h952v-78h-870v-535zM289 78h403q86 0 151 6.5t132.5 27.5t110.5 56t70.5 96.5t27.5 145.5q0 61 -14 110t-38 83.5t-61 60 t-77.5 40.5t-92.5 24t-100.5 12t-108.5 3h-403v-665z" />
<glyph unicode="&#x412;" horiz-adv-x="1390" d="M207 1434h534q222 0 352 -90t130 -269q0 -71 -23 -129t-63.5 -96t-89 -61.5t-105.5 -34.5q48 -9 91 -24t89.5 -44t80 -67.5t55 -98.5t22.5 -133q0 -70 -19.5 -127t-51 -96.5t-76.5 -69.5t-92 -47.5t-103.5 -28.5t-104.5 -14.5t-100 -3.5h-526v1434zM1198 395 q-1 73 -30 130.5t-72.5 91.5t-100.5 56t-108 30t-101 8h-497v-633h430q52 0 93.5 2t93.5 10t91.5 21t79 37t65 56.5t41 81t15.5 109.5zM1141 1065q0 291 -406 291h-446v-568h514q89 0 164.5 31t124.5 95.5t49 150.5z" />
<glyph unicode="&#x413;" horiz-adv-x="1163" d="M289 0h-82v1434h928v-78h-846v-1356z" />
<glyph unicode="&#x414;" horiz-adv-x="1533" d="M113 -356h-78v434h151q138 245 201.5 606t63.5 750h843v-1356h176v-434h-77v356h-1280v-356zM530 1356q-8 -369 -69.5 -709t-184.5 -569h934v1278h-680z" />
<glyph unicode="&#x415;" horiz-adv-x="1273" d="M207 1434h940v-78h-858v-596h796v-78h-796v-604h876v-78h-958v1434z" />
<glyph unicode="&#x416;" horiz-adv-x="1904" d="M115 0h-95l492 735l-438 699h92l409 -660h336v660h82v-660h336l410 660h92l-438 -699l491 -735h-94l-463 696h-334v-696h-82v696h-333z" />
<glyph unicode="&#x417;" horiz-adv-x="1234" d="M1128 385q0 -87 -33 -157.5t-86.5 -116.5t-126 -77t-148 -44t-154.5 -13q-285 0 -496 91v79q204 -92 489 -92q89 0 169 17.5t150.5 54.5t112.5 105t42 159q0 72 -28.5 128t-75 91t-109.5 58t-127 32t-134 9h-272v77h264q192 0 307 78t115 213q0 101 -59 170t-154.5 100 t-220.5 31q-131 0 -233.5 -22.5t-210.5 -71.5v80q101 47 207 69.5t243 22.5q144 0 257 -39.5t183 -125t70 -206.5q0 -135 -89 -221.5t-237 -113.5q74 -9 138.5 -33t122 -66t91 -110t33.5 -156z" />
<glyph unicode="&#x418;" horiz-adv-x="1568" d="M1362 0h-82v1174v120l-1001 -1294h-72v1434h82v-1172v-125l999 1297h74v-1434z" />
<glyph unicode="&#x419;" horiz-adv-x="1568" d="M1280 0h82v1434h-74l-999 -1297v125v1172h-82v-1434h72l1001 1294v-120v-1174zM1047 1679q-106 -86 -263 -86q-156 0 -262 86v80q114 -90 262 -90q149 0 263 90v-80z" />
<glyph unicode="&#x41a;" horiz-adv-x="1343" d="M289 0h-82v1434h82v-660h413l486 660h94l-516 -699l569 -735h-96l-537 696h-413v-696z" />
<glyph unicode="&#x41b;" horiz-adv-x="1505" d="M481 1434h817v-1434h-81v1356h-658q-11 -132 -18 -212t-19 -201.5t-23 -197t-27.5 -177.5t-35.5 -166.5t-43.5 -139.5t-54.5 -120t-66 -85.5t-80.5 -58.5t-95.5 -18q-56 0 -104 18v78q50 -15 94 -15q42 0 79 18t67.5 58.5t55.5 85.5t46 120t37 139t30.5 166t24.5 177.5 t21 196.5t17.5 200.5t16.5 211.5z" />
<glyph unicode="&#x41c;" horiz-adv-x="1839" d="M1565 1434h67v-1434h-82v1276l-606 -891h-49l-606 891v-1276h-82v1434h65l648 -949z" />
<glyph unicode="&#x41d;" horiz-adv-x="1568" d="M1280 1434h82v-1434h-82v682h-991v-682h-82v1434h82v-674h991v674z" />
<glyph unicode="&#x41e;" horiz-adv-x="1689" d="M102 717q0 109 29 214.5t90 200.5t147 167t209 114.5t267 42.5q145 0 268 -42.5t209 -114.5t147 -167t90 -200.5t29 -214.5t-29 -214.5t-90 -200.5t-147 -167.5t-209 -115t-268 -42.5q-144 0 -267 42.5t-209 115t-147 167.5t-90 200.5t-29 214.5zM1505 717 q0 99 -25.5 193.5t-79.5 179.5t-131 149t-186.5 101.5t-238.5 37.5q-128 0 -237.5 -37.5t-186 -101.5t-131 -149t-80 -179.5t-25.5 -193.5t25.5 -193.5t80 -179.5t131 -149t186 -102t237.5 -38q129 0 238.5 38t186.5 102t131 149t79.5 179.5t25.5 193.5z" />
<glyph unicode="&#x41f;" horiz-adv-x="1531" d="M289 0h-82v1434h1118v-1434h-80v1356h-956v-1356z" />
<glyph unicode="&#x420;" horiz-adv-x="1337" d="M207 1434h457q83 0 155.5 -9.5t141.5 -29.5t123 -55t95 -83.5t63 -117.5t22 -154q0 -102 -32.5 -181t-86.5 -129t-132.5 -82t-163 -45t-185.5 -13h-375v-535h-82v1434zM1182 985q0 85 -27 150.5t-73 107t-113 67.5t-140 36t-161 10h-379v-744h379q514 0 514 373z" />
<glyph unicode="&#x421;" horiz-adv-x="1355" d="M104 700q1 146 43.5 271t114.5 212.5t167 150t201 92.5t216 30q219 0 401 -98v-82q-168 102 -391 102q-99 0 -194.5 -26t-181.5 -81.5t-151 -134t-103.5 -191t-39.5 -245.5q0 -128 39 -235.5t104.5 -182t152.5 -126.5t182.5 -76.5t195.5 -24.5q233 0 404 105v-82 q-184 -101 -418 -101q-109 0 -214 28t-201 87.5t-168.5 143t-115.5 203.5t-43 261z" />
<glyph unicode="&#x422;" horiz-adv-x="1216" d="M29 1434h1159v-78h-539v-1356h-82v1356h-538v78z" />
<glyph unicode="&#x423;" horiz-adv-x="1271" d="M719 326q-68 -136 -140 -215t-138 -106.5t-148 -27.5q-84 0 -164 25v76q82 -23 152 -23q101 0 178.5 54.5t154.5 191.5l25 49l-614 1084h90l567 -1006l506 1006h88z" />
<glyph unicode="&#x424;" horiz-adv-x="1736" d="M909 -74h-82v193q-351 5 -556 161t-205 437t205 437t556 161v192h82v-192q231 -3 401.5 -72t265.5 -204t95 -322t-95 -322t-265.5 -204t-401.5 -72v-193zM147 717q0 -245 179.5 -382t500.5 -142v1048q-321 -5 -500.5 -142t-179.5 -382zM909 1241v-1048q322 5 501 142 t179 382t-179 382t-501 142z" />
<glyph unicode="&#x425;" horiz-adv-x="1257" d="M113 0h-97l566 737l-535 697h96l486 -633l485 633h96l-532 -697l563 -737h-96l-516 674z" />
<glyph unicode="&#x426;" horiz-adv-x="1566" d="M1503 -356h-78v356h-1218v1434h82v-1356h958v1356h80v-1356h176v-434z" />
<glyph unicode="&#x427;" horiz-adv-x="1382" d="M1176 0h-82v594q-233 -81 -461 -78q-255 3 -394 125t-139 356v437h82v-439q0 -203 122.5 -301t344.5 -100q219 -3 445 80v760h82v-1434z" />
<glyph unicode="&#x428;" horiz-adv-x="2174" d="M1968 0h-1761v1434h82v-1356h758v1356h81v-1356h760v1356h80v-1434z" />
<glyph unicode="&#x429;" horiz-adv-x="2207" d="M2144 -356h-78l2 356h-1861v1434h82v-1356h758v1356h81v-1356h760v1356h80v-1356h176v-434z" />
<glyph unicode="&#x42a;" horiz-adv-x="1538" d="M864 0h-456v1356h-379v78h460v-537h375q600 0 600 -448q0 -126 -47.5 -216t-133 -139.5t-188.5 -71.5t-231 -22zM489 819v-741h379q88 0 161 10t140 36t113 67.5t73 107t27 150.5q0 86 -27.5 151.5t-73.5 106.5t-113.5 66.5t-139.5 35.5t-160 10h-379z" />
<glyph unicode="&#x42b;" horiz-adv-x="1724" d="M664 0h-457v1434h82v-537h375q101 0 185.5 -12.5t163 -44.5t132.5 -82t86.5 -128.5t32.5 -180.5q0 -85 -22 -154t-63 -117.5t-95 -83.5t-123 -55t-141.5 -29.5t-155.5 -9.5zM289 819v-741h379q88 0 161 10t140 36t113 67.5t73 107t27 150.5q0 86 -27.5 151.5t-73.5 106.5 t-113.5 66.5t-139.5 35.5t-160 10h-379zM1518 0h-82v1434h82v-1434z" />
<glyph unicode="&#x42c;" horiz-adv-x="1337" d="M664 0h-457v1434h82v-537h375q101 0 185.5 -12.5t163 -44.5t132.5 -82t86.5 -128.5t32.5 -180.5q0 -85 -22 -154t-63 -117.5t-95 -83.5t-123 -55t-141.5 -29.5t-155.5 -9.5zM289 819v-741h379q88 0 161 10t140 36t113 67.5t73 107t27 150.5q0 86 -27.5 151.5t-73.5 106.5 t-113.5 66.5t-139.5 35.5t-160 10h-379z" />
<glyph unicode="&#x42d;" horiz-adv-x="1345" d="M98 1358q179 98 404 98q109 0 214 -29.5t200 -91t166.5 -148.5t114 -211.5t42.5 -270.5t-42.5 -268.5t-114.5 -206t-168 -142t-201 -85t-215 -26.5q-219 0 -400 101v84q176 -107 389 -107q100 0 193.5 22.5t179.5 72t150.5 120.5t104 176t42.5 232h-815v78h815 q-6 122 -46.5 225t-105 175t-148.5 123t-176 75t-189 24q-107 0 -211.5 -26.5t-182.5 -75.5v82z" />
<glyph unicode="&#x42e;" horiz-adv-x="2209" d="M2107 717q0 -109 -29 -214.5t-90 -200.5t-147 -167.5t-209 -115t-268 -42.5q-173 0 -314 60.5t-230 161t-139 223.5t-56 256h-336v-678h-82v1434h82v-678h336q5 106 36.5 206t93 190t146.5 157.5t204.5 107t258.5 39.5q145 0 268 -42.5t209 -114.5t147 -167t90 -200.5 t29 -214.5zM705 717q0 -124 42 -240.5t121 -211.5t207.5 -152.5t288.5 -57.5q129 0 238.5 38t186.5 102t131 149t79.5 179.5t25.5 193.5t-25.5 193.5t-79.5 179.5t-131 149t-186.5 101.5t-238.5 37.5q-128 0 -237.5 -37.5t-186 -101.5t-130.5 -149t-79.5 -179.5 t-25.5 -193.5z" />
<glyph unicode="&#x42f;" horiz-adv-x="1390" d="M174 0h-98l438 563q-174 34 -279.5 143.5t-105.5 286.5q0 108 42 193t115 138.5t169 81.5t207 28h522v-1434h-80v551h-442q-40 0 -58 2zM213 993q0 -177 124 -270.5t322 -93.5h445v727h-445q-198 0 -322 -93.5t-124 -269.5z" />
<glyph unicode="&#x430;" horiz-adv-x="1112" d="M922 158q0 -95 98 -95q29 0 76 15v-66q-50 -16 -97 -16q-67 0 -111 38.5t-44 121.5v26q-73 -98 -184 -151.5t-242 -53.5q-89 0 -163.5 29.5t-124.5 96.5t-50 161q0 68 24.5 122t65 89.5t96.5 59t116 33.5t126 10q169 0 336 -54v90q0 146 -88 232t-250 86q-185 0 -350 -64 v76q175 62 356 62q194 0 302 -106t108 -294v-448zM160 266q0 -106 79.5 -162.5t192.5 -56.5q126 0 237 60.5t175 171.5v178q-164 53 -328 53q-70 0 -130.5 -13t-112.5 -40.5t-82.5 -76.5t-30.5 -114z" />
<glyph unicode="&#x431;" horiz-adv-x="1206" d="M1110 461q0 -220 -136.5 -352t-357.5 -132q-227 0 -367 156t-140 408q0 230 86 406t225 263q93 57 191 91t161.5 44.5t129 36.5t110.5 72v-84q-37 -32 -83.5 -52t-96.5 -32t-104 -24.5t-124 -40.5t-139 -70q-224 -135 -279 -487q56 130 177 204t266 74 q204 0 342.5 -134.5t138.5 -346.5zM186 506q0 -195 118 -324t310 -129q189 0 303.5 112.5t114.5 293.5q0 179 -115 294t-299 115q-158 0 -280 -98t-152 -264z" />
<glyph unicode="&#x432;" horiz-adv-x="1110" d="M694 0h-528v983h504q139 0 219 -67.5t80 -188.5q0 -83 -42.5 -142.5t-119.5 -82.5q89 -19 144 -79t55 -163q0 -125 -84.5 -192.5t-227.5 -67.5zM244 465v-395h440q111 0 177.5 47t66.5 147q0 106 -66 153.5t-170 47.5h-448zM244 913v-381h424q108 0 165.5 49t57.5 140 q0 93 -61 142.5t-168 49.5h-418z" />
<glyph unicode="&#x433;" horiz-adv-x="894" d="M244 0h-78v983h698v-74h-620v-909z" />
<glyph unicode="&#x434;" horiz-adv-x="1251" d="M127 -279h-76v351h127q98 194 142.5 404t44.5 507h679v-911h142v-351h-78v279h-981v-279zM438 911q-3 -265 -46 -459.5t-132 -379.5h705v839h-527z" />
<glyph unicode="&#x435;" horiz-adv-x="1114" d="M96 492q0 121 41 220.5t109.5 162.5t154 97t177.5 34q89 0 163.5 -24t124.5 -65.5t87.5 -96.5t53.5 -116.5t21.5 -125.5t-8.5 -125h-846q4 -103 44.5 -182.5t106.5 -126t146.5 -70t171.5 -23.5q186 0 320 78v-78q-135 -74 -330 -74q-108 0 -203 31t-170.5 91.5 t-119.5 161.5t-44 231zM952 522q6 53 -2 107.5t-34.5 109.5t-68.5 97.5t-110.5 69t-154.5 26.5q-166 0 -284 -109.5t-124 -300.5h778z" />
<glyph unicode="&#x436;" horiz-adv-x="1472" d="M1452 0h-88l-406 465h-184v-465h-78v465h-182l-405 -465h-91l433 504l-377 479h88l354 -444h180v444h78v-444h182l353 444h90l-377 -479z" />
<glyph unicode="&#x437;" horiz-adv-x="954" d="M852 260q0 -72 -32.5 -127.5t-90.5 -89t-132 -50t-161 -16.5q-195 0 -352 72v76q67 -33 161 -53.5t183 -20.5q70 0 129 11t109.5 34.5t79 67t28.5 102.5q0 50 -22.5 89t-59 62t-78 34.5t-84.5 11.5h-239v74h239q106 8 165 53t59 129q0 105 -91.5 160t-232.5 55 q-168 0 -332 -72v74q166 70 340 70q177 0 285 -72.5t108 -204.5q0 -91 -50.5 -149.5t-143.5 -75.5q90 -22 152.5 -86t62.5 -158z" />
<glyph unicode="&#x438;" horiz-adv-x="1198" d="M236 0h-70v983h78v-860l717 860h71v-983h-78v860z" />
<glyph unicode="&#x439;" horiz-adv-x="1198" d="M860 1233q-104 -84 -262 -84t-262 84v76q114 -90 262 -90t262 90v-76zM236 0h-70v983h78v-860l717 860h71v-983h-78v860z" />
<glyph unicode="&#x43a;" horiz-adv-x="1028" d="M244 0h-78v983h78v-440h252l368 440h92l-399 -479l455 -504h-94l-429 469h-245v-469z" />
<glyph unicode="&#x43b;" horiz-adv-x="1200" d="M442 909q-10 -225 -31 -387t-59 -286t-98.5 -186t-144.5 -62q-46 0 -93 16v64q33 -13 72 -13q133 0 199 234.5t80 693.5h667v-983h-78v909h-514z" />
<glyph unicode="&#x43c;" horiz-adv-x="1357" d="M240 0h-74v983h84l430 -610l428 610h84v-983h-74v866l-411 -581h-56l-411 581v-866z" />
<glyph unicode="&#x43d;" d="M244 0h-78v983h78v-455h694v455h78v-983h-78v455h-694v-455z" />
<glyph unicode="&#x43e;" horiz-adv-x="1210" d="M94 492q0 120 42.5 219t114 162.5t162.5 98t191 34.5q101 0 192.5 -34.5t163 -98t114 -162.5t42.5 -219t-42.5 -219t-114 -163t-163 -98.5t-192.5 -34.5q-100 0 -191 34.5t-162.5 98.5t-114 163t-42.5 219zM1038 492q0 135 -60.5 236.5t-158 151.5t-215.5 50 q-117 0 -214 -50t-157.5 -151.5t-60.5 -236.5t60.5 -236.5t157.5 -152t214 -50.5q118 0 215.5 50.5t158 152t60.5 236.5z" />
<glyph unicode="&#x43f;" d="M244 0h-78v983h850v-983h-78v909h-694v-909z" />
<glyph unicode="&#x440;" horiz-adv-x="1259" d="M238 750q66 114 178.5 185t257.5 71q212 0 350.5 -142.5t138.5 -371.5t-138.5 -372t-350.5 -143q-145 0 -257 69.5t-173 178.5v-676h-78v1434h72v-233zM1085 492q0 201 -118 320.5t-301 119.5q-147 0 -261.5 -84.5t-160.5 -212.5v-287q46 -128 160.5 -212.5t261.5 -84.5 q183 0 301 119t118 322z" />
<glyph unicode="&#x441;" horiz-adv-x="1017" d="M96 483q0 131 46.5 234.5t123.5 164.5t168.5 92.5t190.5 31.5q171 0 293 -80v-76q-119 82 -285 82q-88 0 -167.5 -26.5t-146 -78.5t-106 -140.5t-39.5 -201.5q0 -108 37 -193t100 -136.5t140 -78t163 -26.5q176 0 314 78v-78q-139 -74 -322 -74q-98 0 -187.5 31 t-162.5 91t-116.5 159t-43.5 225z" />
<glyph unicode="&#x442;" horiz-adv-x="931" d="M506 0h-78v909h-397v74h870v-74h-395v-909z" />
<glyph unicode="&#x443;" horiz-adv-x="1087" d="M565 82l398 901h81l-512 -1155q-72 -162 -152 -231.5t-183 -69.5q-54 0 -103 14v70q58 -14 94 -14q88 0 155 63t126 199l59 137l-497 987h84z" />
<glyph unicode="&#x444;" horiz-adv-x="1439" d="M758 -451h-78v428q-167 3 -299 63.5t-209.5 177.5t-77.5 274q0 118 45 215t123.5 161t185.5 100t232 38v428h78v-428q125 -2 232 -38t186.5 -100t124.5 -161t45 -215q0 -157 -78 -274t-210 -177.5t-300 -63.5v-428zM172 492q0 -204 141 -322t367 -123v889 q-226 -5 -367 -122.5t-141 -321.5zM758 936v-889q227 5 367.5 122.5t140.5 322.5q0 204 -140.5 321.5t-367.5 122.5z" />
<glyph unicode="&#x445;" horiz-adv-x="989" d="M844 983h92l-395 -479l415 -504h-90l-372 449l-371 -449h-92l418 504l-396 479h90l351 -422z" />
<glyph unicode="&#x446;" horiz-adv-x="1212" d="M1145 -279h-76v279h-903v983h78v-909h682v909h78v-909h141v-353z" />
<glyph unicode="&#x447;" horiz-adv-x="1058" d="M893 0h-78v371q-149 -64 -330 -64q-184 0 -288.5 88t-104.5 264v324h78v-319q0 -283 336 -283q180 0 309 59v543h78v-983z" />
<glyph unicode="&#x448;" horiz-adv-x="1654" d="M1489 0h-1323v983h78v-909h544v909h78v-909h545v909h78v-983z" />
<glyph unicode="&#x449;" horiz-adv-x="1697" d="M1630 -279h-76v279h-1388v983h78v-909h544v909h78v-909h545v909h78v-909h141v-353z" />
<glyph unicode="&#x44a;" horiz-adv-x="1185" d="M389 614h359q168 0 269 -86t101 -221t-101 -221t-269 -86h-437v913h-278v70h356v-369zM389 72h350q138 0 218.5 64t80.5 171q0 108 -81 172t-218 64h-350v-471z" />
<glyph unicode="&#x44b;" horiz-adv-x="1415" d="M602 0h-436v983h78v-369h358q168 0 269.5 -86t101.5 -221t-101.5 -221t-269.5 -86zM244 543v-471h350q138 0 218.5 64t80.5 171q0 108 -81 172t-218 64h-350zM1249 0h-78v983h78v-983z" />
<glyph unicode="&#x44c;" horiz-adv-x="1040" d="M602 0h-436v983h78v-369h358q168 0 269.5 -86t101.5 -221t-101.5 -221t-269.5 -86zM244 543v-471h350q138 0 218.5 64t80.5 171q0 108 -81 172t-218 64h-350z" />
<glyph unicode="&#x44d;" horiz-adv-x="1028" d="M932 479q0 -129 -43.5 -228.5t-116.5 -157.5t-160 -87t-184 -29q-181 0 -340 89v73q150 -88 328 -88q86 0 161 22.5t137.5 68.5t99.5 126t40 187h-573v73h573q-5 83 -33.5 151t-73 114.5t-103 78t-122 46t-131.5 14.5q-75 0 -153.5 -23.5t-139.5 -64.5v71q137 91 301 91 q100 0 192.5 -31.5t170 -93.5t124 -166t46.5 -236z" />
<glyph unicode="&#x44e;" horiz-adv-x="1646" d="M1550 492q0 -120 -42 -219t-113.5 -163t-162.5 -98.5t-192 -34.5q-97 0 -185.5 32.5t-159 91.5t-115 151t-50.5 203h-286v-455h-78v983h78v-455h286q6 111 50.5 203t115 151t159 91.5t185.5 32.5q101 0 192 -34.5t162.5 -98t113.5 -162.5t42 -219zM606 492 q0 -135 60.5 -236.5t157.5 -152t214 -50.5q118 0 216 50.5t158.5 152t60.5 236.5q0 102 -35 186t-95 138.5t-138.5 84t-166.5 29.5q-117 0 -214 -50t-157.5 -151.5t-60.5 -236.5z" />
<glyph unicode="&#x44f;" horiz-adv-x="1103" d="M166 0h-92l297 391q-120 25 -188 103t-68 188q0 133 98.5 217t265.5 84h459v-983h-78v381h-381h-24zM193 682q0 -105 78 -167t214 -62h375v458h-375q-136 0 -214 -62.5t-78 -166.5z" />
<glyph unicode="&#x451;" horiz-adv-x="1114" d="M846 1262q0 -26 -19 -45t-45 -19t-44.5 19t-18.5 45q0 25 18.5 44t44.5 19t45 -19t19 -44zM434 1262q0 -26 -18.5 -45t-44.5 -19t-45 19t-19 45q0 25 19 44t45 19t44.5 -19t18.5 -44zM96 492q0 121 41 220.5t109.5 162.5t154 97t177.5 34q89 0 163.5 -24t124.5 -65.5 t87.5 -96.5t53.5 -116.5t21.5 -125.5t-8.5 -125h-846q4 -103 44.5 -182.5t106.5 -126t146.5 -70t171.5 -23.5q186 0 320 78v-78q-135 -74 -330 -74q-108 0 -203 31t-170.5 91.5t-119.5 161.5t-44 231zM952 522q6 53 -2 107.5t-34.5 109.5t-68.5 97.5t-110.5 69t-154.5 26.5 q-166 0 -284 -109.5t-124 -300.5h778z" />
<glyph unicode="&#x2000;" horiz-adv-x="954" />
<glyph unicode="&#x2001;" horiz-adv-x="1909" />
<glyph unicode="&#x2002;" horiz-adv-x="954" />
<glyph unicode="&#x2003;" horiz-adv-x="1909" />
<glyph unicode="&#x2004;" horiz-adv-x="636" />
<glyph unicode="&#x2005;" horiz-adv-x="477" />
<glyph unicode="&#x2006;" horiz-adv-x="318" />
<glyph unicode="&#x2007;" horiz-adv-x="318" />
<glyph unicode="&#x2008;" horiz-adv-x="238" />
<glyph unicode="&#x2009;" horiz-adv-x="381" />
<glyph unicode="&#x200a;" horiz-adv-x="106" />
<glyph unicode="&#x2010;" horiz-adv-x="993" d="M141 537h711v-74h-711v74z" />
<glyph unicode="&#x2011;" horiz-adv-x="993" d="M141 537h711v-74h-711v74z" />
<glyph unicode="&#x2012;" horiz-adv-x="993" d="M141 537h711v-74h-711v74z" />
<glyph unicode="&#x2013;" horiz-adv-x="1163" d="M1022 463h-881v74h881v-74z" />
<glyph unicode="&#x2014;" horiz-adv-x="1540" d="M1399 463h-1258v74h1258v-74z" />
<glyph unicode="&#x2018;" horiz-adv-x="387" d="M193 987h-82l120 447h66z" />
<glyph unicode="&#x2019;" horiz-adv-x="380" d="M178 987h-65l104 447h82z" />
<glyph unicode="&#x201a;" horiz-adv-x="415" d="M143 -295h-65l104 447h82z" />
<glyph unicode="&#x201c;" horiz-adv-x="649" d="M455 987h-82l121 447h65zM193 987h-82l120 447h66z" />
<glyph unicode="&#x201d;" horiz-adv-x="643" d="M440 987h-65l104 447h82zM178 987h-65l104 447h82z" />
<glyph unicode="&#x201e;" horiz-adv-x="677" d="M406 -295h-66l104 447h82zM143 -295h-65l104 447h82z" />
<glyph unicode="&#x2026;" horiz-adv-x="1007" d="M866 47q0 -29 -17 -45t-44 -16q-26 0 -44 16.5t-18 44.5q0 27 18 43t44 16q27 0 44 -16t17 -43zM264 47q0 -29 -17 -45t-44 -16q-26 0 -44 16.5t-18 44.5q0 27 18 43t44 16q27 0 44 -16t17 -43zM565 47q0 -29 -17 -45t-44 -16q-26 0 -44 16.5t-18 44.5q0 27 18 43t44 16 q27 0 44 -16t17 -43z" />
<glyph unicode="&#x202f;" horiz-adv-x="381" />
<glyph unicode="&#x2039;" horiz-adv-x="563" d="M434 135h-86l-244 346v21l244 346h86l-252 -356z" />
<glyph unicode="&#x203a;" horiz-adv-x="563" d="M213 135h-84l252 357l-252 356h84l246 -346v-21z" />
<glyph unicode="&#x205f;" horiz-adv-x="477" />
<glyph unicode="&#x20ac;" horiz-adv-x="1507" d="M1372 78q-184 -101 -401 -101q-118 0 -230 34.5t-207.5 100t-165.5 170t-98 234.5h-180v70h168q-6 49 -6 104q0 68 8 117h-170v70h182q24 103 74.5 190.5t118 151t150.5 108t173 66.5t183 22q219 0 401 -98v-82q-164 102 -389 102q-140 0 -266 -50.5t-223.5 -157 t-135.5 -252.5h777v-70h-791q-10 -46 -10 -117q0 -54 6 -104h795v-70h-779q27 -113 90 -202.5t149 -145t185.5 -84.5t206.5 -29q214 0 385 105v-82z" />
<glyph unicode="&#x2122;" horiz-adv-x="1351" d="M678 918h-51v516h59l219 -310l219 310h60v-516h-51v442l-213 -297h-31l-211 297v-442zM332 918h-51v466h-187v50h424v-50h-186v-466z" />
<glyph unicode="&#x25fc;" horiz-adv-x="983" d="M0 983h983v-983h-983v983z" />
</font>
</defs>
</svg>
