<?xml version="1.0" standalone="no"?>
<!DOCTYPE svg PUBLIC "-//W3C//DTD SVG 1.1//EN" "http://www.w3.org/Graphics/SVG/1.1/DTD/svg11.dtd" >
<svg xmlns="http://www.w3.org/2000/svg" xmlns:xlink="http://www.w3.org/1999/xlink" version="1.1">
<metadata></metadata>
<defs>
<font id="mullerextrabold" horiz-adv-x="1212" >
<font-face units-per-em="2048" ascent="1597" descent="-451" />
<missing-glyph horiz-adv-x="425" />
<glyph horiz-adv-x="0" />
<glyph horiz-adv-x="682" />
<glyph unicode=" "  horiz-adv-x="425" />
<glyph unicode="&#x09;" horiz-adv-x="425" />
<glyph unicode="&#xa0;" horiz-adv-x="425" />
<glyph unicode="!" horiz-adv-x="602" d="M465 532h-328l-20 902h368zM510 172q0 -100 -59 -151.5t-150 -51.5q-90 0 -149.5 51.5t-59.5 151.5q0 99 59.5 150t149.5 51q91 0 150 -51t59 -150z" />
<glyph unicode="&#x22;" horiz-adv-x="929" d="M799 942h-246v492h307zM348 942h-246v492h308z" />
<glyph unicode="#" horiz-adv-x="1443" d="M455 0h-328l68 287h-129v245h186l80 330h-164v246h221l68 287h327l-67 -287h205l67 287h328l-68 -287h127v-246h-184l-80 -330h162v-245h-219l-68 -287h-328l68 287h-205zM659 862l-79 -330h204l80 330h-205z" />
<glyph unicode="$" horiz-adv-x="1265" d="M762 -266h-266v241q-236 25 -414 125v359q235 -162 522 -162q114 0 163.5 21.5t49.5 74.5q0 37 -31 65t-82 45.5t-116.5 38t-133 41t-133 56t-116.5 80.5t-82 117.5t-31 164.5q0 179 109.5 284.5t294.5 129.5v244h266v-246q214 -26 352 -104v-348q-185 138 -450 135 q-183 -3 -183 -92q0 -33 31 -58.5t82 -41.5t116.5 -36.5t133 -40.5t133 -56t116.5 -81.5t82 -118t31 -163.5q0 -385 -444 -433v-241z" />
<glyph unicode="%" horiz-adv-x="1914" d="M655 -123h-225l838 1679h225zM836 1096q0 -176 -112 -272.5t-278 -96.5q-168 0 -279.5 96.5t-111.5 272.5t111.5 272t279.5 96q166 0 278 -96t112 -272zM326 1096q0 -52 29.5 -87.5t90.5 -35.5q60 0 89.5 36t29.5 87t-29.5 87t-89.5 36q-61 0 -90.5 -35.5t-29.5 -87.5z M1860 338q0 -176 -112 -272.5t-278 -96.5q-168 0 -279.5 96.5t-111.5 272.5t111.5 272.5t279.5 96.5q166 0 278 -96.5t112 -272.5zM1350 338q0 -52 29.5 -87.5t90.5 -35.5q60 0 89.5 36t29.5 87t-29.5 87t-89.5 36q-61 0 -90.5 -35.5t-29.5 -87.5z" />
<glyph unicode="&#x26;" horiz-adv-x="1511" d="M1245 274l279 -274h-389l-97 92q-199 -123 -450 -123q-226 0 -368 108.5t-142 280.5q0 132 73.5 225t200.5 162q-151 166 -151 316q0 177 139 290t360 113q194 0 326.5 -107.5t132.5 -273.5q0 -72 -27 -133.5t-78 -109.5t-104.5 -82.5t-126.5 -71.5l195 -192 q57 108 57 223h338q0 -110 -43.5 -227t-124.5 -216zM831 1071q0 56 -35.5 90.5t-101.5 34.5q-75 0 -120.5 -42.5t-45.5 -96.5q0 -51 26.5 -92.5t76.5 -90.5q98 45 149 90.5t51 106.5zM436 397q0 -69 54 -106t151 -37q96 0 180 43l-270 256q-56 -34 -85.5 -70.5t-29.5 -85.5z " />
<glyph unicode="'" horiz-adv-x="479" d="M348 942h-246v492h308z" />
<glyph unicode="(" horiz-adv-x="681" d="M381 1661h266q-106 -205 -168.5 -451.5t-62.5 -492.5t62.5 -492.5t168.5 -451.5h-266q-144 199 -228.5 449t-84.5 495t84.5 495t228.5 449z" />
<glyph unicode=")" horiz-adv-x="679" d="M33 1661h266q144 -199 228.5 -449t84.5 -495t-84.5 -495t-228.5 -449h-266q106 205 168.5 451.5t62.5 492.5t-62.5 492.5t-168.5 451.5z" />
<glyph unicode="*" horiz-adv-x="1028" d="M514 858l-121 -254l-268 189l180 165l-246 43l111 308l221 -125l-41 250h328l-41 -250l221 125l111 -308l-246 -43l180 -165l-268 -189z" />
<glyph unicode="+" horiz-adv-x="1118" d="M702 860h349v-287h-349v-348h-286v348h-348v287h348v348h286v-348z" />
<glyph unicode="," horiz-adv-x="575" d="M281 -293h-283l139 594h369z" />
<glyph unicode="-" horiz-adv-x="991" d="M106 637h779v-287h-779v287z" />
<glyph unicode="." horiz-adv-x="559" d="M487 172q0 -100 -58.5 -151.5t-149.5 -51.5q-90 0 -149.5 51.5t-59.5 151.5q0 99 59.5 150t149.5 51q91 0 149.5 -51t58.5 -150z" />
<glyph unicode="/" horiz-adv-x="968" d="M291 -123h-246l635 1679h246z" />
<glyph unicode="0" horiz-adv-x="1449" d="M80 696q0 122 23 228.5t73.5 199t124.5 158.5t182.5 103.5t241.5 37.5t241.5 -37.5t182.5 -103.5t124.5 -158.5t73.5 -199t23 -228.5t-23 -228.5t-73.5 -199t-124.5 -158.5t-182.5 -103.5t-241.5 -37.5t-241.5 37.5t-182.5 103.5t-124.5 158.5t-73.5 199t-23 228.5z M991 696q0 202 -65 301t-201 99t-201 -99t-65 -301t65 -300.5t201 -98.5t201 98.5t65 300.5z" />
<glyph unicode="1" horiz-adv-x="978" d="M440 1393h277v-1076h217v-317h-832v317h246v701l-246 -92v338z" />
<glyph unicode="2" horiz-adv-x="1245" d="M123 1270q216 153 498 153q108 0 200.5 -24.5t166.5 -75t116.5 -135.5t42.5 -197q0 -68 -22.5 -131t-55.5 -109.5t-86 -93.5t-98 -78.5t-107 -68.5q-185 -111 -224 -141q-42 -33 -42 -52h645v-317h-1079v166q0 113 34 203t110.5 161.5t126 106t153.5 95.5q6 4 10 6.5 t9.5 5.5t10.5 6q21 12 61 34.5t58.5 33.5t45.5 30.5t39.5 35.5t22 38.5t9.5 48.5q0 61 -49.5 93t-132.5 32q-109 0 -231 -44t-232 -130v348z" />
<glyph unicode="3" horiz-adv-x="1236" d="M1102 1036q0 -108 -56 -184t-159 -111q124 -38 198 -127.5t74 -232.5q0 -89 -33 -160t-88 -117.5t-131 -77t-158.5 -44t-173.5 -13.5q-246 0 -481 94v349q118 -67 224.5 -92t226.5 -23q111 2 182.5 37.5t71.5 107.5q0 115 -191 115h-237l2 317l192 -2q81 -2 129.5 23 t48.5 82q0 119 -215 119q-91 0 -201 -34.5t-208 -100.5v348q94 54 214.5 84t246.5 30q151 0 266 -40t185.5 -128.5t70.5 -218.5z" />
<glyph unicode="4" horiz-adv-x="1363" d="M741 1393h369v-861h184v-307h-184v-225h-358v225h-707v307zM752 532v408l-330 -408h330z" />
<glyph unicode="5" horiz-adv-x="1224" d="M180 1395h912v-318l-572 2l-14 -205q83 13 149 13q109 0 198.5 -25.5t157 -78t105 -139t37.5 -200.5q0 -100 -34.5 -181t-92.5 -135t-138 -90.5t-167.5 -52.5t-183.5 -16q-250 0 -449 94v349q79 -55 190.5 -85t217.5 -30q125 0 201.5 39t76.5 117q0 154 -299 157 q-181 0 -344 -57z" />
<glyph unicode="6" horiz-adv-x="1353" d="M463 844q158 76 332 76q99 0 186.5 -29.5t156 -85.5t108.5 -145t40 -199q0 -120 -44.5 -215.5t-121.5 -155t-175 -90.5t-210 -31q-175 0 -301.5 50t-203 147t-112.5 231t-36 312q0 148 36.5 269t99.5 202.5t150 137t184.5 80.5t205.5 25q210 0 409 -88v-327 q-71 50 -163 79t-185 29q-52 0 -96 -7t-87.5 -26t-76 -48.5t-58 -78t-38.5 -112.5zM459 553q10 -86 31.5 -144t55 -88.5t71.5 -42.5t88 -12q86 0 144 44.5t58 131.5q0 89 -65.5 129.5t-167.5 40.5q-106 0 -215 -59z" />
<glyph unicode="7" horiz-adv-x="1191" d="M51 1395h1106v-256l-565 -1139h-410l535 1077h-666v318z" />
<glyph unicode="8" horiz-adv-x="1359" d="M127 1024q0 60 19.5 116t62.5 108t106 90.5t157 61.5t208 23q134 0 242.5 -35t174.5 -92.5t101 -127.5t35 -144q0 -98 -43 -168.5t-127 -134.5q221 -111 221 -332q0 -66 -20.5 -125.5t-67.5 -114t-115.5 -94t-171.5 -63t-229 -23.5t-229 23.5t-171.5 63t-115.5 94 t-67.5 114t-20.5 125.5q0 105 58.5 194.5t148.5 143.5q-156 112 -156 297zM721 545q-34 14 -107.5 37.5t-105.5 35.5q-59 -84 -55 -182q3 -78 66.5 -129t189.5 -51q86 0 141 34.5t55 90.5q0 59 -44.5 93t-139.5 71zM872 1006q-2 58 -55 94.5t-155 36.5q-81 0 -129 -34 t-48 -81q0 -34 15 -60t48 -46.5t65 -34t87 -31.5q15 -4 51 -16t56 -17q33 46 50 97t15 92z" />
<glyph unicode="9" horiz-adv-x="1353" d="M68 932q0 120 44.5 215.5t121 154.5t174.5 90t210 31q175 0 301.5 -49.5t203.5 -147t113 -231t36 -311.5q0 -148 -36.5 -269t-99.5 -202.5t-150 -137.5t-184.5 -81t-205.5 -25q-211 0 -410 88v328q72 -50 164.5 -79.5t184.5 -29.5q66 0 119.5 12.5t103 41.5t83.5 84.5 t50 134.5q-158 -76 -332 -76q-99 0 -186.5 29.5t-156 85.5t-108.5 145t-40 199zM649 1126q-86 0 -144.5 -44.5t-58.5 -131.5q0 -61 34 -100t84 -54.5t116 -15.5q104 0 215 60q-10 86 -31.5 144t-55 88t-71 42t-88.5 12z" />
<glyph unicode=":" horiz-adv-x="606" d="M512 745q0 -100 -59 -151t-150 -51q-90 0 -149.5 51t-59.5 151q0 99 59.5 150t149.5 51q91 0 150 -51t59 -150zM512 172q0 -100 -59 -151.5t-150 -51.5q-90 0 -149.5 51.5t-59.5 151.5q0 99 59.5 150t149.5 51q91 0 150 -51t59 -150z" />
<glyph unicode=";" horiz-adv-x="622" d="M299 -293h-283l140 594h368zM526 793q0 -100 -59 -151.5t-150 -51.5q-90 0 -149 51.5t-59 151.5q0 99 59 149.5t149 50.5q91 0 150 -50.5t59 -149.5z" />
<glyph unicode="&#x3c;" horiz-adv-x="1048" d="M918 563v-307l-840 287v348l840 287v-308l-547 -153z" />
<glyph unicode="=" horiz-adv-x="1208" d="M1096 786h-983v287h983v-287zM1096 360h-983v287h983v-287z" />
<glyph unicode="&#x3e;" horiz-adv-x="1048" d="M971 543l-840 -287v307l547 154l-547 153v308l840 -287v-348z" />
<glyph unicode="?" horiz-adv-x="1030" d="M625 496h-328q0 71 30.5 138.5t74 118.5t87.5 96t74.5 86.5t30.5 72.5q0 129 -188 129q-84 0 -173 -27.5t-161 -69.5v328q190 96 397 96q81 0 152 -11.5t136.5 -38t112.5 -67.5t75 -104t28 -143q0 -78 -36 -153t-87 -133t-102 -111.5t-87 -107t-36 -99.5zM672 172 q0 -100 -59 -151.5t-150 -51.5q-90 0 -149.5 51.5t-59.5 151.5q0 99 59.5 150t149.5 51q91 0 150 -51t59 -150z" />
<glyph unicode="@" horiz-adv-x="2142" d="M66 492q0 151 41.5 293t126 265.5t204 215.5t286.5 145t361 53q161 0 303 -38.5t247 -104.5t188.5 -153.5t135 -187.5t78.5 -203t27 -204q0 -279 -126 -421t-347 -142q-123 0 -217 56t-131 149q-85 -149 -278 -149q-93 0 -167 37.5t-118.5 99.5t-68 135t-23.5 149 q0 62 13 121t43 114.5t74 97t109.5 66.5t145.5 25q174 0 270 -129v105h250v-492q0 -139 121 -139q44 0 74 25t44 72.5t19.5 98.5t5.5 121q0 86 -25.5 172t-80 166t-132 141.5t-190 98.5t-244.5 37q-166 0 -303 -57.5t-225 -155t-136 -222t-48 -261.5q0 -142 42 -258 t116 -196t176 -134.5t219.5 -79.5t249.5 -25q218 0 440 72v-277q-207 -73 -451 -73q-177 0 -339 38.5t-301 118t-241 193.5t-160 273t-58 348zM1210 571q-20 47 -62.5 78t-98.5 31q-84 0 -127 -57t-43 -136q0 -77 43 -133.5t127 -56.5q56 0 98.5 31t62.5 78v165z" />
<glyph unicode="A" horiz-adv-x="1540" d="M391 0h-389l563 1434h410l563 -1434h-389l-82 225h-594zM733 946l-147 -414h368l-147 414q-26 75 -37 146q-11 -71 -37 -146z" />
<glyph unicode="B" horiz-adv-x="1400" d="M135 1434h647q240 0 371 -90.5t131 -272.5q0 -235 -213 -311q124 -36 197 -124t73 -230q0 -94 -35 -167t-91 -117t-134.5 -72.5t-156.5 -39t-166 -10.5h-623v1434zM961 446q0 81 -49.5 115.5t-141.5 34.5h-258v-299h258q92 0 141.5 34t49.5 115zM905 1004 q0 62 -41.5 97.5t-115.5 35.5h-234v-265l234 -2q74 0 115.5 36t41.5 98z" />
<glyph unicode="C" horiz-adv-x="1341" d="M66 696q0 157 43.5 287t118 217.5t174.5 148t210.5 88t229.5 27.5q224 0 415 -90v-358q-66 55 -158.5 86t-191.5 31q-88 0 -167 -25.5t-144 -76t-103 -137t-38 -198.5q0 -101 38 -178.5t103 -123t142.5 -68.5t164.5 -23q111 0 207.5 32.5t157.5 92.5v-369 q-191 -90 -418 -90q-121 0 -232.5 26t-213 83t-176 140.5t-118.5 206t-44 271.5z" />
<glyph unicode="D" horiz-adv-x="1523" d="M135 1434h572q188 0 332.5 -53t235 -149.5t136 -226t45.5 -288.5t-45.5 -288.5t-136 -226t-235 -149.5t-332.5 -53h-572v1434zM1067 717q0 197 -93 293t-267 96h-193v-778h193q174 0 267 96t93 293z" />
<glyph unicode="E" horiz-adv-x="1263" d="M135 1434h1032v-328h-653v-219h592v-326h-592v-233h666v-328h-1045v1434z" />
<glyph unicode="F" horiz-adv-x="1236" d="M135 1434h1034v-338h-655v-248h596v-338h-596v-510h-379v1434z" />
<glyph unicode="G" horiz-adv-x="1431" d="M66 717q0 156 44 283t119 212t177 142.5t214.5 83.5t235.5 26q231 0 444 -90v-358q-79 55 -182.5 84.5t-212.5 29.5q-90 0 -168.5 -23.5t-142.5 -71.5t-101.5 -129.5t-37.5 -188.5q0 -101 29 -179t72.5 -123t103 -73t112 -37.5t107.5 -9.5q56 0 98 10v483h358v-722 q-234 -97 -475 -97q-125 0 -239.5 27.5t-216 86.5t-176.5 145.5t-118.5 211.5t-43.5 277z" />
<glyph unicode="H" horiz-adv-x="1560" d="M1047 1434h378v-1434h-378v547h-533v-547h-379v1434h379v-549h533v549z" />
<glyph unicode="I" horiz-adv-x="649" d="M135 1434h379v-1434h-379v1434z" />
<glyph unicode="J" horiz-adv-x="1060" d="M199 1434h737v-988q0 -104 -29 -186t-78 -136t-118 -89.5t-145.5 -50.5t-164.5 -15q-185 0 -370 68v348q126 -68 274 -68q252 0 252 181v598h-358v338z" />
<glyph unicode="K" horiz-adv-x="1445" d="M514 0h-379v1434h379v-543h180l326 543h420l-451 -699l471 -735h-420l-348 553h-178v-553z" />
<glyph unicode="L" horiz-adv-x="1196" d="M135 1434h379v-1096h655v-338h-1034v1434z" />
<glyph unicode="M" horiz-adv-x="1859" d="M1366 1434h358v-1434h-378v762l-308 -471h-217l-307 473v-764h-379v1434h359l436 -672z" />
<glyph unicode="N" horiz-adv-x="1560" d="M514 0h-379v1434h359l561 -824q-8 91 -8 238v586h378v-1434h-358l-561 821q8 -91 8 -235v-586z" />
<glyph unicode="O" horiz-adv-x="1662" d="M63 717q0 121 30 231t93 204.5t153 163.5t216 108.5t276 39.5t276 -39.5t216 -108.5t153 -163.5t93 -204.5t30 -231q0 -152 -49 -285.5t-142 -237.5t-242 -164.5t-335 -60.5t-335 60.5t-242 164.5t-142 237.5t-49 285.5zM1210 717q0 178 -99 288.5t-280 110.5 t-279.5 -110.5t-98.5 -288.5t99 -289t279 -111q181 0 280 111t99 289z" />
<glyph unicode="P" horiz-adv-x="1368" d="M135 1434h567q625 0 625 -492q0 -110 -31.5 -195t-86 -140t-135 -90.5t-171 -50t-201.5 -15.5h-188v-451h-379v1434zM938 942q0 164 -217 164h-207v-328h207q217 0 217 164z" />
<glyph unicode="Q" horiz-adv-x="1662" d="M1599 111l-258 -228l-155 156q-152 -70 -355 -70q-186 0 -335 60.5t-242 164.5t-142 237.5t-49 285.5q0 121 30 231t93 204.5t153 163.5t216 108.5t276 39.5t276 -39.5t216 -108.5t153 -163.5t93 -204.5t30 -231q0 -271 -143 -463zM453 717q0 -178 99 -289t279 -111 q15 0 72 5l-129 129l244 241l160 -160q32 88 32 185q0 178 -99.5 290.5t-279.5 112.5t-279 -112.5t-99 -290.5z" />
<glyph unicode="R" horiz-adv-x="1456" d="M514 0h-379v1434h604q92 0 173 -13.5t159 -48t133.5 -88t89 -139t33.5 -195.5q0 -321 -274 -430l395 -520h-428l-342 467h-164v-467zM514 1106v-332h242q84 0 133 42.5t49 123.5t-49 123.5t-133 42.5h-242z" />
<glyph unicode="S" horiz-adv-x="1271" d="M84 1042q0 105 42.5 186.5t117.5 132.5t171.5 77t209.5 26q134 0 260.5 -30t220.5 -84v-349q-186 139 -451 136q-182 -3 -182 -93q0 -33 32 -60t84.5 -46t119.5 -43t137 -48t137 -63.5t119.5 -87.5t84.5 -122.5t32 -165.5q0 -439 -574 -439q-314 0 -551 131v359 q235 -162 522 -162q114 0 163.5 21.5t49.5 74.5q0 33 -25.5 59.5t-68.5 47t-99 40t-117.5 41.5t-123.5 48t-118 63.5t-99 84.5t-68.5 115t-25.5 150z" />
<glyph unicode="T" horiz-adv-x="1241" d="M27 1434h1187v-338h-403v-1096h-379v1096h-405v338z" />
<glyph unicode="U" horiz-adv-x="1531" d="M1032 1434h379v-887q0 -125 -37 -225.5t-98.5 -165t-146 -108t-174.5 -61.5t-189 -18t-189 18t-174.5 61.5t-146 108t-98.5 165t-37 225.5v887h379v-867q0 -139 68.5 -199.5t197.5 -60.5t197.5 60.5t68.5 199.5v867z" />
<glyph unicode="V" horiz-adv-x="1478" d="M934 0h-389l-539 1434h410l323 -983l324 983h410z" />
<glyph unicode="W" horiz-adv-x="2207" d="M1786 1434h409l-438 -1434h-409l-244 887l-244 -887h-409l-439 1434h410l244 -1008l272 1008h332l272 -1008z" />
<glyph unicode="X" horiz-adv-x="1421" d="M420 0h-443l492 745l-461 689h443l260 -422l260 422h442l-461 -689l492 -745h-443l-290 481z" />
<glyph unicode="Y" horiz-adv-x="1490" d="M934 0h-377v489l-559 945h430l317 -592l318 592h430l-559 -945v-489z" />
<glyph unicode="Z" horiz-adv-x="1284" d="M1214 0h-1153v256l623 840h-586v338h1098v-256l-625 -840h643v-338z" />
<glyph unicode="[" horiz-adv-x="731" d="M672 -225h-553v1884h553v-307h-205v-1270h205v-307z" />
<glyph unicode="\" horiz-adv-x="968" d="M924 -123h-246l-635 1679h246z" />
<glyph unicode="]" horiz-adv-x="731" d="M612 -225h-553v307h205v1270h-205v307h553v-1884z" />
<glyph unicode="^" horiz-adv-x="1290" d="M430 696h-369l431 738h307l430 -738h-369l-215 400z" />
<glyph unicode="_" horiz-adv-x="1024" d="M1024 -381h-1024v287h1024v-287z" />
<glyph unicode="`" horiz-adv-x="593" d="M573 1556h-327l-226 308h369z" />
<glyph unicode="a" horiz-adv-x="1161" d="M1034 281q0 -62 68 -62q21 0 39 6v-215q-78 -30 -176 -30q-165 0 -234 108q-151 -119 -342 -119q-146 0 -244 82.5t-98 220.5q0 89 39 154.5t104 101t135.5 52t147.5 16.5q105 0 213 -23v35q0 55 -52.5 89t-152.5 34q-157 0 -344 -76v293q200 66 383 66q122 0 213 -23 t160.5 -75t105 -142.5t35.5 -218.5v-274zM406 301q0 -40 32 -68t86 -28q93 0 162 51v133q-59 19 -125 19q-68 0 -111.5 -26t-43.5 -81z" />
<glyph unicode="b" horiz-adv-x="1277" d="M104 1434h349v-531q107 111 292 111q119 0 213 -45.5t149.5 -121t84.5 -166.5t29 -189q0 -78 -17.5 -152t-55.5 -141.5t-92.5 -118.5t-134.5 -81t-176 -30q-122 0 -206.5 47t-126.5 117v-133h-308v1434zM862 492q0 96 -54 165.5t-157 69.5q-68 0 -120.5 -35.5 t-77.5 -87.5v-225q25 -52 77.5 -87.5t120.5 -35.5q103 0 157 70t54 166z" />
<glyph unicode="c" horiz-adv-x="1003" d="M55 471q0 112 32 204.5t86.5 155t128 105t154 61.5t167.5 19q161 0 303 -68v-297q-119 68 -250 68q-54 0 -99.5 -12t-82.5 -38t-58.5 -71t-21.5 -106q0 -110 74 -168t182 -58q151 0 266 66v-297q-158 -66 -338 -66q-106 0 -201 30.5t-172.5 89.5t-123.5 157.5t-46 224.5z " />
<glyph unicode="d" horiz-adv-x="1275" d="M823 1434h348v-1434h-307v133q-42 -70 -127 -117t-207 -47q-119 0 -212.5 45.5t-149.5 121.5t-84.5 167t-28.5 189t28.5 189t84.5 166.5t149.5 121t212.5 45.5q186 0 293 -111v531zM823 604q-25 52 -77.5 87.5t-120.5 35.5q-103 0 -157 -69.5t-54 -165.5t54 -166t157 -70 q68 0 120.5 35.5t77.5 87.5v225z" />
<glyph unicode="e" horiz-adv-x="1122" d="M55 492q0 111 33 201.5t86 149t122.5 98t138 56.5t136.5 17q103 0 187 -25.5t141 -70.5t96.5 -105t56.5 -130.5t17 -145t-18 -150.5h-643q28 -77 113 -114t200 -37q159 0 283 47v-258q-156 -56 -365 -56q-122 0 -228 34.5t-185.5 99.5t-125 165t-45.5 224zM733 596 q4 20 -0.5 46t-19.5 54t-49.5 47t-83.5 19q-74 0 -125.5 -46t-51.5 -120h330z" />
<glyph unicode="f" horiz-adv-x="843" d="M559 0h-348v696h-162v287h162v84q0 89 24 159.5t63 114t93.5 72t110.5 40t119 11.5q132 0 239 -39v-286q-63 39 -151 39q-65 0 -107.5 -30.5t-42.5 -94.5v-70h262v-287h-262v-696z" />
<glyph unicode="g" horiz-adv-x="1275" d="M55 492q0 98 28.5 189t84.5 166.5t149.5 121t212.5 45.5q122 0 207 -47t127 -117v133h307v-942q0 -114 -32 -204.5t-86.5 -149t-130 -97.5t-157.5 -55t-175 -16q-232 0 -424 92v297q165 -103 377 -103q63 0 111 10.5t87.5 34t60.5 66.5t21 104v60q-107 -111 -293 -111 q-119 0 -212.5 45.5t-149.5 121.5t-84.5 167t-28.5 189zM823 604q-25 52 -77.5 87.5t-120.5 35.5q-103 0 -157 -69.5t-54 -165.5t54 -166t157 -70q68 0 120.5 35.5t77.5 87.5v225z" />
<glyph unicode="h" d="M104 1434h349v-525q118 105 272 105q98 0 174.5 -32t123.5 -87.5t71 -127.5t24 -157v-610h-348v563q0 75 -41 114.5t-108 39.5q-53 0 -96.5 -25.5t-71.5 -60.5v-631h-349v1434z" />
<glyph unicode="i" horiz-adv-x="561" d="M455 0h-349v983h349v-983zM479 1315q0 -96 -56 -144.5t-142 -48.5q-85 0 -142 49t-57 144q0 94 57 142t142 48q86 0 142 -48t56 -142z" />
<glyph unicode="j" horiz-adv-x="561" d="M455 -117q0 -78 -20 -140.5t-54.5 -103.5t-83.5 -68.5t-103.5 -39.5t-117.5 -12q-118 0 -189 30v291q50 -16 101 -16q52 0 85 31.5t33 93.5v1034h349v-1100zM479 1315q0 -96 -56 -144.5t-142 -48.5q-85 0 -142 49t-57 144q0 94 57 142t142 48q86 0 142 -48t56 -142z" />
<glyph unicode="k" horiz-adv-x="1148" d="M1155 0h-387l-242 373h-73v-373h-349v1434h349v-795h77l215 344h390l-320 -483z" />
<glyph unicode="l" horiz-adv-x="561" d="M106 1495h349v-1495h-349v1495z" />
<glyph unicode="m" horiz-adv-x="1775" d="M453 0h-349v983h308v-104q45 54 125.5 94.5t177.5 40.5q197 0 291 -135q146 135 313 135q84 0 150.5 -26.5t105 -66.5t63.5 -93t34 -101t9 -96v-631h-348v600q0 56 -32 86.5t-80 30.5q-80 0 -144 -64v-22v-631h-348v600q0 56 -32.5 86.5t-80.5 30.5q-43 0 -86.5 -22.5 t-76.5 -63.5v-631z" />
<glyph unicode="n" d="M412 870q134 144 313 144q98 0 174.5 -32t123.5 -87.5t71 -127.5t24 -157v-610h-348v563q0 75 -41 114.5t-108 39.5q-53 0 -96.5 -25.5t-71.5 -60.5v-631h-349v983h308v-113z" />
<glyph unicode="o" horiz-adv-x="1216" d="M55 492q0 127 44.5 228t121.5 164t176 96.5t211 33.5t211 -33.5t176 -96.5t121.5 -164t44.5 -228t-44.5 -228t-121.5 -164.5t-176 -97t-211 -33.5t-211 33.5t-176 97t-121.5 164.5t-44.5 228zM803 492q0 92 -47.5 153.5t-147.5 61.5t-147 -61t-47 -154t47 -154.5 t147 -61.5t147.5 61.5t47.5 154.5z" />
<glyph unicode="p" horiz-adv-x="1277" d="M412 850q42 70 126.5 117t206.5 47q119 0 213 -45.5t149.5 -121t84.5 -166.5t29 -189q0 -78 -17.5 -152t-55.5 -141.5t-92.5 -118.5t-134.5 -81t-176 -30q-185 0 -292 111v-531h-349v1434h308v-133zM862 492q0 96 -54 165.5t-157 69.5q-68 0 -120.5 -35.5t-77.5 -87.5 v-225q25 -52 77.5 -87.5t120.5 -35.5q103 0 157 70t54 166z" />
<glyph unicode="q" horiz-adv-x="1275" d="M55 492q0 98 28.5 189t84.5 166.5t149.5 121t212.5 45.5q122 0 207 -47t127 -117v133h307v-1434h-348v531q-107 -111 -293 -111q-119 0 -212.5 45.5t-149.5 121.5t-84.5 167t-28.5 189zM823 604q-25 52 -77.5 87.5t-120.5 35.5q-103 0 -157 -69.5t-54 -165.5t54 -166 t157 -70q68 0 120.5 35.5t77.5 87.5v225z" />
<glyph unicode="r" horiz-adv-x="827" d="M412 850q56 81 152.5 124.5t232.5 29.5v-338q-103 23 -200.5 -7t-143.5 -100v-559h-349v983h308v-133z" />
<glyph unicode="s" horiz-adv-x="995" d="M70 700q0 87 35.5 150t97.5 97.5t135 50.5t160 16q192 0 370 -84v-277q-65 45 -163 75t-183 30q-94 0 -94 -49q0 -27 28.5 -47t74 -33.5t100.5 -28t110 -38t100.5 -56t74 -89t28.5 -130.5q0 -72 -25.5 -127.5t-68 -91t-103.5 -58.5t-127.5 -32t-144.5 -9q-236 0 -395 90 v277q78 -51 180.5 -78t196.5 -27q129 0 129 50q0 26 -28.5 45t-74 33t-100.5 29t-110 39.5t-100.5 57t-74 88t-28.5 127.5z" />
<glyph unicode="t" horiz-adv-x="864" d="M182 1260l348 81v-358h267v-287h-267v-319q0 -121 129 -121q84 0 158 25v-271q-118 -41 -266 -41q-60 0 -111.5 10t-100 34.5t-82.5 62t-54.5 96.5t-20.5 135v389h-155v287h155v277z" />
<glyph unicode="u" d="M760 983h348v-983h-307v113q-134 -144 -314 -144q-98 0 -174.5 32t-123.5 87.5t-71 127.5t-24 157v610h348v-563q0 -75 41.5 -114.5t108.5 -39.5q53 0 96.5 25.5t71.5 60.5v631z" />
<glyph unicode="v" horiz-adv-x="1171" d="M791 983h368l-389 -983h-369l-389 983h369l205 -621z" />
<glyph unicode="w" horiz-adv-x="1695" d="M1305 983h372l-305 -983h-368l-156 575l-156 -575h-368l-306 983h373l139 -604l150 604h336l149 -604z" />
<glyph unicode="x" horiz-adv-x="1130" d="M727 983h393l-352 -494l371 -489h-394l-180 254l-180 -254h-393l370 489l-352 494h393l162 -258z" />
<glyph unicode="y" horiz-adv-x="1181" d="M608 397l201 586h358l-411 -1085q-144 -375 -451 -375q-74 0 -180 26v287q69 -16 133 -16q136 0 205 155l-463 1008h369z" />
<glyph unicode="z" horiz-adv-x="1007" d="M88 983h830v-205l-398 -491h426v-287h-887v205l400 491h-371v287z" />
<glyph unicode="{" horiz-adv-x="786" d="M713 82v-307q-238 -55 -375 33.5t-137 283.5v348q0 40 -11.5 66t-34 37.5t-45 15.5t-55.5 4v307q25 0 42.5 1.5t38.5 8.5t34 20t22 36.5t9 56.5v348q0 195 137 284t375 34v-307q-90 17 -127 -25t-37 -139v-246q0 -106 -63 -165.5t-142 -59.5q79 0 142 -59.5t63 -165.5 v-246q0 -97 37 -139t127 -25z" />
<glyph unicode="|" horiz-adv-x="585" d="M467 -205h-348v1864h348v-1864z" />
<glyph unicode="}" horiz-adv-x="786" d="M586 92q0 -195 -137 -283.5t-375 -33.5v307q90 -17 127 25t37 139v246q0 106 62.5 165.5t141.5 59.5q-79 0 -141.5 59.5t-62.5 165.5v246q0 97 -37 139t-127 25v307q238 55 375 -34t137 -284v-348q0 -41 12 -67.5t35.5 -37.5t44.5 -14.5t53 -3.5v-307q-26 0 -44.5 -2 t-39 -9.5t-33 -20.5t-20.5 -36t-8 -55v-348z" />
<glyph unicode="~" horiz-adv-x="1236" d="M1137 860q25 -180 -55.5 -277.5t-227.5 -97.5q-52 0 -117 17.5t-114.5 38.5t-98.5 37t-75 14q-64 0 -50 -90h-286q-13 93 4 166.5t57 118t94 67.5t119 23q57 0 122.5 -16.5t112.5 -37t96.5 -37t80.5 -16.5q64 0 51 90h287z" />
<glyph unicode="&#xa1;" horiz-adv-x="585" d="M477 -451h-368l20 902h328zM502 811q0 -99 -59 -150t-150 -51q-90 0 -149.5 51t-59.5 150q0 100 59.5 151.5t149.5 51.5q91 0 150 -51.5t59 -151.5z" />
<glyph unicode="&#xa2;" horiz-adv-x="1044" d="M784 276q87 15 158 56v-297q-81 -33 -158 -47v-234h-225v217q-100 6 -187.5 39t-158 92.5t-111.5 154.5t-41 214q0 103 27.5 189.5t74 147t110.5 105t135.5 68t150.5 31.5v217h225v-230q89 -21 148 -51v-297q-59 36 -148 56v-431zM559 700q-139 -54 -139 -208 q0 -151 139 -205v413z" />
<glyph unicode="&#xa3;" horiz-adv-x="1241" d="M1163 0h-1085v297h41q65 0 104 49t39 127v80h-158v266h158v101q0 129 42 228t115 157.5t163.5 88t195.5 29.5q184 0 342 -73v-297q-105 94 -262 94q-108 0 -178 -58t-70 -176v-94h365v-266h-365v-80q0 -123 -78 -176h631v-297z" />
<glyph unicode="&#xa4;" horiz-adv-x="1161" d="M371 352l-125 -125l-156 156l115 115q-60 96 -60 219q0 122 60 221l-115 115l154 155l127 -127q91 45 209 45q113 0 211 -45l127 129l153 -157l-117 -117q60 -96 60 -219t-58 -219l115 -115l-156 -156l-124 125q-98 -45 -211 -45q-118 0 -209 45zM432 717 q0 -60 37.5 -104t110.5 -44t110 44t37 104t-37 103.5t-110 43.5t-110.5 -43.5t-37.5 -103.5z" />
<glyph unicode="&#xa5;" horiz-adv-x="1507" d="M1051 1393h405l-387 -656h197v-225h-324v-102h324v-226h-324v-184h-377v184h-323v226h323v102h-323v225h196l-387 656h406l297 -572z" />
<glyph unicode="&#xa6;" horiz-adv-x="606" d="M477 881h-348v778h348v-778zM477 -205h-348v778h348v-778z" />
<glyph unicode="&#xa7;" horiz-adv-x="1091" d="M989 246q0 -72 -25.5 -127.5t-68 -91t-103.5 -58.5t-127.5 -32t-144.5 -9q-216 0 -375 90v267q159 -99 357 -99q69 0 99 10.5t30 39.5q0 30 -47 51.5t-148 50.5q-18 5 -28 8q-67 20 -118 43t-100.5 59.5t-76.5 90t-27 120.5q0 171 135 265q-115 83 -115 227 q0 70 24 124.5t64 89.5t97 57.5t119 32t133 9.5q192 0 370 -84v-266q-68 39 -165.5 66.5t-180.5 27.5q-102 0 -102 -49q0 -42 111 -81q32 -11 131 -40q64 -19 113 -41.5t95 -57.5t70.5 -86t24.5 -116q0 -77 -35 -143t-98 -109q112 -90 112 -239zM514 635q18 -6 57 -18.5 t58 -18.5q43 43 43 88q0 30 -22 51.5t-64 40.5q-56 23 -125 43q-58 -36 -58 -92q0 -30 28 -51.5t83 -42.5z" />
<glyph unicode="&#xa8;" horiz-adv-x="757" d="M778 1702q0 -72 -51 -123t-123 -51t-123 51t-51 123t51 123t123 51t123 -51t51 -123zM328 1702q0 -72 -51 -123t-123 -51t-123 51t-51 123t51 123t123 51t123 -51t51 -123z" />
<glyph unicode="&#xa9;" horiz-adv-x="1732" d="M1657 717q0 -145 -44 -268.5t-119 -210.5t-176 -148.5t-215.5 -91t-236.5 -29.5t-236.5 29.5t-215 91t-176 148.5t-119 210.5t-43.5 268.5t43.5 268.5t119 210.5t176.5 148t215 90.5t236 29.5t236.5 -29.5t215.5 -90.5t176 -148t119 -210.5t44 -268.5zM1192 367 q-74 -38 -138.5 -54t-160.5 -16q-62 0 -121.5 14t-116.5 46t-99.5 77.5t-68.5 114.5t-26 151q0 112 38.5 198t104 137t145 76.5t169.5 25.5q160 0 274 -70v-213q-111 59 -221 59q-41 0 -79 -10.5t-71 -32t-53 -61t-20 -92.5q0 -56 19.5 -96t53.5 -61t71 -30.5t79 -9.5 q108 0 221 60v-213zM199 717q0 -123 37 -227.5t101 -178.5t149 -126.5t181.5 -77.5t198.5 -25t198.5 25t182 77.5t149.5 126.5t101 178.5t37 227.5t-37 227.5t-101 178.5t-149.5 126.5t-182 77.5t-198.5 25t-198.5 -25t-181.5 -77.5t-149 -126.5t-101 -178.5t-37 -227.5z " />
<glyph unicode="&#xab;" horiz-adv-x="1243" d="M1186 82h-348l-271 379v61l271 379h348l-289 -409zM674 82h-348l-271 379v61l271 379h348l-289 -409z" />
<glyph unicode="&#xac;" horiz-adv-x="1185" d="M1069 451h-287v245h-696v287h983v-532z" />
<glyph unicode="&#xad;" horiz-adv-x="991" d="M106 637h779v-287h-779v287z" />
<glyph unicode="&#xae;" horiz-adv-x="1708" d="M1634 717q0 -140 -42.5 -262t-116.5 -210t-173 -151t-213 -94t-235 -31t-235 31t-213 94t-173 151t-116.5 210t-42.5 262t42.5 261.5t116.5 209.5t173 151t213 94t235 31t235 -31t213 -94t173 -151t116.5 -209.5t42.5 -261.5zM197 717q0 -123 35 -227t96.5 -177 t145 -124.5t179.5 -76t201 -24.5t201 24.5t179.5 76t145 124.5t96.5 177t35 227t-35 227t-96.5 177t-145 124.5t-179.5 76t-201 24.5t-201 -24.5t-179.5 -76t-145 -124.5t-96.5 -177t-35 -227zM756 332h-236v798h408q85 0 157 -29t121 -96t49 -163q0 -95 -46.5 -159.5 t-121.5 -88.5l216 -262h-269l-190 241h-13h-75v-241zM756 909v-155h141q100 0 100 77q0 78 -100 78h-141z" />
<glyph unicode="&#xaf;" horiz-adv-x="737" d="M20 1819h697v-267h-697v267z" />
<glyph unicode="&#xb0;" horiz-adv-x="880" d="M825 1104q0 -174 -110 -271.5t-275 -97.5q-78 0 -147 24t-122.5 69t-84.5 116.5t-31 159.5q0 165 112 262.5t273 97.5q163 0 274 -97t111 -263zM311 1104q0 -62 34.5 -97.5t94.5 -35.5t93.5 35.5t33.5 97.5q0 58 -33.5 91.5t-93.5 33.5t-94.5 -34t-34.5 -91z" />
<glyph unicode="&#xb1;" horiz-adv-x="1187" d="M737 1372v-348h348v-287h-348v-348h-286v348h-349v287h349v348h286zM1085 0h-983v287h983v-287z" />
<glyph unicode="&#xb4;" horiz-adv-x="552" d="M328 1556h-328l184 308h369z" />
<glyph unicode="&#xb6;" horiz-adv-x="1597" d="M891 -451h-359v983q-225 0 -352 119.5t-127 331.5t127 331.5t352 119.5h922v-1885h-358v1547h-205v-1547z" />
<glyph unicode="&#xb7;" horiz-adv-x="577" d="M498 489q0 -100 -59 -151t-150 -51q-90 0 -149.5 51t-59.5 151q0 99 59.5 150t149.5 51q91 0 150 -51t59 -150z" />
<glyph unicode="&#xb8;" horiz-adv-x="460" d="M117 0h229l-24 -88q95 -15 137.5 -62t42.5 -126q0 -54 -28.5 -95.5t-75.5 -64.5t-98.5 -34t-104.5 -11q-124 0 -215 39v194q62 -37 155 -37q51 0 83 14.5t32 43.5q0 34 -48.5 46.5t-127.5 6.5z" />
<glyph unicode="&#xbb;" horiz-adv-x="1243" d="M918 82h-349l289 410l-289 409h349l270 -379v-61zM406 82h-349l289 410l-289 409h349l270 -379v-61z" />
<glyph unicode="&#xbc;" horiz-adv-x="1873" d="M1483 836h221v-517h111v-184h-111v-135h-215v135h-424v184zM1489 319v244l-199 -244h199zM496 -31h-103l938 1495h103zM332 1393h164v-645h159v-191h-565v191h184v419l-180 -55v203z" />
<glyph unicode="&#xbd;" horiz-adv-x="1802" d="M485 -31h-102l938 1495h102zM1122 762q129 92 299 92q137 0 226.5 -64.5t89.5 -195.5q0 -50 -18.5 -94.5t-53.5 -80.5t-69 -61t-80 -53q-125 -74 -146 -94q-14 -12 -14 -21h381v-190h-641v100q0 55 16 103t39.5 80.5t60.5 64t67.5 51t72.5 43.5q11 6 16 9q12 7 37 20.5 t35 20t27 18t23.5 21t12.5 23t6 28.5q0 37 -29.5 56t-78.5 19q-146 0 -279 -104v209zM322 1393h163v-645h160v-191h-565v191h184v419l-180 -55v203z" />
<glyph unicode="&#xbe;" horiz-adv-x="1984" d="M606 -31h-102l938 1495h102zM1593 836h222v-517h110v-184h-110v-135h-216v135h-423v184zM1599 319v244l-198 -244h198zM684 1192q0 -132 -129 -178q74 -23 119 -77t45 -138q0 -66 -29.5 -116t-80 -77.5t-111 -41t-129.5 -13.5q-147 0 -289 57v209q70 -41 133.5 -56 t136.5 -13q67 2 109.5 23.5t42.5 64.5q0 67 -113 67h-143l2 191h114q107 -4 107 61q0 72 -129 72q-54 0 -120.5 -21t-125.5 -61v209q122 69 277 69q140 0 226.5 -58t86.5 -173z" />
<glyph unicode="&#xbf;" horiz-adv-x="1017" d="M952 -385q-190 -96 -397 -96q-81 0 -152 11.5t-136.5 38t-112.5 67.5t-75 104t-28 143q0 78 36 153t87 133t102 111.5t87 107t36 99.5h328q0 -71 -30.5 -138.5t-74.5 -118.5t-87.5 -96t-74 -86.5t-30.5 -72.5q0 -129 188 -129q84 0 173 27.5t161 69.5v-328zM770 811 q0 -99 -59.5 -150t-149.5 -51q-91 0 -150 51t-59 150q0 100 59 151.5t150 51.5q90 0 149.5 -51.5t59.5 -151.5z" />
<glyph unicode="&#xc0;" horiz-adv-x="1540" d="M391 0h-389l563 1434h410l563 -1434h-389l-82 225h-594zM733 946l-147 -414h368l-147 414q-26 75 -37 146q-11 -71 -37 -146zM975 1556h-328l-225 308h369z" />
<glyph unicode="&#xc1;" horiz-adv-x="1540" d="M391 0h-389l563 1434h410l563 -1434h-389l-82 225h-594zM733 946l-147 -414h368l-147 414q-26 75 -37 146q-11 -71 -37 -146zM893 1556h-328l185 308h368z" />
<glyph unicode="&#xc2;" horiz-adv-x="1540" d="M391 0h-389l563 1434h410l563 -1434h-389l-82 225h-594zM733 946l-147 -414h368l-147 414q-26 75 -37 146q-11 -71 -37 -146zM616 1864h308l245 -328h-317l-82 109l-82 -109h-317z" />
<glyph unicode="&#xc3;" horiz-adv-x="1540" d="M391 0h-389l563 1434h410l563 -1434h-389l-82 225h-594zM733 946l-147 -414h368l-147 414q-26 75 -37 146q-11 -71 -37 -146zM1149 1831q37 -134 -23.5 -228t-181.5 -94q-59 0 -116 21.5t-100 43t-69 21.5q-23 0 -35 -14.5t-10.5 -30.5t4.5 -28h-235q-37 134 23.5 227.5 t181.5 93.5q59 0 116 -21.5t99.5 -43t68.5 -21.5q23 0 35 14.5t10.5 31t-4.5 28.5h236z" />
<glyph unicode="&#xc4;" horiz-adv-x="1540" d="M391 0h-389l563 1434h410l563 -1434h-389l-82 225h-594zM733 946l-147 -414h368l-147 414q-26 75 -37 146q-11 -71 -37 -146zM1169 1702q0 -72 -51 -123t-123 -51t-123 51t-51 123t51 123t123 51t123 -51t51 -123zM719 1702q0 -72 -51 -123t-123 -51t-123 51t-51 123 t51 123t123 51t123 -51t51 -123z" />
<glyph unicode="&#xc5;" horiz-adv-x="1540" d="M391 0h-389l563 1434h410l563 -1434h-389l-82 225h-594zM733 946l-147 -414h368l-147 414q-26 75 -37 146q-11 -71 -37 -146zM1036 1753q0 -120 -77 -189t-189 -69q-111 0 -188.5 69t-77.5 189q0 116 77.5 185t188.5 69q112 0 189 -69t77 -185zM698 1753 q0 -33 19.5 -54.5t52.5 -21.5t52.5 21.5t19.5 54.5q0 31 -19.5 51.5t-52.5 20.5t-52.5 -20.5t-19.5 -51.5z" />
<glyph unicode="&#xc6;" horiz-adv-x="2093" d="M1384 561v-233h625v-328h-1003v236h-504l-148 -236h-389l912 1434h1120v-328h-613v-219h551v-326h-551zM686 532h320v517z" />
<glyph unicode="&#xc7;" horiz-adv-x="1341" d="M1268 428v-369q-139 -65 -285 -82l-18 -65q95 -15 137.5 -62t42.5 -126q0 -54 -28.5 -95.5t-75.5 -64.5t-98.5 -34t-104.5 -11q-124 0 -215 39v194q62 -37 155 -37q51 0 83 14.5t32 43.5q0 34 -48.5 46.5t-127.5 6.5l37 147q-139 13 -259.5 62t-218 135t-154 221 t-56.5 305q0 157 43.5 287t118 217.5t174.5 148t210.5 88t229.5 27.5q224 0 415 -90v-358q-66 55 -158.5 86t-191.5 31q-88 0 -167 -25.5t-144 -76t-103 -137t-38 -198.5q0 -101 38 -178.5t103 -123t142.5 -68.5t164.5 -23q111 0 207.5 32.5t157.5 92.5z" />
<glyph unicode="&#xc8;" horiz-adv-x="1263" d="M135 1434h1032v-328h-653v-219h592v-326h-592v-233h666v-328h-1045v1434zM877 1556h-328l-225 308h368z" />
<glyph unicode="&#xc9;" horiz-adv-x="1263" d="M135 1434h1032v-328h-653v-219h592v-326h-592v-233h666v-328h-1045v1434zM795 1556h-328l184 308h369z" />
<glyph unicode="&#xca;" horiz-adv-x="1263" d="M135 1434h1032v-328h-653v-219h592v-326h-592v-233h666v-328h-1045v1434zM518 1864h307l246 -328h-317l-82 109l-82 -109h-318z" />
<glyph unicode="&#xcb;" horiz-adv-x="1263" d="M135 1434h1032v-328h-653v-219h592v-326h-592v-233h666v-328h-1045v1434zM1071 1702q0 -72 -51 -123t-123 -51t-123 51t-51 123t51 123t123 51t123 -51t51 -123zM621 1702q0 -72 -51.5 -123t-123.5 -51t-123 51t-51 123t51 123t123 51t123.5 -51t51.5 -123z" />
<glyph unicode="&#xcc;" horiz-adv-x="649" d="M135 1434h379v-1434h-379v1434zM530 1556h-327l-226 308h369z" />
<glyph unicode="&#xcd;" horiz-adv-x="649" d="M135 1434h379v-1434h-379v1434zM449 1556h-328l184 308h369z" />
<glyph unicode="&#xce;" horiz-adv-x="649" d="M135 1434h379v-1434h-379v1434zM172 1864h307l246 -328h-317l-82 109l-82 -109h-318z" />
<glyph unicode="&#xcf;" horiz-adv-x="649" d="M135 1434h379v-1434h-379v1434zM725 1702q0 -72 -51 -123t-123 -51t-123 51t-51 123t51 123t123 51t123 -51t51 -123zM274 1702q0 -72 -51 -123t-123 -51t-123 51t-51 123t51 123t123 51t123 -51t51 -123z" />
<glyph unicode="&#xd0;" horiz-adv-x="1556" d="M168 1434h571q188 0 332.5 -53t235 -149t136.5 -226t46 -289t-46 -289t-136.5 -226t-235 -149t-332.5 -53h-571v584h-143v266h143v584zM547 328h192q174 0 267.5 96t93.5 293t-93.5 293t-267.5 96h-192v-256h256v-266h-256v-256z" />
<glyph unicode="&#xd1;" horiz-adv-x="1560" d="M514 0h-379v1434h359l561 -824q-8 91 -8 238v586h378v-1434h-358l-561 821q8 -91 8 -235v-586zM1159 1831q37 -134 -23.5 -228t-181.5 -94q-59 0 -116 21.5t-99.5 43t-68.5 21.5q-23 0 -35 -14.5t-10.5 -30.5t4.5 -28h-236q-37 134 23.5 227.5t181.5 93.5q59 0 116 -21.5 t100 -43t69 -21.5q23 0 35 14.5t10.5 31t-4.5 28.5h235z" />
<glyph unicode="&#xd2;" horiz-adv-x="1662" d="M63 717q0 121 30 231t93 204.5t153 163.5t216 108.5t276 39.5t276 -39.5t216 -108.5t153 -163.5t93 -204.5t30 -231q0 -152 -49 -285.5t-142 -237.5t-242 -164.5t-335 -60.5t-335 60.5t-242 164.5t-142 237.5t-49 285.5zM1210 717q0 178 -99 288.5t-280 110.5 t-279.5 -110.5t-98.5 -288.5t99 -289t279 -111q181 0 280 111t99 289zM1036 1556h-327l-226 308h369z" />
<glyph unicode="&#xd3;" horiz-adv-x="1662" d="M63 717q0 121 30 231t93 204.5t153 163.5t216 108.5t276 39.5t276 -39.5t216 -108.5t153 -163.5t93 -204.5t30 -231q0 -152 -49 -285.5t-142 -237.5t-242 -164.5t-335 -60.5t-335 60.5t-242 164.5t-142 237.5t-49 285.5zM1210 717q0 178 -99 288.5t-280 110.5 t-279.5 -110.5t-98.5 -288.5t99 -289t279 -111q181 0 280 111t99 289zM954 1556h-327l184 308h369z" />
<glyph unicode="&#xd4;" horiz-adv-x="1662" d="M63 717q0 121 30 231t93 204.5t153 163.5t216 108.5t276 39.5t276 -39.5t216 -108.5t153 -163.5t93 -204.5t30 -231q0 -152 -49 -285.5t-142 -237.5t-242 -164.5t-335 -60.5t-335 60.5t-242 164.5t-142 237.5t-49 285.5zM1210 717q0 178 -99 288.5t-280 110.5 t-279.5 -110.5t-98.5 -288.5t99 -289t279 -111q181 0 280 111t99 289zM678 1864h307l246 -328h-318l-82 109l-81 -109h-318z" />
<glyph unicode="&#xd5;" horiz-adv-x="1662" d="M63 717q0 121 30 231t93 204.5t153 163.5t216 108.5t276 39.5t276 -39.5t216 -108.5t153 -163.5t93 -204.5t30 -231q0 -152 -49 -285.5t-142 -237.5t-242 -164.5t-335 -60.5t-335 60.5t-242 164.5t-142 237.5t-49 285.5zM1210 717q0 178 -99 288.5t-280 110.5 t-279.5 -110.5t-98.5 -288.5t99 -289t279 -111q181 0 280 111t99 289zM1210 1831q37 -134 -23 -228t-181 -94q-59 0 -116 21.5t-100 43t-69 21.5q-23 0 -35 -14.5t-10.5 -30.5t4.5 -28h-236q-37 134 23.5 227.5t181.5 93.5q59 0 116 -21.5t100 -43t69 -21.5q23 0 35 14.5 t10.5 31t-4.5 28.5h235z" />
<glyph unicode="&#xd6;" horiz-adv-x="1662" d="M63 717q0 121 30 231t93 204.5t153 163.5t216 108.5t276 39.5t276 -39.5t216 -108.5t153 -163.5t93 -204.5t30 -231q0 -152 -49 -285.5t-142 -237.5t-242 -164.5t-335 -60.5t-335 60.5t-242 164.5t-142 237.5t-49 285.5zM1210 717q0 178 -99 288.5t-280 110.5 t-279.5 -110.5t-98.5 -288.5t99 -289t279 -111q181 0 280 111t99 289zM1231 1702q0 -72 -51 -123t-123 -51t-123 51t-51 123t51 123t123 51t123 -51t51 -123zM780 1702q0 -72 -51 -123t-123 -51t-123 51t-51 123t51 123t123 51t123 -51t51 -123z" />
<glyph unicode="&#xd7;" horiz-adv-x="1060" d="M530 528l-254 -254l-188 189l254 254l-254 254l188 188l254 -254l254 254l189 -188l-254 -254l254 -254l-189 -189z" />
<glyph unicode="&#xd8;" horiz-adv-x="1662" d="M1513 1532l-167 -234q125 -102 189 -253.5t64 -327.5q0 -152 -49 -285.5t-142 -237.5t-242 -164.5t-335 -60.5q-212 0 -378 80l-105 -147h-225l178 248q-117 103 -177.5 250.5t-60.5 316.5q0 121 30 231t93 204.5t153 163.5t216 108.5t276 39.5q206 0 359 -69l98 137h225 zM831 1116q-181 0 -279.5 -110.5t-98.5 -288.5q0 -151 71 -254l451 631q-68 22 -144 22zM668 348q73 -31 163 -31q181 0 280 111t99 289q0 166 -86 272z" />
<glyph unicode="&#xd9;" horiz-adv-x="1531" d="M1032 1434h379v-887q0 -125 -37 -225.5t-98.5 -165t-146 -108t-174.5 -61.5t-189 -18t-189 18t-174.5 61.5t-146 108t-98.5 165t-37 225.5v887h379v-867q0 -139 68.5 -199.5t197.5 -60.5t197.5 60.5t68.5 199.5v867zM971 1556h-328l-225 308h368z" />
<glyph unicode="&#xda;" horiz-adv-x="1531" d="M1032 1434h379v-887q0 -125 -37 -225.5t-98.5 -165t-146 -108t-174.5 -61.5t-189 -18t-189 18t-174.5 61.5t-146 108t-98.5 165t-37 225.5v887h379v-867q0 -139 68.5 -199.5t197.5 -60.5t197.5 60.5t68.5 199.5v867zM889 1556h-328l184 308h369z" />
<glyph unicode="&#xdb;" horiz-adv-x="1531" d="M1032 1434h379v-887q0 -125 -37 -225.5t-98.5 -165t-146 -108t-174.5 -61.5t-189 -18t-189 18t-174.5 61.5t-146 108t-98.5 165t-37 225.5v887h379v-867q0 -139 68.5 -199.5t197.5 -60.5t197.5 60.5t68.5 199.5v867zM612 1864h308l245 -328h-317l-82 109l-82 -109h-317z " />
<glyph unicode="&#xdc;" horiz-adv-x="1531" d="M1032 1434h379v-887q0 -125 -37 -225.5t-98.5 -165t-146 -108t-174.5 -61.5t-189 -18t-189 18t-174.5 61.5t-146 108t-98.5 165t-37 225.5v887h379v-867q0 -139 68.5 -199.5t197.5 -60.5t197.5 60.5t68.5 199.5v867zM1165 1702q0 -72 -51 -123t-123 -51t-123 51t-51 123 t51 123t123 51t123 -51t51 -123zM715 1702q0 -72 -51 -123t-123 -51t-123 51t-51 123t51 123t123 51t123 -51t51 -123z" />
<glyph unicode="&#xdd;" horiz-adv-x="1490" d="M934 0h-377v489l-559 945h430l317 -592l318 592h430l-559 -945v-489zM864 1556h-327l184 308h369z" />
<glyph unicode="&#xde;" horiz-adv-x="1368" d="M514 1208h188q139 0 248 -24.5t196 -79t134 -152.5t47 -235q0 -110 -31.5 -195.5t-86 -140.5t-135 -90.5t-171 -50t-201.5 -15.5h-188v-225h-379v1434h379v-226zM514 553h207q217 0 217 164t-217 164h-207v-328z" />
<glyph unicode="&#xdf;" horiz-adv-x="1204" d="M1174 289q0 -80 -35 -143.5t-93.5 -101t-129 -56.5t-148.5 -19q-126 0 -233 49v267q84 -47 163 -47q53 0 85 21.5t32 59.5q0 28 -28.5 64.5t-69.5 75t-82 80t-69.5 92.5t-28.5 100q0 52 23 98.5t50.5 76.5t50.5 76.5t23 98.5q0 62 -33 89.5t-82 27.5q-54 0 -85 -31 t-31 -84v-1083h-349v995q0 226 119.5 347t345.5 122q93 1 169.5 -19.5t126 -53t84 -75.5t49 -86t14.5 -85q0 -48 -17.5 -95t-42 -82.5t-49 -67.5t-42 -63.5t-17.5 -56.5q0 -35 34 -75t82.5 -81.5t97 -88t82.5 -111.5t34 -135z" />
<glyph unicode="&#xe0;" horiz-adv-x="1161" d="M1034 281q0 -62 68 -62q21 0 39 6v-215q-78 -30 -176 -30q-165 0 -234 108q-151 -119 -342 -119q-146 0 -244 82.5t-98 220.5q0 89 39 154.5t104 101t135.5 52t147.5 16.5q105 0 213 -23v35q0 55 -52.5 89t-152.5 34q-157 0 -344 -76v293q200 66 383 66q122 0 213 -23 t160.5 -75t105 -142.5t35.5 -218.5v-274zM406 301q0 -40 32 -68t86 -28q93 0 162 51v133q-59 19 -125 19q-68 0 -111.5 -26t-43.5 -81zM741 1126h-327l-226 308h369z" />
<glyph unicode="&#xe1;" horiz-adv-x="1161" d="M1034 281q0 -62 68 -62q21 0 39 6v-215q-78 -30 -176 -30q-165 0 -234 108q-151 -119 -342 -119q-146 0 -244 82.5t-98 220.5q0 89 39 154.5t104 101t135.5 52t147.5 16.5q105 0 213 -23v35q0 55 -52.5 89t-152.5 34q-157 0 -344 -76v293q200 66 383 66q122 0 213 -23 t160.5 -75t105 -142.5t35.5 -218.5v-274zM406 301q0 -40 32 -68t86 -28q93 0 162 51v133q-59 19 -125 19q-68 0 -111.5 -26t-43.5 -81zM659 1126h-327l184 308h369z" />
<glyph unicode="&#xe2;" horiz-adv-x="1161" d="M1034 281q0 -62 68 -62q21 0 39 6v-215q-78 -30 -176 -30q-165 0 -234 108q-151 -119 -342 -119q-146 0 -244 82.5t-98 220.5q0 89 39 154.5t104 101t135.5 52t147.5 16.5q105 0 213 -23v35q0 55 -52.5 89t-152.5 34q-157 0 -344 -76v293q200 66 383 66q122 0 213 -23 t160.5 -75t105 -142.5t35.5 -218.5v-274zM406 301q0 -40 32 -68t86 -28q93 0 162 51v133q-59 19 -125 19q-68 0 -111.5 -26t-43.5 -81zM383 1434h307l246 -328h-318l-81 108l-82 -108h-318z" />
<glyph unicode="&#xe3;" horiz-adv-x="1161" d="M1034 281q0 -62 68 -62q21 0 39 6v-215q-78 -30 -176 -30q-165 0 -234 108q-151 -119 -342 -119q-146 0 -244 82.5t-98 220.5q0 89 39 154.5t104 101t135.5 52t147.5 16.5q105 0 213 -23v35q0 55 -52.5 89t-152.5 34q-157 0 -344 -76v293q200 66 383 66q122 0 213 -23 t160.5 -75t105 -142.5t35.5 -218.5v-274zM406 301q0 -40 32 -68t86 -28q93 0 162 51v133q-59 19 -125 19q-68 0 -111.5 -26t-43.5 -81zM915 1401q37 -134 -23 -228t-181 -94q-59 0 -116 21.5t-100 43t-69 21.5q-23 0 -35 -14.5t-10.5 -30.5t4.5 -28h-235q-37 134 23 227.5 t181 93.5q59 0 116 -21.5t100 -43t69 -21.5q23 0 35 14.5t10.5 31t-4.5 28.5h235z" />
<glyph unicode="&#xe4;" horiz-adv-x="1161" d="M1034 281q0 -62 68 -62q21 0 39 6v-215q-78 -30 -176 -30q-165 0 -234 108q-151 -119 -342 -119q-146 0 -244 82.5t-98 220.5q0 89 39 154.5t104 101t135.5 52t147.5 16.5q105 0 213 -23v35q0 55 -52.5 89t-152.5 34q-157 0 -344 -76v293q200 66 383 66q122 0 213 -23 t160.5 -75t105 -142.5t35.5 -218.5v-274zM406 301q0 -40 32 -68t86 -28q93 0 162 51v133q-59 19 -125 19q-68 0 -111.5 -26t-43.5 -81zM936 1272q0 -72 -51 -123t-123 -51t-123 51t-51 123t51 123t123 51t123 -51t51 -123zM485 1272q0 -72 -51 -123t-123 -51t-123 51 t-51 123t51 123t123 51t123 -51t51 -123z" />
<glyph unicode="&#xe5;" horiz-adv-x="1161" d="M1034 281q0 -62 68 -62q21 0 39 6v-215q-78 -30 -176 -30q-165 0 -234 108q-151 -119 -342 -119q-146 0 -244 82.5t-98 220.5q0 89 39 154.5t104 101t135.5 52t147.5 16.5q105 0 213 -23v35q0 55 -52.5 89t-152.5 34q-157 0 -344 -76v293q200 66 383 66q122 0 213 -23 t160.5 -75t105 -142.5t35.5 -218.5v-274zM406 301q0 -40 32 -68t86 -28q93 0 162 51v133q-59 19 -125 19q-68 0 -111.5 -26t-43.5 -81zM803 1323q0 -120 -77 -189t-189 -69q-111 0 -189 69.5t-78 188.5q0 116 78 185t189 69q112 0 189 -69t77 -185zM465 1323 q0 -33 19.5 -54.5t52.5 -21.5t52 21.5t19 54.5q0 32 -19 52t-52 20t-52.5 -20.5t-19.5 -51.5z" />
<glyph unicode="&#xe6;" horiz-adv-x="1742" d="M862 117q-210 -148 -456 -148q-153 0 -256 82.5t-103 220.5q0 75 26 133t68 93.5t102 58.5t122 32t133 9q110 0 213 -25v31q0 56 -55.5 89.5t-170.5 33.5q-161 0 -348 -76v297q200 66 387 66q252 0 359 -121q70 61 157 91t172 30q97 0 177.5 -26.5t135.5 -72t93 -106.5 t54.5 -131t16.5 -144t-18 -147h-643q28 -77 113.5 -114t201.5 -37q159 0 283 47v-258q-156 -56 -364 -56q-129 0 -233 38.5t-167 109.5zM406 301q0 -45 33 -68.5t83 -23.5q65 0 114.5 16.5t117.5 65.5q-17 51 -23 108q-99 13 -143 13q-76 0 -129 -26.5t-53 -84.5zM1200 758 q-74 0 -125 -45.5t-51 -120.5h330q4 20 -1 46t-20 54t-49.5 47t-83.5 19z" />
<glyph unicode="&#xe7;" horiz-adv-x="1003" d="M936 332v-297q-100 -41 -201 -55l-18 -68q95 -15 137.5 -62t42.5 -126q0 -54 -28.5 -95.5t-75.5 -64.5t-98.5 -34t-104.5 -11q-124 0 -215 39v194q62 -37 155 -37q51 0 83 14.5t32 43.5q0 34 -48.5 46.5t-127.5 6.5l37 149q-93 12 -172.5 48t-142.5 95t-99.5 150 t-36.5 203t32 204.5t86.5 155t128 105t154 61.5t167.5 19q161 0 303 -68v-297q-119 68 -250 68q-54 0 -99.5 -12t-82.5 -38t-58.5 -71t-21.5 -106q0 -110 74 -168t182 -58q151 0 266 66z" />
<glyph unicode="&#xe8;" horiz-adv-x="1122" d="M55 492q0 111 33 201.5t86 149t122.5 98t138 56.5t136.5 17q103 0 187 -25.5t141 -70.5t96.5 -105t56.5 -130.5t17 -145t-18 -150.5h-643q28 -77 113 -114t200 -37q159 0 283 47v-258q-156 -56 -365 -56q-122 0 -228 34.5t-185.5 99.5t-125 165t-45.5 224zM733 596 q4 20 -0.5 46t-19.5 54t-49.5 47t-83.5 19q-74 0 -125.5 -46t-51.5 -120h330zM774 1106h-328l-225 307h369z" />
<glyph unicode="&#xe9;" horiz-adv-x="1122" d="M55 492q0 111 33 201.5t86 149t122.5 98t138 56.5t136.5 17q103 0 187 -25.5t141 -70.5t96.5 -105t56.5 -130.5t17 -145t-18 -150.5h-643q28 -77 113 -114t200 -37q159 0 283 47v-258q-156 -56 -365 -56q-122 0 -228 34.5t-185.5 99.5t-125 165t-45.5 224zM733 596 q4 20 -0.5 46t-19.5 54t-49.5 47t-83.5 19q-74 0 -125.5 -46t-51.5 -120h330zM692 1106h-327l184 307h369z" />
<glyph unicode="&#xea;" horiz-adv-x="1122" d="M55 492q0 111 33 201.5t86 149t122.5 98t138 56.5t136.5 17q103 0 187 -25.5t141 -70.5t96.5 -105t56.5 -130.5t17 -145t-18 -150.5h-643q28 -77 113 -114t200 -37q159 0 283 47v-258q-156 -56 -365 -56q-122 0 -228 34.5t-185.5 99.5t-125 165t-45.5 224zM733 596 q4 20 -0.5 46t-19.5 54t-49.5 47t-83.5 19q-74 0 -125.5 -46t-51.5 -120h330zM416 1413h307l246 -328h-318l-82 109l-82 -109h-317z" />
<glyph unicode="&#xeb;" horiz-adv-x="1122" d="M55 492q0 111 33 201.5t86 149t122.5 98t138 56.5t136.5 17q103 0 187 -25.5t141 -70.5t96.5 -105t56.5 -130.5t17 -145t-18 -150.5h-643q28 -77 113 -114t200 -37q159 0 283 47v-258q-156 -56 -365 -56q-122 0 -228 34.5t-185.5 99.5t-125 165t-45.5 224zM733 596 q4 20 -0.5 46t-19.5 54t-49.5 47t-83.5 19q-74 0 -125.5 -46t-51.5 -120h330zM969 1251q0 -72 -51 -123t-123 -51t-123 51t-51 123t51 123t123 51t123 -51t51 -123zM518 1251q0 -72 -51 -123t-123 -51t-123 51t-51 123t51 123t123 51t123 -51t51 -123z" />
<glyph unicode="&#xec;" horiz-adv-x="561" d="M455 0h-349v983h349v-983zM465 1106h-328l-164 307h369z" />
<glyph unicode="&#xed;" horiz-adv-x="561" d="M106 983h349v-983h-349v983zM403 1106h-327l184 307h369z" />
<glyph unicode="&#xee;" horiz-adv-x="561" d="M127 1413h307l205 -328h-297l-61 109l-62 -109h-297zM106 983h349v-983h-349v983z" />
<glyph unicode="&#xef;" horiz-adv-x="561" d="M649 1251q0 -67 -48.5 -115.5t-115.5 -48.5t-115 48t-48 116t48 116t115 48t115.5 -48.5t48.5 -115.5zM240 1251q0 -67 -48 -115.5t-116 -48.5t-116 48.5t-48 115.5t48 115.5t116 48.5t116 -48.5t48 -115.5zM106 983h349v-983h-349v983z" />
<glyph unicode="&#xf0;" horiz-adv-x="1191" d="M1124 573q0 -132 -27.5 -235.5t-74.5 -172t-115.5 -113.5t-145.5 -64t-169 -19q-151 0 -269.5 50.5t-191 159t-72.5 261.5q0 210 115 330.5t295 120.5q95 0 174.5 -31.5t122.5 -85.5q0 19 -4 55q-11 80 -54.5 151.5t-115.5 123.5l-152 -152l-149 152l94 94 q-82 21 -178 21v245q210 0 381 -63l141 141l150 -151l-93 -93q159 -114 248.5 -296t89.5 -429zM418 440q0 -30 7.5 -59t25.5 -58.5t54 -48t87 -18.5t87 18.5t54 48t25.5 58.5t7.5 59t-7.5 59t-25.5 59t-54 48.5t-87 18.5t-87 -18.5t-54 -48.5t-25.5 -59t-7.5 -59z" />
<glyph unicode="&#xf1;" d="M412 870q134 144 313 144q98 0 174.5 -32t123.5 -87.5t71 -127.5t24 -157v-610h-348v563q0 75 -41 114.5t-108 39.5q-53 0 -96.5 -25.5t-71.5 -60.5v-631h-349v983h308v-113zM965 1380q37 -134 -23.5 -227.5t-181.5 -93.5q-59 0 -116 21.5t-100 43t-69 21.5 q-23 0 -35 -14.5t-10.5 -31t4.5 -28.5h-235q-37 134 23 228t181 94q59 0 116 -21.5t100 -43t69 -21.5q23 0 35 14.5t10.5 30.5t-4.5 28h236z" />
<glyph unicode="&#xf2;" horiz-adv-x="1216" d="M55 492q0 127 44.5 228t121.5 164t176 96.5t211 33.5t211 -33.5t176 -96.5t121.5 -164t44.5 -228t-44.5 -228t-121.5 -164.5t-176 -97t-211 -33.5t-211 33.5t-176 97t-121.5 164.5t-44.5 228zM803 492q0 92 -47.5 153.5t-147.5 61.5t-147 -61t-47 -154t47 -154.5 t147 -61.5t147.5 61.5t47.5 154.5zM815 1085h-328l-225 308h369z" />
<glyph unicode="&#xf3;" horiz-adv-x="1216" d="M55 492q0 127 44.5 228t121.5 164t176 96.5t211 33.5t211 -33.5t176 -96.5t121.5 -164t44.5 -228t-44.5 -228t-121.5 -164.5t-176 -97t-211 -33.5t-211 33.5t-176 97t-121.5 164.5t-44.5 228zM803 492q0 92 -47.5 153.5t-147.5 61.5t-147 -61t-47 -154t47 -154.5 t147 -61.5t147.5 61.5t47.5 154.5zM733 1085h-327l184 308h368z" />
<glyph unicode="&#xf4;" horiz-adv-x="1216" d="M55 492q0 127 44.5 228t121.5 164t176 96.5t211 33.5t211 -33.5t176 -96.5t121.5 -164t44.5 -228t-44.5 -228t-121.5 -164.5t-176 -97t-211 -33.5t-211 33.5t-176 97t-121.5 164.5t-44.5 228zM803 492q0 92 -47.5 153.5t-147.5 61.5t-147 -61t-47 -154t47 -154.5 t147 -61.5t147.5 61.5t47.5 154.5zM457 1393h307l246 -328h-318l-82 109l-82 -109h-317z" />
<glyph unicode="&#xf5;" horiz-adv-x="1216" d="M55 492q0 127 44.5 228t121.5 164t176 96.5t211 33.5t211 -33.5t176 -96.5t121.5 -164t44.5 -228t-44.5 -228t-121.5 -164.5t-176 -97t-211 -33.5t-211 33.5t-176 97t-121.5 164.5t-44.5 228zM803 492q0 92 -47.5 153.5t-147.5 61.5t-147 -61t-47 -154t47 -154.5 t147 -61.5t147.5 61.5t47.5 154.5zM989 1360q37 -134 -23.5 -228t-181.5 -94q-59 0 -116 21.5t-99.5 43t-68.5 21.5q-23 0 -35 -14.5t-10.5 -30.5t4.5 -28h-236q-37 134 23.5 227.5t181.5 93.5q59 0 116 -21.5t100 -43t69 -21.5q23 0 35 14.5t10.5 31t-4.5 28.5h235z" />
<glyph unicode="&#xf6;" horiz-adv-x="1216" d="M55 492q0 127 44.5 228t121.5 164t176 96.5t211 33.5t211 -33.5t176 -96.5t121.5 -164t44.5 -228t-44.5 -228t-121.5 -164.5t-176 -97t-211 -33.5t-211 33.5t-176 97t-121.5 164.5t-44.5 228zM803 492q0 92 -47.5 153.5t-147.5 61.5t-147 -61t-47 -154t47 -154.5 t147 -61.5t147.5 61.5t47.5 154.5zM1010 1231q0 -72 -51 -123t-123 -51t-123 51t-51 123t51 123t123 51t123 -51t51 -123zM559 1231q0 -72 -51 -123t-123 -51t-123 51t-51 123t51 123t123 51t123 -51t51 -123z" />
<glyph unicode="&#xf7;" horiz-adv-x="1114" d="M1049 573h-983v287h983v-287zM766 260q0 -100 -59 -151.5t-150 -51.5q-90 0 -149.5 51.5t-59.5 151.5q0 99 59.5 150t149.5 51q91 0 150 -51t59 -150zM766 1176q0 -100 -59 -151.5t-150 -51.5q-90 0 -149.5 51.5t-59.5 151.5q0 99 59.5 149.5t149.5 50.5q91 0 150 -50.5 t59 -149.5z" />
<glyph unicode="&#xf8;" horiz-adv-x="1216" d="M1051 1112l-115 -184q106 -66 165.5 -176t59.5 -260q0 -127 -44.5 -228t-121.5 -164.5t-176 -97t-211 -33.5q-136 0 -243 45l-91 -143h-112l117 186q-104 66 -164 176.5t-60 258.5q0 127 44.5 228t121.5 164t176 96.5t211 33.5q132 0 242 -43l88 141h113zM608 707 q-100 0 -147 -61t-47 -154t43 -150l221 354q-37 11 -70 11zM535 287q42 -11 73 -11q100 0 147.5 61.5t47.5 154.5q0 91 -45 151z" />
<glyph unicode="&#xf9;" d="M760 983h348v-983h-307v113q-134 -144 -314 -144q-98 0 -174.5 32t-123.5 87.5t-71 127.5t-24 157v610h348v-563q0 -75 41.5 -114.5t108.5 -39.5q53 0 96.5 25.5t71.5 60.5v631zM811 1106h-328l-225 307h369z" />
<glyph unicode="&#xfa;" d="M760 983h348v-983h-307v113q-134 -144 -314 -144q-98 0 -174.5 32t-123.5 87.5t-71 127.5t-24 157v610h348v-563q0 -75 41.5 -114.5t108.5 -39.5q53 0 96.5 25.5t71.5 60.5v631zM729 1106h-328l185 307h368z" />
<glyph unicode="&#xfb;" d="M760 983h348v-983h-307v113q-134 -144 -314 -144q-98 0 -174.5 32t-123.5 87.5t-71 127.5t-24 157v610h348v-563q0 -75 41.5 -114.5t108.5 -39.5q53 0 96.5 25.5t71.5 60.5v631zM453 1413h307l246 -328h-318l-82 109l-82 -109h-317z" />
<glyph unicode="&#xfc;" d="M760 983h348v-983h-307v113q-134 -144 -314 -144q-98 0 -174.5 32t-123.5 87.5t-71 127.5t-24 157v610h348v-563q0 -75 41.5 -114.5t108.5 -39.5q53 0 96.5 25.5t71.5 60.5v631zM1006 1251q0 -72 -51.5 -123t-123.5 -51t-123 51t-51 123t51 123t123 51t123.5 -51 t51.5 -123zM555 1251q0 -72 -51 -123t-123 -51t-123 51t-51 123t51 123t123 51t123 -51t51 -123z" />
<glyph unicode="&#xfd;" horiz-adv-x="1181" d="M608 397l201 586h358l-411 -1085q-144 -375 -451 -375q-74 0 -180 26v287q69 -16 133 -16q136 0 205 155l-463 1008h369zM698 1106h-327l184 307h369z" />
<glyph unicode="&#xfe;" horiz-adv-x="1275" d="M104 1434h349v-553q123 133 303 133q96 0 175 -31t131.5 -82.5t89 -119.5t53 -141t16.5 -148q0 -101 -30 -193.5t-86 -166.5t-146.5 -118.5t-202.5 -44.5q-94 0 -173 35t-130 88v-543h-349v1885zM862 492q0 96 -53 165.5t-156 69.5q-69 0 -122.5 -37.5t-77.5 -95.5v-205 q32 -53 85 -87.5t115 -35.5q97 -3 153 65t56 161z" />
<glyph unicode="&#xff;" horiz-adv-x="1181" d="M608 397l201 586h358l-411 -1085q-144 -375 -451 -375q-74 0 -180 26v287q69 -16 133 -16q136 0 205 155l-463 1008h369zM975 1251q0 -72 -51 -123t-123 -51t-123 51t-51 123t51 123t123 51t123 -51t51 -123zM524 1251q0 -72 -51 -123t-123 -51t-123 51t-51 123t51 123 t123 51t123 -51t51 -123z" />
<glyph unicode="&#x100;" horiz-adv-x="1540" d="M391 0h-389l563 1434h410l563 -1434h-389l-82 225h-594zM733 946l-147 -414h368l-147 414q-26 75 -37 146q-11 -71 -37 -146zM422 1819h696v-267h-696v267z" />
<glyph unicode="&#x101;" horiz-adv-x="1161" d="M1034 281q0 -62 68 -62q21 0 39 6v-215q-78 -30 -176 -30q-165 0 -234 108q-151 -119 -342 -119q-146 0 -244 82.5t-98 220.5q0 89 39 154.5t104 101t135.5 52t147.5 16.5q105 0 213 -23v35q0 55 -52.5 89t-152.5 34q-157 0 -344 -76v293q200 66 383 66q122 0 213 -23 t160.5 -75t105 -142.5t35.5 -218.5v-274zM406 301q0 -40 32 -68t86 -28q93 0 162 51v133q-59 19 -125 19q-68 0 -111.5 -26t-43.5 -81zM188 1389h697v-267h-697v267z" />
<glyph unicode="&#x102;" horiz-adv-x="1540" d="M391 0h-389l563 1434h410l563 -1434h-389l-82 225h-594zM733 946l-147 -414h368l-147 414q-26 75 -37 146q-11 -71 -37 -146zM1108 1608q-142 -95 -338 -95t-338 95v258q140 -86 338 -86t338 86v-258z" />
<glyph unicode="&#x103;" horiz-adv-x="1161" d="M1034 281q0 -62 68 -62q21 0 39 6v-215q-78 -30 -176 -30q-165 0 -234 108q-151 -119 -342 -119q-146 0 -244 82.5t-98 220.5q0 89 39 154.5t104 101t135.5 52t147.5 16.5q105 0 213 -23v35q0 55 -52.5 89t-152.5 34q-157 0 -344 -76v293q200 66 383 66q122 0 213 -23 t160.5 -75t105 -142.5t35.5 -218.5v-274zM406 301q0 -40 32 -68t86 -28q93 0 162 51v133q-59 19 -125 19q-68 0 -111.5 -26t-43.5 -81zM874 1178q-71 -47 -150 -71t-187 -24q-196 0 -338 95v258q140 -86 338 -86q197 0 337 86v-258z" />
<glyph unicode="&#x104;" horiz-adv-x="1540" d="M1538 0h-2q-65 -42 -96 -87t-31 -81q0 -57 64 -57q34 0 63 16v-225q-78 -47 -186 -47q-119 0 -184.5 62t-63.5 155q2 69 40.5 139t112.5 125h-106l-82 225h-594l-82 -225h-389l563 1434h410zM733 946l-147 -414h368l-147 414q-26 75 -37 146q-11 -71 -37 -146z" />
<glyph unicode="&#x105;" horiz-adv-x="1163" d="M1141 225v-215q-65 -42 -96 -87t-31 -81q0 -57 63 -57q35 0 64 16v-225q-78 -47 -187 -47q-118 0 -183.5 61.5t-63.5 155.5q2 65 37 131.5t102 120.5q-74 27 -115 90q-151 -119 -342 -119q-146 0 -244 82.5t-98 220.5q0 89 39 154.5t104 101t135.5 52t147.5 16.5 q105 0 213 -23v35q0 55 -52.5 89t-152.5 34q-157 0 -344 -76v293q200 66 383 66q122 0 213 -23t160.5 -75t105 -142.5t35.5 -218.5v-274q0 -62 68 -62q21 0 39 6zM524 205q93 0 162 51v133q-59 19 -125 19q-68 0 -111.5 -26t-43.5 -81q0 -40 32 -68t86 -28z" />
<glyph unicode="&#x106;" horiz-adv-x="1341" d="M66 696q0 157 43.5 287t118 217.5t174.5 148t210.5 88t229.5 27.5q224 0 415 -90v-358q-66 55 -158.5 86t-191.5 31q-88 0 -167 -25.5t-144 -76t-103 -137t-38 -198.5q0 -101 38 -178.5t103 -123t142.5 -68.5t164.5 -23q111 0 207.5 32.5t157.5 92.5v-369 q-191 -90 -418 -90q-121 0 -232.5 26t-213 83t-176 140.5t-118.5 206t-44 271.5zM956 1556h-327l184 308h369z" />
<glyph unicode="&#x107;" horiz-adv-x="1003" d="M55 471q0 112 32 204.5t86.5 155t128 105t154 61.5t167.5 19q161 0 303 -68v-297q-119 68 -250 68q-54 0 -99.5 -12t-82.5 -38t-58.5 -71t-21.5 -106q0 -110 74 -168t182 -58q151 0 266 66v-297q-158 -66 -338 -66q-106 0 -201 30.5t-172.5 89.5t-123.5 157.5t-46 224.5z M713 1106h-328l184 307h369z" />
<glyph unicode="&#x10a;" horiz-adv-x="1341" d="M66 696q0 157 43.5 287t118 217.5t174.5 148t210.5 88t229.5 27.5q224 0 415 -90v-358q-66 55 -158.5 86t-191.5 31q-88 0 -167 -25.5t-144 -76t-103 -137t-38 -198.5q0 -101 38 -178.5t103 -123t142.5 -68.5t164.5 -23q111 0 207.5 32.5t157.5 92.5v-369 q-191 -90 -418 -90q-121 0 -232.5 26t-213 83t-176 140.5t-118.5 206t-44 271.5zM645 1714q0 90 54.5 137t136.5 47t136 -47t54 -137q0 -92 -53.5 -138t-136.5 -46t-137 46t-54 138z" />
<glyph unicode="&#x10b;" horiz-adv-x="1003" d="M55 471q0 112 32 204.5t86.5 155t128 105t154 61.5t167.5 19q161 0 303 -68v-297q-119 68 -250 68q-54 0 -99.5 -12t-82.5 -38t-58.5 -71t-21.5 -106q0 -110 74 -168t182 -58q151 0 266 66v-297q-158 -66 -338 -66q-106 0 -201 30.5t-172.5 89.5t-123.5 157.5t-46 224.5z M401 1264q0 90 54.5 137t136.5 47t136 -47t54 -137q0 -92 -54 -138.5t-136 -46.5t-136.5 46.5t-54.5 138.5z" />
<glyph unicode="&#x10c;" horiz-adv-x="1341" d="M66 696q0 157 43.5 287t118 217.5t174.5 148t210.5 88t229.5 27.5q224 0 415 -90v-358q-66 55 -158.5 86t-191.5 31q-88 0 -167 -25.5t-144 -76t-103 -137t-38 -198.5q0 -101 38 -178.5t103 -123t142.5 -68.5t164.5 -23q111 0 207.5 32.5t157.5 92.5v-369 q-191 -90 -418 -90q-121 0 -232.5 26t-213 83t-176 140.5t-118.5 206t-44 271.5zM1253 1884l-266 -328h-307l-266 328h317l103 -129l102 129h317z" />
<glyph unicode="&#x10d;" horiz-adv-x="1003" d="M55 471q0 112 32 204.5t86.5 155t128 105t154 61.5t167.5 19q161 0 303 -68v-297q-119 68 -250 68q-54 0 -99.5 -12t-82.5 -38t-58.5 -71t-21.5 -106q0 -110 74 -168t182 -58q151 0 266 66v-297q-158 -66 -338 -66q-106 0 -201 30.5t-172.5 89.5t-123.5 157.5t-46 224.5z M1010 1434l-267 -328h-307l-266 328h317l103 -129l102 129h318z" />
<glyph unicode="&#x10e;" horiz-adv-x="1523" d="M135 1434h572q188 0 332.5 -53t235 -149.5t136 -226t45.5 -288.5t-45.5 -288.5t-136 -226t-235 -149.5t-332.5 -53h-572v1434zM1067 717q0 197 -93 293t-267 96h-193v-778h193q174 0 267 96t93 293zM1128 1884l-266 -328h-307l-266 328h317l103 -129l102 129h317z" />
<glyph unicode="&#x10f;" horiz-adv-x="1275" d="M1286 1434h287l-72 -433h-246zM823 1434h348v-1434h-307v133q-42 -70 -127 -117t-207 -47q-119 0 -212.5 45.5t-149.5 121.5t-84.5 167t-28.5 189t28.5 189t84.5 166.5t149.5 121t212.5 45.5q186 0 293 -111v531zM823 604q-25 52 -77.5 87.5t-120.5 35.5 q-103 0 -157 -69.5t-54 -165.5t54 -166t157 -70q68 0 120.5 35.5t77.5 87.5v225z" />
<glyph unicode="&#x110;" horiz-adv-x="1556" d="M168 1434h571q188 0 332.5 -53t235 -149t136.5 -226t46 -289t-46 -289t-136.5 -226t-235 -149t-332.5 -53h-571v584h-143v266h143v584zM547 328h192q174 0 267.5 96t93.5 293t-93.5 293t-267.5 96h-192v-256h256v-266h-256v-256z" />
<glyph unicode="&#x111;" horiz-adv-x="1275" d="M1171 1307h121v-205h-121v-1102h-307v133q-42 -70 -127 -117t-207 -47q-119 0 -212.5 45.5t-149.5 121.5t-84.5 167t-28.5 189t28.5 189t84.5 166.5t149.5 121t212.5 45.5q186 0 293 -111v199h-248v205h248v127h348v-127zM625 256q68 0 120.5 35.5t77.5 87.5v225 q-25 52 -77.5 87.5t-120.5 35.5q-103 0 -157 -69.5t-54 -165.5t54 -166t157 -70z" />
<glyph unicode="&#x112;" horiz-adv-x="1263" d="M135 1434h1032v-328h-653v-219h592v-326h-592v-233h666v-328h-1045v1434zM324 1819h696v-267h-696v267z" />
<glyph unicode="&#x113;" horiz-adv-x="1122" d="M55 492q0 111 33 201.5t86 149t122.5 98t138 56.5t136.5 17q103 0 187 -25.5t141 -70.5t96.5 -105t56.5 -130.5t17 -145t-18 -150.5h-643q28 -77 113 -114t200 -37q159 0 283 47v-258q-156 -56 -365 -56q-122 0 -228 34.5t-185.5 99.5t-125 165t-45.5 224zM733 596 q4 20 -0.5 46t-19.5 54t-49.5 47t-83.5 19q-74 0 -125.5 -46t-51.5 -120h330zM221 1368h697v-266h-697v266z" />
<glyph unicode="&#x116;" horiz-adv-x="1263" d="M135 1434h1032v-328h-653v-219h592v-326h-592v-233h666v-328h-1045v1434zM483 1714q0 90 54.5 137t136.5 47t136 -47t54 -137q0 -92 -53.5 -138t-136.5 -46t-137 46t-54 138z" />
<glyph unicode="&#x117;" horiz-adv-x="1122" d="M55 492q0 111 33 201.5t86 149t122.5 98t138 56.5t136.5 17q103 0 187 -25.5t141 -70.5t96.5 -105t56.5 -130.5t17 -145t-18 -150.5h-643q28 -77 113 -114t200 -37q159 0 283 47v-258q-156 -56 -365 -56q-122 0 -228 34.5t-185.5 99.5t-125 165t-45.5 224zM733 596 q4 20 -0.5 46t-19.5 54t-49.5 47t-83.5 19q-74 0 -125.5 -46t-51.5 -120h330zM381 1264q0 90 54 137t136 47t136.5 -47t54.5 -137q0 -92 -54.5 -138.5t-136.5 -46.5t-136 46.5t-54 138.5z" />
<glyph unicode="&#x118;" horiz-adv-x="1263" d="M1180 328v-328q-65 -42 -96 -87t-31 -81q0 -57 63 -57q35 0 64 16v-225q-78 -47 -187 -47q-119 0 -184.5 62t-63.5 155q2 69 41 139t113 125h-764v1434h1032v-328h-653v-219h592v-326h-592v-233h666z" />
<glyph unicode="&#x119;" horiz-adv-x="1122" d="M977 -434q-78 -47 -186 -47q-119 0 -184.5 62t-63.5 155q4 136 131 233h-35q-122 0 -228 34.5t-185.5 99.5t-125 165t-45.5 224q0 111 33 201.5t86 149t122.5 98t138 56.5t136.5 17q103 0 187 -25.5t141 -70.5t96.5 -105t56.5 -130.5t17 -145t-18 -150.5h-643 q28 -77 113 -114t200 -37q159 0 283 47v-258q-154 -109 -154 -193q0 -57 63 -57q35 0 64 16v-225zM580 762q-74 0 -125.5 -46t-51.5 -120h330q4 20 -0.5 46t-19.5 54t-49.5 47t-83.5 19z" />
<glyph unicode="&#x11a;" horiz-adv-x="1263" d="M135 1434h1032v-328h-653v-219h592v-326h-592v-233h666v-328h-1045v1434zM1092 1884l-267 -328h-307l-266 328h317l103 -129l102 129h318z" />
<glyph unicode="&#x11b;" horiz-adv-x="1122" d="M55 492q0 111 33 201.5t86 149t122.5 98t138 56.5t136.5 17q103 0 187 -25.5t141 -70.5t96.5 -105t56.5 -130.5t17 -145t-18 -150.5h-643q28 -77 113 -114t200 -37q159 0 283 47v-258q-156 -56 -365 -56q-122 0 -228 34.5t-185.5 99.5t-125 165t-45.5 224zM733 596 q4 20 -0.5 46t-19.5 54t-49.5 47t-83.5 19q-74 0 -125.5 -46t-51.5 -120h330zM989 1434l-266 -328h-307l-266 328h317l102 -129l103 129h317z" />
<glyph unicode="&#x11e;" horiz-adv-x="1431" d="M66 717q0 156 44 283t119 212t177 142.5t214.5 83.5t235.5 26q231 0 444 -90v-358q-79 55 -182.5 84.5t-212.5 29.5q-90 0 -168.5 -23.5t-142.5 -71.5t-101.5 -129.5t-37.5 -188.5q0 -101 29 -179t72.5 -123t103 -73t112 -37.5t107.5 -9.5q56 0 98 10v483h358v-722 q-234 -97 -475 -97q-125 0 -239.5 27.5t-216 86.5t-176.5 145.5t-118.5 211.5t-43.5 277zM1145 1608q-142 -95 -338 -95t-338 95v258q140 -86 338 -86t338 86v-258z" />
<glyph unicode="&#x11f;" horiz-adv-x="1275" d="M55 492q0 98 28.5 189t84.5 166.5t149.5 121t212.5 45.5q122 0 207 -47t127 -117v133h307v-942q0 -114 -32 -204.5t-86.5 -149t-130 -97.5t-157.5 -55t-175 -16q-232 0 -424 92v297q165 -103 377 -103q63 0 111 10.5t87.5 34t60.5 66.5t21 104v60q-107 -111 -293 -111 q-119 0 -212.5 45.5t-149.5 121.5t-84.5 167t-28.5 189zM823 604q-25 52 -77.5 87.5t-120.5 35.5q-103 0 -157 -69.5t-54 -165.5t54 -166t157 -70q68 0 120.5 35.5t77.5 87.5v225zM907 1157q-140 -94 -338 -94t-338 94v258q140 -86 338 -86t338 86v-258z" />
<glyph unicode="&#x120;" horiz-adv-x="1431" d="M66 717q0 156 44 283t119 212t177 142.5t214.5 83.5t235.5 26q231 0 444 -90v-358q-79 55 -182.5 84.5t-212.5 29.5q-90 0 -168.5 -23.5t-142.5 -71.5t-101.5 -129.5t-37.5 -188.5q0 -101 29 -179t72.5 -123t103 -73t112 -37.5t107.5 -9.5q56 0 98 10v483h358v-722 q-234 -97 -475 -97q-125 0 -239.5 27.5t-216 86.5t-176.5 145.5t-118.5 211.5t-43.5 277zM618 1714q0 90 54.5 137t136.5 47t136 -47t54 -137q0 -92 -53.5 -138t-136.5 -46t-137 46t-54 138z" />
<glyph unicode="&#x121;" horiz-adv-x="1275" d="M55 492q0 98 28.5 189t84.5 166.5t149.5 121t212.5 45.5q122 0 207 -47t127 -117v133h307v-942q0 -114 -32 -204.5t-86.5 -149t-130 -97.5t-157.5 -55t-175 -16q-232 0 -424 92v297q165 -103 377 -103q63 0 111 10.5t87.5 34t60.5 66.5t21 104v60q-107 -111 -293 -111 q-119 0 -212.5 45.5t-149.5 121.5t-84.5 167t-28.5 189zM823 604q-25 52 -77.5 87.5t-120.5 35.5q-103 0 -157 -69.5t-54 -165.5t54 -166t157 -70q68 0 120.5 35.5t77.5 87.5v225zM381 1264q0 90 54 137t136 47t136.5 -47t54.5 -137q0 -92 -54.5 -138.5t-136.5 -46.5 t-136 46.5t-54 138.5z" />
<glyph unicode="&#x122;" horiz-adv-x="1431" d="M66 717q0 156 44 283t119 212t177 142.5t214.5 83.5t235.5 26q231 0 444 -90v-358q-79 55 -182.5 84.5t-212.5 29.5q-90 0 -168.5 -23.5t-142.5 -71.5t-101.5 -129.5t-37.5 -188.5q0 -101 29 -179t72.5 -123t103 -73t112 -37.5t107.5 -9.5q56 0 98 10v483h358v-722 q-234 -97 -475 -97q-125 0 -239.5 27.5t-216 86.5t-176.5 145.5t-118.5 211.5t-43.5 277zM899 -594h-276l71 451h318z" />
<glyph unicode="&#x123;" horiz-adv-x="1275" d="M750 1098h-287l112 432h246zM55 492q0 98 28.5 189t84.5 166.5t149.5 121t212.5 45.5q122 0 207 -47t127 -117v133h307v-942q0 -114 -32 -204.5t-86.5 -149t-130 -97.5t-157.5 -55t-175 -16q-232 0 -424 92v297q165 -103 377 -103q63 0 111 10.5t87.5 34t60.5 66.5 t21 104v60q-107 -111 -293 -111q-119 0 -212.5 45.5t-149.5 121.5t-84.5 167t-28.5 189zM823 604q-25 52 -77.5 87.5t-120.5 35.5q-103 0 -157 -69.5t-54 -165.5t54 -166t157 -70q68 0 120.5 35.5t77.5 87.5v225z" />
<glyph unicode="&#x126;" horiz-adv-x="1597" d="M532 0h-378v1014h-134v225h134v195h378v-195h533v195h379v-195h133v-225h-133v-1014h-379v567h-533v-567zM532 1014v-150h533v150h-533z" />
<glyph unicode="&#x127;" d="M453 909q118 105 272 105q98 0 174.5 -32t123.5 -87.5t71 -127.5t24 -157v-610h-348v563q0 75 -41 114.5t-108 39.5q-53 0 -96.5 -25.5t-71.5 -60.5v-631h-349v1102h-100v205h100v127h349v-127h247v-205h-247v-193z" />
<glyph unicode="&#x12a;" horiz-adv-x="649" d="M135 1434h379v-1434h-379v1434zM-23 1819h697v-267h-697v267z" />
<glyph unicode="&#x12b;" horiz-adv-x="561" d="M14 1368h533v-225h-533v225zM106 983h349v-983h-349v983z" />
<glyph unicode="&#x12e;" horiz-adv-x="649" d="M514 1434v-1434q-65 -42 -96 -87t-31 -81q0 -57 64 -57q34 0 63 16v-225q-78 -47 -186 -47q-119 0 -184.5 62t-63.5 155q2 69 40.5 139t112.5 125h-98v1434h379z" />
<glyph unicode="&#x12f;" horiz-adv-x="561" d="M479 1315q0 -96 -56 -144.5t-142 -48.5q-85 0 -142 49t-57 144q0 94 57 142t142 48q86 0 142 -48t56 -142zM174 0h-68v983h349v-983q-65 -42 -96 -87t-31 -81q0 -57 63 -57q35 0 64 16v-225q-78 -47 -187 -47q-118 0 -183 61.5t-65 155.5q0 68 39.5 138t114.5 126z" />
<glyph unicode="&#x130;" horiz-adv-x="649" d="M135 1434h379v-1434h-379v1434zM137 1714q0 90 54.5 137t136.5 47t136 -47t54 -137q0 -92 -53.5 -138t-136.5 -46t-137 46t-54 138z" />
<glyph unicode="&#x131;" horiz-adv-x="561" d="M106 983h349v-983h-349v983z" />
<glyph unicode="&#x132;" horiz-adv-x="1710" d="M135 1434h379v-1434h-379v1434zM848 1434h737v-988q0 -129 -43 -224t-119 -149t-168.5 -79t-203.5 -25q-186 0 -371 68v348q126 -68 274 -68q252 0 252 181v598h-358v338z" />
<glyph unicode="&#x133;" horiz-adv-x="1122" d="M455 0h-349v983h349v-983zM479 1315q0 -96 -56 -144.5t-142 -48.5q-85 0 -142 49t-57 144q0 94 57 142t142 48q86 0 142 -48t56 -142zM1016 -117q0 -78 -20 -140.5t-54.5 -103.5t-83.5 -68.5t-103.5 -39.5t-117.5 -12q-117 0 -188 30v291q50 -16 100 -16q53 0 86 31.5 t33 93.5v1034h348v-1100zM1040 1315q0 -96 -56 -144.5t-142 -48.5q-85 0 -142 49t-57 144q0 94 57 142t142 48q86 0 142 -48t56 -142z" />
<glyph unicode="&#x136;" horiz-adv-x="1445" d="M514 0h-379v1434h379v-543h180l326 543h420l-451 -699l471 -735h-420l-348 553h-178v-553zM807 -573h-277l72 450h318z" />
<glyph unicode="&#x137;" horiz-adv-x="1148" d="M1155 0h-387l-242 373h-73v-373h-349v1434h349v-795h77l215 344h390l-320 -483zM664 -573h-277l72 450h317z" />
<glyph unicode="&#x139;" horiz-adv-x="1196" d="M135 1434h379v-1096h655v-338h-1034v1434zM438 1556h-327l184 308h369z" />
<glyph unicode="&#x13a;" horiz-adv-x="561" d="M106 1495h349v-1495h-349v1495zM408 1597h-328l184 308h369z" />
<glyph unicode="&#x13b;" horiz-adv-x="1196" d="M135 1434h379v-1096h655v-338h-1034v1434zM709 -573h-277l72 450h317z" />
<glyph unicode="&#x13c;" horiz-adv-x="561" d="M106 1495h349v-1495h-349v1495zM342 -573h-276l71 450h318z" />
<glyph unicode="&#x13d;" horiz-adv-x="1198" d="M776 1434h287l-72 -433h-246zM135 1434h379v-1096h655v-338h-1034v1434z" />
<glyph unicode="&#x13e;" horiz-adv-x="561" d="M569 1495h287l-72 -432h-245zM106 1495h349v-1495h-349v1495z" />
<glyph unicode="&#x13f;" horiz-adv-x="1214" d="M1034 836q0 -92 -54 -138.5t-136 -46.5q-81 0 -136 47t-55 138q0 90 55 137t136 47q82 0 136 -47t54 -137zM135 1434h379v-1096h655v-338h-1034v1434z" />
<glyph unicode="&#x140;" horiz-adv-x="929" d="M106 1495h349v-1495h-349v1495zM954 717q0 -100 -59 -151.5t-150 -51.5q-90 0 -149 51.5t-59 151.5q0 99 59 150t149 51q91 0 150 -51t59 -150z" />
<glyph unicode="&#x141;" horiz-adv-x="1269" d="M1243 0h-1034v481l-164 -61v307l164 61v646h379v-506l317 116v-307l-317 -116v-283h655v-338z" />
<glyph unicode="&#x142;" horiz-adv-x="774" d="M209 1495h348v-571l154 59v-266l-154 -60v-657h-348v520l-154 -59v266l154 59v709z" />
<glyph unicode="&#x143;" horiz-adv-x="1560" d="M514 0h-379v1434h359l561 -824q-8 91 -8 238v586h378v-1434h-358l-561 821q8 -91 8 -235v-586zM903 1556h-328l185 308h368z" />
<glyph unicode="&#x144;" d="M412 870q134 144 313 144q98 0 174.5 -32t123.5 -87.5t71 -127.5t24 -157v-610h-348v563q0 75 -41 114.5t-108 39.5q-53 0 -96.5 -25.5t-71.5 -60.5v-631h-349v983h308v-113zM709 1106h-328l184 307h369z" />
<glyph unicode="&#x145;" horiz-adv-x="1560" d="M514 0h-379v1434h359l561 -824q-8 91 -8 238v586h378v-1434h-358l-561 821q8 -91 8 -235v-586zM872 -573h-276l72 450h317z" />
<glyph unicode="&#x146;" d="M412 870q134 144 313 144q98 0 174.5 -32t123.5 -87.5t71 -127.5t24 -157v-610h-348v563q0 75 -41 114.5t-108 39.5q-53 0 -96.5 -25.5t-71.5 -60.5v-631h-349v983h308v-113zM674 -573h-277l72 450h317z" />
<glyph unicode="&#x147;" horiz-adv-x="1560" d="M514 0h-379v1434h359l561 -824q-8 91 -8 238v586h378v-1434h-358l-561 821q8 -91 8 -235v-586zM1200 1884l-266 -328h-307l-267 328h318l102 -129l103 129h317z" />
<glyph unicode="&#x148;" d="M412 870q134 144 313 144q98 0 174.5 -32t123.5 -87.5t71 -127.5t24 -157v-610h-348v563q0 75 -41 114.5t-108 39.5q-53 0 -96.5 -25.5t-71.5 -60.5v-631h-349v983h308v-113zM1006 1434l-267 -328h-307l-266 328h317l103 -129l102 129h318z" />
<glyph unicode="&#x14a;" horiz-adv-x="1560" d="M1425 -51q0 -201 -103 -311.5t-280 -110.5q-69 0 -159 22v308q25 -7 47 -7q62 0 89.5 36t27.5 94v51l-541 790q8 -91 8 -235v-586h-379v1434h359l561 -824q-8 91 -8 238v586h378v-1485z" />
<glyph unicode="&#x14b;" d="M1118 -137q0 -96 -32 -166t-86 -107t-113 -54t-125 -17q-102 0 -170 30v267q30 -9 65 -9q113 0 113 121v635q0 75 -41 114.5t-108 39.5q-53 0 -96.5 -25.5t-71.5 -60.5v-631h-349v983h308v-113q134 144 313 144q98 0 174.5 -32t123.5 -87.5t71 -127.5t24 -157v-747z" />
<glyph unicode="&#x14c;" horiz-adv-x="1662" d="M63 717q0 121 30 231t93 204.5t153 163.5t216 108.5t276 39.5t276 -39.5t216 -108.5t153 -163.5t93 -204.5t30 -231q0 -152 -49 -285.5t-142 -237.5t-242 -164.5t-335 -60.5t-335 60.5t-242 164.5t-142 237.5t-49 285.5zM1210 717q0 178 -99 288.5t-280 110.5 t-279.5 -110.5t-98.5 -288.5t99 -289t279 -111q181 0 280 111t99 289zM483 1819h697v-267h-697v267z" />
<glyph unicode="&#x14d;" horiz-adv-x="1216" d="M55 492q0 127 44.5 228t121.5 164t176 96.5t211 33.5t211 -33.5t176 -96.5t121.5 -164t44.5 -228t-44.5 -228t-121.5 -164.5t-176 -97t-211 -33.5t-211 33.5t-176 97t-121.5 164.5t-44.5 228zM803 492q0 92 -47.5 153.5t-147.5 61.5t-147 -61t-47 -154t47 -154.5 t147 -61.5t147.5 61.5t47.5 154.5zM262 1348h696v-267h-696v267z" />
<glyph unicode="&#x150;" horiz-adv-x="1662" d="M63 717q0 121 30 231t93 204.5t153 163.5t216 108.5t276 39.5t276 -39.5t216 -108.5t153 -163.5t93 -204.5t30 -231q0 -152 -49 -285.5t-142 -237.5t-242 -164.5t-335 -60.5t-335 60.5t-242 164.5t-142 237.5t-49 285.5zM1210 717q0 178 -99 288.5t-280 110.5 t-279.5 -110.5t-98.5 -288.5t99 -289t279 -111q181 0 280 111t99 289zM1159 1577h-307l152 321h327zM760 1577h-307l151 321h328z" />
<glyph unicode="&#x151;" horiz-adv-x="1216" d="M55 492q0 127 44.5 228t121.5 164t176 96.5t211 33.5t211 -33.5t176 -96.5t121.5 -164t44.5 -228t-44.5 -228t-121.5 -164.5t-176 -97t-211 -33.5t-211 33.5t-176 97t-121.5 164.5t-44.5 228zM803 492q0 92 -47.5 153.5t-147.5 61.5t-147 -61t-47 -154t47 -154.5 t147 -61.5t147.5 61.5t47.5 154.5zM938 1106h-307l151 321h328zM539 1106h-308l152 321h328z" />
<glyph unicode="&#x152;" horiz-adv-x="2156" d="M1079 0q-115 -31 -248 -31q-186 0 -335 60.5t-242 164.5t-142 237.5t-49 285.5q0 121 30 231t93 204.5t153 163.5t216 108.5t276 39.5q137 0 248 -30h981v-328h-612v-219h551v-326h-551v-233h625v-328h-994zM453 717q0 -189 114.5 -299.5t286.5 -110.5q110 0 225 47v725 q-115 47 -225 47q-172 0 -286.5 -110t-114.5 -299z" />
<glyph unicode="&#x153;" horiz-adv-x="1869" d="M967 150q-124 -181 -398 -181q-102 0 -193 33.5t-163.5 97t-115 165t-42.5 227.5t42.5 227.5t114.5 164.5t163 96.5t192 33.5q133 0 235.5 -45.5t162.5 -132.5q71 94 170 136t204 42q97 0 177.5 -26.5t135.5 -72t93 -106.5t54.5 -131t16.5 -144t-18 -147h-643 q28 -77 113.5 -114t201.5 -37q159 0 283 47v-258q-156 -56 -364 -56q-285 0 -422 181zM414 492q0 -93 47 -154.5t147 -61.5t147.5 61.5t47.5 154.5q0 92 -47.5 153.5t-147.5 61.5t-147 -61t-47 -154zM1327 758q-74 0 -125 -45.5t-51 -120.5h330q4 20 -1 46t-20 54t-49.5 47 t-83.5 19z" />
<glyph unicode="&#x154;" horiz-adv-x="1456" d="M514 0h-379v1434h604q92 0 173 -13.5t159 -48t133.5 -88t89 -139t33.5 -195.5q0 -321 -274 -430l395 -520h-428l-342 467h-164v-467zM514 1106v-332h242q84 0 133 42.5t49 123.5t-49 123.5t-133 42.5h-242zM821 1556h-327l184 308h369z" />
<glyph unicode="&#x155;" horiz-adv-x="827" d="M412 850q56 81 152.5 124.5t232.5 29.5v-338q-103 23 -200.5 -7t-143.5 -100v-559h-349v983h308v-133zM565 1106h-327l184 307h369z" />
<glyph unicode="&#x156;" horiz-adv-x="1456" d="M514 0h-379v1434h604q92 0 173 -13.5t159 -48t133.5 -88t89 -139t33.5 -195.5q0 -321 -274 -430l395 -520h-428l-342 467h-164v-467zM514 1106v-332h242q84 0 133 42.5t49 123.5t-49 123.5t-133 42.5h-242zM803 -573h-277l72 450h317z" />
<glyph unicode="&#x157;" horiz-adv-x="827" d="M412 850q56 81 152.5 124.5t232.5 29.5v-338q-103 23 -200.5 -7t-143.5 -100v-559h-349v983h308v-133zM336 -573h-277l72 450h318z" />
<glyph unicode="&#x158;" horiz-adv-x="1456" d="M514 0h-379v1434h604q92 0 173 -13.5t159 -48t133.5 -88t89 -139t33.5 -195.5q0 -321 -274 -430l395 -520h-428l-342 467h-164v-467zM514 1106v-332h242q84 0 133 42.5t49 123.5t-49 123.5t-133 42.5h-242zM1118 1884l-266 -328h-307l-266 328h317l102 -129l103 129h317z " />
<glyph unicode="&#x159;" horiz-adv-x="827" d="M412 850q56 81 152.5 124.5t232.5 29.5v-338q-103 23 -200.5 -7t-143.5 -100v-559h-349v983h308v-133zM862 1434l-266 -328h-307l-266 328h317l102 -129l103 129h317z" />
<glyph unicode="&#x15a;" horiz-adv-x="1271" d="M84 1042q0 105 42.5 186.5t117.5 132.5t171.5 77t209.5 26q134 0 260.5 -30t220.5 -84v-349q-186 139 -451 136q-182 -3 -182 -93q0 -33 32 -60t84.5 -46t119.5 -43t137 -48t137 -63.5t119.5 -87.5t84.5 -122.5t32 -165.5q0 -439 -574 -439q-314 0 -551 131v359 q235 -162 522 -162q114 0 163.5 21.5t49.5 74.5q0 33 -25.5 59.5t-68.5 47t-99 40t-117.5 41.5t-123.5 48t-118 63.5t-99 84.5t-68.5 115t-25.5 150zM739 1556h-327l184 308h369z" />
<glyph unicode="&#x15b;" horiz-adv-x="995" d="M70 700q0 87 35.5 150t97.5 97.5t135 50.5t160 16q192 0 370 -84v-277q-65 45 -163 75t-183 30q-94 0 -94 -49q0 -27 28.5 -47t74 -33.5t100.5 -28t110 -38t100.5 -56t74 -89t28.5 -130.5q0 -72 -25.5 -127.5t-68 -91t-103.5 -58.5t-127.5 -32t-144.5 -9q-236 0 -395 90 v277q78 -51 180.5 -78t196.5 -27q129 0 129 50q0 26 -28.5 45t-74 33t-100.5 29t-110 39.5t-100.5 57t-74 88t-28.5 127.5zM621 1106h-328l184 307h369z" />
<glyph unicode="&#x15e;" horiz-adv-x="1271" d="M473 1044q0 -33 32 -60t84.5 -46t119.5 -43t137 -48t137 -63.5t119.5 -87.5t84.5 -122.5t32 -165.5q0 -392 -455 -433l-19 -63q95 -15 138 -62t43 -126q0 -54 -29 -95.5t-76 -64.5t-98.5 -34t-104.5 -11q-124 0 -215 39v194q62 -37 156 -37q51 0 83 14.5t32 43.5 q0 34 -48.5 46.5t-127.5 6.5l37 147q-253 22 -441 127v359q235 -162 522 -162q114 0 163.5 21.5t49.5 74.5q0 33 -25.5 59.5t-68.5 47t-99 40t-117.5 41.5t-123.5 48t-118 63.5t-99 84.5t-68.5 115t-25.5 150q0 105 42.5 186.5t117.5 132.5t171.5 77t209.5 26 q134 0 260.5 -30t220.5 -84v-349q-186 139 -451 136q-182 -3 -182 -93z" />
<glyph unicode="&#x15f;" horiz-adv-x="995" d="M428 709q0 -27 28.5 -47t74 -33.5t100.5 -28t110 -38t100.5 -56t74 -89t28.5 -130.5q0 -252 -299 -303l-20 -72q95 -15 137.5 -62t42.5 -126q0 -54 -28.5 -95.5t-75.5 -64.5t-98.5 -34t-104.5 -11q-124 0 -215 39v194q62 -37 155 -37q51 0 83 14.5t32 43.5 q0 34 -48.5 46.5t-127.5 6.5l37 145q-195 9 -334 88v277q78 -51 180.5 -78t196.5 -27q129 0 129 50q0 26 -28.5 45t-74 33t-100.5 29t-110 39.5t-100.5 57t-74 88t-28.5 127.5q0 87 35.5 150t97.5 97.5t135 50.5t160 16q192 0 370 -84v-277q-65 45 -163 75t-183 30 q-94 0 -94 -49z" />
<glyph unicode="&#x160;" horiz-adv-x="1271" d="M84 1042q0 105 42.5 186.5t117.5 132.5t171.5 77t209.5 26q134 0 260.5 -30t220.5 -84v-349q-186 139 -451 136q-182 -3 -182 -93q0 -33 32 -60t84.5 -46t119.5 -43t137 -48t137 -63.5t119.5 -87.5t84.5 -122.5t32 -165.5q0 -439 -574 -439q-314 0 -551 131v359 q235 -162 522 -162q114 0 163.5 21.5t49.5 74.5q0 33 -25.5 59.5t-68.5 47t-99 40t-117.5 41.5t-123.5 48t-118 63.5t-99 84.5t-68.5 115t-25.5 150zM1036 1884l-266 -328h-307l-266 328h317l102 -129l103 129h317z" />
<glyph unicode="&#x161;" horiz-adv-x="995" d="M70 700q0 87 35.5 150t97.5 97.5t135 50.5t160 16q192 0 370 -84v-277q-65 45 -163 75t-183 30q-94 0 -94 -49q0 -27 28.5 -47t74 -33.5t100.5 -28t110 -38t100.5 -56t74 -89t28.5 -130.5q0 -72 -25.5 -127.5t-68 -91t-103.5 -58.5t-127.5 -32t-144.5 -9q-236 0 -395 90 v277q78 -51 180.5 -78t196.5 -27q129 0 129 50q0 26 -28.5 45t-74 33t-100.5 29t-110 39.5t-100.5 57t-74 88t-28.5 127.5zM918 1434l-267 -328h-307l-266 328h317l103 -129l102 129h318z" />
<glyph unicode="&#x162;" horiz-adv-x="1241" d="M27 1434h1187v-338h-403v-1096h-379v1096h-405v338zM686 -573h-276l71 450h318z" />
<glyph unicode="&#x163;" horiz-adv-x="864" d="M182 1260l348 81v-358h267v-287h-267v-319q0 -121 129 -121q84 0 158 25v-271q-118 -41 -266 -41q-60 0 -111.5 10t-100 34.5t-82.5 62t-54.5 96.5t-20.5 135v389h-155v287h155v277zM575 -573h-276l72 450h317z" />
<glyph unicode="&#x164;" horiz-adv-x="1241" d="M27 1434h1187v-338h-403v-1096h-379v1096h-405v338zM1040 1884l-266 -328h-307l-266 328h317l103 -129l102 129h317z" />
<glyph unicode="&#x165;" horiz-adv-x="864" d="M686 1536h287l-72 -432h-246zM182 1260l348 81v-358h267v-287h-267v-319q0 -121 129 -121q84 0 158 25v-271q-118 -41 -266 -41q-60 0 -111.5 10t-100 34.5t-82.5 62t-54.5 96.5t-20.5 135v389h-155v287h155v277z" />
<glyph unicode="&#x166;" horiz-adv-x="1269" d="M825 0h-379v543h-241v245h241v308h-405v338h1188v-338h-404v-308h240v-245h-240v-543z" />
<glyph unicode="&#x167;" horiz-adv-x="866" d="M532 373q0 -121 130 -121q86 0 157 24v-266q-143 -41 -266 -41q-60 0 -111.5 10t-100 34.5t-82.5 62t-54.5 96.5t-20.5 135v107h-114v184h114v119h-155v266h155v277l348 81v-358h267v-266h-267v-119h213v-184h-213v-41z" />
<glyph unicode="&#x16a;" horiz-adv-x="1531" d="M1032 1434h379v-887q0 -125 -37 -225.5t-98.5 -165t-146 -108t-174.5 -61.5t-189 -18t-189 18t-174.5 61.5t-146 108t-98.5 165t-37 225.5v887h379v-867q0 -139 68.5 -199.5t197.5 -60.5t197.5 60.5t68.5 199.5v867zM418 1819h696v-267h-696v267z" />
<glyph unicode="&#x16b;" d="M760 983h348v-983h-307v113q-134 -144 -314 -144q-98 0 -174.5 32t-123.5 87.5t-71 127.5t-24 157v610h348v-563q0 -75 41.5 -114.5t108.5 -39.5q53 0 96.5 25.5t71.5 60.5v631zM258 1368h696v-266h-696v266z" />
<glyph unicode="&#x16e;" horiz-adv-x="1531" d="M1032 1434h379v-887q0 -125 -37 -225.5t-98.5 -165t-146 -108t-174.5 -61.5t-189 -18t-189 18t-174.5 61.5t-146 108t-98.5 165t-37 225.5v887h379v-867q0 -139 68.5 -199.5t197.5 -60.5t197.5 60.5t68.5 199.5v867zM1032 1753q0 -120 -77 -189t-189 -69 q-111 0 -188.5 69t-77.5 189q0 116 77.5 185t188.5 69q112 0 189 -69t77 -185zM694 1753q0 -33 19.5 -54.5t52.5 -21.5t52.5 21.5t19.5 54.5q0 31 -19.5 51.5t-52.5 20.5t-52.5 -20.5t-19.5 -51.5z" />
<glyph unicode="&#x16f;" d="M760 983h348v-983h-307v113q-134 -144 -314 -144q-98 0 -174.5 32t-123.5 87.5t-71 127.5t-24 157v610h348v-563q0 -75 41.5 -114.5t108.5 -39.5q53 0 96.5 25.5t71.5 60.5v631zM872 1303q0 -120 -77 -189.5t-189 -69.5q-111 0 -188.5 69.5t-77.5 189.5q0 116 77.5 184.5 t188.5 68.5q112 0 189 -68.5t77 -184.5zM535 1303q0 -33 19 -54.5t52 -21.5t52.5 21.5t19.5 54.5q0 31 -19.5 51t-52.5 20t-52 -20t-19 -51z" />
<glyph unicode="&#x170;" horiz-adv-x="1531" d="M1032 1434h379v-887q0 -125 -37 -225.5t-98.5 -165t-146 -108t-174.5 -61.5t-189 -18t-189 18t-174.5 61.5t-146 108t-98.5 165t-37 225.5v887h379v-867q0 -139 68.5 -199.5t197.5 -60.5t197.5 60.5t68.5 199.5v867zM1094 1577h-308l152 321h328zM694 1577h-307l152 321 h327z" />
<glyph unicode="&#x171;" d="M760 983h348v-983h-307v113q-134 -144 -314 -144q-98 0 -174.5 32t-123.5 87.5t-71 127.5t-24 157v610h348v-563q0 -75 41.5 -114.5t108.5 -39.5q53 0 96.5 25.5t71.5 60.5v631zM934 1126h-307l151 322h328zM535 1126h-308l152 322h328z" />
<glyph unicode="&#x172;" horiz-adv-x="1531" d="M1167 -434q-78 -47 -186 -47q-119 0 -184.5 62t-63.5 155q3 118 105 235q-23 -2 -72 -2q-99 0 -189 18t-174.5 61.5t-146 108t-98.5 165t-37 225.5v887h379v-867q0 -139 68.5 -199.5t197.5 -60.5t197.5 60.5t68.5 199.5v867h379v-887q0 -286 -182 -434 q-57 -47 -97.5 -93.5t-58.5 -83t-25.5 -61t-7.5 -43.5q0 -57 64 -57q34 0 63 16v-225z" />
<glyph unicode="&#x173;" d="M1108 983v-983q-65 -42 -96 -87t-31 -81q0 -57 63 -57q37 0 64 12v-233q-77 -35 -186 -35q-119 0 -184.5 62t-63.5 155q2 69 40.5 139t112.5 125h-26v113q-134 -144 -314 -144q-98 0 -174.5 32t-123.5 87.5t-71 127.5t-24 157v610h348v-563q0 -75 41.5 -114.5 t108.5 -39.5q53 0 96.5 25.5t71.5 60.5v631h348z" />
<glyph unicode="&#x174;" horiz-adv-x="2207" d="M1786 1434h409l-438 -1434h-409l-244 887l-244 -887h-409l-439 1434h410l244 -1008l272 1008h332l272 -1008zM950 1864h307l246 -328h-317l-82 109l-82 -109h-317z" />
<glyph unicode="&#x175;" horiz-adv-x="1695" d="M1305 983h372l-305 -983h-368l-156 575l-156 -575h-368l-306 983h373l139 -604l150 604h336l149 -604zM690 1413h307l246 -328h-317l-82 109l-82 -109h-318z" />
<glyph unicode="&#x176;" horiz-adv-x="1490" d="M934 0h-377v489l-559 945h430l317 -592l318 592h430l-559 -945v-489zM588 1864h307l246 -328h-318l-82 109l-82 -109h-317z" />
<glyph unicode="&#x177;" horiz-adv-x="1181" d="M608 397l201 586h358l-411 -1085q-144 -375 -451 -375q-74 0 -180 26v287q69 -16 133 -16q136 0 205 155l-463 1008h369zM422 1413h307l246 -328h-318l-82 109l-81 -109h-318z" />
<glyph unicode="&#x178;" horiz-adv-x="1490" d="M934 0h-377v489l-559 945h430l317 -592l318 592h430l-559 -945v-489zM1141 1702q0 -72 -51 -123t-123 -51t-123 51t-51 123t51 123t123 51t123 -51t51 -123zM690 1702q0 -72 -51 -123t-123 -51t-123 51t-51 123t51 123t123 51t123 -51t51 -123z" />
<glyph unicode="&#x179;" horiz-adv-x="1284" d="M1214 0h-1153v256l623 840h-586v338h1098v-256l-625 -840h643v-338zM774 1556h-328l185 308h368z" />
<glyph unicode="&#x17a;" horiz-adv-x="1007" d="M88 983h830v-205l-398 -491h426v-287h-887v205l400 491h-371v287zM643 1106h-328l185 307h368z" />
<glyph unicode="&#x17b;" horiz-adv-x="1284" d="M1214 0h-1153v256l623 840h-586v338h1098v-256l-625 -840h643v-338zM463 1714q0 90 54 137t136 47t136.5 -47t54.5 -137q0 -92 -54 -138t-137 -46t-136.5 46t-53.5 138z" />
<glyph unicode="&#x17c;" horiz-adv-x="1007" d="M88 983h830v-205l-398 -491h426v-287h-887v205l400 491h-371v287zM332 1264q0 90 54 137t136 47t136.5 -47t54.5 -137q0 -92 -54.5 -138.5t-136.5 -46.5t-136 46.5t-54 138.5z" />
<glyph unicode="&#x17d;" horiz-adv-x="1284" d="M1214 0h-1153v256l623 840h-586v338h1098v-256l-625 -840h643v-338zM1071 1884l-266 -328h-307l-267 328h318l102 -129l103 129h317z" />
<glyph unicode="&#x17e;" horiz-adv-x="1007" d="M88 983h830v-205l-398 -491h426v-287h-887v205l400 491h-371v287zM940 1434l-266 -328h-307l-267 328h318l102 -129l103 129h317z" />
<glyph unicode="&#x2c6;" horiz-adv-x="798" d="M246 1864h307l246 -328h-318l-82 109l-82 -109h-317z" />
<glyph unicode="&#x2da;" horiz-adv-x="532" d="M532 1753q0 -120 -77 -189t-189 -69q-111 0 -188.5 69t-77.5 189q0 116 77.5 185t188.5 69q112 0 189 -69t77 -185zM195 1753q0 -33 19 -54.5t52 -21.5t52.5 21.5t19.5 54.5q0 31 -19.5 51.5t-52.5 20.5t-52 -20t-19 -52z" />
<glyph unicode="&#x2dc;" horiz-adv-x="874" d="M821 1831q37 -134 -23.5 -228t-181.5 -94q-59 0 -116 21.5t-99.5 43t-68.5 21.5q-23 0 -35 -14.5t-10.5 -30.5t4.5 -28h-236q-37 134 23.5 227.5t181.5 93.5q59 0 116 -21.5t100 -43t69 -21.5q23 0 35 14.5t10.5 31t-4.5 28.5h235z" />
<glyph unicode="&#x401;" horiz-adv-x="1263" d="M1071 1702q0 -72 -51 -123t-123 -51t-123 51t-51 123t51 123t123 51t123 -51t51 -123zM621 1702q0 -72 -51.5 -123t-123.5 -51t-123 51t-51 123t51 123t123 51t123.5 -51t51.5 -123zM135 1434h1032v-328h-653v-219h592v-326h-592v-233h666v-328h-1045v1434z" />
<glyph unicode="&#x410;" horiz-adv-x="1540" d="M391 0h-389l563 1434h410l563 -1434h-389l-82 225h-594zM733 946l-147 -414h368l-147 414q-26 75 -37 146q-11 -71 -37 -146z" />
<glyph unicode="&#x411;" horiz-adv-x="1392" d="M514 926h283q91 0 168.5 -13.5t149 -46.5t120.5 -85t78.5 -133t29.5 -185t-29.5 -185t-78.5 -133t-120.5 -85t-149 -46.5t-168.5 -13.5h-662v1434h1088v-338h-709v-170zM514 328h279q75 0 118 29t43 106t-43 106t-118 29h-279v-270z" />
<glyph unicode="&#x412;" horiz-adv-x="1400" d="M135 1434h647q240 0 371 -90.5t131 -272.5q0 -235 -213 -311q124 -36 197 -124t73 -230q0 -94 -35 -167t-91 -117t-134.5 -72.5t-156.5 -39t-166 -10.5h-623v1434zM961 446q0 81 -49.5 115.5t-141.5 34.5h-258v-299h258q92 0 141.5 34t49.5 115zM905 1004 q0 62 -41.5 97.5t-115.5 35.5h-234v-265l234 -2q74 0 115.5 36t41.5 98z" />
<glyph unicode="&#x413;" horiz-adv-x="1191" d="M514 0h-379v1434h1034v-338h-655v-1096z" />
<glyph unicode="&#x414;" horiz-adv-x="1697" d="M371 -297h-328v625h164q127 227 176 503.5t49 602.5h1024v-1106h184v-625h-327v297h-942v-297zM780 1096q-17 -241 -56.5 -432t-117.5 -336h471v768h-297z" />
<glyph unicode="&#x415;" horiz-adv-x="1263" d="M135 1434h1032v-328h-653v-219h592v-326h-592v-233h666v-328h-1045v1434z" />
<glyph unicode="&#x416;" horiz-adv-x="2074" d="M424 0h-420l410 735l-389 699h419l279 -543h125v543h379v-543h125l278 543h420l-389 -699l410 -735h-420l-301 553h-123v-553h-379v553h-123z" />
<glyph unicode="&#x417;" horiz-adv-x="1288" d="M1223 391q0 -94 -35 -168.5t-93 -121t-138 -77.5t-163 -43t-176 -12q-272 0 -542 94v359q244 -119 512 -115q254 0 254 144q0 67 -49 93.5t-142 26.5h-340l2 328l316 -2q157 0 157 104q0 125 -235 125q-210 4 -451 -114v358q230 94 482 94q273 0 428 -100.5t155 -296.5 q0 -112 -58.5 -190t-166.5 -115q129 -39 206 -132t77 -239z" />
<glyph unicode="&#x418;" horiz-adv-x="1560" d="M1425 0h-378v586q0 144 8 235l-561 -821h-359v1434h379v-586q0 -147 -8 -238l561 824h358v-1434z" />
<glyph unicode="&#x419;" horiz-adv-x="1560" d="M1047 0h378v1434h-358l-561 -824q8 91 8 238v586h-379v-1434h359l561 821q-8 -91 -8 -235v-586zM1118 1608q-142 -95 -338 -95t-338 95v258q140 -86 338 -86t338 86v-258z" />
<glyph unicode="&#x41a;" horiz-adv-x="1445" d="M514 0h-379v1434h379v-543h180l326 543h420l-451 -699l471 -735h-420l-348 553h-178v-553z" />
<glyph unicode="&#x41b;" horiz-adv-x="1544" d="M375 1434h1034v-1434h-379v1096h-309q-8 -111 -16 -194t-21 -182.5t-28 -173.5t-38 -155t-50 -138t-65 -111t-82.5 -87t-102.5 -53t-125 -20q-89 0 -177 28v330q46 -13 99 -8q34 4 62.5 26t50 56t39.5 85.5t30 105.5t22.5 125t16.5 135t12 145t9.5 145t8.5 144t9 135z " />
<glyph unicode="&#x41c;" horiz-adv-x="1859" d="M1366 1434h358v-1434h-378v762l-308 -471h-217l-307 473v-764h-379v1434h359l436 -672z" />
<glyph unicode="&#x41d;" horiz-adv-x="1560" d="M1047 1434h378v-1434h-378v547h-533v-547h-379v1434h379v-549h533v549z" />
<glyph unicode="&#x41e;" horiz-adv-x="1662" d="M63 717q0 121 30 231t93 204.5t153 163.5t216 108.5t276 39.5t276 -39.5t216 -108.5t153 -163.5t93 -204.5t30 -231q0 -152 -49 -285.5t-142 -237.5t-242 -164.5t-335 -60.5t-335 60.5t-242 164.5t-142 237.5t-49 285.5zM1210 717q0 178 -99 288.5t-280 110.5 t-279.5 -110.5t-98.5 -288.5t99 -289t279 -111q181 0 280 111t99 289z" />
<glyph unicode="&#x41f;" horiz-adv-x="1560" d="M514 0h-379v1434h1290v-1434h-378v1096h-533v-1096z" />
<glyph unicode="&#x420;" horiz-adv-x="1372" d="M135 1434h567q625 0 625 -492q0 -110 -31.5 -195t-86 -140t-135 -90.5t-171 -50t-201.5 -15.5h-188v-451h-379v1434zM938 942q0 164 -217 164h-207v-328h207q217 0 217 164z" />
<glyph unicode="&#x421;" horiz-adv-x="1341" d="M66 696q0 157 43.5 287t118 217.5t174.5 148t210.5 88t229.5 27.5q224 0 415 -90v-358q-66 55 -158.5 86t-191.5 31q-88 0 -167 -25.5t-144 -76t-103 -137t-38 -198.5q0 -101 38 -178.5t103 -123t142.5 -68.5t164.5 -23q111 0 207.5 32.5t157.5 92.5v-369 q-191 -90 -418 -90q-121 0 -232.5 26t-213 83t-176 140.5t-118.5 206t-44 271.5z" />
<glyph unicode="&#x422;" horiz-adv-x="1241" d="M27 1434h1187v-338h-403v-1096h-379v1096h-405v338z" />
<glyph unicode="&#x423;" horiz-adv-x="1402" d="M891 328q-92 -197 -208.5 -278t-272.5 -81q-98 0 -230 39v314q79 -29 166 -29q71 0 116.5 22.5t69.5 75.5l23 49l-559 994h420l315 -654l258 654h420z" />
<glyph unicode="&#x424;" horiz-adv-x="1810" d="M1090 -82h-359v176q-322 17 -509 181t-187 442t187 441.5t509 180.5v177h359v-177q318 -21 502 -183.5t184 -438.5t-184 -439t-502 -184v-176zM414 717q0 -44 8 -82.5t30 -79t56.5 -70.5t91.5 -52.5t131 -29.5v627q-74 -7 -131 -29.5t-91.5 -52.5t-56.5 -70t-30 -78.5 t-8 -82.5zM1090 1030v-627q88 10 151 41.5t95.5 77.5t46.5 93.5t14 101.5t-14 101.5t-46.5 93t-95.5 77t-151 41.5z" />
<glyph unicode="&#x425;" horiz-adv-x="1421" d="M420 0h-443l492 745l-461 689h443l260 -422l260 422h442l-461 -689l492 -745h-443l-290 481z" />
<glyph unicode="&#x426;" horiz-adv-x="1667" d="M1610 -297h-328v297h-1147v1434h379v-1096h533v1096h378v-1096h185v-635z" />
<glyph unicode="&#x427;" horiz-adv-x="1439" d="M1305 0h-379v487q-177 -53 -332 -53q-241 0 -381.5 125.5t-140.5 370.5v504h379v-484q0 -84 66.5 -129t172.5 -45q117 0 236 49v609h379v-1434z" />
<glyph unicode="&#x428;" horiz-adv-x="2144" d="M2009 0h-1874v1434h379v-1096h369v1096h379v-1096h368v1096h379v-1434z" />
<glyph unicode="&#x429;" horiz-adv-x="2250" d="M2193 -297h-327v297h-1731v1434h379v-1096h369v1096h379v-1096h368v1096h379v-1096h184v-635z" />
<glyph unicode="&#x42a;" horiz-adv-x="1593" d="M926 0h-568v1096h-327v338h706v-451h189q111 -1 201.5 -15.5t170.5 -50t134.5 -90.5t86 -140t31.5 -195t-31.5 -195.5t-86 -141t-134.5 -91t-171 -50t-201 -14.5zM737 655v-327h207q217 0 217 164q0 163 -217 163h-207z" />
<glyph unicode="&#x42b;" horiz-adv-x="1933" d="M702 0h-567v1434h379v-451h188q111 -1 201.5 -15.5t171 -50t135 -90.5t86 -140t31.5 -195q0 -492 -625 -492zM514 655v-327h207q217 0 217 164q0 163 -217 163h-207zM1798 0h-379v1434h379v-1434z" />
<glyph unicode="&#x42c;" horiz-adv-x="1370" d="M702 0h-567v1434h379v-451h188q111 -1 201.5 -15.5t171 -50t135 -90.5t86 -140t31.5 -195q0 -492 -625 -492zM514 655v-327h207q217 0 217 164q0 163 -217 163h-207z" />
<glyph unicode="&#x42d;" horiz-adv-x="1345" d="M88 1374q191 90 416 90q119 0 229.5 -27.5t210.5 -88t174.5 -148t118 -217.5t43.5 -287q0 -149 -44 -271.5t-118.5 -206t-176 -140.5t-213 -83t-232.5 -26q-217 0 -408 90v369q127 -121 350 -121q68 0 124 6t113 23t99 44.5t75 73t48 105.5h-594v318h588 q-21 74 -64 124.5t-104.5 76.5t-126.5 36.5t-150 11.5q-98 0 -194.5 -27.5t-163.5 -82.5v358z" />
<glyph unicode="&#x42e;" horiz-adv-x="2277" d="M2214 717q0 -152 -49 -285.5t-142 -237.5t-242 -164.5t-335 -60.5q-158 0 -289.5 46t-221 127t-146.5 184t-78 223h-197v-549h-379v1434h379v-547h197q21 120 78 222.5t146.5 183t221 126t289.5 45.5q150 0 276 -39.5t216 -108.5t153 -163.5t93 -204.5t30 -231zM1067 717 q0 -178 99 -289t280 -111t280 111t99 289t-99 288.5t-280 110.5t-280 -110.5t-99 -288.5z" />
<glyph unicode="&#x42f;" horiz-adv-x="1435" d="M451 0h-433l388 518q-137 50 -217 155.5t-80 266.5q0 104 31.5 188.5t85.5 140.5t129.5 94t160 54.5t180.5 16.5h604v-1434h-378v467h-134zM498 940q0 -82 52 -124t150 -42h222v332h-222q-98 0 -150 -42t-52 -124z" />
<glyph unicode="&#x430;" horiz-adv-x="1179" d="M1034 281q0 -62 68 -62q21 0 39 6v-215q-78 -30 -176 -30q-165 0 -234 108q-151 -119 -342 -119q-146 0 -244 82.5t-98 220.5q0 89 39 154.5t104 101t135.5 52t147.5 16.5q105 0 213 -23v35q0 55 -52.5 89t-152.5 34q-157 0 -344 -76v293q200 66 383 66q122 0 213 -23 t160.5 -75t105 -142.5t35.5 -218.5v-274zM406 301q0 -40 32 -68t86 -28q93 0 162 51v133q-59 19 -125 19q-68 0 -111.5 -26t-43.5 -81z" />
<glyph unicode="&#x431;" horiz-adv-x="1193" d="M1135 440q0 -153 -72.5 -261.5t-191 -159t-269.5 -50.5q-89 0 -165.5 19t-145 64t-116.5 113t-76.5 172t-28.5 236q0 257 79 415.5t222 248.5q78 48 165 78t159 41.5t138.5 21.5t122.5 30t93 56v-307q-43 -39 -103.5 -58.5t-114 -22.5t-125 -17t-126.5 -41 q-70 -34 -111 -106t-41 -138q108 137 297 137q181 0 295.5 -124t114.5 -347zM428 440q0 -25 3 -48.5t14 -53t29 -51t51 -36.5t77 -15t77 15t51 36.5t29 51t14 53t3 48.5t-3 48.5t-14 53.5t-29 51.5t-51 36.5t-77 15t-77 -15t-51 -36.5t-29 -51.5t-14 -53.5t-3 -48.5z" />
<glyph unicode="&#x432;" horiz-adv-x="1128" d="M731 0h-627v983h611q95 0 163.5 -23.5t104 -63.5t51 -81.5t15.5 -87.5q0 -88 -39.5 -144t-120.5 -87q180 -58 180 -234q0 -51 -16 -95t-52.5 -83t-105.5 -61.5t-164 -22.5zM455 397v-176h159q46 0 76.5 21.5t30.5 64.5q0 90 -109 90h-157zM453 762v-176h141q46 0 76 21.5 t30 64.5q0 90 -108 90h-139z" />
<glyph unicode="&#x433;" horiz-adv-x="899" d="M453 0h-349v983h766v-287h-417v-696z" />
<glyph unicode="&#x434;" horiz-adv-x="1353" d="M354 -256h-317v512h141q81 140 108.5 316.5t20.5 410.5h850v-727h150v-512h-318v256h-635v-256zM625 727q-5 -152 -24.5 -260.5t-65.5 -210.5h274v471h-184z" />
<glyph unicode="&#x435;" horiz-adv-x="1120" d="M55 492q0 111 33 201.5t86 149t122.5 98t138 56.5t136.5 17q103 0 187 -25.5t141 -70.5t96.5 -105t56.5 -130.5t17 -145t-18 -150.5h-643q28 -77 113 -114t200 -37q159 0 283 47v-258q-156 -56 -365 -56q-122 0 -228 34.5t-185.5 99.5t-125 165t-45.5 224zM733 596 q4 20 -0.5 46t-19.5 54t-49.5 47t-83.5 19q-74 0 -125.5 -46t-51.5 -120h330z" />
<glyph unicode="&#x436;" horiz-adv-x="1650" d="M1651 0h-369l-197 342h-86v-342h-348v342h-86l-196 -342h-369l311 494l-291 489h369l199 -375h63v375h348v-375h64l199 375h368l-291 -489z" />
<glyph unicode="&#x437;" horiz-adv-x="1009" d="M950 276q0 -43 -16 -84.5t-54.5 -82t-95 -71t-144.5 -49t-196 -18.5q-230 0 -381 84v267q57 -33 153.5 -59.5t182.5 -26.5q193 0 193 86q0 24 -12.5 39t-39.5 21.5t-53 8.5t-69 2h-164v209h164q153 0 153 72q0 78 -151 78q-81 0 -180.5 -26.5t-155.5 -59.5v266 q67 37 171.5 60.5t209.5 23.5q107 0 191 -19t134.5 -48.5t83 -70t44.5 -79.5t12 -80q0 -81 -45 -136t-113 -77q178 -55 178 -230z" />
<glyph unicode="&#x438;" d="M410 0h-306v983h349v-465l350 465h305v-983h-348v465z" />
<glyph unicode="&#x439;" d="M934 1163q-144 -80 -328 -80q-183 0 -327 80v250q140 -72 327 -72q188 0 328 72v-250zM410 0h-306v983h349v-465l350 465h305v-983h-348v465z" />
<glyph unicode="&#x43a;" horiz-adv-x="1150" d="M453 0h-349v983h349v-344h77l215 344h390l-320 -483l340 -500h-387l-242 373h-73v-373z" />
<glyph unicode="&#x43b;" horiz-adv-x="1208" d="M582 717q-7 -109 -18 -198t-30 -175.5t-48.5 -151t-69 -114.5t-94.5 -75.5t-123 -25.5q-81 0 -176 33v277q32 -13 55 -13q27 0 49.5 13.5t39.5 43t30 63t22.5 88.5t16.5 103t12.5 122t8.5 131.5t7 144.5h840v-983h-348v717h-174z" />
<glyph unicode="&#x43c;" horiz-adv-x="1409" d="M444 0h-340v983h322l279 -457l278 457h322v-983h-340v492l-185 -302h-151l-185 302v-492z" />
<glyph unicode="&#x43d;" d="M453 0h-349v983h349v-348h307v348h348v-983h-348v348h-307v-348z" />
<glyph unicode="&#x43e;" horiz-adv-x="1216" d="M55 492q0 127 44.5 228t121.5 164t176 96.5t211 33.5t211 -33.5t176 -96.5t121.5 -164t44.5 -228t-44.5 -228t-121.5 -164.5t-176 -97t-211 -33.5t-211 33.5t-176 97t-121.5 164.5t-44.5 228zM803 492q0 92 -47.5 153.5t-147.5 61.5t-147 -61t-47 -154t47 -154.5 t147 -61.5t147.5 61.5t47.5 154.5z" />
<glyph unicode="&#x43f;" d="M453 0h-349v983h1004v-983h-348v696h-307v-696z" />
<glyph unicode="&#x440;" horiz-adv-x="1277" d="M412 850q42 70 126.5 117t206.5 47q119 0 213 -45.5t149.5 -121t84.5 -166.5t29 -189q0 -78 -17.5 -152t-55.5 -141.5t-92.5 -118.5t-134.5 -81t-176 -30q-185 0 -292 111v-531h-349v1434h308v-133zM862 492q0 96 -54 165.5t-157 69.5q-68 0 -120.5 -35.5t-77.5 -87.5 v-225q25 -52 77.5 -87.5t120.5 -35.5q103 0 157 70t54 166z" />
<glyph unicode="&#x441;" horiz-adv-x="1007" d="M55 471q0 112 32 204.5t86.5 155t128 105t154 61.5t167.5 19q161 0 303 -68v-297q-119 68 -250 68q-54 0 -99.5 -12t-82.5 -38t-58.5 -71t-21.5 -106q0 -110 74 -168t182 -58q151 0 266 66v-297q-158 -66 -338 -66q-106 0 -201 30.5t-172.5 89.5t-123.5 157.5t-46 224.5z " />
<glyph unicode="&#x442;" horiz-adv-x="983" d="M666 0h-349v696h-286v287h921v-287h-286v-696z" />
<glyph unicode="&#x443;" horiz-adv-x="1181" d="M608 397l201 586h358l-411 -1085q-144 -375 -451 -375q-74 0 -180 26v287q69 -16 133 -16q136 0 205 155l-463 1008h369z" />
<glyph unicode="&#x444;" horiz-adv-x="1560" d="M944 -451h-328v420q-249 11 -406 152t-157 371t156.5 370.5t406.5 151.5v420h328v-420q250 -11 406.5 -151.5t156.5 -370.5t-157 -371t-406 -152v-420zM401 492q0 -42 11.5 -80.5t35.5 -72.5t67.5 -56.5t100.5 -26.5v471q-57 -4 -100.5 -26.5t-67.5 -56.5t-35.5 -72 t-11.5 -80zM944 727v-471q57 4 100.5 26.5t67.5 56.5t35.5 72.5t11.5 80.5t-11.5 80t-35.5 72t-67.5 56.5t-100.5 26.5z" />
<glyph unicode="&#x445;" horiz-adv-x="1130" d="M727 983h393l-352 -494l371 -489h-394l-180 254l-180 -254h-393l370 489l-352 494h393l162 -258z" />
<glyph unicode="&#x446;" horiz-adv-x="1308" d="M1257 -256h-317v256h-836v983h349v-696h307v696h348v-707h149v-532z" />
<glyph unicode="&#x447;" horiz-adv-x="1126" d="M1022 0h-348v289q-104 -37 -230 -37q-78 0 -146 22.5t-122 67t-85.5 118.5t-31.5 169v354h349v-321q0 -64 35.5 -93.5t95.5 -29.5q74 0 135 24v420h348v-983z" />
<glyph unicode="&#x448;" horiz-adv-x="1662" d="M1559 0h-1455v983h349v-696h204v696h349v-696h204v696h349v-983z" />
<glyph unicode="&#x449;" horiz-adv-x="1759" d="M1708 -256h-317v256h-1287v983h349v-696h204v696h349v-696h204v696h349v-707h149v-532z" />
<glyph unicode="&#x44a;" horiz-adv-x="1255" d="M625 696h188q192 0 299 -98.5t107 -249.5t-107 -249.5t-299 -98.5h-537v717h-245v266h594v-287zM625 236h94q69 0 105 30.5t36 81.5t-36.5 82t-104.5 31h-94v-225z" />
<glyph unicode="&#x44b;" horiz-adv-x="1642" d="M641 0h-537v983h349v-287h188q192 0 299 -98.5t107 -249.5t-107 -249.5t-299 -98.5zM453 461v-225h94q69 0 105 30.5t36 81.5t-36.5 82t-104.5 31h-94zM1538 0h-348v983h348v-983z" />
<glyph unicode="&#x44c;" horiz-adv-x="1083" d="M641 0h-537v983h349v-287h188q192 0 299 -98.5t107 -249.5t-107 -249.5t-299 -98.5zM453 461v-225h94q69 0 105 30.5t36 81.5t-36.5 82t-104.5 31h-94z" />
<glyph unicode="&#x44d;" horiz-adv-x="1036" d="M981 471q0 -102 -32.5 -187.5t-86 -142.5t-124 -96.5t-145 -57.5t-151.5 -18q-120 0 -199.5 19t-172.5 67v277q61 -41 140 -63.5t157 -22.5q217 0 266 123h-379v245h379q-26 59 -95 91t-171 32q-71 0 -149 -23t-138 -63v277q146 86 332 86q89 0 170.5 -19t154.5 -61.5 t127 -104.5t85.5 -154t31.5 -204z" />
<glyph unicode="&#x44e;" horiz-adv-x="1726" d="M1671 492q0 -127 -44.5 -228t-121.5 -164.5t-176 -97t-211 -33.5q-122 0 -227 42t-184 131.5t-107 215.5h-147v-358h-349v983h349v-358h147q28 126 107 215.5t184 131.5t227 42q112 0 211 -33.5t176 -96.5t121.5 -164t44.5 -228zM924 492q0 -36 5 -67.5t19 -63t35 -54.5 t55.5 -37t79.5 -14q55 0 95 20.5t61 56.5t30 75t9 84t-9 84t-30 74.5t-61 56t-95 20.5q-45 0 -79.5 -14t-55.5 -36.5t-35 -54t-19 -63t-5 -67.5z" />
<glyph unicode="&#x44f;" horiz-adv-x="1153" d="M412 0h-387l243 315q-89 46 -136.5 128.5t-47.5 181.5q0 153 107 255.5t298 102.5h560v-983h-349v266h-96zM442 614q0 -49 34 -75.5t97 -26.5h127v205h-127q-63 0 -97 -26.5t-34 -76.5z" />
<glyph unicode="&#x451;" horiz-adv-x="1120" d="M969 1251q0 -72 -51 -123t-123 -51t-123 51t-51 123t51 123t123 51t123 -51t51 -123zM518 1251q0 -72 -51 -123t-123 -51t-123 51t-51 123t51 123t123 51t123 -51t51 -123zM55 492q0 111 33 201.5t86 149t122.5 98t138 56.5t136.5 17q103 0 187 -25.5t141 -70.5 t96.5 -105t56.5 -130.5t17 -145t-18 -150.5h-643q28 -77 113 -114t200 -37q159 0 283 47v-258q-156 -56 -365 -56q-122 0 -228 34.5t-185.5 99.5t-125 165t-45.5 224zM733 596q4 20 -0.5 46t-19.5 54t-49.5 47t-83.5 19q-74 0 -125.5 -46t-51.5 -120h330z" />
<glyph unicode="&#x2000;" horiz-adv-x="1003" />
<glyph unicode="&#x2001;" horiz-adv-x="2007" />
<glyph unicode="&#x2002;" horiz-adv-x="1003" />
<glyph unicode="&#x2003;" horiz-adv-x="2007" />
<glyph unicode="&#x2004;" horiz-adv-x="669" />
<glyph unicode="&#x2005;" horiz-adv-x="501" />
<glyph unicode="&#x2006;" horiz-adv-x="334" />
<glyph unicode="&#x2007;" horiz-adv-x="334" />
<glyph unicode="&#x2008;" horiz-adv-x="250" />
<glyph unicode="&#x2009;" horiz-adv-x="401" />
<glyph unicode="&#x200a;" horiz-adv-x="111" />
<glyph unicode="&#x2010;" horiz-adv-x="991" d="M106 637h779v-287h-779v287z" />
<glyph unicode="&#x2011;" horiz-adv-x="991" d="M106 637h779v-287h-779v287z" />
<glyph unicode="&#x2012;" horiz-adv-x="991" d="M106 637h779v-287h-779v287z" />
<glyph unicode="&#x2013;" horiz-adv-x="1196" d="M1090 350h-984v287h984v-287z" />
<glyph unicode="&#x2014;" horiz-adv-x="1605" d="M1499 350h-1393v287h1393v-287z" />
<glyph unicode="&#x2018;" horiz-adv-x="595" d="M414 840h-369l225 594h283z" />
<glyph unicode="&#x2019;" horiz-adv-x="585" d="M346 840h-283l140 594h368z" />
<glyph unicode="&#x201a;" horiz-adv-x="575" d="M281 -293h-283l139 594h369z" />
<glyph unicode="&#x201c;" horiz-adv-x="1046" d="M864 840h-368l225 594h283zM414 840h-369l225 594h283z" />
<glyph unicode="&#x201d;" horiz-adv-x="1036" d="M797 840h-283l139 594h369zM346 840h-283l140 594h368z" />
<glyph unicode="&#x201e;" horiz-adv-x="1026" d="M731 -293h-282l139 594h368zM281 -293h-283l139 594h369z" />
<glyph unicode="&#x2026;" horiz-adv-x="1689" d="M1618 172q0 -100 -59 -151.5t-150 -51.5q-90 0 -149.5 51.5t-59.5 151.5q0 99 59.5 150t149.5 51q91 0 150 -51t59 -150zM487 172q0 -100 -58.5 -151.5t-149.5 -51.5q-90 0 -149.5 51.5t-59.5 151.5q0 99 59.5 150t149.5 51q91 0 149.5 -51t58.5 -150zM1053 172 q0 -100 -59 -151.5t-150 -51.5q-90 0 -149.5 51.5t-59.5 151.5q0 99 59.5 150t149.5 51q91 0 150 -51t59 -150z" />
<glyph unicode="&#x202f;" horiz-adv-x="401" />
<glyph unicode="&#x2039;" horiz-adv-x="731" d="M674 82h-348l-271 379v61l271 379h348l-289 -409z" />
<glyph unicode="&#x203a;" horiz-adv-x="731" d="M406 82h-349l289 410l-289 409h349l270 -379v-61z" />
<glyph unicode="&#x205f;" horiz-adv-x="501" />
<glyph unicode="&#x20ac;" horiz-adv-x="1490" d="M1384 59q-191 -90 -407 -90q-124 0 -237.5 28.5t-211.5 85.5t-172 151.5t-110 216.5h-180v204h147v41v41h-147v205h182q36 120 109.5 213.5t170 151t208.5 87t233 29.5q224 0 415 -90v-358q-66 55 -158.5 86t-191.5 31q-109 0 -202 -38.5t-152 -111.5h430v-205h-506 q-2 -12 -2 -41t2 -41h506v-204h-432q58 -74 150.5 -111t201.5 -37q104 0 198.5 33t155.5 92v-369z" />
<glyph unicode="&#x2122;" horiz-adv-x="1411" d="M813 901h-192v533h161l172 -228l172 228h162v-533h-192v238l-90 -119h-103l-90 119v-238zM412 901h-193v361h-147v172h487v-172h-147v-361z" />
<glyph unicode="&#x25fc;" horiz-adv-x="983" d="M0 983h983v-983h-983v983z" />
</font>
</defs>
</svg>
